# Blender 5.1.2
# www.blender.org
o Tailor_LOD0_Plane.001
v -0.481109 0.018270 0.013101
v -0.488548 0.002311 0.004415
v -0.432395 -0.002066 0.022960
v -0.480272 0.022987 0.009135
v -0.406803 -0.060683 0.009891
v -0.332853 -0.047256 0.040490
v -0.135526 0.116412 0.036228
v -0.425587 0.034856 0.027347
v -0.409207 0.047135 0.030628
v -0.391398 0.034315 0.035975
v -0.397628 0.011971 0.035273
v -0.421672 0.012836 0.029615
v -0.443000 0.061332 0.006394
v -0.403082 0.063334 0.022752
v -0.405021 0.065134 0.020976
v -0.345098 0.057495 0.040638
v -0.303345 0.092945 0.025916
v -0.250295 0.013443 0.055142
v -0.068420 -0.080068 0.047503
v -0.125474 0.133662 0.004999
v -0.077825 0.128569 0.008705
v -0.074517 0.125573 -0.000398
v 0.105227 0.094034 0.011122
v -0.246695 -0.030702 0.055717
v -0.201214 0.012674 0.064865
v -0.212280 -0.123017 0.002151
v -0.043781 0.126566 0.002884
v 0.093988 -0.092773 0.008362
v 0.283191 0.023735 0.012266
v 0.477491 0.115659 0.001763
v 0.274685 -0.030773 0.007042
v 0.409785 -0.001785 0.000200
v -0.418727 -0.000669 0.000106
v -0.405521 0.069503 0.014757
v -0.485476 0.019046 -0.011352
v -0.480686 0.026755 -0.011025
v -0.170275 0.132036 -0.000000
v -0.424574 0.016637 -0.028876
v -0.425347 0.035323 -0.026998
v -0.409006 0.047036 -0.030827
v -0.391092 0.034222 -0.035709
v -0.401468 0.009759 -0.036343
v -0.359164 0.102082 -0.004263
v -0.163452 0.133090 -0.004972
v -0.403082 0.063334 -0.022752
v -0.405021 0.065134 -0.020976
v -0.348293 0.056251 -0.040350
v -0.069496 0.116760 -0.036475
v -0.340388 -0.060972 -0.034443
v -0.247268 0.002734 -0.059156
v -0.285431 0.105726 -0.023188
v -0.438239 -0.039268 -0.002265
v -0.077825 0.128569 -0.008705
v -0.142073 -0.077979 -0.049164
v 0.104017 -0.008600 -0.045947
v 0.052759 -0.092780 -0.025020
v -0.043781 0.126566 -0.002884
v -0.043002 0.124395 -0.008419
v 0.280562 -0.016811 -0.012201
v 0.272884 0.024717 -0.009867
v 0.488109 0.116523 -0.000000
v 0.486082 0.112963 -0.000000
v 0.462027 0.114926 -0.001307
v 0.476318 0.116806 -0.000000
v 0.490186 0.117710 -0.000000
v 0.488000 0.118746 -0.000000
v 0.487676 0.117556 -0.000000
v 0.476432 -0.117391 -0.000989
v 0.487611 -0.119859 0.000000
v 0.491842 -0.116680 0.000000
v 0.493243 -0.119586 0.000000
v 0.494305 -0.120855 0.000000
v 0.494693 -0.120998 0.000000
v -0.435445 -0.002319 -0.020851
v -0.405521 0.069503 -0.014757
v 0.477973 0.103275 -0.000000
v 0.485208 -0.108282 0.000000
v 0.494835 -0.118617 0.000000
v -0.416532 0.047319 0.027468
v -0.392122 0.045087 0.034980
v -0.396391 0.007430 0.033324
v -0.427478 0.015458 0.025221
v -0.413582 0.023634 -0.039786
v -0.407216 0.049958 -0.029457
v -0.390991 0.015176 -0.034179
v -0.423571 0.011404 -0.025723
v -0.396160 0.051748 0.030210
v -0.399504 0.031472 0.043142
v -0.403608 0.000444 0.028172
v -0.434966 0.026802 0.020670
v -0.394245 0.048685 -0.030385
v -0.408825 0.040168 -0.041174
v -0.401587 -0.000467 -0.028967
v -0.434280 0.030107 -0.020816
v -0.163021 0.131673 0.003062
v -0.136306 0.156760 -0.000292
v -0.133886 0.134089 0.007349
v -0.092653 0.152667 0.000201
v -0.100340 0.132250 0.003977
v -0.054743 0.142948 -0.000023
v -0.020249 0.117830 0.004251
v 0.073714 0.191695 -0.000189
v 0.139531 0.076955 0.010734
v 0.110331 0.118631 0.000797
v 0.216879 0.049470 -0.001020
v -0.240062 -0.112353 -0.001130
v -0.208983 -0.114071 0.004353
v -0.174134 -0.112159 0.000123
v -0.001020 -0.105501 -0.000734
v 0.070103 -0.182957 -0.000782
v 0.159681 -0.064507 0.004798
v 0.239852 -0.057285 -0.000099
v 0.215674 -0.043817 -0.000019
v -0.100340 0.132250 -0.003977
v -0.011895 0.116556 -0.007547
v 0.133611 0.078423 -0.009283
v -0.184683 -0.192846 0.000162
v 0.160326 -0.064304 -0.004190
v -0.111702 0.020025 0.091564
v -0.199175 -0.057236 0.066688
v -0.247895 0.013895 -0.056610
v -0.243135 -0.037741 -0.057126
v -0.104464 0.018488 -0.092835
vn -0.5339 0.8189 0.2105
vn -0.2690 0.5051 0.8201
vn -0.1538 0.9804 0.1234
vn -0.1543 0.3482 0.9246
vn -0.8832 -0.2097 0.4196
vn -0.3841 0.2629 0.8851
vn -0.3062 0.4136 0.8574
vn -0.6506 -0.7483 -0.1294
vn -0.4709 -0.8299 0.2992
vn -0.3732 -0.2982 0.8785
vn -0.1694 -0.0967 0.9808
vn -0.1814 -0.3680 0.9120
vn -0.1569 0.1452 0.9769
vn -0.1329 0.6267 0.7678
vn -0.0139 0.6076 0.7941
vn 0.0763 0.6458 0.7597
vn 0.0632 0.6164 0.7849
vn -0.1324 -0.9891 0.0646
vn 0.0216 0.9854 -0.1691
vn 0.2997 0.9068 0.2964
vn 0.0007 0.5029 0.8644
vn 0.9977 -0.0679 0.0088
vn -0.0020 0.3833 0.9236
vn -0.0000 -0.0000 -1.0000
vn 0.0402 -0.5288 -0.8478
vn -0.9366 0.3058 -0.1709
vn -0.1440 -0.9156 0.3755
vn -0.9039 0.4080 0.1281
vn 0.1297 -0.8517 0.5077
vn -0.9942 0.1049 0.0249
vn -0.2057 -0.3659 -0.9076
vn -0.9572 0.2893 -0.0010
vn 0.7947 0.6069 0.0098
vn 0.9715 0.2351 -0.0292
vn -0.0000 -0.0000 1.0000
vn 0.7296 -0.6325 0.2601
vn -0.2889 0.0892 -0.9532
vn -0.3098 -0.1857 -0.9325
vn -0.8897 -0.0388 -0.4548
vn -0.3232 0.9448 -0.0544
vn -0.0784 0.8809 0.4668
vn -0.5192 0.4525 -0.7251
vn -0.1490 0.2961 -0.9435
vn -0.2664 0.4099 -0.8724
vn -0.2499 -0.5402 -0.8036
vn -0.2431 -0.2094 -0.9471
vn -0.0994 0.8006 -0.5909
vn 0.1945 0.8253 -0.5301
vn 0.0802 0.6203 -0.7802
vn -0.2657 0.8495 -0.4557
vn 0.0033 -0.4586 -0.8886
vn 0.0631 -0.0041 -0.9980
vn -0.2648 0.9158 -0.3021
vn 0.2362 0.2197 -0.9465
vn -0.1525 0.8600 0.4870
vn -0.0494 -0.0424 -0.9979
vn -0.2829 0.1287 -0.9505
vn -0.2458 -0.9171 -0.3138
vn 0.0599 -0.2977 -0.9528
vn -0.8472 0.2805 -0.4513
vn -0.8497 -0.2710 -0.4523
vn 0.8182 -0.5681 -0.0884
vn -0.0946 -0.8330 -0.5451
vn 0.0383 0.0302 -0.9988
vn -0.0289 -0.1940 -0.9806
vn -0.1450 0.4013 -0.9044
vn -0.1390 -0.3075 -0.9413
vn -0.6279 0.0141 -0.7782
vn -0.0353 0.9994 0.0071
vn -0.1142 0.9925 -0.0447
vn 0.0974 0.7475 0.6571
vn 0.4232 0.9043 0.0562
vn 0.1960 0.9796 0.0442
vn 0.5366 0.4159 0.7342
vn 0.2182 0.9755 0.0270
vn -0.5438 0.7648 0.3455
vn -0.2403 -0.9707 -0.0062
vn 0.0481 -0.0690 0.9965
vn -0.7366 -0.6763 -0.0076
vn 0.9974 0.0719 -0.0033
vn 0.4866 0.8736 -0.0031
vn 0.0780 0.7539 -0.6523
vn 0.4291 0.7803 -0.4550
vn 0.2021 0.3057 -0.9304
vn 0.5438 0.8386 -0.0334
vn -0.1186 -0.2241 0.9673
vn 0.0301 -0.9995 -0.0021
vn 0.9253 0.2748 0.2613
vn 0.3053 0.9208 0.2427
vn -0.0000 -0.0000 -0.0000
vn -0.8832 -0.4309 0.1853
vn -0.3282 0.6593 0.6764
vn -0.2950 -0.1591 0.9422
vn -0.5213 0.5819 -0.6242
vn -0.1361 0.0732 0.9880
vn 0.2052 0.9494 -0.2379
vn 0.1413 0.8746 -0.4638
vn 0.0963 0.9923 -0.0785
vn 0.0755 -0.4803 0.8739
vn 0.2664 -0.9090 0.3205
vn 0.1570 -0.0522 -0.9862
vn 0.2290 0.4289 -0.8738
vn -0.3276 -0.2499 0.9112
vn 0.3313 -0.0741 -0.9406
vn -0.9151 0.2878 0.2824
vn 0.0991 -0.9883 0.1157
vn 0.9995 0.0113 -0.0306
vn -0.7843 0.5792 0.2223
vn -0.9543 -0.2857 0.0873
vn 0.1448 -0.7582 -0.6357
vn -0.2685 0.9110 0.3129
vn -0.1623 0.1087 -0.9807
vn -0.0754 0.0267 -0.9968
vn -0.0232 0.5438 -0.8389
vn 0.2232 0.8787 -0.4219
vn 0.3434 0.9249 0.1631
vn 0.1392 -0.0391 -0.9895
vn 0.1360 0.6622 -0.7369
vn 0.2159 0.0306 -0.9759
vn -0.2734 0.0095 0.9618
vn -0.2690 0.0038 0.9631
vn -0.2555 -0.0136 0.9667
vn -0.6206 -0.3175 -0.7169
vn -0.3906 -0.0196 -0.9204
vn 0.1671 -0.1946 -0.9665
vn 0.0396 0.5327 0.8454
vn 0.3775 0.0450 0.9249
vn -0.1377 -0.4156 0.8991
vn -0.5352 -0.0005 0.8447
vn 0.0633 0.3248 0.9437
vn 0.2200 0.3694 0.9029
vn -0.0565 -0.0704 0.9959
vn -0.7651 -0.5322 -0.3624
vn 0.2538 -0.9671 -0.0149
vn 0.9476 -0.1240 -0.2943
vn 0.4725 0.8578 0.2021
vn 0.0410 -0.0478 -0.9980
vn -0.4124 0.5416 -0.7325
vn -0.5654 0.6670 0.4852
vn -0.2328 0.7894 0.5680
vn 0.0105 0.6036 0.7972
vn -0.2464 -0.8020 -0.5442
vn -0.0383 0.6186 0.7848
vn -0.1722 0.5514 0.8163
vn 0.0162 0.9377 0.3469
vn 0.1087 0.9920 -0.0648
vn 0.2083 0.9436 0.2574
vn 0.2685 -0.0299 -0.9628
vn 0.7968 0.5617 -0.2229
vn -0.1722 0.5514 -0.8163
vn -0.0383 0.6186 -0.7848
vn -0.2463 -0.8019 0.5443
vn 0.1362 0.1276 -0.9824
vn 0.1679 -0.0306 -0.9853
vn 0.2805 0.3270 -0.9024
vn 0.0660 0.9587 -0.2767
vn 0.9174 -0.3277 -0.2257
vn -0.2912 0.0326 0.9561
vn -0.2216 0.4022 -0.8883
vn 0.2817 0.5306 -0.7995
vt 0.955672 0.874113
vt 0.916566 0.840748
vt 0.921789 0.840962
vt 0.859937 0.796955
vt 0.956456 0.935954
vt 0.908837 0.881146
vt 0.904844 0.859650
vt 0.860906 0.967942
vt 0.811960 0.945467
vt 0.887097 0.929720
vt 0.869502 0.876436
vt 0.762378 0.868667
vt 0.743763 0.753250
vt 0.857557 0.732975
vt 0.732497 0.577498
vt 0.715983 0.493056
vt 0.756157 0.530232
vt 0.584426 0.840706
vt 0.686967 0.464018
vt 0.532218 0.373640
vt 0.323899 0.267804
vt 0.169944 0.159070
vt 0.246881 0.026240
vt 0.254992 0.020748
vt 0.242044 0.011126
vt 0.241546 0.005934
vt 0.016497 0.226099
vt 0.016665 0.213497
vt 0.271026 0.328569
vt 0.705988 0.313054
vt 0.784541 0.225299
vt 0.801600 0.276167
vt 0.804685 0.272876
vt 0.022899 0.210452
vt 0.019143 0.198936
vt 0.235653 0.014561
vt 0.235406 0.021428
vt 0.910131 0.881556
vt 0.894501 0.894649
vt 0.946234 0.932446
vt 0.910977 0.762090
vt 0.914096 0.857077
vt 0.862679 0.797439
vt 0.755018 0.879259
vt 0.872089 0.880967
vt 0.842950 0.702642
vt 0.680637 0.527571
vt 0.788434 0.563847
vt 0.609620 0.744404
vt 0.237372 0.012803
vt 0.257029 0.042986
vt 0.240474 0.012720
vt 0.032878 0.226056
vt 0.276889 0.308589
vt 0.012251 0.201485
vt 0.008795 0.216078
vt 0.078337 0.584864
vt 0.030387 0.605210
vt 0.093969 0.628369
vt 0.447629 0.827417
vt 0.379329 0.739712
vt 0.441297 0.715104
vt 0.539255 0.816627
vt 0.525462 0.887248
vt 0.547103 0.824159
vt 0.560994 0.838038
vt 0.624394 0.233960
vt 0.571107 0.343085
vt 0.400027 0.234558
vt 0.838431 0.579805
vt 0.974250 0.415875
vt 0.981822 0.681058
vt 0.942828 0.293046
vt 0.983939 0.318661
vt 0.266962 0.574516
vt 0.235458 0.478575
vt 0.318686 0.527219
vt 0.217131 0.387252
vt 0.283438 0.422427
vt 0.276360 0.396827
vt 0.271358 0.379951
vt 0.748803 0.182275
vt 0.942319 0.220346
vt 0.819158 0.201343
vt 0.634627 0.263896
vt 0.863675 0.474629
vt 0.766159 0.491738
vt 0.869501 0.406421
vt 0.210408 0.013233
vt 0.112960 0.158868
vt 0.033825 0.141605
vt 0.037960 0.161413
vt 0.011911 0.093928
vt 0.011226 0.093698
vt 0.046479 0.162306
vt 0.208228 0.015786
vt 0.930468 0.980548
vt 0.941194 0.968479
vt 0.889395 0.894629
vt 0.934422 0.970657
vt 0.881851 0.856057
vt 0.737632 0.510052
vt 0.720799 0.488307
vt 0.708677 0.783368
vt 0.528353 0.673467
vt 0.679800 0.716802
vt 0.365352 0.544204
vt 0.019903 0.212501
vt 0.902262 0.275997
vt 0.891043 0.277486
vt 0.722773 0.309446
vt 0.889237 0.930045
vt 0.413870 0.577501
vt 0.800518 0.570687
vt 0.901055 0.855626
vt 0.881856 0.855861
vt 0.727533 0.754006
vt 0.737632 0.510051
vt 0.683947 0.467326
vt 0.461798 0.483253
vt 0.334584 0.273231
vt 0.101281 0.314927
vt 0.102966 0.466673
vt 0.013302 0.377843
vt 0.078949 0.462291
vt 0.092179 0.399700
vt 0.026741 0.345998
vt 0.084421 0.566125
vt 0.063671 0.578585
vt 0.031883 0.604181
vt 0.090446 0.627197
vt 0.428967 0.699215
vt 0.649989 0.155605
vt 0.764078 0.093096
vt 0.046525 0.720362
vt 0.047700 0.669185
vt 0.308046 0.643132
vt 0.070339 0.933138
vt 0.297464 0.473087
vt 0.292749 0.453756
vt 0.257975 0.342545
vt 0.280020 0.017806
vt 0.641857 0.025253
vt 0.411010 0.202823
vt 0.772223 0.013079
vt 0.820809 0.073774
vt 0.451714 0.292112
vt 0.406197 0.971233
vt 0.470231 0.959746
vt 0.471186 0.966900
vt 0.604500 0.324336
vt 0.880122 0.381702
vt 0.605191 0.326273
vt 0.851882 0.476371
vt 0.378478 0.648465
vt 0.362695 0.722713
vt 0.788242 0.563648
vt 0.591157 0.972169
vt 0.533765 0.980042
vt 0.536743 0.968404
vt 0.179628 0.378311
vt 0.158974 0.350669
vt 0.083176 0.564669
vt 0.453087 0.731579
vt 0.466357 0.748284
vt 0.483619 0.763601
vt 0.500041 0.778342
vt 0.317381 0.616397
vt 0.342990 0.606991
vt 0.302265 0.493339
vt 0.309878 0.511006
vt 0.911821 0.031708
vt 0.302826 0.644740
vt 0.337401 0.891009
s 1
f 13/1/1 14/2/2 15/3/3
f 15/3/3 16/4/4 13/1/1
f 13/1/1 4/5/5 8/6/6
f 13/1/1 9/7/7 14/2/2
f 52/8/8 5/9/9 3/10/10
f 11/11/11 6/12/12 16/4/4
f 16/4/4 6/12/12 18/13/13
f 17/14/14 18/13/13 7/15/15
f 7/15/15 21/16/16 20/17/17
f 26/18/18 6/12/12 5/9/9
f 27/19/19 21/16/16 23/20/20
f 29/21/21 32/22/22 30/23/23
f 64/24/24 66/25/25 65/26/26
f 69/27/27 72/28/28 31/29/29
f 4/30/5 33/31/30 3/32/10
f 33/31/30 74/33/31 3/32/10
f 70/34/32 77/35/33 31/29/29
f 62/36/34 76/37/35 65/26/36
f 39/38/37 38/39/38 36/40/39
f 36/40/39 13/1/1 43/41/40
f 40/42/41 39/38/37 36/40/39
f 43/41/40 46/3/42 36/40/39
f 47/43/43 36/40/39 45/2/44
f 38/39/38 49/44/45 52/8/8
f 47/43/43 49/44/45 42/45/46
f 42/45/46 49/44/45 38/39/38
f 51/46/47 47/43/43 43/41/40
f 53/16/48 48/47/49 44/48/50
f 54/49/51 26/18/18 49/44/45
f 61/50/52 63/51/53 67/52/54
f 64/24/55 66/25/56 63/51/53
f 72/28/57 69/27/27 68/53/58
f 59/54/59 32/22/22 68/53/58
f 77/35/33 70/34/60 68/53/58
f 62/36/61 76/37/62 63/51/53
f 72/28/63 78/55/64 73/56/65
f 92/57/66 93/58/67 94/59/68
f 98/60/69 96/61/70 20/62/17
f 98/60/69 21/63/71 100/64/72
f 21/65/71 27/66/73 100/64/72
f 104/67/74 102/68/75 101/69/76
f 110/70/77 111/71/78 109/72/79
f 112/73/80 113/74/81 111/71/78
f 96/75/70 98/76/69 44/77/50
f 98/76/69 100/78/72 53/79/82
f 53/80/82 100/78/72 58/81/83
f 116/82/84 102/83/75 104/84/74
f 104/84/74 105/85/85 116/82/84
f 24/86/86 120/87/87 18/88/13
f 119/89/88 120/90/87 25/91/89
f 120/90/87 24/92/86 25/91/89
f 18/93/13 119/89/88 25/91/89
f 121/94/90 122/95/90 123/96/90
f 2/97/91 3/10/10 1/98/92
f 16/4/4 14/2/2 9/7/7
f 8/6/6 9/7/7 13/1/1
f 4/5/5 12/99/93 8/6/6
f 2/97/91 1/98/92 35/100/94
f 16/4/4 9/7/7 10/101/95
f 17/14/14 16/4/4 18/13/13
f 12/99/93 5/9/9 6/12/12
f 11/11/11 12/99/93 6/12/12
f 3/10/10 5/9/9 12/99/93
f 99/102/96 21/16/97 22/103/98
f 24/104/86 18/13/13 6/12/12
f 43/41/40 17/14/14 7/15/15
f 6/12/12 26/18/18 19/105/99
f 7/15/15 18/13/13 25/106/89
f 51/46/47 43/41/40 7/15/15
f 27/19/19 22/103/98 21/16/97
f 28/107/100 19/105/99 26/18/18
f 22/103/98 27/19/19 23/20/20
f 23/20/20 7/15/15 29/21/21
f 29/21/21 25/106/89 19/105/99
f 7/15/15 23/20/20 21/16/16
f 31/29/29 29/21/21 19/105/99
f 30/23/23 63/51/53 29/21/21
f 61/50/101 67/52/102 30/23/23
f 64/24/55 30/23/23 66/25/103
f 31/29/29 68/53/58 69/27/27
f 71/108/104 31/29/29 72/28/28
f 69/27/35 73/56/105 72/28/106
f 31/29/29 71/108/104 70/34/32
f 1/109/92 74/33/31 35/110/94
f 4/30/5 36/111/39 33/31/30
f 70/34/107 78/55/108 77/35/35
f 62/36/109 30/23/23 76/37/62
f 74/112/31 36/40/39 38/39/38
f 52/8/8 2/97/91 35/100/94
f 54/49/51 56/113/110 26/18/18
f 51/46/47 37/114/111 44/48/50
f 36/40/39 46/3/42 45/2/44
f 36/40/39 47/43/43 40/42/41
f 40/115/41 47/43/43 41/116/112
f 5/9/9 49/44/45 26/18/18
f 74/112/31 38/39/38 52/8/8
f 51/46/47 50/117/113 47/43/43
f 49/44/45 47/43/43 50/117/113
f 114/118/114 53/16/48 44/48/50
f 23/20/20 58/119/115 57/19/116
f 50/117/113 51/46/47 48/47/49
f 56/113/110 31/29/29 28/107/100
f 50/117/113 48/47/49 55/120/117
f 56/113/110 28/107/100 26/18/18
f 48/47/49 23/20/20 60/121/118
f 62/36/61 63/51/53 61/50/52
f 29/21/21 63/51/53 60/121/118
f 67/52/54 63/51/53 66/25/56
f 59/54/59 68/53/58 31/29/29
f 68/53/58 71/108/119 72/28/57
f 70/34/60 71/108/119 68/53/58
f 60/121/118 32/22/22 59/54/59
f 32/22/22 77/35/33 68/53/58
f 32/22/22 63/51/53 76/37/62
f 80/122/120 82/123/121 81/124/122
f 86/125/123 83/126/124 85/127/125
f 87/128/126 88/129/127 89/130/128
f 88/129/127 90/131/129 89/130/128
f 87/128/126 90/131/129 88/129/127
f 96/61/70 97/132/130 20/62/17
f 103/133/131 104/67/74 101/69/76
f 104/67/74 103/133/131 105/134/85
f 107/135/132 106/136/133 117/137/134
f 108/138/135 107/135/132 117/137/134
f 112/73/80 111/71/78 110/70/77
f 114/139/114 98/76/69 53/140/82
f 58/81/83 100/78/72 57/141/136
f 109/142/79 118/143/137 110/144/77
f 118/143/137 113/145/81 112/146/80
f 101/69/76 102/68/75 115/147/138
f 100/148/72 27/149/73 57/150/136
f 120/87/87 119/151/88 18/88/13
f 121/152/90 123/153/90 122/154/90
f 95/155/139 97/132/130 96/156/70
f 95/157/140 7/15/15 20/17/17
f 3/10/10 2/97/91 52/8/8
f 43/41/40 47/43/43 45/2/44 46/3/42
f 16/4/4 15/3/3 14/2/2
f 16/4/4 17/14/14 43/41/40
f 3/10/10 12/99/93 4/5/5
f 11/11/11 16/4/4 10/101/95
f 99/102/141 20/17/17 21/16/16
f 43/41/40 13/1/1 16/4/4
f 7/15/15 95/157/140 37/114/111 51/46/47
f 24/104/86 6/12/12 19/105/99
f 24/104/86 19/105/99 25/106/89
f 29/21/21 7/15/15 25/106/89
f 28/107/100 31/29/29 19/105/99
f 62/36/109 61/50/101 30/23/23
f 67/52/102 66/25/103 30/23/23
f 30/23/23 64/24/55 63/51/53
f 29/21/21 31/29/29 32/22/22
f 74/33/31 1/109/92 3/32/10
f 34/158/142 14/159/143 15/160/144
f 32/22/22 31/29/29 77/35/33
f 32/22/22 76/37/62 30/23/23
f 52/8/8 35/100/94 74/112/31
f 36/40/39 4/5/5 13/1/1
f 53/16/145 22/103/98 57/19/116 58/119/146
f 41/116/112 47/43/43 42/45/46
f 114/118/147 22/103/98 53/16/145
f 49/44/45 5/9/9 52/8/8
f 23/20/20 48/47/49 58/119/115
f 54/49/51 49/44/45 50/117/113
f 60/121/118 59/54/59 55/120/117 48/47/49
f 54/49/51 50/117/113 55/120/117
f 22/103/98 23/20/20 57/19/116
f 48/47/49 53/16/48 58/119/115
f 59/54/59 56/113/110 55/120/117
f 78/55/64 72/28/63 71/108/148 70/34/149
f 31/29/29 56/113/110 59/54/59
f 60/121/118 23/20/20 29/21/21
f 32/22/22 60/121/118 63/51/53
f 54/49/51 55/120/117 56/113/110
f 46/160/150 45/159/151 75/158/152
f 74/33/31 33/31/30 36/111/39
f 65/26/153 61/50/154 67/52/155 66/25/156
f 65/26/153 62/36/157 61/50/154
f 79/161/158 82/123/121 80/122/120
f 85/127/125 83/126/124 84/162/159
f 86/125/123 84/162/159 83/126/124
f 91/163/160 93/58/67 92/57/66
f 94/59/68 91/163/160 92/57/66
f 98/60/69 20/164/17 99/165/141
f 99/166/141 21/167/71 98/60/69
f 95/168/139 96/75/70 44/169/50
f 114/170/114 44/171/50 98/76/69
f 102/83/75 116/82/84 115/172/138
f 117/173/134 106/174/133 108/138/135
f 112/146/80 110/144/77 118/143/137
f 48/47/49 51/46/47 44/48/50
