# Blender 5.1.2
# www.blender.org
o Nurse_Shark_Quad
v 0.005692 0.594232 -1.335728
v 0.003054 0.810289 0.033283
v -0.008714 0.593596 -1.327617
v -0.006329 0.120048 -1.288466
v -0.027566 0.432830 -1.037321
v -0.007870 0.461123 -0.657555
v -0.004669 0.508319 -0.667108
v -0.030247 0.270283 -0.615139
v -0.014795 0.126253 -0.633366
v -0.029035 0.447303 -0.621560
v -0.016712 0.077904 -0.409437
v -0.016371 0.112162 -0.394696
v -0.048063 0.182757 -0.102035
v -0.021895 0.541242 -0.025997
v -0.175213 0.223185 0.239563
v -0.776815 0.015174 0.231428
v -0.028631 0.578088 0.254147
v -0.155632 0.129409 0.333832
v -0.088712 0.174541 1.322722
v 0.001978 0.604880 -1.316569
v -0.014926 0.438034 -1.124606
v -0.020076 0.274768 -0.677773
v -0.016033 0.243445 -0.638749
v -0.031041 0.192634 -0.296310
v -0.202006 0.172923 0.246398
v -0.221750 0.264945 0.666726
v -0.019224 0.274304 1.377357
v -0.131636 0.362020 1.040100
v -0.204661 0.313004 1.024032
v -0.227428 0.157182 0.851088
v -0.138416 0.091525 0.641867
v 0.014928 0.080112 0.735503
v -0.003604 0.806705 0.028985
v -0.226634 0.200011 0.997050
v -0.131447 0.257931 1.307163
v -0.172748 0.241781 1.238373
v -0.220673 0.257937 1.053293
v -0.218241 0.333222 0.874751
v -0.251029 0.222452 0.843775
v -0.355997 0.134730 0.580675
v -0.484575 0.110043 0.525902
v -0.267763 0.194451 0.468211
v -0.671442 0.040658 0.238466
v -0.774370 0.000840 0.231078
v -0.746636 0.016196 0.211588
v -0.258295 0.107683 0.589321
v -0.163430 0.089156 0.541458
v -0.068977 0.078828 0.489758
v -0.016400 0.587613 0.342265
v -0.052425 0.553577 0.157936
v -0.130323 0.496179 0.341786
v -0.169558 0.437366 0.494576
v -0.119332 0.471867 -0.021935
v -0.170539 0.318758 0.092946
v -0.162305 0.356158 -0.010494
v -0.132750 0.219332 0.011396
v -0.024480 0.180512 -0.423274
v -0.018124 0.148260 -0.462791
v -0.018716 0.134182 -0.562439
v -0.001814 0.124050 -0.626506
v -0.009096 0.175999 -0.609361
v 0.003162 0.063918 -0.383976
v -0.018446 0.069029 -0.326659
v -0.087544 0.204227 -0.097956
v -0.164852 0.242206 0.174743
v -0.010084 0.556230 0.441031
v -0.097295 0.097918 1.079217
v -0.136636 0.134954 1.148156
v -0.044845 0.371089 1.130569
v -0.226720 0.273353 0.779435
v -0.261968 0.199263 0.749286
v -0.258123 0.154730 0.684852
v -0.299018 0.163027 0.639612
v -0.269317 0.201821 0.667274
v -0.342923 0.163187 0.579467
v -0.548261 0.065069 0.497511
v -0.350057 0.097433 0.549648
v -0.370824 0.096157 0.504000
v -0.005886 0.704699 0.262479
v -0.127219 0.253022 -0.240646
v -0.007039 0.109614 -0.404430
v 0.002101 0.086590 -0.242764
v -0.016639 0.121390 -0.168776
v -0.011968 0.506400 -1.004209
v -0.001675 0.569943 -1.224465
v -0.006113 0.476919 -1.202342
v -0.019264 0.433567 -0.821458
v -0.120054 0.185963 0.043750
v -0.192145 0.359701 0.471220
v -0.158378 0.222473 1.287354
v -0.027071 0.251282 1.396481
v -0.036889 0.406306 1.000747
v -0.195704 0.374010 0.838570
v -0.216837 0.346528 0.789581
v -0.207871 0.265074 0.608997
v -0.197749 0.235428 0.545729
v -0.564648 0.092770 0.319849
v -0.470371 0.103514 0.290274
v -0.587407 0.074527 0.264103
v -0.616284 0.048502 0.291294
v -0.773210 0.008463 0.294719
v -0.298550 0.121217 0.445764
v -0.015928 0.502838 -0.262923
v -0.101532 0.406656 -0.552566
v -0.129057 0.387834 -0.430374
v -0.114220 0.325451 -0.589015
v -0.113577 0.282366 -0.393989
v -0.123322 0.354874 -0.605663
v -0.007560 0.302107 -0.780906
v -0.014533 0.269653 -0.846058
v 0.000180 0.181776 -1.216869
v 0.004534 0.536413 -0.076131
v 0.004321 0.618116 0.050171
v -0.005337 0.652871 0.051075
v -0.145245 0.364048 -0.318460
v -0.059059 0.238370 -0.389385
v -0.156050 0.391207 -0.034639
v -0.014866 0.579483 0.026301
v -0.007726 0.783839 0.154218
v -0.007105 0.186314 -0.051886
v -0.209474 0.148542 0.277803
v -0.322547 0.129439 0.324658
v -0.558318 0.054565 0.467185
v -0.728157 0.014085 0.354782
v -0.750360 0.025247 0.341305
v -0.209738 0.188928 0.288129
v -0.091865 0.491196 0.589985
v -0.070485 0.099776 1.140755
v -0.081191 0.225115 1.371918
v -0.194823 0.397848 0.666766
v -0.195606 0.220139 0.470607
v -0.203975 0.194311 0.415670
v -0.262504 0.175068 0.347114
v -0.301841 0.139064 0.314137
v -0.274008 0.159265 0.314823
v -0.205414 0.356303 0.558395
v 0.026138 0.239073 1.396216
v 0.009421 0.130193 1.268355
v 0.010154 0.185439 1.363261
v -0.636027 0.058111 0.449957
v -0.045487 0.313273 -0.795063
v -0.002643 0.345701 -1.140735
v -0.023761 0.301063 -1.072011
v -0.016302 0.509501 -0.640061
v -0.024571 0.463550 -0.545797
v -0.127351 0.165247 0.211414
v -0.056271 0.156274 0.204393
v -0.003444 0.472514 -0.489025
v -0.084161 0.357097 -0.867268
v -0.083697 0.373955 -0.835600
v -0.041984 0.296415 -0.885021
v -0.021410 0.192176 -1.019479
v -0.037856 0.422088 -0.902135
v -0.007282 0.432553 -0.752266
v -0.045976 0.344385 -1.013356
v -0.036616 0.098287 0.328123
v 0.021433 0.233010 -1.040616
v 0.024662 0.423738 -1.104491
v 0.020844 0.264154 -0.612861
v 0.036027 0.188614 -0.170950
v 0.008368 0.554024 -0.014164
v 0.019952 0.601096 0.165253
v 0.122879 0.114323 0.315951
v 0.150192 0.093871 0.654796
v 0.004723 0.118443 -1.279382
v 0.019728 0.296192 -1.099813
v 0.007177 0.505494 -0.646070
v 0.000674 0.439586 -0.687886
v 0.026289 0.287160 -0.693621
v 0.026574 0.442114 -0.615086
v 0.011333 0.469140 -0.557207
v 0.006960 0.160383 -0.360986
v 0.014970 0.150782 -0.164761
v 0.023173 0.182142 -0.091623
v 0.078430 0.197367 -0.063106
v 0.037340 0.563528 0.156122
v 0.177546 0.239318 0.380953
v 0.011650 0.591797 0.340790
v 0.056322 0.364979 1.122771
v 0.154116 0.256598 1.255417
v 0.233206 0.277029 1.008465
v 0.229086 0.208582 1.011204
v 0.241196 0.163835 0.756617
v 0.108641 0.107153 1.103433
v 0.037387 0.083619 0.975014
v 0.144640 0.134413 1.111685
v 0.189929 0.244431 1.169294
v 0.149839 0.229048 1.293751
v 0.050309 0.262384 1.381750
v 0.213923 0.316277 0.996805
v 0.258571 0.232490 0.853006
v 0.237099 0.107791 0.598572
v 0.250678 0.155163 0.682588
v 0.348134 0.143259 0.585963
v 0.370877 0.151038 0.567170
v 0.721995 0.035437 0.373819
v 0.547533 0.092516 0.320587
v 0.733822 0.015858 0.211659
v 0.752217 0.003237 0.224835
v 0.772758 0.006424 0.230587
v 0.063149 0.076651 0.459040
v 0.126574 0.495610 0.319518
v 0.115024 0.497110 0.113373
v 0.168312 0.433004 0.437581
v 0.169287 0.346925 0.050541
v 0.159800 0.368828 -0.079556
v 0.121687 0.225059 -0.097589
v 0.032192 0.212969 -0.332566
v -0.002600 0.148002 -0.458793
v 0.006286 0.163850 -0.588847
v 0.002571 0.243004 -0.637055
v 0.002026 0.077923 -0.414190
v 0.159960 0.234028 0.152547
v 0.021851 0.559651 0.381443
v 0.186356 0.361082 0.934899
v 0.254946 0.215874 0.768802
v 0.282018 0.174899 0.656359
v 0.268427 0.195461 0.529846
v 0.761425 0.021130 0.258105
v 0.330003 0.116183 0.577556
v 0.372360 0.085494 0.523756
v 0.179793 0.091594 0.532122
v 0.018424 0.226303 -0.503725
v 0.005288 0.525817 -1.075705
v 0.010837 0.587446 -1.304009
v 0.011960 0.492550 -1.210085
v 0.137347 0.195717 0.050963
v 0.149815 0.190884 1.247909
v 0.068118 0.393040 1.004848
v 0.218103 0.356409 0.790474
v 0.212511 0.240740 0.607268
v 0.194436 0.233283 0.525023
v 0.261635 0.205386 0.665371
v 0.241066 0.174205 0.371013
v 0.430429 0.134668 0.391207
v 0.470381 0.075723 0.289363
v 0.609759 0.052989 0.257809
v 0.629521 0.037059 0.262045
v 0.701358 0.019826 0.378673
v 0.605929 0.071932 0.468151
v 0.104622 0.434307 -0.354008
v 0.131525 0.375128 -0.423116
v 0.098604 0.318329 -0.620692
v 0.013293 0.301684 -0.803524
v 0.004701 0.225870 -0.922896
v 0.118209 0.269621 -0.336004
v 0.133250 0.446109 -0.038967
v 0.009483 0.771738 0.172110
v 0.011176 0.432745 -0.827330
v 0.156430 0.164021 0.127477
v 0.184810 0.161952 0.222742
v 0.217485 0.144580 0.298204
v 0.218622 0.132855 0.342883
v 0.613049 0.050198 0.462937
v 0.770890 0.010955 0.302610
v 0.482999 0.067400 0.337912
v 0.255618 0.126425 0.330656
v 0.253119 0.135089 0.325442
v 0.194322 0.190778 0.323868
v 0.184471 0.367151 0.390759
v 0.012324 0.440028 0.898067
v 0.103324 0.167942 1.291017
v 0.089573 0.214065 1.358266
v 0.204161 0.371048 0.684090
v 0.201686 0.376325 0.609205
v 0.202774 0.344976 0.522893
v 0.067350 0.097410 1.118231
v 0.108246 0.474633 0.618989
v 0.165191 0.430954 0.627640
v 0.479932 0.061046 0.468773
v 0.336759 0.112667 0.447748
v 0.005457 0.360234 -1.136944
v -0.002252 0.110655 -1.238891
v 0.057156 0.364242 -1.012639
v 0.025637 0.443255 -0.961591
v 0.105153 0.160340 0.203494
v 0.085791 0.389756 -0.719517
v 0.108043 0.358876 -0.728199
v 0.037844 0.310146 -0.847142
v 0.001709 0.164249 -1.031486
v 0.040575 0.309138 -0.935827
v 0.072943 0.383750 -0.890165
vn -0.7290 -0.6750 0.1141
vn -0.5563 -0.7684 0.3163
vn -0.1997 -0.9758 0.0885
vn -0.3166 -0.9427 0.1055
vn -0.8085 0.4463 -0.3836
vn 0.1054 -0.0059 -0.9944
vn -0.5099 -0.7656 -0.3923
vn -0.9598 -0.2725 -0.0678
vn -0.9556 -0.1476 -0.2552
vn -0.6106 -0.7864 0.0938
vn 0.5935 -0.6302 -0.5006
vn 0.6797 -0.7019 -0.2128
vn -0.7145 -0.6988 0.0331
vn -0.7411 0.6712 0.0184
vn -0.1078 0.9731 0.2035
vn -0.8668 0.4968 0.0431
vn -0.6392 -0.7277 0.2489
vn -0.9458 0.1652 0.2796
vn -0.9178 -0.3481 0.1911
vn 0.2651 -0.0907 -0.9599
vn -0.8172 0.3079 0.4872
vn -0.2785 0.9552 -0.1004
vn -0.4865 0.5905 0.6439
vn -0.2742 -0.5517 0.7877
vn -0.4623 -0.2261 0.8574
vn -0.0775 -0.9070 0.4140
vn 0.1722 -0.9794 -0.1052
vn -0.1024 -0.9938 -0.0424
vn -0.6697 0.7399 -0.0638
vn -0.7674 0.6332 -0.1007
vn -0.9895 0.0237 -0.1429
vn -0.8909 0.4278 0.1526
vn -0.6743 -0.3749 -0.6362
vn -0.5372 0.8139 0.2214
vn 0.0070 -0.9998 0.0165
vn 0.0697 -0.9966 0.0435
vn -0.8862 -0.3668 0.2829
vn -0.6458 0.1792 0.7422
vn -0.7999 -0.5856 -0.1314
vn -0.5718 -0.8204 -0.0008
vn -0.3348 -0.8792 -0.3390
vn -0.9959 0.0382 -0.0820
vn -0.9570 0.2844 -0.0565
vn -0.9015 0.4232 -0.0908
vn -0.8053 -0.5628 -0.1862
vn -0.7352 -0.6621 -0.1451
vn -0.8115 -0.5657 -0.1464
vn -0.5143 0.8149 0.2674
vn -0.2301 0.6920 0.6842
vn -0.4087 0.4351 -0.8023
vn 0.3301 -0.9224 -0.2006
vn 0.1842 -0.9466 -0.2647
vn -0.2457 -0.8553 0.4562
vn -0.4189 -0.7400 0.5263
vn -0.8746 -0.1766 0.4515
vn 0.0433 -0.7151 0.6976
vn -0.5213 -0.1326 0.8430
vn 0.1737 -0.1024 0.9795
vn -0.2418 0.1733 0.9547
vn -0.9647 0.2302 -0.1280
vn 0.0179 0.5133 -0.8580
vn -0.7871 0.5878 -0.1872
vn -0.5787 0.8155 -0.0071
vn -0.2051 0.3506 -0.9138
vn -0.7144 0.1364 -0.6863
vn -0.8995 -0.4202 0.1196
vn -0.9780 -0.0615 -0.1993
vn -0.0248 0.7419 -0.6701
vn -0.9764 -0.1623 -0.1423
vn -0.8478 0.5235 -0.0843
vn -0.9906 0.0578 -0.1241
vn -0.0110 0.9944 -0.1055
vn -0.4792 0.8753 0.0648
vn -0.7254 0.6787 -0.1147
vn -0.0412 -0.9796 -0.1966
vn -0.4529 -0.8578 -0.2432
vn -0.0769 -0.9653 -0.2495
vn -0.2580 -0.8503 -0.4587
vn -0.5943 0.7331 0.3306
vn -0.7624 0.6457 0.0418
vn -0.8619 0.4892 -0.1338
vn -0.3218 0.9383 -0.1264
vn -0.8682 -0.4897 -0.0800
vn -0.3231 -0.8703 0.3718
vn -0.4263 -0.8693 0.2501
vn 0.9451 0.2567 0.2022
vn 0.9565 0.0034 0.2917
vn 0.9101 -0.3590 0.2068
vn 0.8456 0.0180 0.5335
vn 0.7097 0.6017 0.3664
vn 0.4018 0.5631 0.7222
vn 0.2779 0.9087 0.3114
vn 0.0647 -0.8898 -0.4517
vn -0.0283 0.0702 -0.9971
vn 0.8639 -0.1982 -0.4630
vn 0.2401 0.9443 -0.2251
vn 0.7654 0.3371 0.5482
vn 0.1491 0.9370 -0.3160
vn 0.4484 0.8020 -0.3946
vn -0.7925 0.0126 -0.6097
vn 0.8872 0.4560 -0.0700
vn 0.7511 0.6550 -0.0830
vn 0.8954 0.4443 -0.0294
vn 0.7764 -0.6141 -0.1415
vn 0.3027 -0.9453 -0.1213
vn 0.6869 -0.7233 -0.0708
vn 0.8480 -0.5207 -0.0987
vn 0.9716 -0.2224 -0.0810
vn 0.2024 -0.0933 -0.9748
vn 0.9700 -0.1447 -0.1955
vn 0.7252 0.6885 0.0112
vn 0.7908 -0.5354 0.2965
vn 0.2652 0.9269 0.2656
vn 0.5698 0.7951 0.2076
vn 0.4003 0.9125 -0.0844
vn 0.5111 0.7503 0.4193
vn -0.3411 -0.8849 -0.3171
vn -0.1664 0.2675 -0.9491
vn 0.5200 0.8470 -0.1102
vn -0.4276 -0.3789 -0.8207
vn -0.2703 -0.2333 -0.9341
vn 0.4860 -0.3284 -0.8099
vn -0.8196 0.0905 -0.5657
vn 0.3482 0.0981 -0.9323
vn 0.8412 -0.3224 -0.4340
vn 0.8088 -0.5681 0.1517
vn 0.2249 -0.9527 0.2042
vn 0.9691 0.0973 -0.2267
vn 0.8877 -0.3638 -0.2824
vn 0.9892 -0.0318 -0.1429
vn 0.9880 0.1320 -0.0808
vn 0.9802 0.1719 -0.0981
vn 0.9956 0.0581 -0.0733
vn 0.2080 -0.8814 0.4242
vn 0.9728 0.2298 -0.0298
vn 0.8521 0.1845 -0.4898
vn 0.7793 -0.5905 -0.2098
vn 0.8202 -0.5592 -0.1202
vn 0.7491 -0.6531 -0.1113
vn 0.3344 0.8573 -0.3913
vn 0.2037 0.9631 -0.1761
vn 0.6750 0.6355 0.3750
vn 0.5828 0.6299 0.5134
vn 0.9943 0.0757 -0.0750
vn -0.0813 -0.9820 0.1704
vn -0.1660 -0.9773 -0.1318
vn -0.1802 -0.9780 0.1055
vn -0.2314 -0.9702 -0.0719
vn 0.6912 -0.3932 -0.6063
vn 0.4161 0.8451 -0.3355
vn 0.5198 0.2089 -0.8284
vn 0.9887 0.1115 -0.1006
vn 0.7537 0.6004 -0.2673
vn 0.8773 0.4466 -0.1756
vn 0.4818 -0.7559 0.4432
vn 0.5787 -0.3205 0.7499
vn 0.3390 -0.5972 0.7269
vn 0.5354 0.5523 0.6390
vn 0.8481 -0.1045 -0.5195
vn 0.7641 0.6265 -0.1538
vn 0.8762 0.4805 0.0366
vn 0.8578 0.5081 -0.0771
vn 0.9816 0.0670 -0.1790
vn 0.8189 0.5730 -0.0326
vn -0.7073 -0.7021 -0.0829
vn 0.2626 -0.9608 0.0884
vn 0.0814 -0.9928 -0.0884
vn -0.9706 -0.1230 -0.2068
vn -0.4768 -0.8756 -0.0775
vn -0.6312 0.5862 0.5079
vn -0.1473 0.8096 0.5681
vn -0.4702 0.8398 0.2715
vn -0.7783 0.5840 0.2306
vn -0.9650 0.1453 0.2182
vn -0.1828 0.9255 0.3318
vn -0.9902 0.1220 0.0681
vn -0.9904 0.0744 0.1169
vn -0.7567 -0.2783 0.5915
vn -0.1953 -0.8984 0.3933
vn -0.7011 0.5437 0.4613
vn -0.8895 0.4557 -0.0331
vn -0.9905 -0.0875 -0.1062
vn -0.9980 -0.0159 -0.0607
vn -0.8924 -0.4054 -0.1984
vn -0.6829 -0.3781 -0.6251
vn 0.4916 -0.8574 -0.1522
vn -0.9887 0.0747 -0.1298
vn -0.6857 0.7131 0.1459
vn -0.9075 0.4123 0.0806
vn -0.9554 0.2907 -0.0514
vn 0.1556 0.2058 -0.9661
vn -0.8345 -0.5385 -0.1168
vn 0.4143 -0.8652 0.2825
vn -0.9846 0.1483 -0.0926
vn -0.4594 0.8707 0.1757
vn -0.1315 0.9549 0.2661
vn -0.9148 0.3739 -0.1528
vn -0.9801 0.1068 -0.1673
vn 0.0692 0.1788 -0.9815
vn -0.0689 -0.9968 0.0404
vn -0.0963 -0.9538 -0.2845
vn -0.4025 0.9052 -0.1366
vn -0.1131 -0.9935 0.0127
vn 0.0986 0.9944 0.0389
vn -0.5919 -0.5370 -0.6011
vn -0.4673 0.8485 -0.2485
vn -0.7256 0.5423 -0.4236
vn -0.0263 -0.9996 -0.0124
vn -0.9144 0.0908 -0.3945
vn 0.1270 -0.9803 0.1515
vn -0.3773 0.7116 -0.5927
vn 0.0807 -0.5324 -0.8426
vn -0.6284 0.7540 -0.1912
vn -0.9177 0.3898 -0.0771
vn -0.9431 0.3324 0.0108
vn -0.8548 0.5183 0.0257
vn -0.8078 0.5564 -0.1946
vn -0.5706 0.8065 -0.1549
vn -0.2864 0.9413 -0.1788
vn -0.9862 0.1502 -0.0697
vn 0.0447 -0.9230 0.3822
vn 0.0858 0.9635 0.2536
vn -0.1313 -0.9601 -0.2468
vn -0.3175 -0.1640 -0.9340
vn -0.8151 0.5768 0.0538
vn 0.6850 0.6744 0.2755
vn 0.0038 -0.9743 -0.2251
vn 0.0715 -0.9781 -0.1954
vn 0.2370 -0.9251 0.2967
vn -0.0569 -0.9908 0.1230
vn -0.8650 -0.5000 0.0425
vn -0.0868 0.9950 -0.0488
vn -0.3870 0.9094 0.1525
vn 0.5302 -0.7530 0.3897
vn -0.3382 -0.8486 0.4067
vn 0.1751 -0.9352 -0.3077
vn 0.0120 -0.9804 -0.1967
vn 0.7646 0.6071 0.2165
vn 0.4172 -0.8947 0.1596
vn 0.5503 -0.7868 0.2794
vn 0.8197 -0.5380 0.1967
vn 0.2004 -0.9221 0.3309
vn 0.4892 -0.3314 0.8068
vn 0.0184 -0.9967 0.0794
vn 0.4901 0.8492 0.1964
vn 0.7693 0.6354 -0.0667
vn 0.6875 -0.6944 0.2124
vn 0.9984 -0.0064 0.0559
vn 0.8138 0.0373 0.5799
vn 0.9979 -0.0005 0.0655
vn 0.5230 -0.5870 -0.6180
vn 0.6621 0.7264 0.1843
vn 0.8923 0.3579 0.2751
vn 0.8470 0.5304 0.0358
vn 0.9196 0.3868 -0.0683
vn 0.0150 -0.7889 -0.6143
vn -0.2818 -0.1704 -0.9442
vn 0.9121 -0.2688 0.3096
vn 0.2139 -0.6103 0.7627
vn 0.9489 0.3013 -0.0937
vn 0.9813 -0.1097 -0.1582
vn 0.6830 -0.7059 -0.1876
vn 0.4192 -0.8675 -0.2680
vn 0.4353 -0.8835 0.1730
vn 0.6961 0.7077 -0.1206
vn 0.5779 -0.7638 -0.2876
vn 0.7139 0.6952 0.0840
vn 0.4655 0.8689 0.1681
vn 0.8929 0.3661 -0.2620
vn 0.9450 0.3268 -0.0131
vn 0.1675 -0.9699 0.1770
vn -0.2072 -0.9541 0.2164
vn 0.7256 0.6696 -0.1584
vn 0.6590 0.7464 -0.0923
vn 0.7477 -0.3822 -0.5431
vn 0.9763 -0.2129 -0.0402
vn 0.9682 -0.0549 -0.2442
vn 0.4125 0.9029 0.1207
vn 0.6645 -0.7364 0.1267
vn 0.9046 -0.4258 -0.0215
vn 0.2390 0.9501 -0.2002
vn 0.9823 -0.0247 -0.1854
vt 0.216962 0.647534
vt 0.153197 0.678034
vt 0.136488 0.636108
vt 0.302811 0.585830
vt 0.014137 0.004834
vt 0.006547 0.002178
vt 0.015348 0.003362
vt 0.798551 0.153991
vt 0.804606 0.183414
vt 0.782029 0.209507
vt 0.536423 0.108418
vt 0.503532 0.164120
vt 0.520186 0.130973
vt 0.019056 0.009328
vt 0.053132 0.054862
vt 0.012137 0.032438
vt 0.327992 0.603096
vt 0.364427 0.630840
vt 0.277298 0.656062
vt 0.040941 0.140449
vt 0.052863 0.140450
vt 0.070307 0.169571
vt 0.355765 0.124226
vt 0.286336 0.131087
vt 0.362955 0.078249
vt 0.429189 0.142830
vt 0.454407 0.123789
vt 0.391681 0.186829
vt 0.400948 0.194615
vt 0.109221 0.325219
vt 0.158464 0.394613
vt 0.098813 0.347136
vt 0.530199 0.449806
vt 0.584417 0.452519
vt 0.513849 0.477594
vt 0.119018 0.851802
vt 0.104537 0.917977
vt 0.097440 0.870972
vt 0.171695 0.857481
vt 0.049691 0.586201
vt 0.165887 0.502274
vt 0.110925 0.583559
vt 0.091148 0.014869
vt 0.090653 0.016409
vt 0.081895 0.012356
vt 0.286600 0.198418
vt 0.475242 0.094460
vt 0.713650 0.123779
vt 0.782745 0.085079
vt 0.760392 0.130872
vt 0.389687 0.683665
vt 0.502556 0.649040
vt 0.358224 0.712756
vt 0.739896 0.146086
vt 0.688177 0.204179
vt 0.666322 0.180303
vt 0.995310 0.459909
vt 0.943992 0.394730
vt 0.983283 0.411551
vt 0.985385 0.512090
vt 0.075962 0.200668
vt 0.161550 0.285651
vt 0.648535 0.033418
vt 0.624447 0.050346
vt 0.622445 0.048145
vt 0.395129 0.585138
vt 0.386857 0.614892
vt 0.024213 0.190955
vt 0.029321 0.157442
vt 0.857017 0.023071
vt 0.829939 0.022152
vt 0.842506 0.009147
vt 0.865703 0.046126
vt 0.845609 0.041800
vt 0.325422 0.168624
vt 0.148256 0.829352
vt 0.603957 0.097835
vt 0.605940 0.076166
vt 0.608122 0.094355
vt 0.599331 0.080243
vt 0.094365 0.823711
vt 0.109104 0.747359
vt 0.112386 0.795358
vt 0.039960 0.777470
vt 0.198645 0.775974
vt 0.210123 0.778277
vt 0.267537 0.736433
vt 0.294086 0.733600
vt 0.764570 0.368088
vt 0.794036 0.368732
vt 0.804692 0.401089
vt 0.254492 0.299667
vt 0.299071 0.247506
vt 0.276828 0.317248
vt 0.212410 0.300160
vt 0.212966 0.248402
vt 0.185697 0.284209
vt 0.170448 0.261586
vt 0.182570 0.212229
vt 0.667933 0.239152
vt 0.653389 0.276768
vt 0.621727 0.290017
vt 0.119494 0.947384
vt 0.069997 0.968784
vt 0.107570 0.933821
vt 0.023719 0.989012
vt 0.034006 0.989591
vt 0.979150 0.031764
vt 0.983810 0.097863
vt 0.912979 0.101988
vt 0.512093 0.530285
vt 0.514583 0.520139
vt 0.520561 0.535725
vt 0.067695 0.386356
vt 0.004035 0.322141
vt 0.053524 0.323050
vt 0.012221 0.171287
vt 0.013237 0.115542
vt 0.014124 0.171607
vt 0.506151 0.802686
vt 0.470608 0.856992
vt 0.345445 0.890950
vt 0.409292 0.258106
vt 0.383565 0.270499
vt 0.399763 0.220716
vt 0.451708 0.088423
vt 0.405758 0.120810
vt 0.396773 0.096031
vt 0.423542 0.088512
vt 0.655858 0.119107
vt 0.644901 0.137281
vt 0.619627 0.158168
vt 0.411782 0.891830
vt 0.828909 0.681767
vt 0.785667 0.697417
vt 0.832962 0.664380
vt 0.885971 0.141088
vt 0.900116 0.188324
vt 0.076170 0.463241
vt 0.040066 0.456529
vt 0.734751 0.090078
vt 0.757363 0.065273
vt 0.758503 0.066461
vt 0.750017 0.827584
vt 0.742491 0.823541
vt 0.747188 0.806883
vt 0.952204 0.039273
vt 0.949582 0.036761
vt 0.959000 0.033542
vt 0.387525 0.089654
vt 0.865342 0.087107
vt 0.863136 0.086803
vt 0.882317 0.067473
vt 0.890564 0.069843
vt 0.894670 0.082277
vt 0.873766 0.102117
vt 0.369170 0.764059
vt 0.440302 0.738320
vt 0.406342 0.768811
vt 0.351120 0.862423
vt 0.334783 0.818611
vt 0.462180 0.796722
vt 0.465024 0.561714
vt 0.471235 0.509258
vt 0.498402 0.909160
vt 0.546979 0.903929
vt 0.567327 0.976164
vt 0.488707 0.060156
vt 0.458142 0.049481
vt 0.453543 0.197961
vt 0.442933 0.166009
vt 0.474895 0.122490
vt 0.919740 0.790624
vt 0.954744 0.836110
vt 0.901277 0.797197
vt 0.550673 0.879629
vt 0.517469 0.975165
vt 0.437571 0.916917
vt 0.512276 0.772971
vt 0.489924 0.724354
vt 0.595660 0.690210
vt 0.882292 0.069884
vt 0.327355 0.520718
vt 0.337937 0.491902
vt 0.377570 0.533964
vt 0.399414 0.501357
vt 0.911120 0.668407
vt 0.921534 0.694198
vt 0.901430 0.684611
vt 0.300030 0.880747
vt 0.337819 0.790929
vt 0.279531 0.843120
vt 0.856763 0.683595
vt 0.872603 0.653599
vt 0.891446 0.673253
vt 0.586520 0.231766
vt 0.545139 0.259717
vt 0.592303 0.221120
vt 0.664320 0.158422
vt 0.663976 0.154878
vt 0.702141 0.116756
vt 0.947099 0.015312
vt 0.943629 0.013088
vt 0.952604 0.004175
vt 0.835594 0.628984
vt 0.799580 0.622027
vt 0.881232 0.592989
vt 0.830328 0.772674
vt 0.790990 0.779887
vt 0.886929 0.743848
vt 0.048928 0.493043
vt 0.493137 0.176892
vt 0.500831 0.165649
vt 0.494688 0.177486
vt 0.228866 0.513335
vt 0.245344 0.426216
vt 0.140645 0.798414
vt 0.610175 0.262286
vt 0.751658 0.017097
vt 0.744930 0.069312
vt 0.675976 0.092130
vt 0.725679 0.013152
vt 0.651553 0.072701
vt 0.658200 0.049174
vt 0.837917 0.405484
vt 0.870610 0.393791
vt 0.862106 0.418445
vt 0.721763 0.085550
vt 0.786417 0.437960
vt 0.747602 0.441968
vt 0.180142 0.679714
vt 0.137457 0.695855
vt 0.114899 0.675901
vt 0.114448 0.701671
vt 0.108288 0.693681
vt 0.511841 0.327987
vt 0.494022 0.373239
vt 0.511298 0.321248
vt 0.697232 0.576367
vt 0.531318 0.666923
vt 0.533603 0.590004
vt 0.497641 0.628970
vt 0.566282 0.296250
vt 0.566634 0.304282
vt 0.737925 0.199466
vt 0.819373 0.155713
vt 0.855021 0.139987
vt 0.793466 0.033777
vt 0.783700 0.034202
vt 0.791902 0.031536
vt 0.734858 0.241620
vt 0.713734 0.259495
vt 0.736440 0.237173
vt 0.815771 0.192101
vt 0.489155 0.576835
vt 0.547587 0.558447
vt 0.472823 0.272308
vt 0.478630 0.329475
vt 0.442720 0.340275
vt 0.135532 0.435485
vt 0.747866 0.004982
vt 0.805040 0.015639
vt 0.804540 0.022999
vt 0.597595 0.127973
vt 0.598123 0.109717
vt 0.810199 0.470209
vt 0.772682 0.467375
vt 0.565377 0.344443
vt 0.546277 0.363274
vt 0.526201 0.368530
vt 0.291550 0.105786
vt 0.326067 0.088138
vt 0.118145 0.381437
vt 0.959553 0.372205
vt 0.611220 0.637342
vt 0.628142 0.223429
vt 0.707985 0.214016
vt 0.091279 0.008846
vt 0.116175 0.011800
vt 0.109011 0.012258
vt 0.862297 0.119777
vt 0.878892 0.129285
vt 0.061548 0.005556
vt 0.055027 0.004203
vt 0.809921 0.184360
vt 0.728804 0.221745
vt 0.649359 0.292924
vt 0.698999 0.272717
vt 0.674345 0.552429
vt 0.112173 0.025715
vt 0.779340 0.005747
vt 0.317438 0.044092
vt 0.264317 0.046436
vt 0.270263 0.008432
vt 0.504689 0.391548
vt 0.499991 0.370534
vt 0.684278 0.495929
vt 0.731681 0.482634
vt 0.711508 0.495066
vt 0.098783 0.205142
vt 0.126452 0.239777
vt 0.751708 0.243385
vt 0.737437 0.258738
vt 0.757639 0.225955
vt 0.201788 0.405186
vt 0.246529 0.360659
vt 0.606593 0.449654
vt 0.685592 0.392794
vt 0.697173 0.128785
vt 0.771854 0.099655
vt 0.082300 0.942373
vt 0.075056 0.945234
vt 0.761306 0.142175
vt 0.841413 0.088448
vt 0.380184 0.717974
vt 0.611281 0.402176
vt 0.593142 0.417681
vt 0.942776 0.482436
vt 0.916082 0.785152
vt 0.932433 0.779413
vt 0.406467 0.638579
vt 0.357122 0.671431
vt 0.414602 0.365817
vt 0.408252 0.357877
vt 0.905450 0.472581
vt 0.992417 0.503292
vt 0.372242 0.219617
vt 0.374253 0.239510
vt 0.354479 0.233199
vt 0.341659 0.217443
vt 0.355030 0.248745
vt 0.524320 0.542140
vt 0.553095 0.522093
vt 0.565499 0.518640
vt 0.055633 0.266165
vt 0.982423 0.128849
vt 0.992998 0.115783
vt 0.981455 0.146066
vt 0.575939 0.515609
vt 0.577475 0.508611
vt 0.465058 0.033278
vt 0.473825 0.025280
vt 0.482331 0.032478
vt 0.413687 0.587508
vt 0.215411 0.002094
vt 0.580402 0.124228
vt 0.744282 0.530317
vt 0.787536 0.491070
vt 0.797011 0.498326
vt 0.152291 0.219320
vt 0.147588 0.192979
vt 0.167655 0.164530
vt 0.171601 0.147960
vt 0.211046 0.139044
vt 0.709527 0.534392
vt 0.518239 0.210153
vt 0.546070 0.177414
vt 0.508757 0.012821
vt 0.512343 0.017763
vt 0.142405 0.144150
vt 0.634472 0.052485
vt 0.679940 0.025898
vt 0.632452 0.057456
vt 0.839083 0.005092
vt 0.816705 0.002072
vt 0.845930 0.002999
vt 0.569644 0.539697
vt 0.643118 0.500331
vt 0.035236 0.669744
vt 0.013069 0.689840
vt 0.007561 0.668380
vt 0.225036 0.067601
vt 0.051078 0.278603
vt 0.213946 0.334040
vt 0.792535 0.054673
vt 0.007884 0.764871
vt 0.190477 0.813347
vt 0.793716 0.358504
vt 0.829604 0.351553
vt 0.321687 0.358019
vt 0.511773 0.344820
vt 0.511013 0.349416
vt 0.182197 0.293754
vt 0.509852 0.062781
vt 0.508694 0.059583
vt 0.140825 0.330351
vt 0.290567 0.747512
vt 0.887939 0.059212
vt 0.874708 0.060759
vt 0.958367 0.015760
vt 0.164170 0.761622
vt 0.877270 0.374386
vt 0.874684 0.343777
vt 0.899345 0.345129
vt 0.093348 0.117109
vt 0.108200 0.137204
vt 0.099425 0.149362
vt 0.828655 0.036881
vt 0.810274 0.062590
vt 0.003622 0.210830
vt 0.006110 0.247697
vt 0.003583 0.249301
vt 0.825878 0.070133
vt 0.813100 0.082516
vt 0.524537 0.388903
vt 0.856156 0.445209
vt 0.302326 0.399393
vt 0.326606 0.432364
vt 0.868958 0.698194
vt 0.935685 0.180805
vt 0.968184 0.135826
vt 0.962583 0.162008
vt 0.815230 0.742826
vt 0.661801 0.818742
vt 0.679929 0.794723
vt 0.681973 0.844295
vt 0.649716 0.851515
vt 0.614694 0.835287
vt 0.274803 0.477582
vt 0.270547 0.513788
vt 0.717770 0.317321
vt 0.730800 0.295175
vt 0.716978 0.337714
vt 0.412468 0.139070
vt 0.384860 0.176314
vt 0.361896 0.179212
vt 0.368559 0.111055
vt 0.455646 0.104834
vt 0.462940 0.094326
vt 0.465785 0.096254
vt 0.763482 0.338856
vt 0.029321 0.066237
vt 0.017792 0.060534
vt 0.726586 0.742624
vt 0.800315 0.728011
vt 0.992503 0.072597
vt 0.166783 0.911899
vt 0.123647 0.960714
vt 0.197283 0.859393
vt 0.215441 0.847221
vt 0.187216 0.884507
vt 0.642997 0.817114
vt 0.005301 0.369155
vt 0.660706 0.140017
vt 0.668333 0.140091
vt 0.009482 0.122522
vt 0.451516 0.933057
vt 0.491427 0.962188
vt 0.498268 0.891081
vt 0.973580 0.794501
vt 0.992666 0.825467
vt 0.418934 0.042942
vt 0.423818 0.042864
vt 0.426718 0.069966
vt 0.356720 0.150603
vt 0.077133 0.105383
vt 0.094272 0.100823
vt 0.126189 0.101912
vt 0.930557 0.601515
vt 0.994033 0.612975
vt 0.982581 0.615180
vt 0.888786 0.633308
vt 0.209993 0.938196
vt 0.224698 0.859721
vt 0.249883 0.919672
vt 0.984659 0.726086
vt 0.986957 0.766262
vt 0.957467 0.721257
vt 0.876460 0.710966
vt 0.840029 0.739902
vt 0.413649 0.477867
vt 0.503027 0.552779
vt 0.241710 0.097709
vt 0.246412 0.093516
vt 0.257721 0.093114
vt 0.330438 0.538167
vt 0.418710 0.566465
vt 0.633655 0.708252
vt 0.729634 0.649137
vt 0.684218 0.658844
vt 0.520419 0.096852
vt 0.499851 0.091305
vt 0.524498 0.052281
vt 0.569910 0.129027
vt 0.560658 0.134852
vt 0.589334 0.091575
vt 0.534919 0.016320
vt 0.508469 0.045035
vt 0.491488 0.054733
vt 0.634359 0.732374
vt 0.803517 0.863928
vt 0.767498 0.833583
vt 0.004395 0.078068
vt 0.002477 0.055011
vt 0.004620 0.055470
vt 0.979276 0.619427
vt 0.339976 0.026737
vt 0.347965 0.021053
vt 0.354795 0.027385
vt 0.436708 0.047247
vt 0.445250 0.029804
vt 0.444697 0.035156
vt 0.342303 0.436669
vt 0.335305 0.413620
vt 0.276773 0.932223
vt 0.810765 0.254912
vt 0.836205 0.271710
vt 0.970257 0.012321
vt 0.974806 0.009808
vt 0.894954 0.236952
vt 0.252339 0.864244
vt 0.280521 0.907591
vt 0.924442 0.672028
vt 0.842611 0.715132
vt 0.049104 0.615718
vt 0.089108 0.636570
vt 0.064570 0.683170
vt 0.891466 0.648093
vt 0.020383 0.275859
vt 0.718099 0.850378
vt 0.738453 0.654994
vt 0.992670 0.616737
vt 0.881408 0.454375
vt 0.875643 0.488125
vt 0.831656 0.541864
vt 0.855209 0.550005
vt 0.003900 0.110114
vt 0.005262 0.112966
vt 0.004011 0.125175
vt 0.882859 0.563862
vt 0.802184 0.644957
vt 0.481667 0.047067
vt 0.505915 0.030856
vt 0.501306 0.037369
vt 0.402300 0.741604
vt 0.377114 0.750632
vt 0.010149 0.282838
vt 0.742538 0.837515
vt 0.569397 0.091913
vt 0.549233 0.096603
vt 0.579501 0.050511
vt 0.551383 0.112809
vt 0.863008 0.465485
vt 0.810660 0.531193
vt 0.692322 0.845598
vt 0.685914 0.885628
vt 0.671130 0.859291
vt 0.893448 0.008168
vt 0.880567 0.008926
vt 0.888338 0.002011
vt 0.636875 0.889174
vt 0.646048 0.874686
vt 0.034763 0.088309
vt 0.013203 0.101051
vt 0.026546 0.071574
vt 0.833507 0.588622
vt 0.542069 0.079259
vt 0.768116 0.639175
vt 0.571200 0.029062
vt 0.546073 0.013502
vt 0.549740 0.065293
vt 0.361485 0.345576
vt 0.769570 0.805371
vt 0.507535 0.517654
vt 0.612912 0.830447
vt 0.833179 0.365200
vt 0.836092 0.353214
vt 0.846396 0.348166
vt 0.526384 0.295341
vt 0.375670 0.198911
vt 0.389911 0.180594
vt 0.351366 0.075024
vt 0.505345 0.057579
vt 0.501546 0.055659
vt 0.407618 0.165811
vt 0.712693 0.197103
vt 0.787769 0.096878
vt 0.592499 0.100795
vt 0.858387 0.084797
vt 0.153178 0.113195
vt 0.166392 0.124418
vt 0.164044 0.125994
vt 0.450802 0.347700
vt 0.435644 0.357413
vt 0.592156 0.407682
vt 0.935537 0.782252
vt 0.074774 0.949436
vt 0.072805 0.949061
vt 0.990339 0.103839
vt 0.560839 0.210723
vt 0.364096 0.576590
vt 0.213490 0.808145
vt 0.623857 0.070139
vt 0.200960 0.122036
vt 0.211054 0.098742
vt 0.213616 0.100028
vt 0.023542 0.754973
vt 0.180731 0.814239
vt 0.893631 0.333731
vt 0.161585 0.891959
vt 0.146590 0.900223
vt 0.488731 0.164615
vt 0.511052 0.132220
vt 0.493937 0.164830
vt 0.718787 0.467478
vt 0.897569 0.025553
vt 0.883038 0.037485
vt 0.887572 0.014519
vt 0.703311 0.839516
vt 0.691175 0.004063
vt 0.702536 0.002081
vt 0.702536 0.007141
vt 0.861276 0.009231
vt 0.450270 0.036870
vt 0.460050 0.042428
vt 0.896704 0.103450
vt 0.107649 0.643292
vt 0.411803 0.053476
vt 0.406139 0.070527
vt 0.310986 0.083792
vt 0.615368 0.846444
vt 0.609782 0.854696
vt 0.711362 0.304051
vt 0.723395 0.291342
vt 0.380068 0.302939
vt 0.267099 0.085255
vt 0.698285 0.113123
vt 0.696787 0.104871
vt 0.563422 0.846624
vt 0.573137 0.850557
vt 0.512861 0.859629
vt 0.430277 0.062050
vt 0.430932 0.132554
vt 0.443210 0.113856
vt 0.918269 0.050085
vt 0.993058 0.043170
vt 0.190910 0.951960
vt 0.104553 0.433044
vt 0.885071 0.458578
vt 0.629171 0.353138
vt 0.667378 0.326236
vt 0.636410 0.351469
vt 0.033669 0.105735
vt 0.459668 0.876528
vt 0.465471 0.878737
vt 0.430052 0.896278
vt 0.341160 0.765127
vt 0.095078 0.086528
vt 0.055415 0.087828
vt 0.848996 0.193900
vt 0.984803 0.022645
vt 0.862012 0.052281
vt 0.741625 0.173817
vt 0.783578 0.138473
vt 0.746339 0.173645
vt 0.206035 0.098380
vt 0.161404 0.096834
vt 0.187078 0.096072
vt 0.785800 0.143856
vt 0.762611 0.165054
vt 0.835355 0.347006
vt 0.828546 0.345982
vt 0.344776 0.388684
vt 0.797566 0.588853
vt 0.785840 0.568849
vt 0.474682 0.505794
vt 0.992767 0.749720
s 1
f 30/1/1 72/2/2 31/3/3
f 31/3/3 67/4/4 30/1/1
f 16/5/5 45/6/6 44/7/7
f 57/8/8 12/9/9 63/10/10
f 60/11/11 209/12/12 59/13/13
f 51/14/14 66/15/15 17/16/16
f 68/17/17 36/18/18 34/19/19
f 44/20/7 45/21/6 43/22/20
f 125/23/21 97/24/22 16/25/5
f 41/26/23 76/27/24 40/28/25
f 77/29/26 40/28/25 76/27/24
f 78/30/27 47/31/28 77/32/26
f 50/33/29 53/34/30 51/35/14
f 21/36/31 85/37/32 86/38/33
f 84/39/34 85/37/32 21/36/31
f 67/40/4 32/41/35 185/42/36
f 16/43/5 44/44/7 101/45/37
f 41/46/23 97/24/22 125/23/21
f 140/47/38 76/27/24 41/26/23
f 106/48/39 141/49/40 22/50/41
f 115/51/42 117/52/43 105/53/44
f 8/54/45 116/55/46 107/56/47
f 119/57/48 17/58/16 79/59/49
f 119/57/48 33/60/50 17/58/16
f 78/30/27 100/61/51 122/62/52
f 101/63/37 124/64/53 125/65/21
f 68/17/17 19/66/54 90/67/55
f 124/68/53 101/69/37 44/20/7
f 139/70/56 129/71/57 19/72/54
f 137/73/58 91/74/59 139/70/56
f 125/23/21 140/75/38 41/46/23
f 5/76/60 84/39/34 21/36/31
f 7/77/61 10/78/62 144/79/63
f 6/80/64 10/78/62 7/77/61
f 142/81/65 21/36/31 86/38/33
f 152/82/66 143/83/67 111/84/68
f 5/76/60 149/85/69 150/86/70
f 106/87/39 108/88/71 149/85/69
f 148/89/72 145/90/73 104/91/74
f 146/92/75 88/93/76 147/94/77
f 146/92/75 121/95/78 88/93/76
f 75/96/79 74/97/80 96/98/81
f 75/96/79 42/99/82 41/46/23
f 24/100/83 83/101/84 13/102/85
f 181/103/86 187/104/87 182/105/88
f 188/106/89 187/104/87 180/107/90
f 189/108/91 180/109/90 179/110/92
f 199/111/93 198/112/94 200/113/95
f 235/114/96 196/115/97 197/116/98
f 2/117/99 114/118/100 33/119/50
f 247/120/101 203/121/102 204/122/103
f 207/123/104 175/124/105 160/125/106
f 223/126/107 172/127/108 81/128/109
f 81/128/109 209/129/12 223/126/107
f 60/130/11 210/131/110 209/132/12
f 202/133/111 204/122/103 203/121/102
f 228/134/112 187/135/87 188/136/89
f 229/137/113 179/110/92 215/138/114
f 235/114/96 218/139/115 195/140/116
f 198/141/94 238/142/117 237/143/118
f 219/144/119 200/145/95 198/146/94
f 60/147/11 9/148/120 61/149/121
f 172/127/108 212/150/122 81/128/109
f 3/151/123 1/152/124 226/153/125
f 83/154/84 173/155/126 174/156/127
f 251/157/128 227/158/129 213/159/130
f 260/160/131 177/161/132 205/162/133
f 199/111/93 239/163/134 238/164/117
f 162/165/135 113/166/136 2/167/99
f 159/168/137 223/126/107 210/169/110
f 246/170/138 208/171/139 223/172/107
f 161/173/140 203/174/102 112/175/141
f 113/166/136 162/165/135 161/176/140
f 162/165/135 248/177/142 178/178/143
f 206/179/144 207/180/104 246/181/138
f 226/153/125 86/182/33 3/151/123
f 221/183/145 271/184/146 270/185/147
f 270/185/147 271/184/146 256/186/148
f 252/187/149 234/188/150 258/189/151
f 260/160/131 204/122/103 266/190/152
f 259/191/153 177/161/132 232/192/154
f 262/193/155 263/194/156 139/195/56
f 254/196/157 196/197/97 240/198/158
f 142/199/65 272/200/159 111/201/68
f 167/202/160 6/203/64 7/204/61
f 275/205/161 282/206/162 158/207/163
f 197/208/98 237/209/118 235/210/96
f 218/139/115 233/211/164 195/140/116
f 12/212/9 58/213/165 81/214/109
f 209/12/12 81/214/109 58/213/165
f 164/215/166 32/41/35 201/216/167
f 5/76/60 155/217/168 149/85/69
f 24/100/83 13/102/85 64/218/169
f 35/219/170 27/220/171 28/221/172
f 35/219/170 28/221/172 36/222/18
f 29/223/173 37/224/174 36/222/18
f 34/225/19 36/226/18 37/227/174
f 27/220/171 69/228/175 28/221/172
f 34/225/19 39/229/176 71/230/177
f 30/1/1 34/19/19 71/231/177
f 72/2/2 73/232/178 46/233/179
f 73/232/178 40/234/25 77/235/26
f 77/235/26 46/233/179 73/232/178
f 178/236/143 79/237/49 49/238/180
f 52/239/181 53/240/30 117/52/43
f 54/241/182 117/52/43 55/242/183
f 56/243/184 64/218/169 88/244/76
f 57/8/8 63/10/10 24/245/83
f 58/246/165 57/8/8 59/247/13
f 57/8/8 58/246/165 12/9/9
f 11/248/185 81/249/109 212/250/122
f 62/251/186 63/252/10 11/253/185
f 11/254/185 63/10/10 12/9/9
f 56/255/184 65/256/187 55/242/183
f 51/257/14 17/258/16 50/259/29
f 31/260/3 32/41/35 67/40/4
f 30/1/1 67/4/4 68/17/17
f 90/261/55 35/219/170 36/222/18
f 35/219/170 91/262/59 27/263/171
f 93/264/188 29/223/173 28/221/172
f 93/264/188 38/265/189 29/223/173
f 39/229/176 38/266/189 70/267/190
f 72/2/2 71/231/177 73/232/178
f 75/268/79 73/269/178 74/270/80
f 42/99/82 97/24/22 41/46/23
f 99/271/191 43/272/20 16/25/5
f 97/24/22 99/271/191 16/25/5
f 44/20/7 43/22/20 100/61/51
f 77/32/26 47/31/28 46/273/179
f 79/59/49 17/58/16 49/274/180
f 51/275/14 53/240/30 52/239/181
f 56/243/184 80/276/192 64/218/169
f 57/277/8 24/100/83 116/55/46
f 59/278/13 9/279/120 60/280/11
f 61/281/121 9/282/120 59/247/13
f 209/283/12 58/284/165 59/278/13
f 11/254/185 12/9/9 81/285/109
f 63/10/10 83/286/84 24/245/83
f 83/287/84 63/252/10 82/288/193
f 52/239/181 117/52/43 89/289/194
f 127/290/195 66/15/15 51/14/14
f 35/219/170 90/261/55 129/291/57
f 69/292/175 92/293/196 28/294/172
f 74/270/80 71/295/177 26/296/197
f 96/297/81 26/298/197 95/299/198
f 100/61/51 99/300/191 98/301/199
f 101/302/37 125/303/21 16/304/5
f 201/216/167 48/305/200 156/306/201
f 53/307/30 103/308/202 104/91/74
f 115/51/42 105/53/44 108/88/71
f 108/309/71 106/48/39 107/56/47
f 106/48/39 22/50/41 8/54/45
f 22/50/41 141/49/40 109/310/203
f 20/311/204 3/312/123 85/37/32
f 22/50/41 23/313/205 8/54/45
f 61/281/121 59/247/13 8/314/45
f 104/315/74 105/53/44 53/240/30
f 112/316/141 103/308/202 14/317/206
f 114/318/100 17/58/16 33/60/50
f 161/173/140 14/319/206 118/320/207
f 117/52/43 53/240/30 105/53/44
f 8/54/45 107/56/47 106/48/39
f 80/321/192 115/51/42 107/322/47
f 55/242/183 117/52/43 115/51/42
f 50/259/29 118/323/207 14/324/206
f 118/325/207 17/58/16 114/318/100
f 33/60/50 119/57/48 2/326/99
f 50/33/29 14/317/206 53/34/30
f 56/255/184 115/51/42 80/321/192
f 80/276/192 107/56/47 24/100/83
f 107/56/47 116/55/46 24/100/83
f 86/38/33 85/37/32 3/312/123
f 83/327/84 174/328/127 13/329/85
f 64/330/169 120/331/208 88/93/76
f 56/255/184 88/332/76 25/333/209
f 56/255/184 25/334/209 65/256/187
f 78/30/27 77/32/26 123/335/210
f 100/61/51 78/30/27 123/335/210
f 135/336/211 121/337/78 134/338/212
f 126/339/213 25/334/209 135/340/211
f 25/341/209 126/342/213 15/343/214
f 129/344/57 90/67/55 19/66/54
f 93/345/188 28/294/172 127/290/195
f 38/265/189 93/264/188 94/346/215
f 130/347/216 94/348/215 93/349/188
f 70/267/190 94/348/215 26/298/197
f 131/350/217 132/351/218 42/99/82
f 42/99/82 132/351/218 133/352/219
f 135/353/211 98/354/199 97/24/22
f 122/62/52 100/61/51 98/301/199
f 65/256/187 89/289/194 54/241/182
f 52/239/181 89/289/194 136/355/220
f 51/257/14 52/356/181 130/357/216
f 127/290/195 28/294/172 92/293/196
f 95/299/198 136/355/220 89/289/194
f 96/297/81 95/299/198 89/289/194
f 132/358/218 131/359/217 15/343/214
f 133/352/219 132/351/218 126/360/213
f 135/353/211 133/352/219 126/360/213
f 133/352/219 135/353/211 97/24/22
f 134/361/212 98/362/199 135/363/211
f 100/61/51 123/335/210 124/68/53
f 122/364/52 98/365/199 134/366/212
f 15/367/214 131/368/217 65/256/187
f 89/289/194 65/256/187 131/368/217
f 136/355/220 130/347/216 52/239/181
f 138/369/221 139/370/56 19/371/54
f 92/293/196 261/372/222 127/290/195
f 127/290/195 261/372/222 66/15/15
f 44/20/7 100/61/51 124/68/53
f 76/373/24 123/335/210 77/32/26
f 156/306/201 48/305/200 18/374/223
f 103/308/202 148/89/72 104/91/74
f 106/48/39 149/375/69 141/49/40
f 21/36/31 142/81/65 155/217/168
f 152/82/66 111/84/68 4/376/224
f 143/83/67 142/81/65 111/84/68
f 143/83/67 155/217/168 142/81/65
f 153/377/225 84/39/34 5/76/60
f 171/378/226 144/379/63 145/90/73
f 120/331/208 276/380/227 147/94/77
f 120/331/208 147/94/77 88/93/76
f 25/381/209 88/244/76 121/382/78
f 18/374/223 134/383/212 121/95/78
f 134/383/212 18/374/223 122/62/52
f 76/373/24 124/68/53 123/335/210
f 124/384/53 140/47/38 125/385/21
f 102/386/228 122/62/52 18/374/223
f 18/374/223 121/95/78 146/92/75
f 104/387/74 150/86/70 108/88/71
f 108/88/71 150/86/70 149/85/69
f 280/388/229 152/389/66 273/390/230
f 152/82/66 151/391/231 143/83/67
f 150/392/70 154/393/232 87/394/233
f 87/395/233 153/396/225 150/397/70
f 149/375/69 155/398/168 151/399/231
f 151/391/231 155/217/168 143/83/67
f 280/400/229 245/401/234 110/402/235
f 151/403/231 152/389/66 110/404/235
f 151/403/231 110/404/235 141/49/40
f 151/399/231 141/49/40 149/375/69
f 97/24/22 98/354/199 99/271/191
f 42/99/82 75/96/79 96/98/81
f 74/270/80 73/269/178 71/405/177
f 29/406/173 38/266/189 37/227/174
f 36/222/18 28/221/172 29/223/173
f 163/407/236 253/408/237 201/216/167
f 138/409/221 262/193/155 139/195/56
f 190/410/238 187/411/87 181/412/86
f 184/413/239 193/414/240 183/415/241
f 32/41/35 164/215/166 185/42/36
f 187/411/87 190/410/238 180/109/90
f 164/416/166 192/417/242 193/414/240
f 192/417/242 194/418/243 193/414/240
f 222/419/244 192/420/242 201/216/167
f 178/421/143 214/422/245 176/423/246
f 205/162/133 247/120/101 204/122/103
f 206/179/144 205/162/133 213/159/130
f 208/424/139 160/425/106 173/426/126
f 173/426/126 62/427/186 172/127/108
f 62/428/186 11/429/185 212/430/122
f 172/127/108 62/427/186 212/150/122
f 207/180/104 213/159/130 227/158/129
f 176/423/246 214/422/245 202/431/111
f 214/432/245 49/433/180 66/15/15
f 183/415/241 182/434/88 186/435/247
f 182/434/88 187/135/87 186/435/247
f 188/436/89 180/109/90 189/108/91
f 179/110/92 180/109/90 215/138/114
f 180/109/90 190/410/238 215/138/114
f 181/103/86 191/437/248 190/438/238
f 183/439/241 217/440/249 216/441/250
f 183/415/241 193/414/240 217/442/249
f 195/140/116 240/443/158 196/115/97
f 195/444/116 194/445/243 240/198/158
f 221/183/145 192/420/242 222/419/244
f 114/118/100 2/117/99 113/446/136
f 79/447/49 178/178/143 248/448/142
f 176/449/246 162/165/135 178/178/143
f 176/450/246 202/451/111 203/174/102
f 246/170/138 207/123/104 208/171/139
f 223/126/107 209/129/12 210/169/110
f 23/452/205 211/453/251 61/454/121
f 173/426/126 82/455/193 62/427/186
f 84/456/34 224/457/252 85/458/32
f 226/459/125 1/460/124 225/461/253
f 224/462/252 158/207/163 226/459/125
f 31/260/3 47/31/28 201/216/167 32/41/35
f 230/463/254 191/437/248 216/441/250
f 216/441/250 233/464/164 264/465/255
f 232/466/154 233/467/164 218/468/115
f 257/469/256 235/210/96 236/470/257
f 239/163/134 236/471/257 238/164/117
f 200/113/95 255/472/258 199/111/93
f 200/473/95 219/474/119 255/475/258
f 220/476/259 221/183/145 254/477/157
f 222/419/244 271/184/146 221/183/145
f 242/478/260 206/179/144 278/479/261
f 278/479/261 246/181/138 243/480/262
f 243/481/262 159/482/137 169/483/263
f 110/484/235 245/485/234 244/486/264
f 109/487/203 169/483/263 22/488/41
f 211/489/251 159/168/137 210/169/110
f 241/490/265 247/120/101 242/478/260
f 112/175/141 241/491/265 148/492/72
f 247/120/101 206/179/144 242/478/260
f 162/165/135 176/449/246 161/176/140
f 2/493/99 119/494/48 248/495/142
f 248/177/142 162/165/135 2/167/99
f 203/174/102 161/173/140 176/450/246
f 246/181/138 278/479/261 206/179/144
f 226/459/125 20/496/204 224/462/252
f 225/461/253 20/496/204 226/459/125
f 275/205/161 158/207/163 224/462/252
f 175/497/105 227/498/129 250/499/266
f 252/500/149 258/501/151 257/502/256
f 257/503/256 253/408/237 252/504/149
f 257/503/256 256/186/148 253/408/237
f 256/186/148 271/184/146 253/408/237
f 239/163/134 270/185/147 256/186/148
f 251/157/128 177/161/132 259/191/153
f 204/122/103 202/133/111 269/505/267
f 268/506/268 269/507/267 202/431/111
f 228/134/112 262/193/155 186/435/247
f 188/136/89 262/193/155 228/134/112
f 189/108/91 27/508/171 91/509/59
f 230/510/254 268/506/268 215/138/114
f 231/511/269 265/512/270 264/465/255
f 234/188/150 259/513/153 232/466/154
f 258/189/151 234/188/150 235/210/96
f 269/505/267 265/512/270 204/122/103
f 267/514/271 184/413/239 262/193/155
f 265/512/270 231/511/269 266/190/152
f 235/210/96 257/469/256 258/189/151
f 239/163/134 256/186/148 236/471/257
f 256/186/148 257/503/256 236/471/257
f 265/512/270 266/190/152 204/122/103
f 128/515/272 267/516/271 138/369/221
f 267/516/271 262/517/155 138/369/221
f 263/194/156 137/518/58 139/195/56
f 196/115/97 219/519/119 197/116/98
f 271/184/146 222/419/244 253/408/237
f 148/89/72 103/308/202 112/316/141
f 241/491/265 170/520/273 148/492/72
f 241/490/265 242/478/260 277/521/274
f 20/522/204 225/461/253 1/460/124
f 165/523/275 111/524/68 157/525/276
f 157/525/276 111/524/68 166/526/277
f 4/527/224 165/528/275 273/529/230
f 166/526/277 272/530/159 158/207/163
f 224/462/252 249/531/278 275/205/161
f 171/532/226 167/533/160 144/534/63
f 175/124/105 276/380/227 120/331/208
f 250/535/266 251/157/128 253/536/237
f 219/519/119 196/115/97 255/537/258
f 222/419/244 201/216/167 253/408/237
f 171/538/226 148/492/72 170/520/273
f 279/539/279 281/540/280 278/541/261
f 281/542/280 279/539/279 245/485/234
f 273/543/230 165/523/275 280/544/229
f 168/545/281 277/546/274 154/547/232
f 277/548/274 249/549/278 154/550/232
f 277/546/274 282/551/162 249/552/278
f 275/553/161 249/554/278 282/555/162
f 274/556/282 282/206/162 278/479/261
f 281/540/280 274/557/282 278/541/261
f 282/206/162 277/558/274 278/479/261
f 277/546/274 168/545/281 170/520/273
f 279/539/279 244/486/264 245/485/234
f 244/486/264 279/539/279 278/541/261
f 278/559/261 169/483/263 244/560/264
f 243/561/262 169/483/263 278/559/261
f 278/479/261 277/521/274 242/478/260
f 170/520/273 241/491/265 277/546/274
f 163/407/236 201/216/167 156/306/201
f 175/124/105 250/562/266 276/380/227
f 235/210/96 237/209/118 236/470/257
f 198/146/94 197/208/98 219/563/119
f 197/208/98 198/146/94 237/209/118
f 198/564/94 199/111/93 238/164/117
f 194/418/243 195/565/116 217/442/249
f 217/440/249 233/464/164 216/441/250
f 155/217/168 5/76/60 21/36/31
f 10/566/62 6/567/64 168/568/281
f 66/569/15 49/238/180 17/258/16
f 34/225/19 37/227/174 39/229/176
f 68/17/17 34/19/19 30/1/1
f 39/229/176 37/227/174 38/266/189
f 46/233/179 31/3/3 72/2/2
f 73/570/178 75/571/79 40/28/25
f 45/572/6 16/25/5 43/272/20
f 31/260/3 46/273/179 47/31/28
f 22/488/41 169/483/263 211/573/251 23/574/205
f 54/241/182 55/242/183 65/256/187
f 71/230/177 39/229/176 70/267/190
f 41/26/23 40/28/25 75/575/79
f 201/216/167 47/31/28 48/305/200
f 55/242/183 115/51/42 56/255/184
f 64/218/169 80/276/192 24/100/83
f 8/54/45 57/576/8 116/55/46
f 120/331/208 64/330/169 13/329/85
f 25/334/209 15/367/214 65/256/187
f 36/18/18 68/17/17 90/67/55
f 91/262/59 35/219/170 129/291/57
f 70/267/190 38/266/189 94/348/215
f 26/298/197 71/230/177 70/267/190
f 95/299/198 26/298/197 130/347/216
f 42/99/82 96/98/81 131/350/217
f 133/352/219 97/24/22 42/99/82
f 102/386/228 47/31/28 78/30/27
f 109/577/203 141/49/40 110/404/235
f 110/484/235 244/486/264 109/578/203
f 8/314/45 23/579/205 61/281/121
f 115/51/42 108/88/71 107/322/47
f 114/580/100 113/581/136 118/582/207
f 53/307/30 14/317/206 103/308/202
f 57/8/8 8/314/45 59/247/13
f 50/259/29 17/583/16 118/584/207
f 112/316/141 14/317/206 161/585/140
f 113/586/136 161/173/140 118/320/207
f 154/393/232 150/392/70 104/91/74 10/566/62
f 20/587/204 1/588/124 3/312/123
f 120/331/208 13/329/85 174/328/127
f 135/336/211 25/589/209 121/337/78
f 89/289/194 117/52/43 54/241/182
f 26/298/197 94/348/215 130/347/216
f 51/257/14 130/357/216 127/590/195
f 67/4/4 128/591/272 68/17/17
f 139/70/56 91/74/59 129/71/57
f 95/299/198 130/347/216 136/355/220
f 131/368/217 96/297/81 89/289/194
f 15/343/214 126/342/213 132/358/218
f 68/17/17 128/591/272 19/66/54
f 19/371/54 128/515/272 138/369/221
f 127/590/195 130/357/216 93/264/188
f 47/31/28 102/386/228 18/374/223
f 47/31/28 18/374/223 48/305/200
f 153/377/225 87/592/233 84/39/34
f 145/593/73 144/79/63 10/78/62
f 171/378/226 145/90/73 148/89/72
f 102/386/228 78/30/27 122/62/52
f 124/594/53 76/595/24 140/596/38
f 18/374/223 146/92/75 147/94/77
f 10/566/62 104/91/74 145/90/73
f 152/82/66 4/376/224 273/597/230
f 5/76/60 150/86/70 153/598/225
f 249/599/278 87/394/233 154/393/232
f 10/566/62 168/568/281 154/393/232
f 183/600/241 216/441/250 191/437/248 182/601/88
f 280/388/229 110/404/235 152/389/66
f 104/387/74 108/88/71 105/53/44
f 147/94/77 156/306/201 18/374/223
f 100/602/51 43/603/20 99/604/191
f 26/298/197 96/297/81 74/605/80
f 30/1/1 71/231/177 72/2/2
f 6/606/64 167/607/160 170/608/273
f 168/545/281 6/609/64 170/520/273
f 169/610/263 159/611/137 211/612/251
f 171/613/226 170/608/273 167/607/160
f 210/169/110 60/614/11 61/615/121
f 173/155/126 160/616/106 174/156/127
f 160/125/106 175/124/105 174/328/127
f 177/161/132 251/157/128 213/159/130
f 164/215/166 201/216/167 192/420/242
f 184/617/239 185/42/36 164/215/166
f 181/103/86 182/105/88 191/437/248
f 27/618/171 189/619/91 179/620/92 69/292/175
f 184/413/239 164/416/166 193/414/240
f 194/418/243 192/417/242 220/621/259
f 195/140/116 196/115/97 235/114/96
f 220/621/259 192/417/242 221/622/145
f 178/623/143 49/624/180 214/422/245
f 206/179/144 213/159/130 207/180/104
f 174/328/127 175/124/105 120/331/208
f 175/124/105 207/123/104 227/625/129
f 205/162/133 204/122/103 260/160/131
f 202/431/111 214/422/245 268/506/268
f 186/435/247 184/413/239 183/415/241
f 229/626/113 92/293/196 69/292/175 179/620/92
f 217/442/249 193/414/240 194/418/243
f 217/627/249 195/444/116 233/628/164
f 194/629/243 220/630/259 254/631/157
f 208/171/139 207/123/104 160/125/106
f 208/424/139 173/426/126 172/127/108
f 208/424/139 172/127/108 223/126/107
f 210/632/110 61/454/121 211/453/251
f 82/633/193 63/634/10 62/428/186
f 82/635/193 173/155/126 83/154/84
f 213/159/130 205/162/133 177/161/132
f 184/617/239 267/516/271 185/42/36
f 186/435/247 187/135/87 228/134/112
f 188/436/89 189/108/91 263/636/156
f 243/481/262 246/170/138 223/172/107 159/482/137
f 215/637/114 190/438/238 230/463/254
f 230/463/254 190/438/238 191/437/248
f 216/441/250 264/465/255 230/463/254
f 264/465/255 233/464/164 231/511/269
f 235/114/96 234/638/150 218/139/115
f 254/196/157 240/198/158 194/445/243
f 169/483/263 109/487/203 244/560/264
f 165/523/275 4/639/224 111/524/68
f 241/491/265 112/175/141 203/174/102
f 247/120/101 241/490/265 203/121/102
f 119/640/48 79/641/49 248/642/142
f 247/120/101 205/162/133 206/179/144
f 84/456/34 87/643/233 249/554/278 224/457/252
f 267/516/271 128/515/272 67/40/4 185/42/36
f 250/535/266 227/158/129 251/157/128
f 270/185/147 239/163/134 254/477/157
f 196/644/97 239/645/134 255/646/258
f 239/163/134 199/111/93 255/472/258
f 259/191/153 252/647/149 251/157/128
f 66/15/15 268/648/268 214/649/245
f 268/648/268 66/15/15 261/372/222
f 268/506/268 261/650/222 229/137/113 215/138/114
f 186/435/247 262/193/155 184/413/239
f 263/636/156 189/108/91 137/651/58
f 137/73/58 189/652/91 91/74/59
f 92/293/196 229/626/113 261/372/222
f 266/190/152 231/511/269 232/192/154
f 218/468/115 234/188/150 232/466/154
f 252/187/149 259/513/153 234/188/150
f 177/161/132 260/160/131 266/190/152
f 263/194/156 262/193/155 188/136/89
f 147/94/77 276/380/227 163/407/236 156/306/201
f 269/507/267 268/506/268 230/510/254
f 230/463/254 264/465/255 269/505/267
f 264/465/255 265/512/270 269/505/267
f 232/192/154 177/161/132 266/190/152
f 254/477/157 221/183/145 270/185/147
f 142/653/65 86/654/33 272/655/159
f 224/656/252 20/657/204 85/658/32
f 226/659/125 272/660/159 86/654/33
f 158/207/163 272/530/159 226/459/125
f 111/524/68 272/530/159 166/526/277
f 158/207/163 274/556/282 166/526/277
f 7/661/61 144/379/63 167/662/160
f 253/408/237 251/663/128 252/504/149
f 254/631/157 239/645/134 196/644/97
f 163/407/236 276/380/227 253/408/237
f 281/664/280 245/665/234 280/544/229
f 280/544/229 165/523/275 157/525/276
f 158/207/163 282/206/162 274/556/282
f 281/664/280 280/544/229 157/525/276
f 281/664/280 157/525/276 274/556/282
f 250/562/266 253/408/237 276/380/227
f 166/526/277 274/556/282 157/525/276
f 236/471/257 237/666/118 238/164/117
f 231/667/269 233/467/164 232/466/154
