# Blender 5.1.2
# www.blender.org
o tripo_node_12cda036-d2c6-45c4-851a-fd02923b0fef
v -0.169024 -0.448912 -0.092441
v -0.150751 -0.456508 0.019706
v -0.100001 -0.455821 -0.254213
v -0.100471 -0.380812 -0.019916
v -0.040649 -0.423031 0.156607
v -0.039014 -0.379552 0.120457
v -0.012669 -0.461935 -0.328559
v 0.013507 -0.170218 0.114337
v -0.019793 -0.346163 -0.239231
v 0.152332 -0.461280 0.009986
v -0.043882 0.066798 -0.158325
v -0.028288 -0.256557 -0.106156
v -0.006815 -0.191385 -0.097790
v -0.031198 -0.008400 -0.156963
v -0.033307 -0.247599 -0.377979
v -0.007279 0.127239 -0.050651
v -0.019775 0.118860 -0.142296
v -0.006567 -0.233352 0.034811
v 0.006192 0.012159 -0.057696
v 0.003364 -0.189565 -0.305916
v -0.014458 -0.257589 -0.281857
v -0.012892 -0.142011 -0.090715
v 0.024939 -0.274618 0.220222
v -0.008578 -0.159834 -0.056589
v 0.097414 -0.398044 0.117861
v 0.013813 -0.046894 -0.207456
v 0.030366 -0.311763 -0.269151
v 0.004476 -0.157617 -0.392278
v 0.036394 -0.132321 -0.359902
v 0.066315 -0.374173 -0.251110
v 0.026327 -0.061066 -0.318992
v 0.020652 0.015829 0.013869
v 0.023975 -0.051115 0.070991
v 0.020962 0.102032 0.033417
v 0.073377 -0.228210 -0.324673
v 0.009855 0.148938 -0.149107
v 0.020388 0.215287 -0.046212
v 0.040504 0.127281 0.026214
v 0.034043 0.246208 -0.213870
v 0.030297 0.250091 -0.162063
v 0.032748 -0.134381 0.110792
v 0.095078 -0.454010 -0.277603
v 0.035697 -0.173870 0.243411
v 0.048980 0.054627 -0.184108
v 0.026899 -0.045018 -0.384656
v 0.028769 0.140443 0.066965
v 0.108586 -0.291507 0.200041
v 0.059152 -0.011693 0.231538
v 0.070078 0.108563 -0.149784
v 0.082617 -0.251911 -0.395681
v 0.076520 0.425605 0.037665
v 0.060533 0.315129 0.090573
v 0.069796 -0.017569 -0.299913
v 0.044863 0.322498 -0.205989
v 0.077495 -0.333648 0.271025
v 0.071124 -0.166578 -0.397084
v 0.072411 0.265102 -0.170480
v 0.051143 0.103012 0.185601
v 0.062467 0.389798 -0.086991
v 0.084430 -0.302807 0.384087
v 0.062623 -0.230517 0.419178
v 0.081265 0.366573 -0.210209
v 0.091185 -0.114143 0.341133
v 0.064612 -0.086768 0.295920
v 0.094071 -0.341606 -0.339831
v 0.081810 -0.144180 0.251522
v 0.052818 0.014789 -0.404071
v 0.062273 0.233036 0.216054
v 0.071979 0.079756 -0.268385
v 0.067611 0.162173 -0.348540
v 0.090906 0.182095 0.264356
v 0.108629 -0.259223 -0.313271
v 0.089660 0.434290 -0.186227
v 0.069961 0.392063 0.214791
v 0.088006 0.405126 0.125701
v 0.099861 0.058044 -0.136689
v 0.098200 -0.049603 -0.400141
v 0.089110 0.413146 0.004428
v 0.078383 0.137559 0.298274
v 0.088382 -0.083861 -0.365970
v 0.073885 0.156446 -0.247327
v 0.098012 0.362554 0.256611
v 0.085787 0.079977 -0.433043
v 0.123513 -0.317318 -0.284337
v 0.099565 -0.281909 0.434417
v 0.087701 -0.012754 0.354650
v 0.105430 0.477833 -0.088215
v 0.118466 0.023302 -0.410728
v 0.093845 0.134245 0.369979
v 0.092159 0.291405 0.311589
v 0.106313 0.320299 0.100997
v 0.106478 0.386893 -0.095663
v 0.126971 -0.019608 0.228065
v 0.134410 -0.233703 0.395189
v 0.170443 -0.450719 -0.114498
v 0.136834 0.023731 -0.334782
v 0.100799 0.469076 -0.031341
v 0.135983 0.273407 0.313788
v 0.120576 0.266994 -0.095447
v 0.121188 0.151479 -0.247082
v 0.123348 0.167369 -0.068418
v 0.102505 0.364780 0.058855
v 0.126937 0.369111 0.192143
v 0.112830 -0.200438 -0.239964
v 0.135432 -0.098887 0.283207
v 0.143493 -0.030833 0.326300
v 0.147116 -0.351459 -0.134455
v 0.126692 0.162797 -0.355433
v 0.128438 0.235360 0.209770
v 0.138248 -0.022070 -0.263577
v 0.104368 -0.054954 -0.137191
v 0.101478 0.261839 -0.052921
v 0.144753 0.095867 0.358473
v 0.113015 0.073634 -0.268477
v 0.121160 -0.215351 -0.140244
v 0.127756 -0.162252 0.239370
v 0.107407 -0.390165 -0.123142
v 0.133235 0.154199 0.255725
v 0.135194 0.228437 0.010074
v 0.128966 -0.099939 -0.130829
v 0.135580 -0.185793 -0.067157
v 0.148205 0.012117 -0.149018
v 0.142250 -0.304001 -0.026908
v 0.133181 0.063280 0.120856
v 0.150491 0.361237 0.209761
v 0.141976 -0.046764 -0.048684
v 0.140611 0.035877 -0.037988
v 0.136354 0.161330 -0.017236
v 0.147466 0.087690 -0.097590
vn -0.1322 -0.3937 -0.9097
vn 0.9493 -0.2652 -0.1691
vn 0.7977 -0.5306 0.2865
vn -0.9349 0.3484 -0.0680
vn -0.6426 0.2918 -0.7084
vn -0.7841 -0.3848 -0.4870
vn -0.8221 0.5618 0.0922
vn -0.9609 -0.1927 -0.1990
vn -0.8294 -0.4184 0.3701
vn -0.6430 0.3145 0.6983
vn -0.2768 -0.2362 0.9315
vn 0.6687 -0.4389 0.6002
vn 0.7921 -0.5882 0.1631
vn 0.4591 -0.2649 -0.8480
vn 0.6898 -0.4085 -0.5978
vn -0.9684 -0.0061 -0.2492
vn -0.3538 -0.5473 -0.7585
vn 0.1283 -0.1182 -0.9847
vn 0.9262 -0.3758 -0.0303
vn 0.5406 0.4404 -0.7168
vn -0.7813 0.1452 -0.6070
vn 0.4633 0.0289 -0.8858
vn 0.8588 -0.0561 -0.5092
vn -0.9128 0.4054 -0.0495
vn -0.9434 0.3051 0.1299
vn -0.8724 -0.3651 0.3249
vn -0.9706 0.1822 -0.1571
vn -0.9896 0.0937 0.1093
vn -0.9052 -0.1035 -0.4123
vn -0.9111 0.1698 -0.3757
vn -0.9991 -0.0424 0.0004
vn -0.9420 -0.0482 -0.3323
vn -0.9572 -0.0284 0.2880
vn -0.6381 0.2454 -0.7298
vn -0.7924 0.5898 -0.1553
vn -0.7262 0.0327 -0.6867
vn 0.3213 -0.2468 -0.9143
vn -0.5712 0.2780 -0.7723
vn -0.9799 0.0313 0.1970
vn -0.9571 0.2879 0.0328
vn -0.8757 0.1229 -0.4669
vn -0.7853 0.5506 0.2831
vn -0.9642 0.2053 0.1678
vn -0.6833 0.5441 -0.4869
vn -0.9513 0.1759 0.2532
vn -0.6620 0.5315 -0.5284
vn 0.4490 0.1456 -0.8816
vn -0.7786 0.0568 -0.6250
vn 0.9049 0.3909 -0.1685
vn 0.8948 0.0990 -0.4353
vn 0.9141 0.1176 -0.3881
vn -0.9359 0.2842 -0.2079
vn -0.2424 0.3759 -0.8944
vn 0.8473 -0.0399 -0.5297
vn 0.9934 0.0342 -0.1094
vn 0.9976 -0.0198 -0.0666
vn 0.9770 -0.1867 0.1025
vn 0.9906 0.0541 -0.1255
vn -0.4886 0.6161 -0.6179
vn 0.7139 0.1238 -0.6893
vn 0.7119 0.2968 -0.6365
vn 0.9864 0.0782 -0.1445
vn -0.6930 -0.5287 -0.4902
vn -0.5732 0.8178 0.0519
vn -0.0991 0.2500 -0.9632
vn 0.5938 -0.4978 -0.6322
vn 0.5886 0.8056 -0.0668
vn 0.9244 -0.3643 -0.1125
vn -0.9900 0.0167 0.1401
vn -0.9923 0.0846 0.0899
vn -0.9637 0.2667 -0.0146
vn -0.8870 0.4074 -0.2175
vn 0.9685 -0.0762 -0.2369
vn 0.7840 0.1068 -0.6115
vn 0.9976 0.0393 -0.0562
vn 0.8571 -0.0154 0.5150
vn 0.9933 -0.0041 -0.1154
vn 0.9995 0.0001 0.0304
vn 0.9933 0.0997 -0.0576
vn 0.9966 0.0111 0.0817
vn 0.9206 0.3797 -0.0915
vn 0.8709 0.0488 0.4890
vn 0.9932 0.0048 0.1165
vn 0.0239 0.9353 0.3530
vn 0.0174 -0.9998 -0.0005
vn -0.0880 -0.9406 0.3279
vn -0.5698 0.1995 0.7972
vn -0.3905 0.0986 0.9153
vn -0.9293 -0.0123 0.3692
vn -0.9737 0.0636 0.2186
vn -0.0216 0.3801 0.9247
vn 0.6853 -0.0713 0.7248
vn 0.9494 0.0282 0.3129
vn -0.7781 0.5514 0.3008
vn -0.2997 0.5867 0.7523
vn -0.4573 -0.5342 0.7110
vn 0.6105 -0.7325 0.3013
vn 0.9856 0.0917 -0.1419
vn 0.8709 0.3979 0.2885
vn 0.7741 0.1722 0.6091
vn 0.1813 -0.5100 0.8408
vn -0.9912 0.0970 0.0905
vn 0.7029 -0.0633 -0.7085
vn -0.9314 0.3573 0.0695
vn -0.4680 0.8500 -0.2418
vn 0.5791 0.7729 -0.2594
vn -0.5813 -0.0644 -0.8112
vn -0.1555 0.8115 0.5634
vn -0.8647 0.4883 -0.1179
vn 0.1654 0.8739 -0.4571
vn 0.9026 0.2358 -0.3601
vn 0.1710 0.8646 -0.4724
vn 0.4068 0.1063 -0.9073
vn 0.9669 0.1715 -0.1892
vn 0.7038 0.6949 -0.1476
vn 0.1642 0.9438 0.2870
vn 0.3382 0.5837 0.7382
vn 0.7000 0.4189 0.5784
vn -0.8759 -0.0587 0.4790
vn -0.1764 0.6637 0.7269
vn 0.7431 0.6575 -0.1246
vn 0.9353 -0.1584 0.3165
vn -0.5050 0.8017 0.3199
vn -0.0247 0.8720 -0.4889
vn -0.4736 0.0131 0.8806
vn 0.0832 0.7560 0.6493
vn 0.8385 0.5130 -0.1839
vn 0.5203 -0.3021 0.7988
vn 0.6762 0.6628 -0.3217
vt 0.720737 0.743493
vt 0.628040 0.691642
vt 0.656197 0.649958
vt 0.840600 0.714585
vt 0.788597 0.739833
vt 0.747631 0.692722
vt 0.826266 0.647229
vt 0.775587 0.624348
vt 0.748352 0.624074
vt 0.825837 0.926568
vt 0.788584 0.891613
vt 0.841302 0.834162
vt 0.768932 0.800269
vt 0.759009 0.817999
vt 0.693143 0.799796
vt 0.728823 0.776081
vt 0.659545 0.861319
vt 0.746160 0.762199
vt 0.703782 0.758132
vt 0.928517 0.491108
vt 0.894301 0.422975
vt 0.941831 0.414267
vt 0.884967 0.446294
vt 0.811711 0.213336
vt 0.849649 0.237411
vt 0.784155 0.225690
vt 0.872687 0.180038
vt 0.923093 0.244295
vt 0.754263 0.054802
vt 0.766964 0.015000
vt 0.794437 0.062888
vt 0.799021 0.005514
vt 0.164096 0.941547
vt 0.084654 0.970194
vt 0.091642 0.911201
vt 0.168897 0.991223
vt 0.107622 0.993540
vt 0.827854 0.768820
vt 0.796328 0.768404
vt 0.770304 0.768234
vt 0.508487 0.364011
vt 0.483649 0.387273
vt 0.473366 0.377365
vt 0.509930 0.325962
vt 0.469908 0.301821
vt 0.463914 0.355601
vt 0.581932 0.308624
vt 0.568057 0.363695
vt 0.957263 0.542858
vt 0.935877 0.574494
vt 0.567322 0.989481
vt 0.469780 0.964317
vt 0.563382 0.942909
vt 0.511558 0.910866
vt 0.899046 0.505537
vt 0.908319 0.534550
vt 0.859595 0.578748
vt 0.750011 0.547320
vt 0.735232 0.597399
vt 0.709305 0.570126
vt 0.765639 0.585459
vt 0.125613 0.412749
vt 0.084572 0.382993
vt 0.104042 0.387609
vt 0.068615 0.408422
vt 0.070750 0.430648
vt 0.660631 0.091842
vt 0.652497 0.114590
vt 0.591776 0.087101
vt 0.070523 0.303866
vt 0.077384 0.360522
vt 0.055150 0.328060
vt 0.125291 0.320269
vt 0.111704 0.285375
vt 0.103394 0.360719
vt 0.752666 0.774140
vt 0.366249 0.689604
vt 0.362515 0.637214
vt 0.421983 0.647526
vt 0.111554 0.449110
vt 0.637734 0.298897
vt 0.651156 0.254664
vt 0.692964 0.266639
vt 0.681708 0.324724
vt 0.621194 0.249735
vt 0.714963 0.286998
vt 0.655122 0.329195
vt 0.663759 0.346378
vt 0.677439 0.347570
vt 0.728438 0.253137
vt 0.770232 0.282190
vt 0.751179 0.285471
vt 0.290125 0.408416
vt 0.263203 0.388633
vt 0.303347 0.359065
vt 0.407337 0.298788
vt 0.264671 0.334518
vt 0.190095 0.657909
vt 0.176175 0.686211
vt 0.120526 0.677134
vt 0.839733 0.045986
vt 0.862749 0.024056
vt 0.880258 0.069565
vt 0.173424 0.726908
vt 0.140718 0.742212
vt 0.131131 0.722363
vt 0.668150 0.405602
vt 0.712673 0.377155
vt 0.695883 0.457387
vt 0.616055 0.895710
vt 0.598424 0.847378
vt 0.690032 0.774328
vt 0.590551 0.801949
vt 0.599413 0.794372
vt 0.599959 0.870755
vt 0.409990 0.252297
vt 0.400426 0.194289
vt 0.417158 0.231715
vt 0.368648 0.258586
vt 0.854848 0.629092
vt 0.534840 0.706587
vt 0.495275 0.696542
vt 0.507892 0.660190
vt 0.564302 0.764050
vt 0.607436 0.759030
vt 0.620185 0.726207
vt 0.714620 0.560708
vt 0.887371 0.612286
vt 0.886401 0.623647
vt 0.017457 0.797051
vt 0.045239 0.776717
vt 0.053070 0.809989
vt 0.062752 0.786507
vt 0.430027 0.805046
vt 0.450207 0.727828
vt 0.153683 0.050046
vt 0.221878 0.073705
vt 0.180511 0.078265
vt 0.140855 0.057825
vt 0.188202 0.263195
vt 0.136284 0.246641
vt 0.158252 0.219066
vt 0.150633 0.291573
vt 0.230368 0.304285
vt 0.204616 0.223332
vt 0.165701 0.189462
vt 0.249741 0.288048
vt 0.243516 0.208224
vt 0.429170 0.908486
vt 0.448347 0.889695
vt 0.824104 0.491081
vt 0.856805 0.488905
vt 0.293270 0.479105
vt 0.309783 0.482337
vt 0.307919 0.493578
vt 0.273845 0.559141
vt 0.314908 0.526725
vt 0.614258 0.949459
vt 0.585373 0.988791
vt 0.060725 0.599731
vt 0.103931 0.610068
vt 0.063467 0.611182
vt 0.082471 0.186223
vt 0.017043 0.184336
vt 0.012206 0.167444
vt 0.061045 0.241527
vt 0.040146 0.243025
vt 0.756606 0.107478
vt 0.817654 0.131740
vt 0.785910 0.174639
vt 0.698651 0.500970
vt 0.739907 0.488781
vt 0.769601 0.414468
vt 0.835294 0.430911
vt 0.830371 0.392502
vt 0.867388 0.380664
vt 0.895956 0.340134
vt 0.852003 0.322437
vt 0.804615 0.317929
vt 0.910176 0.380536
vt 0.842659 0.288438
vt 0.813858 0.297545
vt 0.922072 0.292045
vt 0.807916 0.182260
vt 0.857546 0.290430
vt 0.879013 0.287577
vt 0.046074 0.625212
vt 0.070734 0.641396
vt 0.033628 0.634459
vt 0.970154 0.294219
vt 0.352836 0.871539
vt 0.368282 0.824364
vt 0.398844 0.840215
vt 0.350481 0.937573
vt 0.363936 0.905305
vt 0.457038 0.220241
vt 0.537604 0.285480
vt 0.520007 0.280946
vt 0.476277 0.267569
vt 0.819349 0.085396
vt 0.847234 0.091260
vt 0.833354 0.121305
vt 0.446185 0.425678
vt 0.340879 0.427188
vt 0.377201 0.416865
vt 0.402785 0.530883
vt 0.379293 0.576813
vt 0.349719 0.524652
vt 0.450895 0.505270
vt 0.931600 0.975225
vt 0.870311 0.964563
vt 0.880447 0.914243
vt 0.911886 0.971889
vt 0.957468 0.877142
vt 0.308962 0.956666
vt 0.252341 0.940997
vt 0.298074 0.837569
vt 0.317697 0.894730
vt 0.267396 0.852731
vt 0.339665 0.650002
vt 0.291502 0.658642
vt 0.341347 0.613648
vt 0.200582 0.558007
vt 0.185336 0.514108
vt 0.222115 0.461944
vt 0.182436 0.571663
vt 0.193681 0.581787
vt 0.032437 0.552854
vt 0.033348 0.587755
vt 0.008234 0.579250
vt 0.050039 0.426348
vt 0.049472 0.470316
vt 0.028685 0.461309
vt 0.021888 0.422390
vt 0.294418 0.695101
vt 0.332753 0.696455
vt 0.178575 0.814389
vt 0.236752 0.866068
vt 0.169646 0.836560
vt 0.187036 0.889596
vt 0.212797 0.818042
vt 0.239993 0.905353
vt 0.197235 0.915147
vt 0.055306 0.582937
vt 0.011335 0.453207
vt 0.298343 0.716614
vt 0.338686 0.741491
vt 0.465228 0.259257
vt 0.199538 0.357928
vt 0.254172 0.358247
vt 0.218239 0.406612
vt 0.245504 0.393058
vt 0.177791 0.403015
vt 0.148003 0.401772
vt 0.154944 0.364520
vt 0.288014 0.043534
vt 0.310934 0.046722
vt 0.266487 0.072285
vt 0.283512 0.025294
vt 0.313546 0.840909
vt 0.314053 0.874336
vt 0.457727 0.441295
vt 0.445348 0.453906
vt 0.115124 0.068687
vt 0.125351 0.086672
vt 0.061795 0.091941
vt 0.121100 0.115431
vt 0.070846 0.120777
vt 0.095792 0.143105
vt 0.138329 0.093033
vt 0.042387 0.294601
vt 0.017969 0.292038
vt 0.013724 0.271188
vt 0.254565 0.634473
vt 0.261759 0.649120
vt 0.198202 0.638742
vt 0.284371 0.597407
vt 0.286116 0.605640
vt 0.262918 0.620253
vt 0.219678 0.608807
vt 0.241916 0.603535
vt 0.526733 0.141104
vt 0.485117 0.098467
vt 0.494018 0.070352
vt 0.469615 0.084199
vt 0.175249 0.614078
vt 0.015784 0.945897
vt 0.018773 0.925363
vt 0.022583 0.978371
vt 0.500570 0.141784
vt 0.130121 0.571932
vt 0.135975 0.531699
vt 0.159620 0.534587
vt 0.162974 0.580955
vt 0.134988 0.527224
vt 0.160568 0.507170
vt 0.128669 0.496473
vt 0.129882 0.508912
vt 0.920426 0.631410
vt 0.951287 0.650950
vt 0.879474 0.684132
vt 0.960025 0.684594
vt 0.923878 0.750781
vt 0.220550 0.681184
vt 0.248630 0.698232
vt 0.225710 0.792098
vt 0.270501 0.775424
vt 0.851368 0.753620
vt 0.907078 0.773825
vt 0.952520 0.809211
vt 0.206215 0.142659
vt 0.167175 0.139346
vt 0.208187 0.102390
vt 0.237421 0.106381
vt 0.245395 0.136327
vt 0.138184 0.129455
vt 0.143777 0.119953
vt 0.141766 0.179907
vt 0.108392 0.197219
vt 0.102658 0.171727
vt 0.125994 0.157504
vt 0.699505 0.150787
vt 0.749449 0.177168
vt 0.644126 0.176526
vt 0.642173 0.157065
vt 0.704116 0.237219
vt 0.740624 0.151836
vt 0.382908 0.799171
vt 0.334157 0.820330
vt 0.370849 0.781985
vt 0.340729 0.768647
vt 0.440610 0.078797
vt 0.425062 0.085529
vt 0.430716 0.053305
vt 0.665144 0.240070
vt 0.123479 0.241091
vt 0.599099 0.070002
vt 0.582110 0.043770
vt 0.603603 0.047938
vt 0.966034 0.191756
vt 0.990755 0.190964
vt 0.976015 0.260579
vt 0.956567 0.260228
vt 0.942716 0.214225
vt 0.932384 0.193734
vt 0.957121 0.167918
vt 0.930990 0.180657
vt 0.922511 0.170965
vt 0.911779 0.818353
vt 0.912078 0.157850
vt 0.941697 0.094524
vt 0.952191 0.140317
vt 0.975115 0.120434
vt 0.969152 0.088567
vt 0.977869 0.091891
vt 0.968172 0.131849
vt 0.594691 0.633925
vt 0.563889 0.625089
vt 0.592592 0.563721
vt 0.533032 0.589925
vt 0.520144 0.609131
vt 0.539612 0.645380
vt 0.727875 0.081148
vt 0.678998 0.072293
vt 0.683732 0.029347
vt 0.490250 0.596323
vt 0.475838 0.574415
vt 0.484459 0.554057
vt 0.646027 0.486168
vt 0.632849 0.529277
vt 0.615254 0.470364
vt 0.648835 0.441328
vt 0.606873 0.425861
vt 0.546918 0.544627
vt 0.502331 0.494194
vt 0.565177 0.464229
vt 0.579123 0.417360
vt 0.487167 0.458619
vt 0.503677 0.406116
vt 0.076126 0.670927
vt 0.075544 0.710272
vt 0.036998 0.693984
vt 0.044897 0.660305
vt 0.644196 0.054345
vt 0.647660 0.021152
vt 0.320719 0.070079
vt 0.374607 0.071047
vt 0.319723 0.092297
vt 0.084619 0.842862
vt 0.082279 0.777555
vt 0.112845 0.838516
vt 0.280485 0.805620
vt 0.270370 0.810272
vt 0.279824 0.792429
vt 0.141503 0.842324
vt 0.139366 0.852687
vt 0.975394 0.057628
vt 0.935064 0.044754
vt 0.978115 0.034419
vt 0.060108 0.902409
vt 0.036364 0.899001
vt 0.029496 0.864934
s 1
f 7/1/1 95/2/2 10/3/3
f 12/4/4 9/5/5 3/6/6
f 9/5/5 7/1/1 3/6/6
f 4/7/7 3/6/6 1/8/8
f 2/9/9 1/8/8 3/6/6
f 7/1/1 2/9/9 3/6/6
f 1/10/8 2/11/9 4/12/7
f 6/13/10 5/14/11 25/15/12
f 47/16/13 6/13/10 25/15/12
f 25/15/12 5/14/11 10/17/3
f 2/9/9 7/1/1 10/3/3
f 3/6/6 4/7/7 12/4/4
f 9/5/5 30/18/14 7/1/1
f 7/1/1 30/18/14 42/19/15
f 21/20/16 9/21/5 12/22/4
f 21/20/16 27/23/17 9/21/5
f 27/24/17 30/25/14 9/26/5
f 65/27/18 107/28/19 30/25/14
f 21/29/16 35/30/20 15/31/21
f 15/31/21 35/30/20 50/32/22
f 15/33/21 27/34/17 21/35/16
f 50/36/22 72/37/23 27/34/17
f 27/34/17 15/33/21 50/36/22
f 18/38/24 4/12/7 8/39/25
f 6/13/10 23/40/26 8/39/25
f 6/13/10 8/39/25 4/12/7
f 12/41/4 4/42/7 18/43/24
f 13/44/27 12/41/4 24/45/28
f 12/41/4 18/46/24 24/45/28
f 12/41/4 20/47/29 21/48/16
f 12/41/4 13/44/27 20/47/29
f 20/49/29 35/50/20 21/20/16
f 26/51/30 22/52/31 14/53/32
f 22/52/31 19/54/33 14/53/32
f 26/55/30 53/56/34 31/57/35
f 20/58/29 28/59/36 56/60/37
f 20/58/29 29/61/38 28/59/36
f 24/62/28 33/63/39 22/64/31
f 41/65/40 33/63/39 24/62/28
f 24/62/28 8/66/25 41/65/40
f 24/67/28 22/68/31 13/69/27
f 19/70/33 11/71/41 14/72/32
f 11/71/41 19/70/33 16/73/42
f 19/70/33 34/74/43 16/73/42
f 16/73/42 17/75/44 11/71/41
f 5/14/11 6/13/10 2/11/9
f 6/13/10 4/12/7 2/11/9
f 6/13/10 47/16/13 23/76/26
f 10/17/3 5/14/11 2/11/9
f 23/77/26 43/78/45 8/79/25
f 18/80/24 8/66/25 24/62/28
f 44/81/46 11/82/41 17/83/44
f 44/81/46 17/83/44 49/84/47
f 14/85/32 11/82/41 44/81/46
f 36/86/48 49/84/47 17/83/44
f 49/84/47 76/87/49 44/81/46
f 129/88/50 49/84/47 101/89/51
f 36/86/48 17/83/44 16/90/42
f 40/91/52 39/92/53 36/86/48
f 65/93/18 27/94/17 84/95/54
f 107/96/19 65/93/18 84/95/54
f 107/96/19 84/95/54 72/97/23
f 30/25/14 27/24/17 65/27/18
f 7/98/1 42/99/15 95/100/2
f 42/101/15 30/102/14 117/103/55
f 30/104/14 107/105/19 117/106/55
f 117/106/55 95/100/2 42/99/15
f 121/107/56 123/108/57 115/109/58
f 95/110/2 25/15/12 10/17/3
f 117/111/55 47/112/13 25/15/12
f 117/111/55 107/113/19 123/114/57
f 25/15/12 95/110/2 117/115/55
f 123/116/57 47/117/13 117/118/55
f 121/119/56 47/117/13 123/116/57
f 20/58/29 31/57/35 45/120/59
f 20/58/29 45/120/59 29/61/38
f 29/121/38 56/122/37 28/123/36
f 29/121/38 80/124/60 56/122/37
f 77/125/61 80/124/60 45/126/59
f 20/58/29 56/60/37 35/127/20
f 29/121/38 45/126/59 80/124/60
f 53/128/34 80/129/60 31/57/35
f 45/130/59 31/131/35 77/132/61
f 77/132/61 31/131/35 80/133/60
f 104/134/62 35/135/20 56/122/37
f 80/124/60 104/134/62 56/122/37
f 72/136/23 50/137/22 35/138/20
f 72/136/23 35/138/20 104/139/62
f 67/140/63 70/141/64 83/142/65
f 70/143/64 67/140/63 53/144/34
f 83/142/65 88/145/66 67/140/63
f 108/146/67 88/145/66 83/142/65
f 53/147/34 67/140/63 88/145/66
f 96/148/68 53/147/34 88/145/66
f 22/52/31 33/149/39 32/150/69
f 32/150/69 19/54/33 22/52/31
f 20/58/29 13/151/27 31/57/35
f 31/57/35 13/151/27 22/152/31
f 31/57/35 22/152/31 26/55/30
f 46/153/70 38/154/71 34/155/43
f 34/155/43 33/156/39 46/153/70
f 33/156/39 34/155/43 32/157/69
f 44/158/46 26/159/30 14/53/32
f 27/160/17 72/161/23 84/162/54
f 53/163/34 69/164/72 70/165/64
f 69/164/72 53/163/34 26/166/30
f 69/164/72 26/166/30 44/167/46
f 96/168/68 110/169/73 53/170/34
f 104/171/62 115/109/58 72/172/23
f 115/109/58 107/173/19 72/172/23
f 104/174/62 80/175/60 115/176/58
f 120/177/74 115/176/58 111/178/75
f 111/178/75 115/176/58 110/179/73
f 110/179/73 115/176/58 80/175/60
f 121/180/56 115/176/58 120/177/74
f 76/181/49 111/178/75 122/182/76
f 110/179/73 122/182/76 111/178/75
f 120/177/74 126/183/77 121/180/56
f 80/184/60 53/170/34 110/169/73
f 111/178/75 76/185/49 126/186/77
f 126/183/77 120/177/74 111/178/75
f 129/187/50 126/188/77 76/189/49
f 123/108/57 107/173/19 115/109/58
f 121/180/56 126/183/77 124/190/78
f 129/191/50 101/192/51 128/193/79
f 126/194/77 129/191/50 127/195/80
f 129/191/50 128/193/79 127/195/80
f 124/196/78 126/197/77 127/198/80
f 124/196/78 127/198/80 128/199/79
f 114/200/81 122/201/76 110/202/73
f 94/203/82 116/204/83 63/205/84
f 55/206/85 23/207/26 47/208/13
f 47/208/13 60/209/86 55/206/85
f 94/203/82 60/209/86 47/208/13
f 116/210/83 47/211/13 121/212/56
f 47/211/13 116/210/83 94/213/82
f 121/212/56 124/214/78 116/210/83
f 55/206/85 60/209/86 23/207/26
f 43/215/45 23/216/26 61/217/87
f 43/215/45 61/217/87 63/218/84
f 61/217/87 23/216/26 60/219/86
f 64/220/88 48/221/89 43/222/45
f 41/223/40 48/224/89 58/225/90
f 41/223/40 58/225/90 33/156/39
f 33/156/39 58/225/90 46/153/70
f 43/226/45 48/224/89 8/227/25
f 8/227/25 48/224/89 41/223/40
f 63/228/84 66/229/91 43/230/45
f 64/231/88 43/232/45 66/233/91
f 64/231/88 66/233/91 105/234/92
f 48/221/89 64/220/88 93/235/93
f 93/235/93 64/220/88 105/236/92
f 79/237/94 48/238/89 89/239/95
f 89/239/95 48/238/89 86/240/96
f 48/238/89 79/237/94 58/241/90
f 48/238/89 93/242/93 106/243/97
f 48/238/89 106/243/97 86/240/96
f 66/229/91 63/228/84 116/244/83
f 105/234/92 66/233/91 116/245/83
f 93/235/93 105/236/92 124/246/78
f 124/246/78 105/236/92 116/247/83
f 124/196/78 128/199/79 119/248/98
f 106/249/97 93/250/93 118/251/99
f 93/250/93 124/252/78 118/251/99
f 118/251/99 113/253/100 106/249/97
f 89/254/95 86/255/96 113/253/100
f 106/249/97 113/253/100 86/255/96
f 85/256/101 61/257/87 60/258/86
f 61/257/87 85/256/101 94/259/82
f 61/217/87 94/260/82 63/261/84
f 85/262/101 60/263/86 94/203/82
f 69/264/72 114/265/81 70/266/64
f 114/265/81 96/267/68 108/268/67
f 88/269/66 108/268/67 96/267/68
f 110/270/73 96/267/68 114/265/81
f 83/271/65 70/272/64 108/273/67
f 38/274/71 46/275/70 37/276/102
f 19/277/33 32/278/69 34/279/43
f 38/274/71 36/280/48 16/281/42
f 38/274/71 16/281/42 34/279/43
f 49/282/47 39/283/53 57/284/103
f 57/284/103 39/283/53 40/285/52
f 38/274/71 37/276/102 36/280/48
f 36/280/48 37/276/102 40/286/52
f 58/287/90 52/288/104 46/289/70
f 36/290/48 39/283/53 49/282/47
f 44/291/46 76/292/49 81/293/105
f 44/291/46 81/293/105 69/294/72
f 81/293/105 76/295/49 100/296/106
f 122/297/76 100/296/106 76/298/49
f 49/84/47 129/88/50 76/87/49
f 40/299/52 37/300/102 54/301/107
f 51/302/108 59/303/109 37/300/102
f 54/301/107 37/300/102 59/303/109
f 37/304/102 46/305/70 51/306/108
f 51/306/108 46/305/70 52/307/104
f 59/303/109 73/308/110 54/301/107
f 92/309/111 59/303/109 87/310/112
f 62/311/113 54/312/107 73/313/110
f 73/314/110 92/315/111 62/311/113
f 54/312/107 57/316/103 40/317/52
f 100/318/106 114/319/81 69/320/72
f 100/318/106 69/320/72 81/321/105
f 57/322/103 62/323/113 112/324/114
f 99/325/115 57/322/103 112/324/114
f 62/323/113 92/326/111 112/324/114
f 57/322/103 54/327/107 62/323/113
f 108/268/67 70/266/64 114/265/81
f 99/328/115 128/193/79 101/192/51
f 101/192/51 49/329/47 99/330/115
f 49/329/47 57/331/103 99/330/115
f 99/332/115 112/333/114 128/334/79
f 119/335/98 112/324/114 92/326/111
f 100/318/106 122/336/76 114/319/81
f 128/337/79 112/338/114 119/339/98
f 97/340/116 87/341/112 59/342/109
f 97/340/116 51/343/108 78/344/117
f 59/342/109 51/343/108 97/340/116
f 59/303/109 92/309/111 73/308/110
f 97/340/116 78/344/117 102/345/118
f 87/346/112 102/347/118 119/348/98
f 87/346/112 97/340/116 102/347/118
f 119/349/98 92/309/111 87/310/112
f 52/350/104 58/351/90 68/352/119
f 71/353/120 58/354/90 79/355/94
f 71/353/120 68/356/119 58/351/90
f 103/357/121 109/358/122 124/359/78
f 109/358/122 118/360/99 124/359/78
f 71/361/120 118/360/99 68/362/119
f 68/362/119 118/360/99 109/358/122
f 68/363/119 74/364/123 52/365/104
f 79/366/94 89/367/95 118/360/99
f 118/360/99 89/367/95 113/368/100
f 118/360/99 71/361/120 79/366/94
f 75/369/124 52/370/104 74/371/123
f 75/372/124 74/371/123 103/373/121
f 68/374/119 90/375/125 74/371/123
f 74/371/123 82/376/126 103/373/121
f 82/376/126 125/377/127 103/373/121
f 90/375/125 82/376/126 74/371/123
f 82/376/126 90/375/125 98/378/128
f 82/376/126 98/378/128 125/377/127
f 98/378/128 109/379/122 125/377/127
f 68/380/119 109/381/122 98/382/128
f 68/380/119 98/382/128 90/383/125
f 124/384/78 119/339/98 103/385/121
f 103/386/121 119/387/98 91/388/129
f 125/389/127 109/390/122 103/391/121
f 119/392/98 102/393/118 91/394/129
f 102/393/118 51/306/108 52/307/104
f 102/393/118 52/307/104 91/394/129
f 103/391/121 91/395/129 75/396/124
f 52/397/104 75/398/124 91/399/129
f 78/400/117 51/401/108 102/402/118
