# Blender 5.1.2
# www.blender.org
o tripo_node_815ac2f5-da54-4c4a-9517-ac2b25af4499
v -0.446566 -0.108524 -0.100450
v -0.356417 -0.186263 -0.099973
v -0.393879 -0.147371 -0.175201
v -0.389293 -0.026978 0.103305
v -0.381890 -0.003921 0.158751
v -0.355458 -0.136318 -0.103614
v -0.377243 -0.040312 -0.074352
v -0.354465 -0.153633 0.180736
v -0.372815 -0.303169 -0.125704
v -0.367543 -0.081822 -0.024379
v -0.340623 -0.029858 -0.208985
v -0.354315 -0.114995 -0.190473
v -0.312380 -0.134689 0.001829
v -0.315448 -0.208386 0.118082
v -0.328950 -0.084838 -0.137172
v -0.366950 -0.029008 0.031325
v -0.303777 -0.267747 -0.181332
v -0.354744 -0.099961 -0.340809
v -0.342908 0.048776 0.314339
v -0.318108 -0.058051 -0.090811
v -0.290154 -0.154590 -0.077165
v -0.293680 0.008105 0.355621
v -0.282747 -0.047799 0.247291
v -0.327761 -0.240046 -0.272927
v -0.325882 0.213229 0.105296
v -0.292549 -0.081483 -0.014673
v -0.344688 -0.282121 0.059643
v -0.296835 0.083174 0.084700
v -0.265307 0.167479 0.136736
v -0.294787 0.190609 0.167039
v -0.285792 -0.224099 0.195471
v -0.267001 -0.140746 0.163159
v -0.274733 0.058486 0.274266
v -0.273586 -0.347011 -0.176515
v -0.260655 -0.289338 0.112684
v -0.303454 0.141984 0.315787
v -0.280028 -0.132220 -0.148515
v -0.307382 -0.035581 -0.276060
v -0.244226 -0.336614 0.069407
v -0.298809 -0.022418 0.058292
v -0.300270 -0.119210 -0.247366
v -0.277240 0.067804 0.219851
v -0.208812 -0.284918 0.031573
v -0.291877 0.119789 0.175336
v -0.277766 0.208609 0.245745
v -0.255513 -0.017193 -0.084598
v -0.254580 -0.293922 -0.227173
v -0.263780 0.160942 0.048281
v -0.240935 -0.098697 -0.309021
v -0.202873 -0.188366 -0.292529
v -0.244097 -0.283158 -0.176201
v -0.273767 -0.104125 0.207595
v -0.219397 -0.086546 -0.137372
v -0.254680 -0.308854 -0.089916
v -0.213435 -0.057323 0.006224
v -0.262982 0.067271 0.181319
v -0.208384 -0.136319 0.036312
v -0.223542 0.224065 0.075266
v -0.227058 -0.057114 -0.280302
v -0.265007 -0.202510 -0.079992
v -0.265007 -0.202510 -0.079896
v -0.266153 0.260027 -0.005663
v -0.239953 0.152754 0.177766
v -0.262546 -0.204998 -0.079977
v -0.262586 -0.204931 -0.080011
v -0.199980 -0.038865 0.197270
v -0.241712 0.086192 0.210269
v -0.214070 0.337284 0.010533
v -0.194981 -0.219240 0.162694
v -0.243053 -0.297147 -0.293948
v -0.190725 -0.155629 0.177359
v -0.252939 -0.253199 0.294610
v -0.191880 -0.267832 -0.203656
v -0.231439 -0.030553 -0.097725
v -0.195183 0.136447 0.160836
v -0.240277 -0.019457 -0.107518
v -0.220795 0.123193 0.024084
v -0.209628 -0.186896 0.284969
v -0.173612 -0.168932 -0.188576
v -0.223254 -0.184561 0.375326
v -0.214451 0.227510 0.181835
v -0.238893 0.119268 -0.192400
v -0.192497 -0.218786 -0.104187
v -0.194014 -0.053803 -0.093386
v -0.185346 0.104683 -0.095846
v -0.224056 -0.022457 -0.103123
v -0.194921 0.023943 -0.101544
v -0.187328 0.128958 -0.193977
v -0.198538 -0.047121 -0.263461
v -0.212420 -0.256199 0.397279
v -0.190925 -0.036409 -0.359644
v -0.135311 -0.412943 0.142592
v -0.215307 -0.042596 -0.097171
v -0.215570 -0.042052 -0.100510
v -0.214174 -0.042368 -0.100256
v -0.207893 0.220773 0.288279
v -0.155766 -0.281259 0.226005
v -0.176623 -0.294530 -0.268175
v -0.173023 -0.049799 -0.140273
v -0.140948 -0.277128 -0.167460
v -0.183695 -0.349900 -0.252079
v -0.182253 -0.065619 -0.202349
v -0.154229 -0.072082 0.209336
v -0.148772 -0.193856 0.404915
v -0.173858 -0.335658 0.151571
v -0.160150 -0.100121 -0.132856
v -0.150898 0.138179 -0.037975
v -0.123524 0.088423 0.302274
v -0.149888 0.018592 0.172882
v -0.161394 0.137895 0.018647
v -0.191636 0.262206 -0.186045
v -0.145277 -0.298197 -0.364773
v -0.136063 0.150195 0.261613
v -0.144365 -0.281485 0.124134
v -0.174797 -0.174845 0.081435
v -0.142888 -0.084512 -0.077108
v -0.128711 -0.072197 0.076856
v -0.077979 -0.249579 -0.229207
v -0.133984 -0.096650 -0.275101
v -0.111682 -0.198013 0.356696
v -0.143326 -0.037911 -0.202235
v -0.118764 -0.258228 0.013179
v -0.059704 0.027786 0.172136
v -0.147485 0.208331 0.049776
v -0.141415 0.170568 -0.021262
v -0.138903 0.265370 -0.241088
v -0.149068 0.121141 -0.025871
v -0.055881 -0.339701 0.221118
v -0.158962 -0.024335 0.080249
v -0.125888 0.137024 -0.042708
v -0.094668 -0.259121 0.213468
v -0.126516 -0.081952 0.314686
v -0.107379 -0.251322 0.411444
v -0.037315 0.139927 -0.083641
v -0.090886 0.061846 -0.100652
v -0.093420 -0.214329 -0.038544
v -0.127408 0.104541 -0.017255
v -0.101059 0.005092 -0.110331
v -0.038785 -0.370915 -0.295061
v -0.055295 0.367582 -0.072035
v -0.087248 -0.110162 0.329757
v -0.101996 0.015237 0.337906
v -0.117942 -0.047652 -0.395089
v -0.093308 -0.006025 0.108361
v -0.082380 0.311835 -0.149577
v -0.139168 -0.200696 -0.340519
v -0.088350 -0.304867 -0.258444
v -0.081805 0.019042 -0.074996
v -0.095815 -0.243361 -0.075340
v -0.085204 0.113401 0.027764
v -0.099102 0.018975 0.214518
v -0.076131 0.152802 0.287654
v -0.079077 -0.025530 -0.276556
v 0.003608 -0.262967 0.136052
v -0.059189 0.118223 -0.236630
v -0.091514 -0.148194 -0.394365
v -0.068698 0.272901 -0.196945
v -0.096179 0.214937 0.321177
v -0.072992 -0.183559 0.053789
v -0.103710 -0.120909 -0.324234
v -0.098625 0.147750 0.388388
v -0.079327 0.178590 -0.155435
v -0.076147 -0.102381 0.129011
v -0.061258 -0.052213 -0.019510
v -0.147229 -0.412528 -0.205861
v -0.052842 -0.034018 -0.211222
v -0.012450 -0.255140 -0.307831
v -0.048571 0.234660 0.202505
v -0.074070 0.428906 -0.155193
v -0.045851 -0.123621 -0.161458
v -0.036163 -0.042536 0.072306
v -0.055120 -0.005220 -0.145908
v -0.013835 -0.188415 -0.405387
v -0.079668 -0.226702 -0.169048
v -0.062136 -0.008258 0.460745
v -0.067621 -0.009693 0.353921
v -0.041585 0.095248 0.398503
v -0.047281 0.133168 0.263813
v -0.023968 -0.050333 -0.452120
v -0.060382 0.319352 0.215435
v 0.007346 0.286932 -0.192787
v -0.010088 -0.137911 0.280224
v -0.032598 -0.171127 -0.277952
v -0.063713 0.176835 0.041802
v -0.069141 0.221353 0.099298
v -0.031197 -0.176112 -0.132743
v 0.018286 -0.046937 -0.047821
v -0.029451 -0.121713 -0.387708
v 0.018504 0.139948 0.032640
v -0.006380 -0.263057 -0.137740
v 0.001745 0.142257 0.076890
v 0.016103 0.299666 -0.221863
v 0.021408 -0.006052 0.221898
v -0.016974 0.193360 0.313269
v -0.044633 -0.019900 0.293189
v -0.018300 0.250193 0.241688
v -0.006767 0.126094 -0.147487
v -0.018723 0.132460 0.073416
v 0.000091 0.069353 0.366494
v 0.006771 0.187257 0.239745
v 0.018649 -0.279950 -0.416052
v 0.008290 -0.055120 0.362905
v 0.012134 0.296966 -0.202548
v -0.013120 -0.256260 0.069710
v -0.006560 -0.329182 0.245881
v -0.000967 -0.055539 0.206031
v -0.022267 0.361076 -0.103400
v 0.123579 -0.413905 0.156629
v 0.009326 0.013870 0.015784
v 0.102025 -0.260620 -0.219839
v 0.041822 0.038305 0.290813
v -0.004585 0.044635 0.074704
v 0.023451 -0.379680 -0.262123
v 0.016032 -0.135588 0.339831
v 0.045832 -0.199798 0.190567
v 0.022262 0.231045 0.051354
v 0.022397 -0.088843 0.073725
v 0.030877 -0.044139 -0.468850
v 0.044245 -0.200600 -0.074725
v 0.025636 -0.105751 0.453320
v 0.022929 -0.188528 0.449617
v 0.008630 0.036694 0.202193
v 0.032786 0.101153 0.221287
v 0.032903 -0.271200 -0.283540
v 0.013276 0.360366 -0.176234
v 0.038681 0.196569 -0.012651
v 0.038084 0.076416 0.090996
v 0.057399 0.308537 0.195664
v 0.069535 -0.105172 0.211665
v 0.084128 -0.147963 0.356543
v 0.070081 -0.006398 0.079395
v 0.028324 -0.190745 -0.414182
v 0.038959 -0.157057 -0.130464
v 0.089926 -0.044780 0.053312
v 0.175136 -0.415114 -0.176176
v 0.085440 0.023595 0.195629
v 0.064323 0.039731 -0.076907
v 0.071350 0.063573 -0.145591
v 0.072661 0.362214 -0.213731
v 0.047554 -0.223143 -0.019054
v 0.045148 -0.245283 -0.174031
v 0.111600 -0.281514 0.248047
v 0.084505 -0.174177 0.026089
v 0.083075 -0.162661 0.456814
v 0.071644 -0.178589 -0.294088
v 0.135257 -0.269258 0.196903
v 0.092922 -0.266233 0.064921
v 0.123059 -0.124101 0.309886
v 0.115808 0.003392 0.161630
v 0.114279 0.099726 -0.124179
v 0.104001 0.208281 -0.106901
v 0.103792 -0.191746 -0.381559
v 0.095159 -0.293644 -0.286945
v 0.084452 0.255383 -0.000443
v 0.131481 -0.252169 -0.154250
v 0.146773 -0.164586 0.247982
v 0.125123 0.288786 0.004356
v 0.152064 -0.175279 0.341302
v 0.102080 -0.074705 -0.352846
v 0.147063 0.185955 0.064382
v 0.120724 0.130363 0.067455
v 0.132345 0.095891 0.138193
v 0.133431 -0.140224 -0.049572
v 0.145215 -0.024705 0.215558
v 0.121703 0.114842 0.194550
v 0.161509 -0.138823 -0.230601
v 0.118899 0.234166 0.102205
v 0.137018 0.163772 0.201304
v 0.150391 -0.340334 -0.286345
v 0.155674 -0.078152 -0.140040
v 0.198640 -0.131883 -0.157549
v 0.188140 -0.140834 0.059737
v 0.129640 -0.235636 -0.077888
v 0.182999 -0.270831 0.117528
v 0.138457 0.309202 -0.110419
v 0.143842 0.250358 -0.165139
v 0.145002 0.058848 0.018884
v 0.148092 0.128601 -0.149967
v 0.173453 -0.274072 -0.356463
v 0.183358 0.010444 -0.183165
v 0.157296 0.063680 0.082687
v 0.165775 -0.293992 -0.231111
v 0.182483 0.037313 -0.102619
v 0.167620 0.188846 0.156136
v 0.140985 -0.137285 -0.344686
v 0.163716 -0.086781 0.377674
v 0.175822 -0.202919 -0.293697
v 0.157166 0.080562 -0.407674
v 0.203422 -0.116073 -0.362343
v 0.172040 -0.026601 -0.030629
v 0.219241 -0.270176 0.190004
v 0.176471 0.287578 0.211185
v 0.220197 -0.331643 0.219838
v 0.176352 0.094566 -0.031950
v 0.286677 -0.048532 -0.002071
v 0.203762 -0.274769 -0.094712
v 0.192158 0.014552 -0.267559
v 0.181891 -0.245788 -0.005640
v 0.170609 -0.123937 0.270490
v 0.183485 0.130071 -0.326872
v 0.196435 0.184806 0.205680
v 0.258449 -0.042751 -0.199663
v 0.241044 -0.295490 0.085547
v 0.365738 -0.316723 -0.035060
v 0.252610 -0.117588 0.296026
v 0.236860 -0.182509 0.047378
v 0.256977 -0.265767 -0.211926
v 0.251950 0.000186 0.084627
v 0.252167 0.097038 -0.075457
v 0.233660 -0.270540 -0.276497
v 0.251507 -0.113966 -0.286866
v 0.228313 -0.330556 -0.066854
v 0.235628 -0.292877 -0.317929
v 0.240626 0.090793 -0.302290
v 0.322823 -0.076853 0.359475
v 0.329621 -0.260199 -0.129006
v 0.321082 -0.158109 0.154632
v 0.298752 -0.177191 0.011731
v 0.270932 0.047698 -0.216662
v 0.305530 -0.187731 -0.220264
v 0.247465 0.193346 -0.290259
v 0.303285 -0.130767 0.246290
v 0.462620 -0.221922 0.012579
v 0.295126 -0.032254 -0.244050
v 0.323524 -0.206254 0.052610
v 0.311133 0.166333 -0.306815
v 0.333939 -0.090460 0.140720
v 0.312922 0.054867 -0.261291
v 0.330343 -0.179744 0.239268
v 0.369545 -0.244093 -0.039057
v 0.362232 -0.091899 0.093811
v 0.380791 0.128524 -0.198441
v 0.388840 0.027124 -0.217960
v 0.419412 -0.050974 0.223356
v 0.426479 -0.205512 -0.108195
v 0.454524 -0.023996 0.093241
vn -0.8484 0.2270 -0.4782
vn -0.5846 -0.7636 -0.2741
vn -0.9626 0.0097 0.2709
vn -0.8262 -0.3312 0.4557
vn -0.4939 0.4887 -0.7192
vn -0.3075 0.2069 -0.9288
vn -0.7597 0.4999 -0.4160
vn 0.0032 0.7802 -0.6255
vn -0.8435 0.2194 -0.4903
vn -0.7980 -0.2324 0.5560
vn -0.3141 0.2413 -0.9182
vn -0.7207 0.6911 -0.0542
vn 0.0240 0.9499 0.3115
vn -0.3345 0.3601 0.8709
vn -0.2987 0.0361 -0.9537
vn -0.8231 0.3924 0.4106
vn -0.6135 -0.4208 0.6682
vn -0.6292 -0.2594 -0.7327
vn -0.1500 0.8413 -0.5193
vn -0.3997 0.8685 -0.2931
vn -0.6222 0.6379 0.4538
vn -0.1459 0.8611 0.4871
vn -0.8052 -0.1846 0.5635
vn -0.7226 -0.4666 0.5100
vn -0.8799 0.4751 0.0009
vn -0.5166 0.7059 -0.4846
vn -0.8865 0.4509 0.1041
vn 0.3236 0.1460 -0.9349
vn 0.7374 0.6625 -0.1320
vn 0.0391 0.1521 -0.9876
vn -0.4273 -0.6560 -0.6222
vn -0.2814 0.4301 -0.8578
vn -0.1988 0.3224 -0.9255
vn 0.1805 -0.7831 -0.5951
vn 0.4312 0.6533 -0.6223
vn -0.1463 -0.2987 -0.9431
vn -0.2466 -0.6213 -0.7438
vn 0.0050 0.2929 -0.9561
vn 0.1460 0.2218 -0.9641
vn -0.6715 0.6787 0.2973
vn 0.2696 -0.0286 0.9626
vn -0.2829 -0.9037 -0.3215
vn -0.3488 -0.8263 0.4422
vn -0.7003 -0.7121 -0.0496
vn -0.5608 0.1219 -0.8190
vn 0.4844 -0.8374 -0.2532
vn 0.2778 -0.8630 0.4221
vn 0.0476 0.6143 -0.7876
vn -0.3169 -0.6022 -0.7328
vn 0.5872 0.1919 -0.7864
vn -0.0956 0.9262 -0.3648
vn -0.9023 -0.4038 -0.1508
vn -0.2929 0.7809 0.5518
vn -0.0477 0.6403 -0.7666
vn 0.5998 -0.4794 -0.6406
vn -0.4251 0.0805 -0.9016
vn 0.5025 0.7116 0.4910
vn 0.0759 0.8202 -0.5670
vn 0.4633 0.6681 0.5822
vn -0.4800 0.7926 -0.3759
vn 0.6383 0.5906 -0.4938
vn -0.8672 -0.1448 0.4765
vn -0.3760 0.1918 -0.9066
vn 0.7218 0.5476 -0.4232
vn 0.2090 0.5829 -0.7852
vn -0.3048 0.9320 0.1962
vn -0.3006 0.4353 -0.8486
vn 0.8022 0.4304 0.4139
vn -0.3770 0.8347 0.4014
vn -0.3639 0.9226 -0.1280
vn 0.8302 0.5539 -0.0624
vn -0.0988 -0.6372 0.7644
vn 0.2638 0.9534 0.1464
vn 0.2365 0.8350 0.4968
vn -0.8777 0.3215 -0.3554
vn 0.3486 -0.0836 0.9335
vn -0.4215 0.8862 0.1924
vn -0.0000 -0.0000 -0.0000
vn -0.3438 -0.0692 0.9365
vn 0.3807 0.9179 -0.1115
vn -0.1384 0.9225 -0.3602
vn 0.9198 0.2296 0.3180
vn 0.2165 0.0893 -0.9722
vn 0.9326 0.2539 0.2566
vn -0.1463 -0.9890 0.0238
vn -0.0142 -0.5158 -0.8566
vn 0.0024 -0.0913 0.9958
vn 0.6225 0.5782 -0.5274
vn -0.5875 0.6736 -0.4484
vn -0.5864 0.1114 -0.8024
vn -0.8422 0.5170 -0.1527
vn -0.3572 -0.6061 0.7106
vn -0.9485 0.3167 -0.0099
vn -0.6376 -0.0143 0.7702
vn 0.8962 0.2097 -0.3910
vn 0.5397 0.3230 -0.7775
vn -0.1539 -0.9304 -0.3327
vn -0.9059 0.3278 -0.2683
vn -0.6038 0.7742 0.1897
vn -0.2168 0.9372 -0.2731
vn -0.1347 -0.2425 -0.9608
vn 0.7343 0.4883 -0.4716
vn -0.1227 -0.6134 -0.7802
vn 0.8357 -0.0297 -0.5484
vn -0.4400 -0.6186 -0.6509
vn 0.2739 0.8797 0.3888
vn -0.8681 0.3237 -0.3763
vn -0.4832 0.2442 -0.8407
vn -0.3476 0.3854 -0.8548
vn -0.1202 0.4044 0.9067
vn 0.7533 0.5937 0.2831
vn -0.4583 0.5860 -0.6683
vn 0.1630 0.1839 0.9693
vn 0.4435 0.2415 -0.8631
vn 0.4944 0.8478 0.1918
vn -0.6887 -0.2328 0.6866
vn -0.4560 0.5229 -0.7201
vn -0.4619 -0.3629 -0.8093
vn -0.2762 0.8876 0.3685
vn -0.3279 -0.2777 0.9030
vn 0.7773 0.6110 0.1495
vn 0.6736 0.6714 0.3090
vn -0.9680 0.2011 -0.1503
vn -0.9614 0.2072 -0.1810
vn -0.9884 0.0848 0.1260
vn 0.0414 -0.1576 0.9866
vn 0.0698 0.7288 0.6812
vn -0.8528 0.4893 0.1827
vn -0.7510 -0.6355 0.1791
vn -0.0446 -0.0602 0.9972
vn -0.3087 0.7945 0.5230
vn -0.3688 0.6954 -0.6168
vn -0.9307 -0.2721 -0.2443
vn 0.0683 -0.4088 0.9100
vn -0.5114 -0.4017 0.7597
vn 0.3403 0.8439 -0.4147
vn 0.7187 0.5154 0.4667
vn -0.0939 0.6665 0.7396
vn -0.0096 0.9539 0.2998
vn 0.7874 0.5003 0.3602
vn -0.4735 -0.8806 -0.0188
vn -0.8297 -0.5185 0.2068
vn -0.9726 0.1821 -0.1447
vn -0.9435 0.0284 -0.3302
vn -0.3246 -0.6661 0.6716
vn 0.2191 -0.1327 0.9666
vn -0.7088 -0.0519 -0.7035
vn -0.5178 0.7144 -0.4706
vn -0.5755 0.7043 0.4157
vn -0.5292 -0.4743 0.7036
vn 0.9792 0.1527 -0.1340
vn 0.9157 0.1598 0.3688
vn 0.0073 0.3986 -0.9171
vn -0.3340 0.6473 0.6851
vn -0.6616 0.6883 -0.2976
vn 0.9522 0.2750 -0.1332
vn 0.5107 -0.6611 0.5496
vn 0.5584 -0.2601 0.7878
vn -0.6912 0.3331 -0.6413
vn 0.0571 0.9960 0.0691
vn -0.1584 -0.4313 0.8882
vn -0.1807 -0.0076 -0.9835
vn -0.8104 0.1250 0.5724
vn -0.1269 0.8876 0.4427
vn -0.1565 0.4386 -0.8850
vn 0.8477 0.4677 0.2503
vn -0.1682 0.8180 0.5500
vn -0.7882 0.3302 -0.5192
vn -0.9646 -0.2191 -0.1466
vn -0.9401 -0.1155 0.3208
vn -0.7622 -0.1158 0.6369
vn -0.2539 0.3320 0.9085
vn 0.4751 0.0192 0.8797
vn -0.9402 -0.3404 0.0111
vn -0.5245 0.8294 0.1925
vn 0.9343 0.3443 0.0923
vn 0.3266 0.2169 0.9199
vn 0.8779 -0.4604 0.1319
vn 0.2240 0.9707 0.0875
vn 0.0397 0.3564 0.9335
vn 0.1318 0.9128 -0.3865
vn -0.0449 0.9798 0.1950
vn 0.8106 -0.3862 0.4402
vn 0.5847 0.5660 0.5812
vn 0.1547 0.7307 0.6649
vn -0.4462 -0.5207 0.7279
vn -0.3213 0.7812 0.5353
vn -0.8067 0.1994 0.5563
vn 0.5029 0.2378 0.8310
vn -0.3102 0.9145 0.2596
vn 0.0585 0.9262 -0.3725
vn -0.1085 0.8170 0.5663
vn 0.8569 0.0907 -0.5074
vn 0.1415 0.6860 0.7137
vn 0.0892 0.9774 0.1915
vn -0.7451 0.6627 -0.0754
vn 0.3592 0.9332 0.0129
vn 0.9882 0.1468 0.0438
vn -0.9934 0.0596 -0.0983
vn -0.2818 0.1292 -0.9507
vn -0.1928 0.7882 -0.5845
vn -0.1122 0.4717 0.8746
vn -0.0549 0.8062 -0.5891
vn -0.2247 0.8399 -0.4940
vn -0.1207 0.9190 -0.3754
vn -0.3301 -0.0067 -0.9439
vn -0.8151 -0.5237 -0.2477
vn 0.1956 0.9802 -0.0314
vn 0.8964 0.4276 0.1169
vn -0.6348 0.7707 0.0560
vn -0.5348 0.7966 0.2818
vn -0.6103 0.7818 0.1278
vn 0.3013 0.8726 -0.3844
vn -0.4616 0.8736 0.1544
vn 0.2555 -0.0538 0.9653
vn 0.2459 0.9272 0.2826
vn -0.8784 0.0230 0.4773
vn -0.5559 0.7342 -0.3897
vn -0.0231 0.5667 0.8236
vn -0.5125 0.8185 0.2597
vn 0.0543 0.9881 -0.1439
vn -0.4021 0.2327 -0.8855
vn 0.9659 -0.1441 0.2152
vn 0.7388 -0.2264 0.6347
vn 0.0732 0.8804 0.4686
vn 0.1246 0.8900 0.4387
vn 0.6427 0.6812 0.3505
vn -0.2444 0.9592 -0.1424
vn 0.0868 0.5626 0.8221
vn 0.6604 0.6967 -0.2800
vn -0.5795 0.7976 0.1673
vn 0.6624 0.5475 0.5114
vn -0.7743 0.0978 0.6253
vn 0.1992 0.9661 -0.1640
vn -0.6648 0.7405 -0.0983
vn 0.2168 0.9719 -0.0913
vn 0.3172 -0.7372 -0.5966
vn 0.0691 0.3791 -0.9228
vn 0.9737 0.0691 -0.2170
vn 0.2955 0.4485 -0.8435
vn 0.5958 -0.7582 -0.2649
vn 0.5900 -0.8027 -0.0873
vn 0.9501 0.3000 0.0859
vn 0.5322 0.2172 0.8183
vn 0.8732 -0.3741 -0.3123
vn 0.3029 0.3938 -0.8678
vn 0.8982 0.4302 0.0905
vn 0.2888 0.1532 0.9450
vn -0.5700 0.7843 0.2449
vn 0.6074 0.7870 0.1085
vn 0.9817 -0.1556 -0.1101
vn 0.3030 -0.1349 -0.9434
vn 0.1307 0.1214 -0.9840
vn 0.7002 0.6101 -0.3708
vn -0.6824 0.6229 0.3824
vn 0.1532 0.0328 -0.9876
vn -0.5073 0.1789 -0.8430
vn -0.2436 0.9694 -0.0316
vn 0.7057 0.6349 -0.3146
vn -0.1079 0.9031 -0.4158
vn 0.9442 -0.1738 0.2798
vn -0.7746 0.1543 0.6134
vn 0.6022 0.3590 0.7131
vn 0.2991 0.7558 -0.5826
vn 0.2217 -0.1944 0.9555
vn -0.9455 -0.1256 0.3003
vn -0.3744 -0.0646 -0.9250
vn -0.2803 0.2306 -0.9318
vn -0.7725 0.2931 -0.5634
vn 0.6560 -0.1206 -0.7450
vn -0.6424 -0.0744 -0.7628
vn 0.8562 0.1847 0.4826
vn 0.3545 0.7017 -0.6180
vn 0.2207 0.9525 -0.2097
vn 0.5777 -0.1345 -0.8051
vn 0.5261 0.8474 -0.0718
vn 0.5398 0.8339 0.1149
vn 0.9552 -0.1569 -0.2508
vn -0.9933 0.1065 -0.0449
vn 0.7862 -0.5952 -0.1663
vn 0.1042 0.3918 -0.9141
vn 0.6957 0.6155 -0.3702
vn -0.2755 0.4050 0.8718
vn 0.1677 0.7602 -0.6277
vn -0.6298 0.6989 0.3389
vn 0.4828 0.1650 0.8600
vn 0.6378 0.1354 0.7582
vn 0.4612 0.8484 -0.2598
vn -0.3098 0.9507 0.0118
vn -0.4012 -0.0578 -0.9141
vn 0.9394 -0.3104 0.1458
vn 0.4725 0.8236 0.3136
vn 0.7146 0.1907 -0.6731
vn 0.7373 -0.5946 0.3207
vn 0.5996 -0.2684 0.7539
vn 0.2606 0.9074 -0.3297
vn 0.6751 0.0381 0.7367
vn 0.9073 -0.0275 -0.4196
vn 0.0768 0.9961 0.0423
vn 0.8908 -0.1952 0.4103
vn 0.7765 -0.2162 0.5918
vn 0.2564 0.8325 0.4911
vn 0.7282 0.6741 0.1238
vn 0.4973 0.7115 0.4964
vn 0.0886 0.9952 0.0427
vn -0.2952 0.4351 -0.8506
vn 0.8382 -0.1530 0.5234
vn 0.4296 -0.5634 0.7057
vn 0.6224 0.6660 -0.4112
vn -0.5874 -0.1406 0.7970
vn -0.7400 0.5945 0.3146
vn 0.4456 0.1587 -0.8811
vn 0.1728 0.9766 -0.1278
vn 0.0200 0.8850 -0.4652
vn 0.4027 0.5597 0.7243
vn 0.7291 -0.6024 0.3247
vn -0.1490 0.7192 0.6787
vn 0.0297 0.5651 0.8245
vn 0.6959 0.6959 0.1773
vn 0.6968 0.7147 0.0606
vn 0.5132 0.7412 -0.4327
vn -0.0891 0.9945 0.0559
vn -0.8848 0.4109 -0.2196
vn 0.1621 0.9828 -0.0890
vn 0.8631 0.1748 -0.4738
vn -0.2585 0.9612 0.0961
vn -0.2824 0.3354 -0.8988
vn 0.1155 0.3192 0.9406
vn -0.4235 0.9055 -0.0272
vn -0.2922 0.8701 -0.3970
vn 0.0659 0.9747 0.2136
vt 0.363478 0.427286
vt 0.357612 0.453822
vt 0.321655 0.421367
vt 0.314931 0.446447
vt 0.419061 0.414373
vt 0.405741 0.469173
vt 0.439811 0.477757
vt 0.448569 0.460404
vt 0.825051 0.367056
vt 0.846832 0.405464
vt 0.823445 0.406410
vt 0.846088 0.425101
vt 0.860812 0.421154
vt 0.456390 0.615105
vt 0.444407 0.660128
vt 0.411913 0.607150
vt 0.370319 0.649094
vt 0.411860 0.649454
vt 0.456616 0.598353
vt 0.625863 0.408485
vt 0.635837 0.365299
vt 0.665972 0.378039
vt 0.469307 0.683253
vt 0.456175 0.640864
vt 0.063027 0.714505
vt 0.057568 0.736212
vt 0.034336 0.708461
vt 0.414517 0.915912
vt 0.424799 0.925587
vt 0.392829 0.916832
vt 0.391213 0.942426
vt 0.428050 0.948616
vt 0.094342 0.361296
vt 0.102615 0.386158
vt 0.083058 0.378847
vt 0.154369 0.761567
vt 0.160707 0.803942
vt 0.133622 0.788914
vt 0.142007 0.764618
vt 0.032712 0.508858
vt 0.030221 0.530450
vt 0.017183 0.517919
vt 0.021105 0.497785
vt 0.018202 0.505027
vt 0.043813 0.520504
vt 0.532756 0.081019
vt 0.514453 0.079357
vt 0.558493 0.049880
vt 0.579836 0.042490
vt 0.551675 0.059395
vt 0.053686 0.695494
vt 0.518894 0.040178
vt 0.087322 0.201982
vt 0.070759 0.230212
vt 0.068336 0.222156
vt 0.098469 0.867809
vt 0.073317 0.887767
vt 0.076228 0.871717
vt 0.109263 0.890580
vt 0.558918 0.606907
vt 0.584193 0.614216
vt 0.575963 0.627090
vt 0.562278 0.574851
vt 0.564291 0.549659
vt 0.581752 0.564434
vt 0.502895 0.641890
vt 0.529413 0.654143
vt 0.495196 0.667112
vt 0.554056 0.676746
vt 0.525810 0.238200
vt 0.527180 0.261647
vt 0.513137 0.262093
vt 0.441996 0.230591
vt 0.419276 0.219302
vt 0.424547 0.204412
vt 0.522185 0.183187
vt 0.478678 0.241530
vt 0.528181 0.200044
vt 0.421410 0.504098
vt 0.387893 0.503908
vt 0.412209 0.214171
vt 0.498582 0.256444
vt 0.525255 0.214568
vt 0.060255 0.874016
vt 0.523136 0.552280
vt 0.507845 0.622629
vt 0.442897 0.189500
vt 0.247350 0.641898
vt 0.285562 0.611976
vt 0.331296 0.630046
vt 0.547241 0.549662
vt 0.222888 0.064766
vt 0.229186 0.049705
vt 0.256363 0.062460
vt 0.299204 0.063442
vt 0.280180 0.045500
vt 0.791847 0.460584
vt 0.793784 0.405880
vt 0.808487 0.442667
vt 0.776980 0.405436
vt 0.654518 0.905324
vt 0.630779 0.884355
vt 0.654084 0.895725
vt 0.577761 0.968094
vt 0.598646 0.970791
vt 0.581214 0.985335
vt 0.522921 0.114734
vt 0.578326 0.099507
vt 0.548568 0.125665
vt 0.226577 0.369455
vt 0.244935 0.384143
vt 0.212099 0.413384
vt 0.565069 0.075149
vt 0.587240 0.075369
vt 0.544567 0.089765
vt 0.185294 0.349580
vt 0.177193 0.386678
vt 0.196442 0.425511
vt 0.176939 0.432039
vt 0.161034 0.427565
vt 0.163980 0.344029
vt 0.165136 0.330052
vt 0.177516 0.313520
vt 0.235209 0.226353
vt 0.270548 0.240050
vt 0.209867 0.226823
vt 0.193348 0.250741
vt 0.234301 0.404654
vt 0.661437 0.419443
vt 0.691350 0.422978
vt 0.688029 0.472186
vt 0.695825 0.486187
vt 0.702672 0.395098
vt 0.700737 0.377133
vt 0.521239 0.941762
vt 0.497785 0.921336
vt 0.508416 0.908387
vt 0.537345 0.917611
vt 0.186642 0.282196
vt 0.167727 0.275049
vt 0.227039 0.256446
vt 0.616811 0.320456
vt 0.608006 0.374375
vt 0.604474 0.354410
vt 0.165381 0.753569
vt 0.612476 0.104637
vt 0.611690 0.066712
vt 0.636846 0.061439
vt 0.896103 0.485101
vt 0.863496 0.516843
vt 0.851666 0.472279
vt 0.176512 0.880438
vt 0.200144 0.886061
vt 0.174079 0.903408
vt 0.213418 0.910247
vt 0.267921 0.734415
vt 0.287609 0.762793
vt 0.253786 0.730423
vt 0.208515 0.786843
vt 0.197313 0.805667
vt 0.197327 0.762915
vt 0.884208 0.896588
vt 0.879869 0.888203
vt 0.908382 0.895106
vt 0.892185 0.879142
vt 0.291329 0.730377
vt 0.045492 0.949031
vt 0.059018 0.925782
vt 0.072708 0.942833
vt 0.049420 0.925264
vt 0.927662 0.880743
vt 0.917815 0.862621
vt 0.647345 0.121415
vt 0.064536 0.950701
vt 0.882980 0.469583
vt 0.665776 0.083682
vt 0.665459 0.112545
vt 0.922003 0.216237
vt 0.941656 0.203751
vt 0.938976 0.216754
vt 0.719214 0.931045
vt 0.718546 0.926397
vt 0.725280 0.924300
vt 0.711434 0.948833
vt 0.707122 0.926660
vt 0.702447 0.948601
vt 0.697095 0.931578
vt 0.719271 0.948708
vt 0.728462 0.950612
vt 0.736203 0.937068
vt 0.949070 0.202364
vt 0.936539 0.200739
vt 0.610640 0.443131
vt 0.568151 0.423589
vt 0.599794 0.406098
vt 0.611049 0.456308
vt 0.594761 0.463430
vt 0.242641 0.764502
vt 0.207138 0.730856
vt 0.226245 0.730658
vt 0.636442 0.777780
vt 0.664115 0.775194
vt 0.664125 0.781576
vt 0.672394 0.791972
vt 0.608656 0.799237
vt 0.716581 0.924759
vt 0.708806 0.923657
vt 0.139342 0.979046
vt 0.126777 0.980489
vt 0.138749 0.964558
vt 0.141995 0.846014
vt 0.145234 0.884565
vt 0.132095 0.863071
vt 0.159254 0.833751
vt 0.170046 0.859647
vt 0.161707 0.881150
vt 0.021244 0.269109
vt 0.013332 0.278194
vt 0.012514 0.269399
vt 0.988655 0.706148
vt 0.988909 0.705540
vt 0.990034 0.705552
vt 0.989144 0.034010
vt 0.990446 0.034362
vt 0.989225 0.034498
vt 0.335190 0.118139
vt 0.312858 0.153797
vt 0.322670 0.123737
vt 0.181024 0.827861
vt 0.189843 0.834363
vt 0.989222 0.397735
vt 0.974478 0.394928
vt 0.977842 0.378983
vt 0.650289 0.810740
vt 0.220029 0.478056
vt 0.230549 0.447756
vt 0.260131 0.470963
vt 0.742014 0.184230
vt 0.735717 0.201730
vt 0.726697 0.169798
vt 0.265428 0.503797
vt 0.290335 0.476967
vt 0.843223 0.905030
vt 0.889192 0.913552
vt 0.889566 0.921410
vt 0.573671 0.215066
vt 0.565326 0.197038
vt 0.581445 0.194899
vt 0.613579 0.215773
vt 0.621636 0.265964
vt 0.591501 0.282787
vt 0.590441 0.029363
vt 0.585257 0.005403
vt 0.596445 0.009958
vt 0.779648 0.929647
vt 0.796365 0.921022
vt 0.791482 0.942195
vt 0.819513 0.933233
vt 0.817005 0.927421
vt 0.849370 0.896172
vt 0.854319 0.888751
vt 0.970930 0.582655
vt 0.959314 0.582263
vt 0.971442 0.566550
vt 0.969370 0.546400
vt 0.940920 0.559575
vt 0.953453 0.540492
vt 0.252314 0.543820
vt 0.231382 0.562663
vt 0.270491 0.531187
vt 0.606627 0.188770
vt 0.619381 0.289508
vt 0.809498 0.520790
vt 0.827704 0.486670
vt 0.840773 0.526467
vt 0.809444 0.479754
vt 0.731556 0.672293
vt 0.704990 0.627464
vt 0.736606 0.620260
vt 0.690916 0.640156
vt 0.710261 0.679121
vt 0.226555 0.522726
vt 0.723001 0.760872
vt 0.714286 0.756611
vt 0.726234 0.749658
vt 0.388392 0.046774
vt 0.422101 0.062798
vt 0.419173 0.076667
vt 0.143678 0.225331
vt 0.164489 0.210731
vt 0.151731 0.233966
vt 0.928381 0.811985
vt 0.910828 0.806442
vt 0.924493 0.786237
vt 0.478287 0.107680
vt 0.470143 0.133407
vt 0.438791 0.130345
vt 0.457132 0.087187
vt 0.418877 0.108466
vt 0.468546 0.163619
vt 0.423654 0.118525
vt 0.378751 0.089263
vt 0.365713 0.048617
vt 0.084475 0.843417
vt 0.075303 0.836445
vt 0.089069 0.814149
vt 0.344299 0.961511
vt 0.351724 0.944932
vt 0.353910 0.960690
vt 0.727743 0.696242
vt 0.748668 0.759698
vt 0.764267 0.725906
vt 0.778105 0.769854
vt 0.745340 0.708551
vt 0.764223 0.723998
vt 0.117310 0.835428
vt 0.105191 0.836590
vt 0.118083 0.823712
vt 0.090178 0.784052
vt 0.109601 0.809370
vt 0.723691 0.332534
vt 0.780040 0.335603
vt 0.774135 0.361737
vt 0.479047 0.169255
vt 0.778096 0.853633
vt 0.789151 0.851189
vt 0.789356 0.854612
vt 0.781959 0.878004
vt 0.768105 0.880183
vt 0.073154 0.809896
vt 0.086629 0.790722
vt 0.072288 0.789123
vt 0.570677 0.180745
vt 0.559333 0.173731
vt 0.599627 0.167869
vt 0.579190 0.148582
vt 0.704469 0.787179
vt 0.709598 0.778006
vt 0.727079 0.794418
vt 0.704366 0.842114
vt 0.703426 0.815403
vt 0.867660 0.742040
vt 0.880387 0.785979
vt 0.859678 0.751754
vt 0.894702 0.785056
vt 0.647979 0.689690
vt 0.615078 0.677649
vt 0.630949 0.660465
vt 0.662963 0.662492
vt 0.647828 0.629638
vt 0.669591 0.625250
vt 0.665711 0.683791
vt 0.894549 0.030128
vt 0.920424 0.032383
vt 0.919555 0.047670
vt 0.943087 0.417156
vt 0.934510 0.438170
vt 0.928918 0.428346
vt 0.091252 0.225446
vt 0.122103 0.226198
vt 0.893499 0.014565
vt 0.894132 0.027687
vt 0.884789 0.238071
vt 0.907822 0.242826
vt 0.888912 0.255627
vt 0.896603 0.276733
vt 0.868381 0.258678
vt 0.776507 0.285939
vt 0.766486 0.278812
vt 0.781243 0.278137
vt 0.790054 0.244733
vt 0.784399 0.271430
vt 0.779695 0.227698
vt 0.766617 0.298825
vt 0.757462 0.284995
vt 0.120139 0.270173
vt 0.128839 0.265466
vt 0.137852 0.267920
vt 0.151963 0.298721
vt 0.116833 0.302752
vt 0.595439 0.646713
vt 0.608767 0.613550
vt 0.625423 0.601173
vt 0.764412 0.537984
vt 0.754384 0.507351
vt 0.767395 0.510188
vt 0.772468 0.584219
vt 0.711993 0.575443
vt 0.662187 0.540306
vt 0.714331 0.550323
vt 0.708831 0.523227
vt 0.856053 0.564312
vt 0.860693 0.588098
vt 0.832129 0.572400
vt 0.847989 0.619615
vt 0.826739 0.605020
vt 0.869078 0.608301
vt 0.732910 0.525024
vt 0.078415 0.341218
vt 0.107799 0.346445
vt 0.807462 0.670120
vt 0.819379 0.681970
vt 0.809085 0.697874
vt 0.777187 0.618257
vt 0.801526 0.620289
vt 0.760115 0.639692
vt 0.812607 0.645898
vt 0.757225 0.649339
vt 0.775358 0.666570
vt 0.073504 0.255339
vt 0.107169 0.250890
vt 0.396414 0.760984
vt 0.383908 0.730404
vt 0.407404 0.741845
vt 0.352430 0.764439
vt 0.349123 0.721595
vt 0.369152 0.766172
vt 0.646090 0.985522
vt 0.648499 0.974491
vt 0.656883 0.991205
vt 0.662279 0.976864
vt 0.747825 0.583968
vt 0.765909 0.601696
vt 0.779539 0.598943
vt 0.792868 0.586072
vt 0.726873 0.553996
vt 0.742695 0.542000
vt 0.733501 0.125489
vt 0.742617 0.124397
vt 0.715770 0.120689
vt 0.709641 0.121677
vt 0.701663 0.117750
vt 0.149981 0.310835
vt 0.874008 0.400569
vt 0.878552 0.385045
vt 0.898178 0.398478
vt 0.060172 0.283710
vt 0.079772 0.285356
vt 0.070056 0.318979
vt 0.035963 0.304194
vt 0.039666 0.260301
vt 0.440112 0.062130
vt 0.668099 0.245506
vt 0.667237 0.220919
vt 0.694741 0.226712
vt 0.929166 0.718601
vt 0.914703 0.714890
vt 0.926242 0.706415
vt 0.944504 0.681161
vt 0.953025 0.709115
vt 0.798291 0.550972
vt 0.805094 0.564398
vt 0.907556 0.431612
vt 0.325677 0.763212
vt 0.318831 0.756247
vt 0.656810 0.215991
vt 0.319090 0.714202
vt 0.328440 0.696787
vt 0.360468 0.683861
vt 0.375232 0.686427
vt 0.897895 0.438999
vt 0.775688 0.963918
vt 0.757400 0.950678
vt 0.757515 0.931896
vt 0.680611 0.893927
vt 0.672540 0.899940
vt 0.671420 0.891789
vt 0.866519 0.635967
vt 0.855422 0.627862
vt 0.868453 0.625588
vt 0.619757 0.146986
vt 0.630636 0.147059
vt 0.651206 0.167434
vt 0.139522 0.066210
vt 0.145995 0.105807
vt 0.108894 0.108223
vt 0.103940 0.056390
vt 0.092213 0.071778
vt 0.308740 0.769459
vt 0.312073 0.768573
vt 0.643665 0.240334
vt 0.644525 0.259351
vt 0.655400 0.871752
vt 0.640289 0.854804
vt 0.687680 0.841562
vt 0.682605 0.873236
vt 0.679434 0.199389
vt 0.658064 0.200844
vt 0.218124 0.606958
vt 0.204763 0.622560
vt 0.190202 0.606136
vt 0.190093 0.573948
vt 0.202660 0.572224
vt 0.166984 0.583628
vt 0.459186 0.888570
vt 0.478772 0.871667
vt 0.496043 0.887947
vt 0.504584 0.876349
vt 0.092576 0.579034
vt 0.059113 0.590821
vt 0.087556 0.557783
vt 0.774660 0.843839
vt 0.783925 0.833078
vt 0.070047 0.535734
vt 0.048591 0.570429
vt 0.718407 0.891683
vt 0.722096 0.906860
vt 0.386271 0.844943
vt 0.361179 0.848639
vt 0.334177 0.836088
vt 0.359740 0.833084
vt 0.341826 0.828688
vt 0.388638 0.830680
vt 0.622128 0.841833
vt 0.604314 0.863008
vt 0.589588 0.830787
vt 0.608873 0.831912
vt 0.579520 0.812341
vt 0.588050 0.811805
vt 0.794340 0.829131
vt 0.957861 0.502021
vt 0.974683 0.503101
vt 0.971204 0.510189
vt 0.963774 0.514416
vt 0.955599 0.481816
vt 0.966033 0.478471
vt 0.135997 0.706315
vt 0.128266 0.712792
vt 0.119949 0.678414
vt 0.685257 0.508475
vt 0.180445 0.627987
vt 0.186678 0.625510
vt 0.136521 0.610421
vt 0.143769 0.623189
vt 0.766929 0.135158
vt 0.775642 0.122264
vt 0.802177 0.140329
vt 0.117134 0.583221
vt 0.801353 0.153908
vt 0.574937 0.841648
vt 0.937047 0.611693
vt 0.923781 0.583902
vt 0.939611 0.588480
vt 0.083633 0.610734
vt 0.048411 0.617668
vt 0.068323 0.606881
vt 0.434201 0.984371
vt 0.448326 0.973246
vt 0.440340 0.981098
vt 0.048354 0.054144
vt 0.064188 0.026995
vt 0.079182 0.049737
vt 0.401047 0.874347
vt 0.378199 0.892960
vt 0.384468 0.870618
vt 0.377812 0.882088
vt 0.374386 0.888082
vt 0.185559 0.711161
vt 0.165581 0.725991
vt 0.222959 0.928131
vt 0.228106 0.913497
vt 0.230224 0.935725
vt 0.240323 0.908818
vt 0.242167 0.940237
vt 0.859732 0.033948
vt 0.877969 0.053140
vt 0.858110 0.043874
vt 0.172452 0.058161
vt 0.163111 0.083859
vt 0.171785 0.100675
vt 0.770985 0.045549
vt 0.745814 0.024085
vt 0.783244 0.034253
vt 0.769367 0.016134
vt 0.373414 0.817671
vt 0.558887 0.967407
vt 0.530612 0.970230
vt 0.541969 0.956447
vt 0.037821 0.065357
vt 0.029559 0.065486
vt 0.369474 0.923386
vt 0.355647 0.923601
vt 0.341537 0.913334
vt 0.438254 0.908378
vt 0.442266 0.904819
vt 0.476032 0.906578
vt 0.441275 0.916719
vt 0.474839 0.919925
vt 0.570993 0.766271
vt 0.547593 0.747579
vt 0.597448 0.762442
vt 0.588179 0.737569
vt 0.605367 0.747194
vt 0.149939 0.909868
vt 0.113517 0.919373
vt 0.132700 0.904681
vt 0.612086 0.749493
vt 0.618191 0.747004
vt 0.625737 0.746066
vt 0.634036 0.747944
vt 0.612555 0.747558
vt 0.625901 0.753994
vt 0.603104 0.738362
vt 0.609788 0.744101
vt 0.854791 0.162612
vt 0.884541 0.180997
vt 0.870271 0.206372
vt 0.873456 0.156139
vt 0.885049 0.206570
vt 0.845305 0.226544
vt 0.776823 0.489307
vt 0.791573 0.478165
vt 0.783829 0.475710
vt 0.803333 0.479749
vt 0.990096 0.753200
vt 0.968335 0.736005
vt 0.988943 0.744783
vt 0.385092 0.100224
vt 0.475234 0.850133
vt 0.477166 0.839614
vt 0.478747 0.841594
vt 0.484640 0.847822
vt 0.488510 0.853245
vt 0.479697 0.842550
vt 0.866291 0.977670
vt 0.852123 0.985092
vt 0.855845 0.973597
vt 0.853527 0.973145
vt 0.012856 0.011018
vt 0.012472 0.012230
vt 0.011275 0.011790
vt 0.013960 0.013650
vt 0.038601 0.415008
vt 0.035899 0.395593
vt 0.057272 0.414840
vt 0.841247 0.201679
vt 0.817639 0.198266
vt 0.822088 0.191042
vt 0.879115 0.962860
vt 0.880492 0.953789
vt 0.912090 0.951483
vt 0.883958 0.945875
vt 0.429711 0.873050
vt 0.053059 0.370504
vt 0.035158 0.379958
vt 0.854412 0.006406
vt 0.865854 0.020382
vt 0.837359 0.013529
vt 0.547642 0.166002
vt 0.531419 0.151414
vt 0.435111 0.005604
vt 0.443903 0.010283
vt 0.426918 0.029854
vt 0.758741 0.701266
vt 0.826629 0.166979
vt 0.813381 0.178517
vt 0.070575 0.413359
vt 0.934521 0.005198
vt 0.937226 0.009102
vt 0.934339 0.015208
vt 0.935559 0.047927
vt 0.933129 0.042263
vt 0.823730 0.214702
vt 0.817040 0.211386
vt 0.969358 0.706395
vt 0.962263 0.681097
vt 0.974919 0.703496
vt 0.014598 0.889361
vt 0.024631 0.890150
vt 0.023447 0.901633
vt 0.126543 0.953516
vt 0.120388 0.960789
vt 0.110244 0.945580
vt 0.542316 0.308568
vt 0.567789 0.284256
vt 0.564086 0.313821
vt 0.555705 0.366981
vt 0.580585 0.339836
vt 0.572549 0.353618
vt 0.556374 0.382130
vt 0.580755 0.379167
vt 0.385841 0.146575
vt 0.393706 0.137687
vt 0.419933 0.144882
vt 0.384385 0.164800
vt 0.359178 0.150125
vt 0.372593 0.145466
vt 0.578176 0.873051
vt 0.597520 0.891619
vt 0.563784 0.894459
vt 0.989805 0.218468
vt 0.982612 0.234685
vt 0.976498 0.209722
vt 0.969588 0.228514
vt 0.430942 0.152198
vt 0.046382 0.867148
vt 0.041477 0.861439
vt 0.057505 0.858527
vt 0.056084 0.823910
vt 0.037053 0.842220
vt 0.561541 0.864409
vt 0.404992 0.183613
vt 0.399553 0.186492
vt 0.398819 0.186569
vt 0.024082 0.455431
vt 0.020785 0.430230
vt 0.037505 0.435566
vt 0.526733 0.380631
vt 0.529940 0.384272
vt 0.541645 0.387792
vt 0.530280 0.897641
vt 0.540146 0.885972
vt 0.550432 0.903242
vt 0.046073 0.765317
vt 0.042063 0.798622
vt 0.033762 0.799652
vt 0.058032 0.790524
vt 0.057916 0.804138
vt 0.051888 0.804106
vt 0.685699 0.301956
vt 0.686976 0.268686
vt 0.650227 0.284373
vt 0.446463 0.942749
vt 0.460756 0.940004
vt 0.478783 0.934934
vt 0.865945 0.991447
vt 0.944873 0.111862
vt 0.921058 0.108456
vt 0.946384 0.075348
vt 0.906359 0.094319
vt 0.920143 0.077571
vt 0.016493 0.479560
vt 0.019252 0.472903
vt 0.035311 0.470811
vt 0.303270 0.866623
vt 0.310970 0.851858
vt 0.311252 0.885646
vt 0.334127 0.867148
vt 0.332572 0.885004
vt 0.027404 0.132693
vt 0.016093 0.126038
vt 0.028160 0.118124
vt 0.806767 0.057426
vt 0.801566 0.053341
vt 0.804948 0.044043
vt 0.360218 0.867059
vt 0.359202 0.872092
vt 0.345234 0.877336
vt 0.100795 0.631948
vt 0.116070 0.638859
vt 0.106390 0.636497
vt 0.553885 0.017477
vt 0.516746 0.018555
vt 0.514430 0.007678
vt 0.119305 0.657772
vt 0.110642 0.651323
vt 0.154244 0.645000
vt 0.152705 0.671612
vt 0.192430 0.663297
vt 0.125357 0.758085
vt 0.110493 0.768077
vt 0.126132 0.725643
vt 0.020879 0.851755
vt 0.007004 0.855681
vt 0.013666 0.847778
vt 0.409521 0.984250
vt 0.388540 0.968054
vt 0.416789 0.977534
vt 0.494112 0.021482
vt 0.488784 0.043957
vt 0.471531 0.036215
vt 0.116513 0.740023
vt 0.053220 0.224310
vt 0.056731 0.227489
vt 0.034663 0.230181
vt 0.987460 0.963846
vt 0.989433 0.980435
vt 0.974114 0.972838
vt 0.418735 0.966479
vt 0.139343 0.671289
vt 0.482868 0.073099
vt 0.443862 0.036660
vt 0.416907 0.884666
vt 0.419398 0.895330
vt 0.938199 0.523719
vt 0.931412 0.533578
vt 0.912016 0.522096
vt 0.934924 0.513129
vt 0.919154 0.504614
vt 0.908238 0.515753
vt 0.408740 0.898403
vt 0.369522 0.897912
vt 0.969668 0.066928
vt 0.984638 0.059919
vt 0.984766 0.076890
vt 0.973824 0.085679
vt 0.184725 0.027076
vt 0.201450 0.019363
vt 0.190569 0.033051
vt 0.205009 0.043654
vt 0.341773 0.816390
vt 0.308992 0.563758
vt 0.309408 0.577870
vt 0.267969 0.586007
vt 0.275076 0.573403
vt 0.324736 0.581434
vt 0.369478 0.548989
vt 0.326688 0.581434
vt 0.311712 0.541913
vt 0.875243 0.867306
vt 0.845596 0.870002
vt 0.858326 0.829479
vt 0.827141 0.868959
vt 0.340299 0.354261
vt 0.395949 0.389156
vt 0.362990 0.396478
vt 0.386033 0.342003
vt 0.411005 0.346479
vt 0.319281 0.483652
vt 0.306371 0.503405
vt 0.516429 0.523537
vt 0.532167 0.469851
vt 0.531176 0.499562
vt 0.499612 0.505252
vt 0.472460 0.508583
vt 0.479019 0.464946
vt 0.463165 0.494091
vt 0.513990 0.436604
vt 0.516205 0.404921
vt 0.358610 0.398816
vt 0.315713 0.375652
vt 0.291066 0.355983
vt 0.149497 0.159533
vt 0.112558 0.172189
vt 0.113141 0.129760
vt 0.163560 0.134574
vt 0.764571 0.058690
vt 0.782421 0.074344
vt 0.728048 0.057139
vt 0.715516 0.082764
vt 0.978468 0.880463
vt 0.960093 0.888395
vt 0.954533 0.881263
vt 0.968049 0.905805
vt 0.981541 0.894080
vt 0.859036 0.652685
vt 0.894046 0.659173
vt 0.872979 0.685683
vt 0.900143 0.684250
vt 0.893614 0.713937
vt 0.842495 0.663192
vt 0.869222 0.718932
vt 0.858484 0.717128
vt 0.294208 0.806244
vt 0.272559 0.811345
vt 0.233823 0.793287
vt 0.191194 0.144766
vt 0.837734 0.291097
vt 0.811094 0.303960
vt 0.826603 0.244743
vt 0.791398 0.307440
vt 0.801114 0.263420
vt 0.445566 0.335763
vt 0.465092 0.297034
vt 0.500000 0.305582
vt 0.509661 0.324814
vt 0.818640 0.765061
vt 0.833433 0.764388
vt 0.795114 0.788943
vt 0.801236 0.738448
vt 0.543134 0.841146
vt 0.534038 0.774972
vt 0.559901 0.820898
vt 0.503467 0.801526
vt 0.501129 0.827386
vt 0.501323 0.837330
vt 0.511158 0.780096
vt 0.813664 0.724298
vt 0.826652 0.739887
vt 0.803634 0.720305
vt 0.791718 0.716180
vt 0.916521 0.352349
vt 0.929102 0.384524
vt 0.921415 0.370804
vt 0.378593 0.789052
vt 0.390409 0.780111
vt 0.401074 0.785960
vt 0.824741 0.128293
vt 0.807303 0.116372
vt 0.824935 0.104652
vt 0.848795 0.716104
vt 0.838390 0.697274
vt 0.940984 0.352422
vt 0.950216 0.384422
vt 0.936453 0.385611
vt 0.840819 0.132908
vt 0.828397 0.149036
vt 0.822421 0.080829
vt 0.802250 0.087834
vt 0.201842 0.504293
vt 0.186913 0.531695
vt 0.174724 0.461726
vt 0.153872 0.554760
vt 0.163978 0.563419
vt 0.473776 0.353076
vt 0.450776 0.360858
vt 0.470245 0.767213
vt 0.447884 0.767003
vt 0.435420 0.750882
vt 0.493129 0.763592
vt 0.501611 0.742374
vt 0.520566 0.753252
vt 0.460234 0.436137
vt 0.430565 0.733330
vt 0.312853 0.974350
vt 0.319120 0.949648
vt 0.326432 0.969303
vt 0.468203 0.735676
vt 0.935553 0.174496
vt 0.922945 0.180875
vt 0.907509 0.153366
vt 0.145441 0.507940
vt 0.134291 0.486043
vt 0.151175 0.501518
vt 0.104704 0.464233
vt 0.133076 0.458105
vt 0.425391 0.285346
vt 0.413792 0.321829
vt 0.862837 0.111027
vt 0.884695 0.102810
vt 0.896643 0.131739
vt 0.886662 0.140473
vt 0.860479 0.133961
vt 0.865164 0.100630
vt 0.896319 0.077845
vt 0.889566 0.086560
vt 0.893642 0.071237
vt 0.217012 0.655353
vt 0.214930 0.689331
vt 0.219048 0.663477
vt 0.244766 0.657498
vt 0.262782 0.684463
vt 0.269524 0.664078
vt 0.533787 0.441064
vt 0.470073 0.400924
vt 0.124255 0.008771
vt 0.162904 0.008115
vt 0.163638 0.014698
vt 0.141006 0.028294
vt 0.248017 0.707667
vt 0.235330 0.708445
vt 0.215126 0.114799
vt 0.256220 0.092148
vt 0.280136 0.125193
vt 0.231102 0.135819
vt 0.196269 0.097051
vt 0.971471 0.829954
vt 0.940927 0.849615
vt 0.950435 0.821875
vt 0.931141 0.832093
vt 0.292019 0.374189
vt 0.959067 0.862791
vt 0.971392 0.860222
vt 0.970381 0.864013
vt 0.969511 0.844223
vt 0.763039 0.914901
vt 0.758212 0.891719
vt 0.775309 0.899265
vt 0.082374 0.458060
vt 0.050114 0.472256
vt 0.056982 0.441800
vt 0.055690 0.486453
vt 0.614427 0.489671
vt 0.595548 0.512043
vt 0.578056 0.494049
vt 0.719748 0.272143
vt 0.706332 0.251634
vt 0.729912 0.252179
vt 0.738247 0.272806
vt 0.731070 0.227401
vt 0.415365 0.368655
vt 0.420252 0.344528
vt 0.435278 0.346000
vt 0.432555 0.351508
vt 0.785626 0.192971
vt 0.765995 0.193538
vt 0.689698 0.029878
vt 0.694295 0.033562
vt 0.660357 0.038462
vt 0.628759 0.535715
vt 0.637863 0.574564
vt 0.631493 0.577828
vt 0.619356 0.537901
vt 0.045749 0.130687
vt 0.037617 0.098975
vt 0.079708 0.065517
vt 0.062695 0.128518
vt 0.085305 0.096415
vt 0.090363 0.116993
vt 0.668354 0.013832
vt 0.656159 0.018361
vt 0.719858 0.026755
vt 0.706266 0.029500
vt 0.697927 0.015287
vt 0.311006 0.184611
vt 0.358890 0.211555
vt 0.285382 0.208205
vt 0.279580 0.183485
vt 0.359868 0.198622
vt 0.370546 0.189324
vt 0.385496 0.300091
vt 0.396491 0.316580
vt 0.407003 0.282636
vt 0.416681 0.273429
vt 0.069723 0.064891
vt 0.058431 0.163481
vt 0.059171 0.175658
vt 0.043437 0.159375
vt 0.072079 0.165451
vt 0.026262 0.026826
vt 0.037054 0.019479
vt 0.397688 0.289243
vt 0.091460 0.104228
vt 0.290818 0.172546
vt 0.716732 0.014235
vt 0.715632 0.012347
vt 0.503797 0.286860
vt 0.713867 0.451524
vt 0.712815 0.440136
vt 0.727226 0.473757
vt 0.733818 0.441432
vt 0.752144 0.394264
vt 0.748683 0.436974
vt 0.742161 0.402118
vt 0.759963 0.406851
vt 0.754608 0.467042
vt 0.748968 0.479051
vt 0.857933 0.294557
vt 0.883801 0.292149
vt 0.870885 0.320854
vt 0.845023 0.328218
vt 0.862000 0.346408
vt 0.880527 0.341561
vt 0.896535 0.362852
vt 0.899347 0.297287
vt 0.736114 0.300494
vt 0.729383 0.309039
vt 0.678755 0.757827
vt 0.663731 0.721092
vt 0.678113 0.728509
vt 0.604241 0.715747
vt 0.638789 0.714415
vt 0.325203 0.265052
vt 0.312115 0.245018
vt 0.347004 0.244027
vt 0.390131 0.265155
vt 0.381076 0.276490
vt 0.422661 0.245609
vt 0.386969 0.238316
vt 0.310079 0.690792
vt 0.315339 0.683979
vt 0.755657 0.783677
vt 0.800769 0.812389
vt 0.770288 0.820735
vt 0.757621 0.823895
vt 0.078452 0.739335
vt 0.101683 0.741695
vt 0.090862 0.759691
vt 0.929408 0.265714
vt 0.937436 0.237107
vt 0.962461 0.266527
vt 0.100296 0.703310
vt 0.674359 0.928307
vt 0.657273 0.952749
vt 0.662991 0.939203
vt 0.334549 0.178320
vt 0.500405 0.977157
vt 0.474864 0.976410
vt 0.486441 0.961220
vt 0.081272 0.167826
vt 0.083402 0.176013
vt 0.021734 0.969710
vt 0.049142 0.975993
vt 0.022366 0.982301
vt 0.562611 0.930399
vt 0.595532 0.934268
vt 0.593394 0.946943
vt 0.581570 0.918611
vt 0.192589 0.064799
vt 0.199573 0.072396
vt 0.225640 0.279726
vt 0.232025 0.291167
vt 0.215715 0.287790
vt 0.028261 0.897063
vt 0.258495 0.283260
vt 0.326808 0.287338
vt 0.343196 0.312844
vt 0.258821 0.356278
vt 0.234158 0.354803
vt 0.229917 0.344911
vt 0.284725 0.328848
vt 0.239023 0.325242
vt 0.271143 0.351738
vt 0.387059 0.804342
vt 0.900402 0.579068
vt 0.882225 0.593311
vt 0.880706 0.574245
vt 0.881011 0.559701
vt 0.271789 0.831192
vt 0.277384 0.853777
vt 0.233393 0.880134
vt 0.238356 0.882633
vt 0.928928 0.759742
vt 0.915277 0.735244
vt 0.934612 0.739724
vt 0.910386 0.748255
vt 0.227356 0.860570
vt 0.329711 0.039656
vt 0.303811 0.028650
vt 0.322245 0.013703
vt 0.441577 0.782172
vt 0.447402 0.779658
vt 0.432312 0.806078
vt 0.461441 0.795774
vt 0.451946 0.779425
vt 0.459771 0.782503
vt 0.461097 0.820970
vt 0.412195 0.833848
vt 0.459986 0.828899
vt 0.239690 0.168127
vt 0.234350 0.152547
vt 0.945060 0.777794
vt 0.970438 0.791955
vt 0.966756 0.805037
vt 0.949808 0.763618
vt 0.030396 0.555158
vt 0.036017 0.570563
vt 0.019206 0.575841
vt 0.013743 0.553012
vt 0.637808 0.033545
vt 0.642799 0.019794
vt 0.372273 0.959138
vt 0.374967 0.968806
vt 0.368571 0.973143
vt 0.765286 0.465790
vt 0.733855 0.987399
vt 0.719131 0.969781
vt 0.738461 0.987336
vt 0.739981 0.970994
vt 0.070590 0.645300
vt 0.089633 0.670602
vt 0.062682 0.672485
vt 0.083898 0.643400
vt 0.091474 0.651307
vt 0.050388 0.652546
vt 0.341142 0.065863
vt 0.334082 0.068610
vt 0.042691 0.331961
vt 0.049963 0.341015
vt 0.027191 0.345253
vt 0.050488 0.355676
vt 0.083612 0.915445
vt 0.083392 0.903283
vt 0.087103 0.904156
vt 0.971662 0.659397
vt 0.947508 0.645261
vt 0.975599 0.640424
vt 0.615615 0.942113
vt 0.634469 0.943346
vt 0.623976 0.968812
vt 0.275151 0.978760
vt 0.290003 0.987676
vt 0.269362 0.987242
vt 0.278968 0.969998
vt 0.016091 0.143139
vt 0.017130 0.145106
vt 0.012983 0.144861
s 1
f 17/1/1 34/2/2 9/3/3
f 9/3/3 34/2/2 54/4/4
f 34/2/2 17/1/1 24/5/5
f 34/2/2 24/5/5 47/6/6
f 73/7/7 47/6/6 51/8/8
f 18/9/9 41/10/10 49/11/11
f 41/10/10 38/12/12 49/11/11
f 41/10/10 89/13/13 38/12/12
f 6/14/14 12/15/15 1/16/16
f 2/17/17 1/16/16 3/18/18
f 3/18/18 1/16/16 12/15/15
f 6/14/14 1/16/16 2/19/17
f 54/20/4 17/21/1 9/22/3
f 11/23/19 12/15/15 15/24/20
f 12/15/15 6/14/14 15/24/20
f 15/25/20 6/26/14 7/27/21
f 7/28/21 6/29/14 20/30/22
f 21/31/23 6/29/14 2/32/17
f 6/29/14 21/31/23 20/30/22
f 13/33/24 10/34/25 21/35/23
f 17/36/1 2/37/17 3/38/18
f 17/36/1 3/38/18 51/39/8
f 26/40/26 10/41/25 13/42/24
f 16/43/27 26/40/26 13/44/24
f 26/40/26 21/45/23 10/41/25
f 12/46/15 11/47/19 37/48/28
f 3/49/18 12/50/15 37/48/28
f 7/27/21 20/51/22 15/25/20
f 15/52/20 37/48/28 11/47/19
f 16/53/27 55/54/29 26/55/26
f 112/56/30 101/57/31 98/58/32
f 101/57/31 112/56/30 147/59/33
f 213/60/34 224/61/35 253/62/36
f 139/63/37 147/64/33 167/65/38
f 213/66/34 139/67/37 201/68/39
f 139/67/37 167/69/38 201/68/39
f 43/70/40 57/71/41 13/72/24
f 34/73/2 47/74/6 165/75/42
f 92/76/43 54/77/4 34/73/2
f 92/76/43 39/78/44 54/77/4
f 47/6/6 70/79/45 101/80/31
f 165/75/42 47/74/6 101/81/31
f 54/77/4 43/70/40 21/82/23
f 43/70/40 54/77/4 39/83/44
f 47/6/6 73/7/7 70/79/45
f 70/84/45 98/58/32 101/57/31
f 165/85/42 139/63/37 213/60/34
f 235/86/46 165/85/42 213/60/34
f 34/73/2 165/87/42 92/76/43
f 208/88/47 92/89/43 165/90/42
f 139/63/37 165/85/42 101/91/31
f 101/91/31 147/64/33 139/63/37
f 89/92/13 91/93/48 49/94/11
f 18/95/9 49/94/11 50/96/49
f 91/97/48 50/98/49 49/99/11
f 91/97/48 119/100/50 50/98/49
f 119/101/50 91/102/48 89/103/13
f 147/104/33 112/105/30 98/106/32
f 143/107/51 146/108/52 160/109/53
f 146/110/52 167/111/38 118/112/54
f 146/108/52 173/113/55 167/114/38
f 146/108/52 156/115/56 173/113/55
f 156/115/56 146/108/52 143/107/51
f 160/116/53 146/110/52 118/112/54
f 183/117/57 160/116/53 118/112/54
f 183/117/57 118/112/54 190/118/58
f 183/117/57 224/119/35 167/120/38
f 160/116/53 183/117/57 188/121/59
f 160/116/53 156/122/56 143/123/51
f 179/124/60 218/125/61 156/126/56
f 218/125/61 173/127/55 156/126/56
f 167/111/38 147/128/33 118/112/54
f 156/129/56 188/130/59 179/131/60
f 218/132/61 179/131/60 188/130/59
f 173/133/55 188/130/59 183/134/57
f 156/122/56 160/116/53 188/121/59
f 201/135/39 167/136/38 224/137/35
f 224/137/35 213/138/34 201/135/39
f 173/127/55 183/139/57 167/140/38
f 188/141/59 173/127/55 218/125/61
f 24/142/5 17/21/1 51/143/8
f 24/142/5 51/143/8 47/144/6
f 2/37/17 17/36/1 54/145/4
f 51/146/8 3/147/18 37/148/28
f 18/149/9 50/150/49 79/151/62
f 15/152/20 53/153/63 37/154/28
f 83/155/64 37/154/28 53/153/63
f 59/156/65 38/157/12 89/158/13
f 13/159/24 21/160/23 43/161/40
f 20/162/22 21/163/23 46/164/66
f 46/164/66 21/163/23 26/165/26
f 59/156/65 49/166/11 38/157/12
f 20/167/22 76/168/67 53/169/63
f 46/170/66 76/168/67 20/167/22
f 84/171/68 46/164/66 55/172/29
f 46/164/66 26/165/26 55/172/29
f 51/146/8 37/148/28 100/173/69
f 2/37/17 54/145/4 21/160/23
f 53/169/63 15/174/20 20/167/22
f 18/149/9 79/151/62 41/175/10
f 83/176/64 100/173/69 37/148/28
f 149/177/70 100/173/69 83/176/64
f 53/178/63 74/179/71 84/180/68
f 86/181/72 74/182/71 76/183/67
f 86/181/72 84/184/68 87/185/73
f 99/186/74 87/187/73 84/184/68
f 84/184/68 86/181/72 53/188/63
f 99/189/74 53/188/63 86/181/72
f 99/189/74 86/181/72 76/183/67
f 87/190/73 99/189/74 76/183/67
f 46/191/66 84/180/68 74/179/71
f 76/192/67 74/179/71 53/178/63
f 73/193/7 79/194/62 50/195/49
f 51/196/8 100/197/69 79/194/62
f 41/198/10 79/199/62 89/158/13
f 89/158/13 79/199/62 102/200/75
f 83/201/64 53/202/63 106/203/76
f 84/204/68 83/201/64 106/203/76
f 83/201/64 84/204/68 122/205/77
f 74/182/71 86/181/72 46/206/66
f 87/185/73 46/206/66 86/181/72
f 76/207/67 46/206/66 87/185/73
f 98/208/32 70/209/45 73/210/7
f 53/211/63 79/212/62 106/213/76
f 99/214/74 102/215/75 53/211/63
f 79/212/62 53/211/63 102/216/75
f 59/217/65 89/218/13 49/219/11
f 95/220/78 94/221/78 93/222/79
f 95/223/78 93/224/79 94/225/78
f 102/226/75 88/227/80 121/228/81
f 121/229/81 88/230/80 99/214/74
f 50/231/49 118/232/54 98/233/32
f 79/194/62 73/193/7 51/196/8
f 84/204/68 55/234/29 122/205/77
f 166/235/82 121/236/81 99/237/74
f 57/238/41 122/239/77 55/240/29
f 106/241/76 99/237/74 84/242/68
f 118/243/54 50/244/49 119/245/50
f 119/246/50 89/247/13 102/248/75
f 153/249/83 166/250/82 170/251/84
f 119/246/50 153/249/83 170/251/84
f 116/252/85 138/253/86 148/254/87
f 130/255/88 135/256/89 85/257/90
f 116/258/85 85/257/90 138/259/86
f 118/243/54 147/260/33 98/261/32
f 149/262/70 83/263/64 136/264/91
f 122/265/77 136/264/91 83/263/64
f 122/265/77 57/266/41 43/267/40
f 106/241/76 100/268/69 149/269/70
f 100/268/69 106/241/76 79/270/62
f 102/248/75 121/271/81 119/246/50
f 121/271/81 153/249/83 119/246/50
f 166/250/82 99/272/74 170/251/84
f 85/273/90 77/274/92 62/275/93
f 110/276/94 77/274/92 85/273/90
f 170/277/84 118/278/54 119/279/50
f 118/278/54 170/277/84 174/280/95
f 174/280/95 170/277/84 186/281/96
f 106/241/76 149/269/70 170/282/84
f 106/241/76 170/282/84 99/237/74
f 138/283/86 85/284/90 135/285/89
f 136/286/91 117/287/97 129/288/98
f 159/289/99 136/290/91 122/291/77
f 136/292/91 159/293/99 117/294/97
f 136/295/91 164/296/100 148/297/87
f 186/298/96 136/295/91 172/299/101
f 172/299/101 136/295/91 148/297/87
f 164/296/100 187/300/102 148/297/87
f 172/299/101 148/297/87 138/301/86
f 137/302/103 164/303/100 136/286/91
f 118/304/54 174/305/95 190/306/58
f 136/307/91 186/308/96 149/309/70
f 149/310/70 186/281/96 170/277/84
f 172/311/101 197/312/104 187/313/102
f 162/314/105 197/315/104 172/311/101
f 190/306/58 224/316/35 183/317/57
f 224/316/35 190/306/58 210/318/106
f 190/306/58 233/319/107 241/320/108
f 186/321/96 172/322/101 187/323/102
f 187/300/102 164/296/100 209/324/109
f 171/325/110 164/326/100 144/327/111
f 171/325/110 117/328/97 159/329/99
f 186/330/96 190/306/58 174/305/95
f 219/331/112 190/306/58 187/332/102
f 186/330/96 187/332/102 190/306/58
f 219/331/112 233/319/107 190/306/58
f 172/333/101 135/334/89 162/335/105
f 134/336/113 162/335/105 135/334/89
f 210/318/106 190/306/58 241/320/108
f 187/337/102 209/338/109 234/339/114
f 240/340/115 219/341/112 234/339/114
f 8/342/116 4/343/117 14/344/118
f 5/345/119 4/343/117 8/342/116
f 8/346/116 14/347/118 31/348/120
f 31/348/120 32/349/121 8/346/116
f 31/348/120 69/350/122 32/349/121
f 14/351/118 32/349/121 69/350/122
f 32/349/121 5/352/119 8/346/116
f 4/353/117 32/354/121 14/355/118
f 27/356/123 35/357/124 43/358/40
f 40/359/125 16/53/27 57/360/41
f 5/361/119 32/354/121 4/362/117
f 22/363/126 33/364/127 19/365/128
f 33/364/127 23/366/129 19/365/128
f 19/365/128 23/366/129 22/367/126
f 27/368/123 39/369/44 35/370/124
f 105/371/130 31/372/120 92/373/43
f 92/373/43 31/372/120 39/369/44
f 39/369/44 31/372/120 35/370/124
f 27/374/123 43/375/40 39/369/44
f 35/376/124 14/377/118 69/378/122
f 69/378/122 114/379/131 43/380/40
f 43/380/40 35/376/124 69/378/122
f 31/348/120 14/347/118 35/381/124
f 31/348/120 105/382/130 69/350/122
f 105/382/130 114/383/131 69/350/122
f 97/384/132 114/385/131 105/386/130
f 97/384/132 105/386/130 72/387/133
f 92/388/43 208/389/47 128/390/134
f 205/391/135 128/390/134 208/389/47
f 92/392/43 128/393/134 105/394/130
f 131/395/136 120/396/137 128/393/134
f 128/393/134 154/397/138 131/395/136
f 154/398/138 128/390/134 205/391/135
f 57/399/41 16/400/27 13/33/24
f 23/401/129 66/402/139 22/403/126
f 67/404/140 66/405/139 56/406/141
f 56/406/141 66/405/139 52/407/142
f 52/407/142 42/408/143 56/406/141
f 33/409/127 42/408/143 52/407/142
f 33/409/127 52/407/142 23/401/129
f 16/53/27 40/359/125 55/54/29
f 55/54/29 40/359/125 28/410/144
f 57/360/41 56/411/141 40/359/125
f 52/412/142 71/413/145 103/414/146
f 129/415/98 115/416/147 52/412/142
f 129/415/98 52/412/142 66/417/139
f 52/418/142 103/419/146 23/420/129
f 103/419/146 66/421/139 23/420/129
f 78/422/148 72/387/133 80/423/149
f 97/384/132 72/387/133 78/422/148
f 80/424/149 72/387/133 90/425/150
f 78/422/148 141/426/151 131/427/136
f 78/422/148 131/427/136 97/384/132
f 75/428/152 56/429/141 57/238/41
f 75/428/152 57/238/41 55/240/29
f 75/430/152 55/240/29 48/431/153
f 28/432/144 48/431/153 55/240/29
f 122/433/77 43/380/40 114/379/131
f 78/434/148 80/435/149 120/436/137
f 52/412/142 115/416/147 71/413/145
f 33/437/127 22/438/126 66/439/139
f 33/437/127 66/439/139 67/440/140
f 67/440/140 36/441/154 33/437/127
f 115/442/147 129/288/98 117/287/97
f 109/443/155 129/444/98 66/445/139
f 109/446/155 66/447/139 103/448/146
f 163/449/156 151/450/157 103/448/146
f 128/451/134 72/387/133 105/386/130
f 72/387/133 128/451/134 90/425/150
f 90/425/150 128/451/134 133/452/158
f 120/436/137 132/453/159 78/434/148
f 117/454/97 163/455/156 115/416/147
f 109/443/155 144/456/111 129/444/98
f 163/455/156 159/457/99 115/416/147
f 159/457/99 122/458/77 115/416/147
f 115/416/147 122/458/77 114/459/131
f 71/413/145 115/416/147 114/459/131
f 114/459/131 154/460/138 103/414/146
f 114/459/131 103/414/146 71/413/145
f 141/461/151 78/434/148 132/453/159
f 141/462/151 132/463/159 142/464/160
f 151/465/157 108/466/161 103/467/146
f 114/468/131 97/469/132 154/470/138
f 154/470/138 97/469/132 131/395/136
f 144/471/111 151/472/157 163/473/156
f 120/474/137 133/475/158 128/476/134
f 141/477/151 120/474/137 131/478/136
f 144/479/111 117/454/97 171/480/110
f 117/454/97 144/479/111 163/455/156
f 151/481/157 144/456/111 109/443/155
f 151/481/157 109/443/155 123/482/162
f 217/483/163 171/484/110 159/485/99
f 204/486/164 217/483/163 159/485/99
f 204/487/164 159/488/99 163/473/156
f 205/489/135 215/490/165 154/491/138
f 163/492/156 103/493/146 154/491/138
f 163/492/156 154/491/138 204/494/164
f 144/495/111 150/496/166 110/497/94
f 150/496/166 124/498/167 110/497/94
f 195/499/168 182/500/169 176/501/170
f 212/502/171 209/503/109 171/325/110
f 176/501/170 182/500/169 175/504/172
f 175/504/172 182/500/169 202/505/173
f 151/465/157 123/506/162 206/507/174
f 195/508/168 176/509/170 161/510/175
f 195/508/168 161/510/175 199/511/176
f 177/512/177 199/511/176 161/510/175
f 195/508/168 199/511/176 202/513/173
f 215/514/165 205/515/135 182/516/169
f 229/517/178 215/514/165 182/516/169
f 195/518/168 206/519/174 182/516/169
f 209/503/109 164/520/100 171/325/110
f 206/521/174 195/522/168 211/523/179
f 206/521/174 211/523/179 193/524/180
f 229/525/178 182/526/169 206/521/174
f 222/527/181 193/528/180 223/529/182
f 205/391/135 208/389/47 242/530/183
f 247/531/184 154/491/138 246/532/185
f 204/494/164 154/491/138 206/533/174
f 206/533/174 154/491/138 229/534/178
f 221/535/186 220/536/187 214/537/188
f 217/538/163 204/494/164 206/533/174
f 205/539/135 221/535/186 214/537/188
f 205/515/135 214/540/188 182/516/169
f 206/541/174 123/542/162 217/543/163
f 227/544/189 217/545/163 231/546/190
f 212/547/171 171/548/110 217/549/163
f 202/550/173 211/551/179 195/552/168
f 209/553/109 226/554/191 234/555/114
f 234/556/114 226/554/191 231/557/190
f 222/527/181 217/558/163 123/559/162
f 236/560/192 193/561/180 229/562/178
f 229/562/178 193/561/180 211/563/179
f 211/563/179 256/564/193 229/562/178
f 104/565/194 80/566/149 90/567/150
f 80/568/149 104/569/194 120/474/137
f 120/474/137 104/569/194 133/475/158
f 104/569/194 90/570/150 133/475/158
f 141/571/151 142/572/160 120/573/137
f 142/572/160 132/574/159 120/573/137
f 199/511/176 177/512/177 176/575/170
f 202/513/173 199/511/176 176/575/170
f 175/576/172 202/577/173 176/578/170
f 182/579/169 214/580/188 202/550/173
f 77/581/92 68/582/195 62/583/93
f 102/584/75 99/585/74 82/586/196
f 102/587/75 82/586/196 88/588/80
f 62/589/93 68/590/195 85/591/90
f 68/590/195 77/592/92 107/593/197
f 68/590/195 107/593/197 85/591/90
f 99/594/74 88/595/80 82/596/196
f 107/593/197 130/597/88 85/591/90
f 107/598/197 127/599/198 148/600/87
f 107/598/197 148/600/87 137/601/103
f 148/600/87 135/602/89 137/601/103
f 137/601/103 135/602/89 130/597/88
f 107/593/197 77/603/92 127/604/198
f 162/605/105 111/606/199 126/607/200
f 162/605/105 134/608/113 111/606/199
f 126/607/200 111/609/199 145/610/201
f 85/273/90 116/611/85 110/276/94
f 127/612/198 116/611/85 148/613/87
f 110/276/94 116/611/85 127/614/198
f 145/615/201 111/616/199 140/617/202
f 129/288/98 110/618/94 137/302/103
f 136/286/91 129/288/98 137/302/103
f 137/619/103 110/620/94 127/621/198
f 150/496/166 137/619/103 130/622/88
f 130/622/88 125/623/203 150/496/166
f 137/619/103 127/621/198 125/624/203
f 110/625/94 125/626/203 77/627/92
f 125/626/203 127/628/198 77/627/92
f 107/629/197 125/630/203 130/631/88
f 137/632/103 125/630/203 107/629/197
f 169/633/204 145/634/201 140/635/202
f 126/607/200 145/610/201 157/636/205
f 157/636/205 192/637/206 181/638/207
f 126/607/200 157/636/205 181/638/207
f 162/605/105 126/607/200 181/638/207
f 153/639/83 121/640/81 155/641/208
f 121/640/81 166/642/82 155/641/208
f 135/285/89 172/311/101 138/283/86
f 164/643/100 137/619/103 150/496/166
f 134/644/113 140/635/202 111/645/199
f 166/646/82 153/647/83 155/648/208
f 134/336/113 135/334/89 148/649/87
f 134/336/113 148/649/87 187/650/102
f 207/651/209 181/652/207 145/653/201
f 181/654/207 197/315/104 162/314/105
f 197/655/104 181/638/207 207/656/209
f 140/635/202 134/644/113 207/657/209
f 192/637/206 157/636/205 145/610/201
f 169/658/204 207/659/209 145/660/201
f 207/659/209 134/661/113 197/662/104
f 145/610/201 181/663/207 203/664/210
f 145/610/201 203/664/210 192/637/206
f 134/665/113 187/666/102 197/667/104
f 192/668/206 203/669/210 225/670/211
f 140/671/202 207/672/209 169/673/204
f 28/674/144 25/675/212 48/676/153
f 75/677/152 58/678/213 29/679/214
f 75/677/152 48/676/153 58/678/213
f 63/680/215 75/677/152 81/681/216
f 29/682/214 25/683/212 28/684/144
f 44/685/217 30/686/218 29/687/214
f 28/684/144 44/685/217 29/682/214
f 48/688/153 25/689/212 29/690/214
f 67/691/140 42/692/143 36/693/154
f 42/692/143 33/694/127 36/693/154
f 44/685/217 28/684/144 40/695/125
f 29/696/214 30/697/218 63/698/215
f 63/698/215 30/697/218 45/699/219
f 44/700/217 45/699/219 30/697/218
f 58/701/213 48/688/153 29/690/214
f 40/695/125 56/702/141 44/685/217
f 56/702/141 42/703/143 44/685/217
f 42/703/143 67/704/140 44/685/217
f 45/705/219 44/706/217 63/707/215
f 56/708/141 75/677/152 67/709/140
f 44/710/217 67/709/140 75/677/152
f 63/680/215 44/710/217 75/677/152
f 81/711/216 75/712/152 29/690/214
f 63/713/215 81/711/216 29/690/214
f 96/714/220 109/715/155 108/716/161
f 96/717/220 113/718/221 123/719/162
f 108/720/161 109/443/155 103/721/146
f 96/722/220 123/482/162 109/443/155
f 108/723/161 113/724/221 96/725/220
f 125/626/203 110/625/94 124/726/167
f 113/727/221 168/728/222 123/729/162
f 200/730/223 123/729/162 168/728/222
f 123/729/162 200/730/223 178/731/224
f 110/732/94 129/733/98 144/734/111
f 152/735/225 113/736/221 158/737/226
f 158/737/226 108/738/161 152/739/225
f 158/737/226 113/736/221 108/738/161
f 150/740/166 125/741/203 124/742/167
f 168/743/222 113/744/221 152/745/225
f 150/496/166 144/495/111 164/643/100
f 151/746/157 178/747/224 108/738/161
f 152/739/225 108/738/161 194/748/227
f 108/749/161 178/750/224 194/751/227
f 180/752/228 168/753/222 178/754/224
f 178/750/224 168/755/222 152/756/225
f 178/750/224 200/757/223 196/758/229
f 228/759/230 196/758/229 200/757/223
f 178/760/224 151/761/157 193/762/180
f 222/527/181 178/760/224 193/762/180
f 185/763/231 191/764/232 198/765/233
f 191/766/232 185/767/231 227/768/189
f 180/769/228 196/770/229 168/771/222
f 193/762/180 151/761/157 206/772/174
f 178/773/224 152/774/225 194/775/227
f 189/776/234 184/777/235 198/778/233
f 227/768/189 185/767/231 198/779/233
f 180/780/228 178/750/224 196/758/229
f 168/771/222 228/781/230 200/782/223
f 123/559/162 178/760/224 222/527/181
f 212/783/171 184/784/235 209/553/109
f 198/785/233 184/786/235 212/787/171
f 198/785/233 212/787/171 227/788/189
f 227/789/189 212/787/171 217/790/163
f 168/771/222 196/770/229 228/781/230
f 209/553/109 184/784/235 189/791/234
f 231/557/190 226/554/191 189/792/234
f 189/793/234 216/794/236 191/795/232
f 191/795/232 227/796/189 189/793/234
f 191/797/232 216/798/236 198/799/233
f 198/799/233 216/798/236 189/800/234
f 161/510/175 176/801/170 177/512/177
f 269/802/237 253/803/36 279/804/238
f 313/805/239 269/802/237 279/804/238
f 253/803/36 269/802/237 213/806/34
f 269/802/237 235/807/46 213/808/34
f 282/809/240 269/802/237 313/805/239
f 165/810/42 235/811/46 208/812/47
f 312/813/241 208/812/47 235/811/46
f 282/809/240 235/807/46 269/802/237
f 304/814/242 208/815/47 312/816/241
f 323/817/243 303/818/244 304/814/242
f 307/819/245 235/807/46 310/820/246
f 273/821/247 302/822/248 271/823/249
f 302/822/248 273/821/247 296/824/250
f 296/824/250 312/825/241 307/826/245
f 307/826/245 312/825/241 235/827/46
f 320/828/251 307/826/245 311/829/252
f 282/809/240 310/820/246 235/807/46
f 312/830/241 316/831/253 304/814/242
f 335/832/254 304/814/242 316/831/253
f 245/833/255 252/834/256 232/835/257
f 245/833/255 232/835/257 224/836/35
f 253/837/36 224/838/35 252/839/256
f 232/840/257 252/839/256 224/838/35
f 252/841/256 285/842/258 289/843/259
f 259/844/260 285/842/258 245/845/255
f 245/845/255 285/842/258 252/841/256
f 253/846/36 252/847/256 287/848/261
f 252/847/256 289/849/259 287/848/261
f 289/850/259 210/851/106 287/848/261
f 285/852/258 259/853/260 210/851/106
f 187/854/102 234/855/114 219/856/112
f 245/833/255 224/836/35 210/857/106
f 233/858/107 219/859/112 237/860/262
f 237/860/262 240/861/115 251/862/263
f 240/861/115 237/860/262 219/859/112
f 243/863/264 272/864/265 277/865/266
f 277/865/266 290/866/267 243/863/264
f 255/867/268 241/868/108 266/869/269
f 282/870/240 255/867/268 266/869/269
f 233/871/107 266/872/269 241/873/108
f 270/874/270 233/871/107 238/875/271
f 238/875/271 233/871/107 237/876/262
f 233/871/107 270/874/270 271/877/249
f 253/878/36 210/879/106 279/880/238
f 279/880/238 282/870/240 313/881/239
f 279/880/238 210/879/106 282/870/240
f 283/882/272 273/883/247 270/884/270
f 238/885/271 250/886/273 278/887/274
f 280/888/275 278/889/274 283/890/272
f 255/867/268 282/870/240 241/868/108
f 210/879/106 241/868/108 282/870/240
f 210/851/106 259/891/260 245/892/255
f 251/893/263 240/894/115 263/895/276
f 273/883/247 283/882/272 263/895/276
f 263/895/276 283/882/272 251/893/263
f 280/888/275 270/896/270 238/897/271
f 251/898/263 283/890/272 250/899/273
f 283/890/272 278/889/274 250/899/273
f 253/846/36 287/848/261 210/851/106
f 271/900/249 270/901/270 273/902/247
f 283/903/272 270/901/270 280/904/275
f 263/905/276 240/906/115 243/863/264
f 266/872/269 233/871/107 271/877/249
f 263/907/276 243/908/264 290/909/267
f 273/910/247 298/911/277 296/912/250
f 307/826/245 282/913/240 311/829/252
f 263/907/276 295/914/278 273/910/247
f 289/850/259 285/852/258 210/851/106
f 310/915/246 282/916/240 307/917/245
f 295/918/278 298/911/277 273/910/247
f 266/919/269 271/920/249 297/921/279
f 271/922/249 302/923/248 297/924/279
f 311/925/252 324/926/280 302/923/248
f 295/914/278 263/907/276 290/909/267
f 307/826/245 320/828/251 296/824/250
f 298/927/277 272/864/265 247/928/184
f 311/929/252 297/930/279 314/931/281
f 314/931/281 326/932/282 311/929/252
f 311/929/252 326/932/282 324/933/280
f 311/929/252 266/934/269 297/930/279
f 319/935/283 297/936/279 302/937/248
f 296/938/250 316/939/253 312/940/241
f 316/939/253 296/938/250 298/941/277
f 318/942/284 298/941/277 306/943/285
f 318/942/284 316/939/253 298/941/277
f 320/828/251 302/822/248 296/824/250
f 302/944/248 320/828/251 311/829/252
f 266/945/269 311/829/252 282/913/240
f 308/946/286 272/947/265 298/948/277
f 308/946/286 298/948/277 295/949/278
f 318/942/284 325/950/287 316/939/253
f 330/951/288 316/939/253 325/950/287
f 300/952/289 297/953/279 319/954/283
f 300/952/289 319/954/283 314/955/281
f 288/956/290 297/953/279 300/952/289
f 302/957/248 333/958/291 319/959/283
f 332/960/292 319/959/283 333/958/291
f 335/832/254 316/831/253 330/961/288
f 328/962/293 324/963/280 326/964/282
f 333/958/291 302/957/248 324/965/280
f 333/958/291 324/965/280 328/962/293
f 335/966/254 330/967/288 304/968/242
f 323/969/243 330/970/288 325/971/287
f 304/972/242 330/970/288 323/969/243
f 246/973/185 242/974/183 208/975/47
f 291/976/294 246/977/185 293/978/295
f 274/979/296 291/976/294 293/978/295
f 208/980/47 293/978/295 246/977/185
f 304/814/242 303/818/244 208/981/47
f 274/982/296 293/983/295 303/818/244
f 208/984/47 303/818/244 293/983/295
f 221/535/186 205/985/135 242/986/183
f 154/491/138 215/490/165 246/532/185
f 231/987/190 217/988/163 222/989/181
f 246/973/185 215/990/165 242/974/183
f 229/991/178 256/992/193 242/993/183
f 215/990/165 229/991/178 242/993/183
f 264/994/297 229/995/178 247/996/184
f 281/997/298 247/996/184 243/998/264
f 243/998/264 234/999/114 281/997/298
f 264/994/297 247/996/184 281/997/298
f 249/1000/299 231/987/190 236/1001/192
f 236/1002/192 229/1003/178 264/1004/297
f 258/1005/300 221/1006/186 242/1007/183
f 242/1007/183 256/1008/193 258/1005/300
f 221/1006/186 244/1009/301 220/1010/187
f 274/1011/296 247/928/184 246/1012/185
f 298/927/277 303/1013/244 306/1014/285
f 154/1015/138 247/996/184 229/995/178
f 230/1016/302 248/1017/303 214/1018/188
f 286/1019/304 248/1017/303 230/1016/302
f 248/1020/303 256/1021/193 211/551/179
f 202/550/173 214/580/188 248/1020/303
f 202/550/173 248/1020/303 211/551/179
f 247/928/184 303/1022/244 298/927/277
f 303/1022/244 247/928/184 274/1011/296
f 247/928/184 272/864/265 243/863/264
f 240/1023/115 234/999/114 243/998/264
f 256/1008/193 248/1024/303 258/1005/300
f 236/1025/192 264/1004/297 265/1026/305
f 308/1027/286 277/865/266 272/864/265
f 231/1028/190 261/1029/306 234/1030/114
f 281/1031/298 301/1032/307 262/1033/308
f 301/1032/307 281/1031/298 284/1034/309
f 262/1033/308 301/1032/307 268/1035/310
f 281/1031/298 234/1030/114 261/1029/306
f 249/1036/299 281/1031/298 262/1033/308
f 249/1036/299 264/1037/297 281/1031/298
f 274/1038/296 246/1039/185 299/1040/311
f 317/1041/312 299/1040/311 322/1042/313
f 305/1043/314 322/1042/313 299/1040/311
f 246/1039/185 315/1044/315 299/1040/311
f 315/1044/315 246/1039/185 291/1045/294
f 291/976/294 274/1046/296 317/1047/312
f 274/1038/296 299/1040/311 317/1041/312
f 315/1044/315 305/1043/314 299/1040/311
f 315/1048/315 322/1049/313 305/1050/314
f 291/1051/294 329/1052/316 315/1048/315
f 306/1053/285 303/1054/244 325/1055/287
f 331/1056/317 327/1057/318 325/1055/287
f 331/1056/317 325/1055/287 336/1058/319
f 336/1058/319 325/1055/287 318/1059/284
f 331/1060/317 318/942/284 327/1061/318
f 327/1061/318 318/942/284 306/943/285
f 334/1062/320 317/1063/312 322/1064/313
f 329/1065/316 334/1062/320 322/1064/313
f 317/1066/312 329/1067/316 291/1068/294
f 306/1053/285 325/1055/287 327/1057/318
f 329/1052/316 322/1049/313 315/1048/315
f 325/1069/287 303/1070/244 323/1071/243
f 329/1067/316 317/1066/312 334/1072/320
f 214/1073/188 220/1074/187 230/1075/302
f 230/1076/302 244/1009/301 221/1006/186
f 244/1009/301 230/1076/302 220/1010/187
f 230/1076/302 221/1006/186 258/1005/300
f 286/1077/304 230/1078/302 258/1079/300
f 248/1017/303 286/1080/304 258/1081/300
f 331/1082/317 336/1083/319 318/1084/284
f 288/1085/290 314/1086/281 297/1087/279
f 314/1086/281 288/1085/290 300/1088/289
f 209/1089/109 189/800/234 226/1090/191
f 192/1091/206 225/1092/211 239/1093/321
f 203/669/210 181/1094/207 225/670/211
f 181/1095/207 238/1096/271 237/1097/262
f 237/1097/262 225/1092/211 181/1095/207
f 238/1098/271 181/1099/207 192/1100/206
f 225/1092/211 251/1101/263 239/1102/321
f 225/1092/211 237/1097/262 251/1101/263
f 192/1100/206 239/1102/321 250/1103/273
f 250/1103/273 239/1102/321 251/1101/263
f 238/1098/271 192/1100/206 250/1103/273
f 280/1104/275 238/885/271 278/887/274
f 294/1105/322 277/1106/266 254/1107/323
f 254/1107/323 257/1108/324 294/1105/322
f 294/1109/322 309/1110/325 275/1111/326
f 275/1111/326 309/1110/325 276/1112/327
f 277/1113/266 276/1114/327 290/1115/267
f 276/1114/327 277/1113/266 294/1116/322
f 294/1109/322 275/1111/326 276/1117/327
f 260/1118/328 294/1119/322 257/1120/324
f 294/1121/322 260/1122/328 309/1123/325
f 295/1124/278 260/1125/328 308/1126/286
f 309/1123/325 295/1127/278 276/1128/327
f 276/1128/327 295/1127/278 290/1129/267
f 295/1124/278 309/1123/325 260/1125/328
f 314/955/281 319/954/283 321/1130/329
f 326/1131/282 314/955/281 321/1130/329
f 319/1132/283 326/1133/282 321/1134/329
f 326/1133/282 319/1132/283 328/1135/293
f 328/1136/293 319/1137/283 332/1138/292
f 332/1138/292 333/1139/291 328/1136/293
f 222/989/181 236/1001/192 231/987/190
f 222/989/181 223/1140/182 236/1001/192
f 193/1141/180 236/1001/192 223/1140/182
f 189/1142/234 227/1143/189 231/1144/190
f 231/1145/190 249/1036/299 262/1033/308
f 236/1146/192 265/1147/305 249/1148/299
f 265/1147/305 264/1149/297 249/1148/299
f 261/1150/306 268/1151/310 267/1152/330
f 231/1153/190 262/1154/308 268/1151/310
f 268/1151/310 261/1150/306 231/1153/190
f 267/1152/330 281/1155/298 261/1150/306
f 260/1118/328 254/1156/323 277/1157/266
f 268/1158/310 284/1159/309 267/1160/330
f 281/1161/298 267/1160/330 284/1159/309
f 254/1162/323 260/1163/328 257/1164/324
f 277/1165/266 308/1166/286 260/1167/328
f 284/1168/309 268/1169/310 292/1170/331
f 301/1171/307 292/1172/331 268/1173/310
f 301/1171/307 284/1174/309 292/1172/331
f 73/1175/7 50/1176/49 98/1177/32
l 64 65
l 60 61
