# Blender 5.1.2
# www.blender.org
o tripo_node_9d4cd43e-3a57-4ac8-8d1a-cea68fafe435
v -0.437238 0.045671 -0.050163
v -0.417548 0.181905 0.012566
v -0.396108 0.097458 0.077778
v -0.456275 -0.017653 -0.139672
v -0.448506 0.128875 -0.136304
v -0.385014 0.104885 -0.056315
v -0.446653 -0.053886 0.079644
v -0.386507 0.155911 -0.177321
v -0.422331 -0.108613 -0.066301
v -0.408789 -0.112569 -0.003195
v -0.396357 -0.214952 0.098388
v -0.445050 0.053812 0.058461
v -0.404735 -0.022366 0.019059
v -0.425809 0.160306 -0.255970
v -0.397697 0.165676 0.140032
v -0.413191 0.035512 -0.209503
v -0.370440 0.018671 0.184209
v -0.419696 -0.116755 0.195856
v -0.379448 -0.176098 -0.144112
v -0.414470 0.074848 0.210360
v -0.358586 0.007726 -0.156409
v -0.372728 0.219843 -0.066143
v -0.333428 -0.175005 -0.039828
v -0.339578 0.108087 -0.274156
v -0.342026 0.133613 0.238352
v -0.353953 0.338932 -0.116123
v -0.350262 0.249157 -0.028815
v -0.328732 0.338543 -0.074565
v -0.360388 0.284175 -0.215164
v -0.356111 0.050939 0.316534
v -0.320607 -0.136372 0.209171
v -0.340286 -0.228269 0.222245
v -0.376501 -0.053657 0.239815
v -0.343893 -0.129233 0.340554
v -0.347672 0.172134 -0.369526
v -0.369043 0.211592 0.066248
v -0.229800 -0.198148 0.049703
v -0.317309 0.254531 0.127811
v -0.346495 0.233293 -0.277569
v -0.331839 0.028634 -0.303269
v -0.352107 -0.021992 0.107902
v -0.331685 -0.041977 0.362669
v -0.304247 0.223441 -0.233958
v -0.327591 -0.010537 -0.244976
v -0.299335 0.383545 0.058635
v -0.336915 0.216732 0.209923
v -0.311651 0.124319 0.311762
v -0.276132 0.011648 0.366755
v -0.297526 0.235259 -0.328181
v -0.289035 0.203493 0.297459
v -0.257441 0.216028 -0.360371
v -0.172922 -0.101211 -0.141543
v -0.282883 0.052123 -0.349372
v -0.276331 0.372597 -0.168544
v -0.247087 0.141379 0.375184
v -0.279867 0.403365 -0.037558
v -0.305934 -0.302370 -0.045127
v -0.295401 0.237714 0.256640
v -0.278209 0.076577 0.320265
v -0.239782 -0.219747 0.236501
v -0.256976 -0.009219 -0.336972
v -0.278319 0.344311 0.199732
v -0.225689 0.275958 0.194656
v -0.282459 0.053553 0.391899
v -0.257801 0.398128 -0.242875
v -0.217366 0.369918 -0.088118
v -0.290417 0.059945 0.334881
v -0.289232 0.059945 0.334881
v -0.263077 0.084825 0.323035
v -0.182244 -0.213565 -0.046894
v -0.199851 0.362637 0.006904
v -0.221845 0.332428 0.141342
v -0.234673 0.087967 -0.374949
v -0.178030 0.424057 -0.133271
v -0.163962 0.296077 0.278421
v -0.248330 -0.068321 0.405947
v -0.112919 -0.241586 0.394110
v -0.196260 -0.170123 0.367776
v -0.206755 0.315997 -0.374202
v -0.208772 0.165224 -0.429352
v -0.150264 0.355504 -0.281699
v -0.218388 -0.066593 -0.263665
v -0.167886 0.213009 0.295967
v -0.152211 0.444889 0.057247
v -0.182722 0.066461 0.426911
v -0.153869 -0.010529 0.435001
v -0.219690 -0.321405 -0.244405
v -0.192982 -0.308481 0.200301
v -0.199373 -0.442547 -0.204058
v -0.143745 -0.077450 -0.326500
v -0.122151 -0.219956 0.260923
v -0.144357 0.259426 0.355179
v -0.163442 -0.020787 -0.445053
v -0.114903 -0.239233 -0.136087
v -0.188773 -0.079858 0.415420
v -0.178578 0.372485 0.166800
v -0.125795 0.440495 -0.074901
v -0.097160 0.091039 -0.430081
v -0.198758 -0.354548 -0.043590
v -0.165532 0.398036 -0.212557
v -0.081377 -0.206669 -0.199329
v -0.119036 0.192987 -0.444427
v -0.086232 -0.124725 0.476818
v -0.105168 -0.314176 0.038615
v -0.073600 -0.150355 0.367573
v -0.150178 0.289509 -0.396618
v -0.109598 0.366098 -0.337335
v -0.109595 0.344600 0.268860
v -0.127329 -0.421648 0.060307
v -0.099516 0.142722 0.406804
v -0.081425 0.095009 0.385669
v -0.072042 0.383546 -0.263226
v -0.048948 -0.431306 -0.276021
v -0.097019 0.208663 0.382843
v -0.012620 0.448554 -0.191180
v -0.020079 -0.275694 0.145767
v -0.023439 -0.314282 0.302721
v -0.099799 -0.061619 0.434704
v -0.069853 -0.322504 -0.316025
v -0.065414 0.035985 -0.406253
v 0.025238 -0.065818 -0.196558
v -0.093800 0.395002 0.109767
v -0.075049 0.000487 0.462701
v -0.065446 0.383047 0.186561
v -0.001211 0.303417 0.340686
v 0.000444 -0.255042 0.339010
v -0.005055 0.420683 -0.107582
v -0.057706 0.235529 -0.400518
v 0.000407 -0.018528 -0.451085
v -0.038561 0.449854 0.021731
v -0.009131 0.050001 -0.437333
v 0.049356 -0.441243 0.093842
v -0.002911 0.414801 -0.325025
v -0.006236 0.106527 -0.430358
v -0.000033 -0.144557 0.417466
v 0.013372 0.225750 0.351994
v -0.022496 -0.320771 -0.218521
v 0.025243 -0.353505 0.056638
v 0.042850 -0.433413 -0.159315
v 0.007426 0.106548 0.419619
v 0.005689 0.340888 -0.390163
v -0.000557 -0.032057 0.430972
v -0.001768 0.398354 0.133282
v 0.003641 0.364983 0.255220
v 0.009791 0.451849 0.010083
v 0.010025 0.199580 -0.423726
v 0.060407 -0.134633 0.482812
v 0.063656 0.055695 -0.437510
v 0.078108 0.180501 0.399109
v 0.096475 0.329256 0.269289
v 0.079681 0.207868 -0.431067
v 0.105880 0.387932 0.187779
v 0.095069 0.018192 0.454451
v 0.112197 -0.251195 0.265037
v 0.099543 -0.248585 0.391088
v 0.081486 0.392091 0.115467
v 0.086054 0.297611 -0.406524
v 0.130354 0.439105 -0.087204
v 0.061950 0.420834 0.008408
v 0.105394 0.146802 -0.442012
v 0.071369 -0.153553 0.368395
v 0.095180 0.379820 -0.315372
v 0.081004 0.429949 -0.213722
v 0.181011 0.427338 0.081327
v 0.185556 0.130638 0.415133
v 0.100180 0.084874 0.379034
v 0.113606 -0.044000 0.442384
v 0.168102 0.381420 -0.221810
v 0.210029 -0.302532 0.214491
v 0.109014 -0.278704 -0.150562
v 0.211449 -0.334603 -0.023606
v 0.164280 -0.000359 -0.452085
v 0.224738 -0.224806 0.154464
v 0.197878 0.146997 -0.431984
v 0.196913 -0.074349 0.428910
v 0.209748 0.070095 0.413626
v 0.148088 -0.101683 -0.162580
v 0.235200 0.400432 -0.248940
v 0.164992 0.344950 -0.295898
v 0.222417 -0.422953 -0.202107
v 0.165770 0.222143 0.324786
v 0.214510 0.160870 0.326358
v 0.164876 0.303463 -0.371911
v 0.225431 -0.433738 0.030997
v 0.293830 -0.210563 0.336159
v 0.209365 0.340688 0.153478
v 0.224811 -0.213821 0.044224
v 0.275490 0.031747 0.386765
v 0.217046 0.244940 -0.424896
v 0.191621 0.398233 0.030158
v 0.248327 0.049929 -0.340380
v 0.357076 -0.256473 -0.050612
v 0.198381 -0.163900 0.362333
v 0.280534 0.269261 0.289894
v 0.254966 0.340211 -0.319677
v 0.287980 -0.086668 -0.295282
v 0.344724 -0.126138 0.338005
v 0.225148 0.346260 0.220066
v 0.219657 0.373049 -0.125553
v 0.233887 0.417505 -0.038538
v 0.224243 -0.031423 -0.328602
v 0.254090 0.163700 -0.361047
v 0.252729 0.259620 -0.330133
v 0.256947 -0.052496 0.392304
v 0.299171 0.231209 -0.369358
v 0.306684 0.383082 -0.119301
v 0.311514 0.178455 0.228169
v 0.324073 -0.038555 -0.219284
v 0.316923 0.298083 0.188534
v 0.320233 0.077123 -0.372636
v 0.278123 0.154519 0.352320
v 0.317040 -0.142551 0.229676
v 0.325320 0.010372 -0.300303
v 0.445036 -0.106122 -0.134295
v 0.340249 0.123181 0.250871
v 0.305930 0.389507 -0.010896
v 0.383388 -0.227334 0.158994
v 0.336844 0.258475 -0.027756
v 0.348201 0.268971 0.023904
v 0.323957 -0.032176 0.349058
v 0.334345 0.227478 0.133321
v 0.416304 0.031205 0.207659
v 0.392988 -0.077955 0.202814
v 0.331802 0.128895 -0.290295
v 0.366437 0.187098 -0.311379
v 0.343043 0.270006 -0.214324
v 0.394433 0.276675 -0.086244
v 0.367342 0.038395 0.315802
v 0.357420 0.054859 -0.239266
v 0.340248 0.005602 0.221143
v 0.339314 0.031983 -0.147956
v 0.380228 0.153128 -0.168764
v 0.429923 0.184293 -0.216386
v 0.389028 0.053024 0.152778
v 0.387091 -0.016793 0.031470
v 0.367926 0.216553 0.075692
v 0.418075 0.064916 -0.197000
v 0.355929 -0.083599 0.101518
v 0.417500 0.081192 0.066005
v 0.393014 0.175791 -0.061253
v 0.456298 0.024512 -0.128247
v 0.456327 -0.029979 0.097643
v 0.426082 0.138442 0.147676
v 0.417238 0.179759 0.007935
v 0.390900 0.074215 -0.041177
v 0.445318 -0.131831 0.050160
v 0.456465 0.142360 -0.135233
v 0.391836 -0.129005 -0.071665
v 0.477750 0.006381 -0.030950
vn -0.4623 -0.6015 -0.6515
vn -0.4140 -0.7007 -0.5811
vn -0.8420 -0.1132 -0.5275
vn -0.9084 -0.4048 0.1049
vn -0.8838 -0.2125 0.4167
vn -0.9486 0.1718 0.2657
vn -0.9792 0.1724 0.1071
vn -0.9290 -0.3523 -0.1132
vn -0.4978 -0.8644 -0.0710
vn -0.5035 -0.6986 -0.5084
vn -0.8855 0.3096 0.3463
vn -0.6468 -0.7572 -0.0909
vn -0.3441 -0.9389 0.0054
vn -0.8175 -0.5152 -0.2575
vn -0.6102 -0.7434 -0.2739
vn -0.8422 -0.2684 -0.4675
vn -0.5712 -0.6512 -0.4996
vn -0.5269 -0.8126 -0.2490
vn -0.6989 -0.4092 -0.5867
vn -0.9449 -0.0035 0.3274
vn -0.9136 0.2479 -0.3223
vn -0.8370 0.2500 -0.4868
vn -0.5641 -0.6809 -0.4670
vn -0.6090 -0.7468 -0.2671
vn -0.5148 -0.5734 0.6373
vn 0.3140 -0.6526 -0.6896
vn 0.1728 -0.8369 -0.5194
vn 0.0854 -0.5189 0.8506
vn 0.2426 0.1935 -0.9506
vn -0.3553 0.0618 -0.9327
vn 0.6722 0.1238 -0.7300
vn -0.2937 -0.3974 -0.8694
vn -0.1439 -0.8779 -0.4568
vn -0.6138 -0.1842 -0.7677
vn -0.5283 0.0036 -0.8490
vn 0.2379 -0.6625 -0.7103
vn -0.0190 -0.5039 -0.8635
vn 0.3430 -0.5052 -0.7920
vn -0.0735 0.1104 -0.9912
vn -0.4132 -0.8795 -0.2359
vn -0.9678 -0.0574 0.2451
vn -0.9778 -0.2026 0.0530
vn -0.9311 -0.0465 0.3618
vn -0.9344 -0.0565 0.3518
vn -0.5025 -0.8235 0.2632
vn -0.1721 -0.9850 0.0145
vn -0.7736 -0.3471 0.5302
vn -0.8078 -0.1450 0.5714
vn -0.7427 0.3035 0.5969
vn -0.9623 -0.0811 0.2595
vn -0.9018 -0.1191 0.4153
vn -0.7892 0.0970 0.6064
vn -0.4973 0.4656 0.7321
vn 0.0547 0.8642 0.5002
vn -0.7502 0.3782 0.5424
vn -0.6788 0.0816 0.7298
vn -0.3608 -0.1849 0.9141
vn -0.8323 -0.3011 0.4654
vn 0.2211 -0.2631 0.9391
vn 0.1253 -0.9517 0.2804
vn -0.0294 -0.7739 0.6326
vn -0.3241 -0.8102 0.4884
vn -0.0341 -0.8620 0.5058
vn -0.1525 -0.6471 0.7470
vn -0.5047 -0.8227 0.2617
vn -0.2017 -0.1493 0.9680
vn -0.8752 0.1188 0.4690
vn -0.2761 -0.1052 0.9554
vn -0.1825 0.2209 0.9581
vn -0.5233 0.1046 0.8457
vn -0.3143 -0.2272 0.9217
vn -0.0284 -0.3931 0.9191
vn -0.2550 -0.4202 0.8709
vn -0.0018 0.1468 0.9892
vn -0.0725 -0.5263 0.8472
vn -0.0216 0.0406 0.9989
vn -0.1372 -0.4793 0.8669
vn -0.0184 0.2874 0.9576
vn -0.0427 0.1031 0.9938
vn -0.9631 0.1045 -0.2479
vn -0.5411 0.0706 -0.8380
vn -0.4334 0.8992 0.0604
vn -0.5712 0.6494 -0.5020
vn -0.7336 0.3879 -0.5580
vn -0.9259 0.3218 -0.1980
vn -0.5934 0.6167 -0.5172
vn -0.9266 0.3706 0.0638
vn -0.8975 0.4409 -0.0139
vn -0.9080 0.3593 0.2156
vn -0.9475 0.2607 0.1852
vn -0.9549 0.2635 -0.1372
vn -0.7736 0.6331 0.0290
vn -0.8667 0.4836 0.1225
vn -0.8053 0.3827 0.4528
vn -0.8511 0.4892 0.1903
vn -0.4308 0.9023 -0.0179
vn -0.6632 0.6989 -0.2677
vn -0.6003 0.7808 0.1732
vn -0.2782 0.9599 -0.0354
vn -0.5189 0.2154 -0.8272
vn -0.3683 0.5913 -0.7175
vn -0.4557 0.8245 -0.3356
vn -0.1271 0.8688 -0.4786
vn -0.5642 0.8249 -0.0348
vn -0.5036 -0.0474 -0.8626
vn -0.0278 -0.0514 -0.9983
vn 0.1472 0.1625 -0.9757
vn -0.0856 0.4500 -0.8889
vn -0.0745 0.0153 -0.9971
vn -0.1781 0.0613 -0.9821
vn 0.0356 0.2147 -0.9760
vn -0.0540 0.1276 -0.9904
vn 0.0128 0.5136 -0.8579
vn -0.3121 0.8588 -0.4063
vn -0.1760 0.1542 -0.9722
vn -0.0574 0.8710 -0.4880
vn -0.0216 0.2183 -0.9756
vn -0.0225 0.1131 -0.9933
vn 0.1448 0.4692 -0.8711
vn -0.0348 0.9531 -0.3007
vn -0.3117 0.9417 -0.1266
vn -0.2825 0.9385 0.1982
vn -0.1642 0.9864 -0.0014
vn -0.3349 0.8897 -0.3102
vn 0.0060 0.9897 0.1430
vn 0.0003 0.9978 -0.0665
vn 0.0687 0.9975 0.0158
vn 0.2100 0.9657 -0.1525
vn 0.0694 0.9948 0.0750
vn -0.9144 0.3896 0.1101
vn -0.7803 0.4872 0.3921
vn -0.8640 0.4590 0.2068
vn -0.2587 0.9596 0.1105
vn -0.5507 0.6210 0.5578
vn -0.5554 0.5066 0.6594
vn -0.5774 0.7315 0.3627
vn -0.5425 0.5071 0.6697
vn -0.5497 0.3099 0.7757
vn -0.2116 0.8197 0.5324
vn -0.6021 0.5532 0.5758
vn -0.4681 0.5692 0.6760
vn 0.0942 0.5476 0.8314
vn 0.0860 0.4065 0.9096
vn 0.0058 0.4458 0.8951
vn -0.9509 -0.1954 0.2401
vn 0.0008 0.1218 0.9926
vn 0.0413 0.5775 0.8154
vn -0.3192 0.9151 0.2464
vn -0.1077 0.9041 0.4135
vn 0.0307 0.8823 0.4697
vn -0.1086 0.9402 0.3229
vn 0.0699 0.9451 0.3193
vn -0.0525 0.9572 0.2846
vn 0.2282 0.9295 0.2898
vn 0.1249 0.9230 0.3640
vn 0.6940 -0.4267 0.5800
vn 0.4643 0.0019 -0.8857
vn 0.5987 -0.3218 -0.7335
vn 0.9811 0.1585 0.1113
vn 0.2123 -0.7073 -0.6742
vn 0.1049 -0.6205 -0.7771
vn 0.7622 -0.3313 -0.5561
vn 0.2965 -0.7056 -0.6435
vn 0.8922 0.0237 -0.4510
vn 0.8392 -0.5004 -0.2130
vn 0.5469 -0.8366 0.0305
vn 0.4507 -0.8037 -0.3885
vn 0.7801 -0.4890 -0.3904
vn 0.7206 -0.3207 -0.6148
vn 0.7519 -0.4664 -0.4659
vn 0.9935 -0.0751 0.0861
vn 0.7503 -0.4027 -0.5243
vn 0.6644 -0.6783 0.3138
vn 0.9603 -0.2369 -0.1474
vn 0.9320 -0.0835 0.3527
vn 0.7092 0.5269 0.4684
vn 0.9250 0.0707 0.3733
vn 0.9788 -0.1759 0.1054
vn 0.9554 -0.1573 -0.2499
vn 0.9306 0.2500 -0.2672
vn 0.0658 -0.9591 0.2752
vn 0.3501 -0.9329 -0.0848
vn 0.3727 -0.9217 -0.1077
vn 0.1235 -0.6358 0.7619
vn 0.5459 -0.5903 0.5946
vn 0.7707 -0.3630 0.5237
vn 0.8726 -0.3123 0.3755
vn 0.2520 -0.4461 0.8587
vn 0.2694 -0.4705 0.8403
vn 0.3989 0.0956 0.9120
vn 0.1008 0.2882 0.9523
vn 0.3840 -0.0043 0.9233
vn 0.5078 0.0810 0.8577
vn 0.2619 0.1381 0.9552
vn 0.5352 -0.0323 0.8441
vn 0.5716 0.0039 0.8205
vn 0.5187 0.4635 0.7184
vn 0.8533 0.1589 0.4966
vn 0.9577 -0.1547 0.2426
vn 0.9203 -0.1496 0.3615
vn 0.9328 -0.2904 -0.2135
vn 0.4801 0.0459 -0.8760
vn 0.1609 0.6759 -0.7192
vn 0.2964 0.7642 -0.5728
vn 0.4404 -0.3448 -0.8289
vn 0.3611 -0.0257 -0.9322
vn 0.2630 0.2807 -0.9231
vn 0.7638 0.3249 -0.5577
vn 0.5228 0.5990 -0.6065
vn 0.7912 0.5174 -0.3260
vn 0.2432 0.6729 -0.6986
vn 0.3596 0.8620 -0.3574
vn 0.4607 -0.3392 -0.8202
vn 0.2345 0.6060 -0.7601
vn 0.8013 -0.4127 -0.4331
vn 0.7961 0.2214 -0.5632
vn 0.9036 0.4200 0.0844
vn 0.6398 0.7554 0.1415
vn 0.9258 0.3154 0.2082
vn 0.5149 0.8348 -0.1947
vn 0.7442 0.6636 -0.0758
vn 0.8825 0.4674 -0.0519
vn 0.0851 0.9943 -0.0640
vn 0.0835 0.9603 0.2661
vn 0.3355 0.9378 -0.0887
vn 0.3277 0.9437 0.0448
vn 0.7688 0.6366 0.0602
vn 0.8621 0.4618 0.2087
vn 0.9424 0.3175 0.1056
vn 0.8745 0.4736 -0.1047
vn 0.9390 0.3081 -0.1530
vn 0.9537 0.2892 -0.0825
vn 0.9032 -0.0552 0.4256
vn 0.9558 -0.0657 0.2867
vn 0.2039 0.4650 0.8615
vn 0.2143 0.7128 0.6678
vn 0.5826 0.4839 0.6530
vn 0.3462 0.8937 0.2854
vn 0.3024 0.8698 0.3898
vn -0.0545 0.4653 0.8835
vn 0.7994 0.4982 0.3358
vn 0.8334 0.3750 0.4059
vn 0.7470 0.4986 0.4397
vn 0.8626 0.2307 0.4503
vn 0.1358 0.0650 0.9886
vn 0.1799 0.3777 0.9083
vn 0.9384 0.2924 0.1842
vt 0.315620 0.456557
vt 0.334881 0.455109
vt 0.302744 0.476812
vt 0.074206 0.654040
vt 0.065010 0.685305
vt 0.043984 0.679046
vt 0.044698 0.650625
vt 0.868920 0.254383
vt 0.886145 0.262842
vt 0.868756 0.282901
vt 0.321728 0.510603
vt 0.307399 0.514781
vt 0.893808 0.822789
vt 0.876268 0.823313
vt 0.887585 0.813908
vt 0.854497 0.822222
vt 0.866875 0.836816
vt 0.873440 0.836046
vt 0.875031 0.315482
vt 0.887833 0.293591
vt 0.142622 0.739841
vt 0.137138 0.713726
vt 0.157661 0.714650
vt 0.197976 0.719188
vt 0.187100 0.750942
vt 0.169943 0.717859
vt 0.209472 0.731864
vt 0.304902 0.183956
vt 0.325816 0.202540
vt 0.288870 0.188612
vt 0.346169 0.195081
vt 0.339730 0.224232
vt 0.317807 0.244748
vt 0.305979 0.264756
vt 0.315522 0.178079
vt 0.268960 0.046457
vt 0.255211 0.016627
vt 0.271210 0.021626
vt 0.244223 0.034919
vt 0.245348 0.042749
vt 0.302201 0.025148
vt 0.306833 0.043526
vt 0.779331 0.297094
vt 0.788774 0.244994
vt 0.821173 0.237463
vt 0.824365 0.249862
vt 0.818795 0.298143
vt 0.212592 0.040500
vt 0.239641 0.067480
vt 0.199563 0.078531
vt 0.231433 0.090787
vt 0.245131 0.116069
vt 0.215412 0.117663
vt 0.188278 0.110772
vt 0.383679 0.261298
vt 0.434151 0.257567
vt 0.406660 0.277591
vt 0.376166 0.295914
vt 0.417171 0.238950
vt 0.375912 0.226233
vt 0.391811 0.227337
vt 0.178246 0.686771
vt 0.190396 0.656378
vt 0.235850 0.689241
vt 0.235555 0.656342
vt 0.520554 0.780299
vt 0.477993 0.757110
vt 0.531745 0.750265
vt 0.977507 0.215777
vt 0.992189 0.227408
vt 0.976871 0.228483
vt 0.990047 0.496943
vt 0.987904 0.503260
vt 0.976392 0.500129
vt 0.989216 0.489801
vt 0.647259 0.119112
vt 0.671584 0.092438
vt 0.689841 0.099061
vt 0.593619 0.143748
vt 0.591304 0.117996
vt 0.619275 0.143686
vt 0.567315 0.149939
vt 0.274034 0.129645
vt 0.279709 0.161528
vt 0.252433 0.175425
vt 0.555177 0.056040
vt 0.544750 0.039986
vt 0.571473 0.051295
vt 0.617928 0.098167
vt 0.884976 0.400546
vt 0.861670 0.386653
vt 0.888449 0.355531
vt 0.141644 0.761923
vt 0.533292 0.190687
vt 0.556310 0.176424
vt 0.568051 0.223123
vt 0.772493 0.802969
vt 0.748988 0.833847
vt 0.743219 0.813530
vt 0.267356 0.951608
vt 0.294731 0.933132
vt 0.297168 0.968443
vt 0.806455 0.917259
vt 0.792620 0.934155
vt 0.776632 0.914701
vt 0.808904 0.899374
vt 0.835675 0.930832
vt 0.830450 0.932040
vt 0.899897 0.351860
vt 0.906495 0.403868
vt 0.091938 0.952718
vt 0.089660 0.955296
vt 0.073691 0.938019
vt 0.374840 0.666276
vt 0.361915 0.688531
vt 0.349883 0.659092
vt 0.544488 0.247530
vt 0.536958 0.229749
vt 0.298528 0.558843
vt 0.288593 0.578785
vt 0.257408 0.529270
vt 0.607178 0.188258
vt 0.255379 0.499319
vt 0.245476 0.513998
vt 0.244280 0.502216
vt 0.259547 0.500214
vt 0.282252 0.508839
vt 0.268277 0.502299
vt 0.640833 0.051976
vt 0.609205 0.054676
vt 0.640739 0.030500
vt 0.408423 0.692028
vt 0.417811 0.651586
vt 0.147469 0.651302
vt 0.093437 0.672126
vt 0.128598 0.629381
vt 0.092639 0.655393
vt 0.741300 0.193388
vt 0.733755 0.144067
vt 0.787883 0.176979
vt 0.778592 0.225314
vt 0.766638 0.274430
vt 0.758983 0.309514
vt 0.744116 0.299616
vt 0.800756 0.317662
vt 0.783038 0.336109
vt 0.767632 0.339122
vt 0.626102 0.416714
vt 0.643572 0.401798
vt 0.638505 0.426521
vt 0.318341 0.732445
vt 0.292547 0.685346
vt 0.324991 0.721602
vt 0.296224 0.731637
vt 0.961227 0.123897
vt 0.978813 0.113779
vt 0.974316 0.135203
vt 0.697337 0.478434
vt 0.685074 0.444642
vt 0.716254 0.468024
vt 0.273254 0.708721
vt 0.313516 0.705564
vt 0.260827 0.729509
vt 0.260790 0.704929
vt 0.582327 0.029835
vt 0.664081 0.465795
vt 0.263832 0.676994
vt 0.016837 0.639063
vt 0.010398 0.614877
vt 0.038528 0.616453
vt 0.936348 0.770175
vt 0.943424 0.796218
vt 0.923905 0.783636
vt 0.928192 0.762882
vt 0.901963 0.261721
vt 0.916779 0.254060
vt 0.922618 0.267422
vt 0.900580 0.303312
vt 0.899913 0.287716
vt 0.925242 0.307538
vt 0.937083 0.275105
vt 0.924586 0.800618
vt 0.855134 0.865829
vt 0.847484 0.890465
vt 0.811687 0.876009
vt 0.870190 0.881858
vt 0.116085 0.729007
vt 0.096028 0.765891
vt 0.089847 0.714541
vt 0.474822 0.943650
vt 0.500216 0.933536
vt 0.495252 0.956209
vt 0.913924 0.481191
vt 0.885542 0.475899
vt 0.898202 0.458910
vt 0.908890 0.511603
vt 0.869547 0.494954
vt 0.172246 0.913903
vt 0.181942 0.914187
vt 0.186991 0.947861
vt 0.287701 0.793899
vt 0.242663 0.768108
vt 0.272640 0.754341
vt 0.256435 0.795536
vt 0.341559 0.405848
vt 0.308462 0.389750
vt 0.336811 0.366566
vt 0.312446 0.413685
vt 0.469491 0.465958
vt 0.487972 0.422082
vt 0.496083 0.472305
vt 0.537705 0.456100
vt 0.511977 0.397099
vt 0.443816 0.475288
vt 0.440664 0.455651
vt 0.531209 0.054141
vt 0.490607 0.090014
vt 0.504698 0.048460
vt 0.455926 0.048372
vt 0.504600 0.111703
vt 0.924908 0.888306
vt 0.898349 0.857515
vt 0.924449 0.834021
vt 0.841940 0.113485
vt 0.845716 0.101978
vt 0.877541 0.114453
vt 0.866294 0.083038
vt 0.953511 0.357014
vt 0.959518 0.384110
vt 0.931258 0.387628
vt 0.891755 0.066732
vt 0.175973 0.776168
vt 0.147578 0.811743
vt 0.140264 0.780473
vt 0.198380 0.805841
vt 0.030291 0.270232
vt 0.035480 0.298836
vt 0.006615 0.273465
vt 0.381238 0.375891
vt 0.372187 0.345413
vt 0.330075 0.330787
vt 0.306045 0.329029
vt 0.163413 0.823239
vt 0.378032 0.409469
vt 0.038491 0.215709
vt 0.025684 0.189898
vt 0.050289 0.180363
vt 0.063442 0.205729
vt 0.440165 0.071094
vt 0.463616 0.080728
vt 0.045064 0.922443
vt 0.038991 0.896727
vt 0.062133 0.919933
vt 0.173086 0.544639
vt 0.207360 0.508423
vt 0.216206 0.524379
vt 0.173345 0.522981
vt 0.169262 0.477769
vt 0.405330 0.713450
vt 0.409794 0.740942
vt 0.378426 0.723803
vt 0.437202 0.715197
vt 0.442816 0.729013
vt 0.443499 0.734634
vt 0.764682 0.690104
vt 0.737682 0.706082
vt 0.730624 0.681410
vt 0.507443 0.187103
vt 0.481724 0.216779
vt 0.492352 0.182655
vt 0.513094 0.211418
vt 0.510695 0.241413
vt 0.470087 0.271392
vt 0.492240 0.315422
vt 0.456962 0.297751
vt 0.533043 0.288713
vt 0.538396 0.310986
vt 0.513936 0.329705
vt 0.351139 0.242516
vt 0.527674 0.259155
vt 0.480832 0.179678
vt 0.083430 0.500183
vt 0.114758 0.511336
vt 0.099670 0.537371
vt 0.029792 0.112173
vt 0.040434 0.140311
vt 0.010820 0.125474
vt 0.842306 0.950015
vt 0.853225 0.975257
vt 0.825493 0.962741
vt 0.849636 0.939632
vt 0.869927 0.964798
vt 0.328201 0.854183
vt 0.340580 0.881129
vt 0.322201 0.890099
vt 0.307463 0.862865
vt 0.972761 0.960796
vt 0.986130 0.968131
vt 0.984897 0.969634
vt 0.977850 0.980752
vt 0.973611 0.980637
vt 0.965421 0.981918
vt 0.149047 0.887460
vt 0.172666 0.845238
vt 0.175104 0.873301
vt 0.938392 0.078141
vt 0.941873 0.065962
vt 0.959456 0.061030
vt 0.958296 0.089591
vt 0.111274 0.579776
vt 0.122732 0.554538
vt 0.147038 0.573258
vt 0.134974 0.603232
vt 0.836621 0.657093
vt 0.813300 0.660296
vt 0.828613 0.614632
vt 0.141613 0.839552
vt 0.132004 0.850825
vt 0.640003 0.599096
vt 0.631727 0.628408
vt 0.617921 0.599441
vt 0.351037 0.787603
vt 0.326425 0.776866
vt 0.368384 0.758065
vt 0.610706 0.570330
vt 0.626588 0.574003
vt 0.597731 0.575675
vt 0.583213 0.598944
vt 0.169596 0.613792
vt 0.166469 0.591582
vt 0.723516 0.952996
vt 0.733803 0.974018
vt 0.711204 0.978309
vt 0.913445 0.690845
vt 0.908488 0.692491
vt 0.904408 0.665447
vt 0.867235 0.670020
vt 0.864870 0.638300
vt 0.904542 0.636221
vt 0.933383 0.916944
vt 0.949925 0.923658
vt 0.926060 0.939105
vt 0.940814 0.955095
vt 0.874442 0.689943
vt 0.800300 0.786061
vt 0.858301 0.769007
vt 0.848867 0.799411
vt 0.340752 0.833488
vt 0.352496 0.818123
vt 0.386126 0.839074
vt 0.799631 0.035436
vt 0.779514 0.012073
vt 0.816868 0.019780
vt 0.793110 0.611888
vt 0.636758 0.725777
vt 0.616465 0.705295
vt 0.674577 0.680371
vt 0.968622 0.775865
vt 0.953959 0.761474
vt 0.973682 0.743763
vt 0.979760 0.764178
vt 0.855591 0.011831
vt 0.854096 0.043321
vt 0.844830 0.071244
vt 0.811029 0.599550
vt 0.388864 0.821670
vt 0.849457 0.457838
vt 0.823281 0.430391
vt 0.830448 0.427717
vt 0.032344 0.405064
vt 0.050967 0.413084
vt 0.042185 0.442656
vt 0.518988 0.544255
vt 0.516192 0.578357
vt 0.479184 0.578427
vt 0.390063 0.976885
vt 0.404033 0.995006
vt 0.393669 0.994377
vt 0.100744 0.047603
vt 0.141278 0.059497
vt 0.137911 0.084196
vt 0.091945 0.057642
vt 0.155015 0.086621
vt 0.116589 0.014287
vt 0.156942 0.017022
vt 0.484856 0.116308
vt 0.491076 0.117799
vt 0.083119 0.441116
vt 0.069160 0.446582
vt 0.065408 0.403921
vt 0.095608 0.399651
vt 0.329913 0.914077
vt 0.357778 0.925539
vt 0.330326 0.941636
vt 0.352314 0.952783
vt 0.158183 0.385502
vt 0.155086 0.324171
vt 0.187609 0.358398
vt 0.176990 0.319348
vt 0.203620 0.325529
vt 0.068988 0.374298
vt 0.808300 0.530490
vt 0.817517 0.553779
vt 0.785680 0.564815
vt 0.185087 0.284674
vt 0.193761 0.230354
vt 0.210533 0.269230
vt 0.839499 0.218966
vt 0.804899 0.202678
vt 0.841933 0.174114
vt 0.807328 0.160651
vt 0.815264 0.145174
vt 0.862819 0.207916
vt 0.230507 0.283434
vt 0.249842 0.251533
vt 0.238611 0.303781
vt 0.365754 0.976731
vt 0.370125 0.961342
vt 0.373887 0.962070
vt 0.172918 0.260847
vt 0.173754 0.238168
vt 0.174673 0.213880
vt 0.299518 0.301432
vt 0.261722 0.321751
vt 0.929968 0.527073
vt 0.948170 0.495849
vt 0.952991 0.527751
vt 0.748848 0.465171
vt 0.805168 0.478389
vt 0.732000 0.500342
vt 0.768570 0.510090
vt 0.790964 0.438492
vt 0.812073 0.453344
vt 0.923626 0.138008
vt 0.913276 0.138405
vt 0.925464 0.107081
vt 0.938540 0.121484
vt 0.027756 0.016155
vt 0.020962 0.022356
vt 0.018561 0.016109
vt 0.010549 0.011955
vt 0.030491 0.003803
vt 0.025999 0.002444
vt 0.019338 0.005652
vt 0.010798 0.006062
vt 0.043496 0.692819
vt 0.050283 0.696835
vt 0.030635 0.713392
vt 0.693715 0.780952
vt 0.679626 0.815303
vt 0.659119 0.794857
vt 0.188980 0.135045
vt 0.209562 0.160022
vt 0.151848 0.138151
vt 0.203267 0.170627
vt 0.155975 0.109530
vt 0.703631 0.823704
vt 0.728273 0.796998
vt 0.430923 0.855281
vt 0.445691 0.826592
vt 0.465548 0.835518
vt 0.475867 0.854835
vt 0.549053 0.927751
vt 0.550862 0.907088
vt 0.567992 0.915191
vt 0.414656 0.859326
vt 0.415421 0.852762
vt 0.256139 0.885485
vt 0.208319 0.899001
vt 0.223137 0.863508
vt 0.217383 0.852873
vt 0.918084 0.922302
vt 0.875752 0.927603
vt 0.884992 0.911169
vt 0.840806 0.140831
vt 0.858268 0.157807
vt 0.087073 0.816214
vt 0.104559 0.803072
vt 0.117724 0.833224
vt 0.065999 0.793991
vt 0.832472 0.749576
vt 0.795557 0.763185
vt 0.787361 0.726376
vt 0.823776 0.702484
vt 0.854825 0.708133
vt 0.792117 0.691832
vt 0.060980 0.828224
vt 0.102529 0.840662
vt 0.370904 0.115138
vt 0.361446 0.073397
vt 0.389201 0.123796
vt 0.339424 0.075063
vt 0.330633 0.138466
vt 0.298268 0.139413
vt 0.338748 0.152933
vt 0.409157 0.168979
vt 0.415685 0.097625
vt 0.448245 0.160734
vt 0.623231 0.939241
vt 0.632989 0.955587
vt 0.609329 0.960639
vt 0.599838 0.936199
vt 0.458263 0.106243
vt 0.007637 0.839729
vt 0.029751 0.840781
vt 0.017010 0.856207
vt 0.026122 0.820452
vt 0.230147 0.618203
vt 0.184422 0.602403
vt 0.179798 0.582559
vt 0.220093 0.574520
vt 0.236031 0.586091
vt 0.574363 0.756992
vt 0.603181 0.748204
vt 0.593305 0.775646
vt 0.623198 0.768766
vt 0.641999 0.784621
vt 0.724124 0.079836
vt 0.748509 0.056378
vt 0.765766 0.059156
vt 0.775282 0.083201
vt 0.799232 0.056354
vt 0.813667 0.082375
vt 0.735911 0.092384
vt 0.451231 0.505667
vt 0.453510 0.526199
vt 0.416296 0.476660
vt 0.388855 0.510216
vt 0.447616 0.532208
vt 0.820104 0.107982
vt 0.810673 0.123638
vt 0.420164 0.542336
vt 0.362676 0.539851
vt 0.621843 0.745824
vt 0.646203 0.775041
vt 0.346479 0.508377
vt 0.400135 0.888855
vt 0.381087 0.880214
vt 0.408137 0.879502
vt 0.395176 0.864657
vt 0.366595 0.456461
vt 0.615767 0.813101
vt 0.652285 0.830092
vt 0.630186 0.839491
vt 0.683582 0.606169
vt 0.706812 0.630942
vt 0.684954 0.630714
vt 0.704619 0.600223
vt 0.738372 0.642022
vt 0.734355 0.612358
vt 0.764185 0.618036
vt 0.585313 0.854913
vt 0.598877 0.821097
vt 0.603748 0.860841
vt 0.612948 0.810455
vt 0.565602 0.726566
vt 0.565901 0.702270
vt 0.579045 0.707390
vt 0.526229 0.701608
vt 0.442153 0.215233
vt 0.407834 0.211995
vt 0.408433 0.191775
vt 0.454766 0.176651
vt 0.047620 0.076621
vt 0.075837 0.058187
vt 0.078047 0.076814
vt 0.056659 0.039460
vt 0.465015 0.207927
vt 0.066414 0.571935
vt 0.039449 0.590475
vt 0.029626 0.576246
vt 0.035879 0.565423
vt 0.045173 0.542436
vt 0.086996 0.567237
vt 0.093912 0.556295
vt 0.063786 0.543726
vt 0.078222 0.255735
vt 0.072363 0.294088
vt 0.058413 0.274933
vt 0.089882 0.299182
vt 0.082089 0.037492
vt 0.082408 0.032131
vt 0.039391 0.028384
vt 0.036966 0.037772
vt 0.965052 0.337192
vt 0.974390 0.325653
vt 0.984072 0.336361
vt 0.330212 0.589875
vt 0.342674 0.585486
vt 0.334826 0.618806
vt 0.347944 0.627701
vt 0.344418 0.627548
vt 0.289301 0.616286
vt 0.327724 0.651937
vt 0.298365 0.655031
vt 0.310244 0.665262
vt 0.539534 0.862485
vt 0.549878 0.867713
vt 0.527656 0.887458
vt 0.503435 0.863387
vt 0.525874 0.844519
vt 0.503100 0.845414
vt 0.535459 0.808992
vt 0.516047 0.809804
vt 0.130711 0.206914
vt 0.096986 0.216125
vt 0.098505 0.196474
vt 0.134183 0.232325
vt 0.104158 0.231143
vt 0.116198 0.257852
vt 0.102375 0.357145
vt 0.097452 0.324374
vt 0.125734 0.339223
vt 0.053700 0.493517
vt 0.049519 0.511355
vt 0.032567 0.494943
vt 0.032155 0.513737
vt 0.130616 0.433066
vt 0.103791 0.433371
vt 0.104555 0.429037
vt 0.138546 0.321452
vt 0.132623 0.309118
vt 0.123589 0.467328
vt 0.156485 0.469335
vt 0.062983 0.311060
vt 0.147818 0.504175
vt 0.945638 0.726908
vt 0.923879 0.706759
vt 0.941290 0.696093
vt 0.048468 0.725726
vt 0.063875 0.758360
vt 0.044085 0.737354
vt 0.028056 0.735881
vt 0.025951 0.770403
vt 0.435929 0.412014
vt 0.401434 0.391268
vt 0.410532 0.372345
vt 0.467099 0.406029
vt 0.465566 0.375424
vt 0.437495 0.418638
vt 0.322211 0.757850
vt 0.356180 0.726319
vt 0.885119 0.574006
vt 0.883286 0.575059
vt 0.875135 0.581806
vt 0.864649 0.536227
vt 0.840934 0.567319
vt 0.561268 0.599331
vt 0.558565 0.630536
vt 0.587599 0.636791
vt 0.594945 0.496932
vt 0.630683 0.479178
vt 0.652471 0.506019
vt 0.639008 0.527444
vt 0.629811 0.457580
vt 0.606561 0.435038
vt 0.572174 0.466704
vt 0.558007 0.506166
vt 0.589032 0.530096
vt 0.567240 0.538226
vt 0.608620 0.534924
vt 0.992792 0.616574
vt 0.982184 0.625215
vt 0.977967 0.607806
vt 0.069710 0.881501
vt 0.056990 0.864517
vt 0.078545 0.855930
vt 0.111109 0.870844
vt 0.690396 0.023987
vt 0.707768 0.009906
vt 0.711075 0.039104
vt 0.691984 0.057447
vt 0.739574 0.033841
vt 0.734574 0.047293
vt 0.735572 0.015416
vt 0.754530 0.023024
vt 0.241210 0.812272
vt 0.285211 0.842166
vt 0.241351 0.842101
vt 0.707954 0.886194
vt 0.723365 0.865168
vt 0.724864 0.894571
vt 0.687635 0.842973
vt 0.666880 0.854255
vt 0.671621 0.877841
vt 0.675435 0.053698
vt 0.665443 0.043808
vt 0.679807 0.017561
vt 0.971801 0.596640
vt 0.958857 0.596803
vt 0.968723 0.575337
vt 0.614894 0.359096
vt 0.672677 0.368427
vt 0.627434 0.387522
vt 0.602407 0.386578
vt 0.599497 0.389040
vt 0.816674 0.400397
vt 0.806815 0.382121
vt 0.845019 0.365245
vt 0.831418 0.334854
vt 0.843329 0.398266
vt 0.498566 0.644255
vt 0.480550 0.611317
vt 0.532021 0.610723
vt 0.565434 0.555359
vt 0.550064 0.578159
vt 0.471825 0.541223
vt 0.517259 0.517359
vt 0.308905 0.055192
vt 0.310584 0.071513
vt 0.302665 0.058007
vt 0.468037 0.569567
vt 0.936196 0.228018
vt 0.958712 0.214197
vt 0.959193 0.248337
vt 0.959008 0.163534
vt 0.953451 0.198529
vt 0.939026 0.171364
vt 0.942564 0.197390
vt 0.935931 0.248268
vt 0.002008 0.208372
vt 0.007192 0.213312
vt 0.008217 0.240778
vt 0.503986 0.508235
vt 0.486904 0.510373
vt 0.413875 0.021426
vt 0.421130 0.040985
vt 0.403034 0.065772
vt 0.979000 0.174267
vt 0.976425 0.200988
vt 0.961622 0.290169
vt 0.956777 0.302899
vt 0.950760 0.276764
vt 0.684658 0.360328
vt 0.659087 0.338070
vt 0.511206 0.671859
vt 0.959229 0.800893
vt 0.971601 0.802669
vt 0.967076 0.825369
vt 0.976449 0.824148
vt 0.699093 0.532874
vt 0.710570 0.570843
vt 0.676086 0.541880
vt 0.659727 0.557984
vt 0.686385 0.586139
vt 0.640374 0.557913
vt 0.460287 0.638912
vt 0.460419 0.654519
vt 0.452183 0.644424
vt 0.953382 0.569037
vt 0.946803 0.594943
vt 0.573567 0.378818
vt 0.552944 0.344444
vt 0.535951 0.380376
vt 0.537305 0.373260
vt 0.645601 0.851250
vt 0.651603 0.857348
vt 0.639026 0.862892
vt 0.907992 0.583474
vt 0.895491 0.540216
vt 0.897634 0.536591
vt 0.894760 0.549502
vt 0.924481 0.550391
vt 0.922739 0.597038
vt 0.902002 0.541075
vt 0.905751 0.539969
vt 0.910918 0.545390
vt 0.351199 0.893278
vt 0.359463 0.902687
vt 0.359150 0.877708
vt 0.445331 0.326754
vt 0.405113 0.354554
vt 0.404850 0.323995
vt 0.375693 0.589189
vt 0.403883 0.568506
vt 0.381525 0.617540
vt 0.647561 0.275801
vt 0.621333 0.208111
vt 0.662488 0.208000
vt 0.705525 0.271870
vt 0.709788 0.207132
vt 0.706210 0.385016
vt 0.742517 0.349342
vt 0.768725 0.406115
vt 0.768625 0.370341
vt 0.717433 0.343190
vt 0.680199 0.417190
vt 0.669087 0.388230
vt 0.704893 0.420363
vt 0.088392 0.099103
vt 0.089899 0.143901
vt 0.060736 0.136885
vt 0.074615 0.171664
vt 0.430899 0.913964
vt 0.468015 0.908644
vt 0.448267 0.924149
vt 0.666865 0.156725
vt 0.678734 0.136282
vt 0.689839 0.148393
vt 0.422053 0.941996
vt 0.429990 0.962816
vt 0.408365 0.960656
vt 0.390092 0.942837
vt 0.488977 0.881504
vt 0.426176 0.618304
vt 0.731525 0.927045
vt 0.719959 0.938407
vt 0.717253 0.930362
vt 0.273593 0.881044
vt 0.298701 0.899879
vt 0.268527 0.919817
vt 0.748612 0.905006
vt 0.746890 0.930724
vt 0.789552 0.866490
vt 0.758364 0.891094
vt 0.771448 0.844903
vt 0.754044 0.874874
vt 0.969831 0.018678
vt 0.966974 0.028906
vt 0.955580 0.008862
vt 0.167192 0.430638
vt 0.933643 0.631718
vt 0.958193 0.635702
vt 0.945421 0.663803
vt 0.690965 0.319941
vt 0.727196 0.315510
vt 0.738638 0.745339
vt 0.689471 0.743264
vt 0.713491 0.717332
vt 0.781460 0.947279
vt 0.757171 0.952139
vt 0.766888 0.940735
vt 0.703517 0.175521
vt 0.755739 0.962121
vt 0.762412 0.968168
vt 0.894154 0.026143
vt 0.908394 0.014252
vt 0.921634 0.055753
vt 0.923958 0.014589
vt 0.295468 0.352890
vt 0.258123 0.376529
vt 0.273674 0.342765
vt 0.116977 0.128002
vt 0.124689 0.144837
vt 0.124883 0.158441
vt 0.481353 0.671389
vt 0.286552 0.414722
vt 0.273920 0.422470
vt 0.222341 0.390202
vt 0.225022 0.346202
vt 0.209794 0.375260
vt 0.436311 0.295556
vt 0.828820 0.833359
vt 0.844325 0.829224
vt 0.830318 0.839675
vt 0.473859 0.956297
vt 0.460284 0.948611
vt 0.457891 0.940734
vt 0.773938 0.021298
vt 0.209870 0.302186
vt 0.014569 0.657124
vt 0.017816 0.661687
vt 0.013020 0.667001
vt 0.013478 0.656338
vt 0.943942 0.847748
vt 0.961630 0.845897
vt 0.959542 0.855002
vt 0.219472 0.977146
vt 0.232701 0.962955
vt 0.240817 0.973166
vt 0.509155 0.712875
vt 0.397849 0.446742
vt 0.675637 0.910959
vt 0.705291 0.928116
vt 0.684496 0.930363
vt 0.453314 0.586832
s 1
f 21/1/1 19/2/2 4/3/3
f 9/4/4 13/5/5 12/6/6
f 1/7/7 9/4/4 12/6/6
f 9/8/4 4/9/3 19/10/2
f 4/3/3 9/11/4 1/12/7
f 9/13/4 10/14/8 13/15/5
f 23/16/9 10/14/8 19/17/2
f 19/17/2 10/14/8 9/18/4
f 52/19/10 19/10/2 21/20/1
f 7/21/11 13/22/5 10/23/8
f 23/24/9 11/25/12 10/26/8
f 11/25/12 23/24/9 37/27/13
f 16/28/14 44/29/15 21/30/1
f 44/29/15 40/31/16 61/32/17
f 44/29/15 61/32/17 82/33/18
f 21/30/1 44/29/15 82/33/18
f 21/30/1 82/33/18 52/34/10
f 24/35/19 44/29/15 16/28/14
f 99/36/20 94/37/21 87/38/22
f 94/39/21 99/36/20 70/40/23
f 87/38/22 89/41/24 99/36/20
f 89/41/24 109/42/25 99/36/20
f 109/43/25 89/44/24 113/45/26
f 113/45/26 139/46/27 109/43/25
f 109/43/25 139/46/27 132/47/28
f 89/48/24 87/49/22 113/50/26
f 119/51/29 113/50/26 87/49/22
f 119/51/29 101/52/30 137/53/31
f 113/50/26 119/51/29 137/53/31
f 113/50/26 137/53/31 139/54/27
f 61/55/17 93/56/32 90/57/33
f 82/58/18 61/55/17 90/57/33
f 93/59/32 53/60/34 73/61/35
f 61/55/17 53/60/34 93/56/32
f 121/62/36 90/63/33 129/64/37
f 129/64/37 90/63/33 93/65/32
f 172/66/38 129/67/37 148/68/39
f 23/69/9 57/70/40 37/71/13
f 70/72/23 37/73/13 57/74/40
f 70/72/23 57/74/40 23/75/9
f 52/76/10 70/77/23 19/78/2
f 90/79/33 101/80/30 82/81/18
f 101/80/30 90/79/33 121/82/36
f 82/81/18 101/80/30 52/76/10
f 94/83/21 101/84/30 87/85/22
f 52/86/10 94/87/21 70/88/23
f 94/89/21 52/76/10 101/80/30
f 119/51/29 87/49/22 101/52/30
f 7/21/11 10/23/8 11/25/12
f 13/90/5 7/91/11 41/92/41
f 11/25/12 41/93/41 7/21/11
f 17/94/42 18/95/43 33/96/44
f 41/97/41 18/98/43 17/99/42
f 18/100/43 41/101/41 11/102/12
f 32/103/45 18/104/43 11/105/12
f 60/106/46 32/103/45 11/105/12
f 32/103/45 34/107/47 31/108/48
f 41/109/41 12/110/6 13/90/5
f 18/111/43 32/112/45 31/113/48
f 34/114/47 33/115/44 31/116/48
f 30/117/49 17/118/42 33/96/44
f 20/119/50 17/120/42 30/121/49
f 31/122/48 33/96/44 18/95/43
f 47/123/51 48/124/52 55/125/53
f 47/123/51 59/126/54 30/121/49
f 48/124/52 47/123/51 30/121/49
f 25/127/55 30/121/49 59/128/54
f 25/127/55 20/119/50 30/121/49
f 11/129/12 37/130/13 60/131/46
f 33/132/44 34/114/47 42/133/56
f 33/134/44 42/135/56 30/136/49
f 48/137/52 30/136/49 42/135/56
f 42/138/56 34/139/47 76/140/57
f 76/140/57 48/141/52 42/138/56
f 99/142/20 109/43/25 104/143/58
f 70/144/23 99/142/20 104/143/58
f 132/145/28 138/146/59 109/43/25
f 138/146/59 116/147/60 109/43/25
f 104/143/58 109/43/25 116/147/60
f 126/148/61 91/149/62 117/150/63
f 32/151/45 77/152/64 34/153/47
f 77/152/64 32/151/45 60/154/46
f 37/155/13 88/156/65 60/157/46
f 104/158/58 88/159/65 37/160/13
f 77/152/64 60/154/46 91/161/62
f 34/153/47 77/152/64 78/162/66
f 88/163/65 91/161/62 60/154/46
f 88/163/65 117/164/63 91/161/62
f 37/130/13 70/88/23 104/165/58
f 117/150/63 88/159/65 116/166/60
f 104/158/58 116/166/60 88/159/65
f 126/167/61 77/152/64 91/161/62
f 64/168/67 48/169/52 76/170/57
f 64/171/67 76/172/57 86/173/68
f 85/174/69 64/171/67 86/173/68
f 76/175/57 34/176/47 78/177/66
f 118/178/70 95/179/71 103/180/72
f 95/179/71 76/175/57 78/177/66
f 103/180/72 95/179/71 78/177/66
f 78/177/66 105/181/73 103/180/72
f 76/172/57 95/182/71 86/173/68
f 118/183/70 86/184/68 95/185/71
f 123/186/74 86/184/68 118/183/70
f 77/187/64 105/188/73 78/189/66
f 135/190/75 103/191/72 105/192/73
f 103/193/72 123/194/74 118/195/70
f 103/193/72 135/196/75 123/194/74
f 123/194/74 135/196/75 142/197/76
f 135/198/75 147/199/77 142/200/76
f 140/201/78 123/202/74 142/203/76
f 111/204/79 123/202/74 140/201/78
f 14/205/80 35/206/81 24/207/19
f 35/206/81 14/205/80 39/208/82
f 39/209/82 14/210/80 43/211/83
f 14/210/80 29/212/84 43/211/83
f 14/210/80 8/213/85 29/212/84
f 39/209/82 49/214/86 35/215/81
f 1/216/7 2/217/87 6/218/88
f 6/218/88 2/217/87 22/219/89
f 1/216/7 3/220/90 2/217/87
f 21/221/1 4/222/3 5/223/91
f 4/224/3 1/225/7 5/226/91
f 6/227/88 5/226/91 1/225/7
f 8/228/85 16/229/14 5/230/91
f 5/226/91 6/227/88 22/231/89
f 8/232/85 26/233/92 29/234/84
f 8/232/85 5/235/91 26/233/92
f 16/236/14 21/237/1 5/238/91
f 14/205/80 24/207/19 16/239/14
f 44/240/15 24/207/19 40/241/16
f 53/242/34 40/241/16 24/207/19
f 5/235/91 22/243/89 26/233/92
f 14/205/80 16/239/14 8/244/85
f 27/245/93 28/246/94 26/247/92
f 27/245/93 26/247/92 22/248/89
f 27/249/93 22/219/89 2/250/87
f 36/251/95 27/252/93 2/253/87
f 26/254/92 56/255/96 66/256/97
f 56/255/96 26/254/92 28/257/94
f 28/257/94 27/258/93 56/255/96
f 56/259/96 45/260/98 71/261/99
f 27/262/93 45/260/98 56/259/96
f 45/260/98 27/263/93 36/264/95
f 53/265/34 24/266/19 35/267/81
f 35/268/81 51/269/100 53/270/34
f 51/269/100 35/271/81 49/272/86
f 79/273/101 51/269/100 49/272/86
f 79/273/101 65/274/102 81/275/103
f 49/272/86 65/274/102 79/273/101
f 49/272/86 43/276/83 65/274/102
f 65/274/102 43/276/83 29/277/84
f 54/278/104 65/274/102 29/277/84
f 53/60/34 61/55/17 40/279/16
f 43/276/83 49/272/86 39/280/82
f 73/281/35 53/270/34 51/269/100
f 80/282/105 73/283/35 51/284/100
f 51/285/100 79/286/101 80/287/105
f 98/288/106 80/289/105 102/290/107
f 93/291/32 73/292/35 98/288/106
f 80/293/105 79/294/101 106/295/108
f 80/293/105 106/295/108 102/296/107
f 120/297/109 131/298/110 129/299/37
f 129/299/37 93/300/32 120/297/109
f 93/301/32 98/302/106 120/297/109
f 128/303/111 98/304/106 102/305/107
f 131/306/110 120/307/109 98/308/106
f 131/306/110 98/308/106 134/309/112
f 128/310/111 102/311/107 106/312/108
f 128/310/111 106/312/108 141/313/113
f 106/314/108 79/315/101 107/316/114
f 128/303/111 134/317/112 98/304/106
f 146/318/115 134/317/112 128/303/111
f 106/319/108 133/320/116 141/321/113
f 151/322/117 160/323/118 146/324/115
f 141/321/113 146/325/115 128/326/111
f 151/327/117 146/325/115 157/328/119
f 157/328/119 146/325/115 141/321/113
f 133/329/116 106/312/108 107/330/114
f 26/331/92 54/332/104 29/333/84
f 100/334/120 65/335/102 74/336/121
f 54/337/104 26/338/92 74/336/121
f 74/336/121 26/338/92 66/339/97
f 84/340/122 97/341/123 71/342/99
f 56/343/96 71/342/99 97/341/123
f 54/337/104 74/336/121 65/344/102
f 65/345/102 112/346/124 81/347/103
f 65/348/102 100/349/120 112/350/124
f 74/351/121 56/352/96 97/353/123
f 79/315/101 81/354/103 107/316/114
f 84/355/122 130/356/125 97/357/123
f 115/358/126 100/359/120 74/360/121
f 97/361/123 115/358/126 74/360/121
f 130/362/125 127/363/127 97/353/123
f 115/364/126 97/353/123 127/363/127
f 107/316/114 81/354/103 112/365/124
f 115/366/126 112/350/124 100/349/120
f 112/367/124 133/368/116 107/369/114
f 133/370/116 112/371/124 115/372/126
f 163/373/128 115/374/126 127/375/127
f 127/376/127 130/377/125 145/378/129
f 17/379/42 3/380/90 12/381/6
f 41/382/41 17/379/42 12/381/6
f 12/381/6 3/380/90 1/383/7
f 3/380/90 17/379/42 20/384/50
f 3/380/90 20/384/50 15/385/130
f 36/386/95 2/217/87 3/220/90
f 15/387/130 36/386/95 3/220/90
f 15/388/130 20/389/50 25/390/55
f 15/388/130 25/390/55 46/391/131
f 36/392/95 15/393/130 38/394/132
f 46/395/131 38/394/132 15/393/130
f 72/396/133 45/397/98 62/398/134
f 45/397/98 36/399/95 38/400/132
f 50/401/135 46/391/131 25/390/55
f 47/402/51 50/403/135 25/404/55
f 58/405/136 75/406/137 63/407/138
f 46/408/131 63/409/138 62/410/134
f 75/411/137 108/412/139 62/410/134
f 62/410/134 38/413/132 46/408/131
f 47/414/51 55/415/53 50/416/135
f 58/417/136 46/418/131 50/419/135
f 50/420/135 75/406/137 58/405/136
f 75/406/137 83/421/140 92/422/141
f 83/423/140 75/424/137 50/416/135
f 62/425/134 63/426/138 75/427/137
f 83/423/140 50/416/135 55/415/53
f 125/428/142 92/429/141 136/430/143
f 114/431/144 136/430/143 92/429/141
f 92/429/141 125/428/142 108/432/139
f 108/432/139 75/433/137 92/429/141
f 69/434/145 59/435/54 48/436/52
f 64/437/67 69/434/145 48/436/52
f 47/438/51 64/439/67 59/440/54
f 59/440/54 69/441/145 25/442/55
f 47/443/51 25/442/55 69/441/145
f 47/444/51 69/441/145 64/445/67
f 55/446/53 64/447/67 85/448/69
f 85/449/69 111/450/79 110/451/146
f 55/452/53 85/453/69 92/454/141
f 110/455/146 92/454/141 85/453/69
f 92/454/141 83/456/140 55/452/53
f 123/457/74 111/450/79 85/449/69
f 123/457/74 85/449/69 86/458/68
f 140/459/78 114/460/144 110/461/146
f 110/461/146 111/462/79 140/459/78
f 114/463/144 140/464/78 136/465/143
f 140/459/78 149/466/147 136/467/143
f 45/397/98 38/400/132 62/398/134
f 71/468/99 45/469/98 84/470/122
f 45/469/98 72/471/133 84/470/122
f 84/472/122 72/473/133 96/474/148
f 108/412/139 96/475/148 62/410/134
f 96/475/148 72/476/133 62/410/134
f 122/477/149 84/478/122 96/479/148
f 130/480/125 84/478/122 122/477/149
f 108/481/139 125/482/142 144/483/150
f 124/484/151 96/485/148 144/483/150
f 143/486/152 124/484/151 144/483/150
f 96/485/148 108/481/139 144/483/150
f 124/487/151 122/477/149 96/488/148
f 122/477/149 124/487/151 130/480/125
f 143/489/152 130/490/125 124/491/151
f 145/492/129 143/489/152 156/493/153
f 145/492/129 156/493/153 164/494/154
f 143/489/152 152/495/155 156/493/153
f 130/490/125 143/489/152 145/492/129
f 132/496/28 139/497/27 184/498/156
f 139/499/27 137/500/31 170/501/157
f 139/499/27 170/501/157 180/502/158
f 139/497/27 180/503/158 184/498/156
f 180/504/158 171/505/159 184/506/156
f 171/505/159 180/504/158 170/507/157
f 121/508/36 129/509/37 172/510/38
f 121/508/36 201/511/160 177/512/161
f 121/508/36 172/510/38 201/511/160
f 201/513/160 213/514/162 196/515/163
f 208/516/164 196/515/163 213/514/162
f 208/516/164 214/517/165 196/515/163
f 137/518/31 101/519/30 121/520/36
f 177/521/161 201/522/160 196/523/163
f 121/520/36 170/524/157 137/518/31
f 177/521/161 170/524/157 121/520/36
f 171/525/159 170/526/157 187/527/166
f 192/528/167 170/526/157 177/529/161
f 170/526/157 192/528/167 187/527/166
f 177/521/161 196/523/163 214/530/165
f 177/521/161 214/530/165 248/531/168
f 177/532/161 248/533/168 192/528/167
f 213/514/162 229/534/169 208/516/164
f 208/516/164 231/535/170 214/517/165
f 192/528/167 248/533/168 246/536/171
f 229/537/169 237/538/172 208/539/164
f 231/540/170 208/539/164 237/538/172
f 192/528/167 246/536/171 217/541/173
f 214/542/165 231/543/170 241/544/174
f 235/545/175 246/546/171 248/547/168
f 235/545/175 242/548/176 246/546/171
f 217/549/173 246/546/171 238/550/177
f 217/549/173 238/550/177 223/551/178
f 242/548/176 238/550/177 246/546/171
f 249/552/179 248/553/168 245/554/180
f 241/544/174 245/554/180 214/555/165
f 214/555/165 245/554/180 248/553/168
f 116/556/60 154/557/181 117/558/63
f 154/557/181 116/556/60 169/559/182
f 173/560/183 116/561/60 138/562/59
f 171/563/159 173/560/183 138/562/59
f 171/563/159 138/562/59 132/496/28
f 132/496/28 184/498/156 171/563/159
f 154/564/181 126/565/61 117/566/63
f 126/565/61 154/564/181 155/567/184
f 187/568/166 173/560/183 171/563/159
f 185/569/185 155/570/184 154/571/181
f 154/571/181 169/572/182 185/569/185
f 185/569/185 169/572/182 173/573/183
f 197/574/186 185/569/185 212/575/187
f 187/527/166 192/528/167 217/541/173
f 173/573/183 217/576/173 185/569/185
f 217/577/173 212/578/187 185/579/185
f 212/578/187 217/577/173 223/580/178
f 126/581/61 155/567/184 135/582/75
f 193/583/188 155/567/184 185/584/185
f 161/585/189 135/586/75 155/587/184
f 167/588/190 153/589/191 147/590/77
f 135/591/75 161/592/189 147/590/77
f 167/588/190 147/590/77 175/593/192
f 147/590/77 161/594/189 193/595/188
f 193/595/188 161/594/189 155/596/184
f 142/597/76 147/598/77 153/599/191
f 142/597/76 153/599/191 140/600/78
f 188/601/193 176/602/194 167/603/190
f 153/604/191 167/603/190 176/602/194
f 175/605/192 197/606/186 204/607/195
f 175/605/192 147/608/77 197/609/186
f 193/610/188 197/609/186 147/608/77
f 220/611/196 204/612/195 197/613/186
f 167/614/190 175/615/192 188/616/193
f 204/617/195 188/616/193 175/615/192
f 188/618/193 211/619/197 176/620/194
f 185/621/185 197/613/186 193/622/188
f 228/623/198 188/618/193 220/624/196
f 223/580/178 197/625/186 212/578/187
f 228/623/198 220/624/196 197/626/186
f 223/627/178 228/628/198 197/629/186
f 223/630/178 222/631/199 230/632/200
f 230/632/200 228/633/198 223/630/178
f 228/634/198 230/632/200 222/631/199
f 238/635/177 242/636/176 235/637/175
f 222/638/199 238/635/177 234/639/201
f 222/638/199 223/640/178 238/635/177
f 148/641/39 134/642/112 146/324/115
f 146/324/115 160/323/118 148/641/39
f 148/643/39 129/644/37 131/645/110
f 148/646/39 131/645/110 134/647/112
f 174/648/202 157/328/119 183/649/203
f 162/650/204 183/649/203 157/328/119
f 174/651/202 160/652/118 151/653/117
f 157/654/119 174/651/202 151/653/117
f 148/655/39 160/652/118 172/656/38
f 160/652/118 174/651/202 172/656/38
f 191/657/205 172/656/38 174/651/202
f 174/651/202 202/658/206 191/657/205
f 202/658/206 174/651/202 189/659/207
f 189/659/207 203/660/208 202/658/206
f 189/659/207 174/651/202 183/661/203
f 189/662/207 183/663/203 195/664/209
f 191/665/205 213/666/162 201/667/160
f 191/665/205 201/667/160 172/668/38
f 203/669/208 189/670/207 195/671/209
f 195/671/209 226/672/210 203/669/208
f 195/671/209 179/673/211 178/674/212
f 179/673/211 183/675/203 162/676/204
f 191/677/205 202/678/206 210/679/213
f 205/680/214 202/681/206 203/682/208
f 205/680/214 210/683/213 202/681/206
f 224/684/215 210/683/213 225/685/216
f 205/680/214 225/685/216 210/683/213
f 226/686/210 225/687/216 203/669/208
f 205/688/214 203/669/208 225/687/216
f 191/689/205 210/690/213 213/691/162
f 227/692/217 216/693/218 218/694/219
f 218/695/219 245/696/180 227/692/217
f 226/697/210 178/698/212 206/699/220
f 178/698/212 199/700/221 206/699/220
f 227/701/217 226/697/210 206/699/220
f 219/702/222 218/703/219 216/704/218
f 133/320/116 162/650/204 141/321/113
f 162/650/204 157/328/119 141/321/113
f 162/705/204 133/706/116 163/373/128
f 183/675/203 179/673/211 195/671/209
f 133/706/116 115/374/126 163/373/128
f 163/373/128 158/707/223 168/708/224
f 145/709/129 159/710/225 158/711/223
f 127/375/127 145/712/129 158/707/223
f 127/375/127 158/707/223 163/373/128
f 162/713/204 163/714/128 178/715/212
f 158/716/223 164/717/154 200/718/226
f 164/717/154 190/719/227 200/718/226
f 179/720/211 162/713/204 178/715/212
f 163/721/128 168/722/224 178/723/212
f 158/707/223 178/724/212 168/708/224
f 158/707/223 200/725/226 178/724/212
f 200/726/226 206/727/220 199/728/221
f 158/716/223 159/729/225 164/730/154
f 199/731/221 178/732/212 200/733/226
f 200/734/226 216/693/218 206/735/220
f 236/736/228 219/702/222 216/704/218
f 216/693/218 227/692/217 206/735/220
f 237/737/172 229/738/169 225/739/216
f 225/739/216 229/738/169 224/740/215
f 225/741/216 226/742/210 233/743/229
f 232/744/230 226/742/210 227/745/217
f 247/746/231 232/744/230 227/745/217
f 233/743/229 226/742/210 232/744/230
f 227/747/217 244/748/232 240/749/233
f 219/702/222 244/748/232 227/747/217
f 229/750/169 213/691/162 224/751/215
f 210/690/213 224/751/215 213/691/162
f 240/752/233 247/753/231 227/692/217
f 240/752/233 245/754/180 241/755/174
f 240/752/233 241/755/174 247/753/231
f 241/544/174 231/543/170 237/756/172
f 232/757/230 247/758/231 237/756/172
f 241/544/174 237/756/172 247/758/231
f 245/759/180 219/760/222 227/761/217
f 245/759/180 240/762/233 219/760/222
f 245/759/180 244/763/232 249/764/179
f 218/765/219 219/766/222 240/767/233
f 218/765/219 240/767/233 244/763/232
f 218/765/219 244/763/232 245/759/180
f 233/768/229 237/538/172 225/769/216
f 237/538/172 233/768/229 232/770/230
f 239/771/234 235/772/175 249/773/179
f 149/774/147 181/775/235 136/776/143
f 150/777/236 194/778/237 198/779/238
f 152/780/155 198/779/238 186/781/239
f 198/779/238 152/780/155 150/777/236
f 194/782/237 181/783/235 211/784/197
f 181/783/235 182/785/240 211/784/197
f 181/783/235 194/782/237 150/786/236
f 194/782/237 209/787/241 198/788/238
f 194/782/237 211/784/197 207/789/242
f 209/787/241 194/782/237 207/789/242
f 228/790/198 215/791/243 211/792/197
f 207/793/242 211/792/197 215/791/243
f 207/794/242 221/795/244 209/796/241
f 209/797/241 221/798/244 236/799/228
f 140/800/78 166/801/245 165/802/246
f 140/800/78 165/802/246 149/803/147
f 140/600/78 153/599/191 166/804/245
f 136/776/143 181/775/235 125/805/142
f 165/806/246 211/807/197 182/808/240
f 176/809/194 166/810/245 153/811/191
f 166/812/245 176/813/194 165/806/246
f 181/814/235 149/815/147 182/816/240
f 182/816/240 149/815/147 165/817/246
f 165/818/246 176/819/194 211/820/197
f 220/624/196 188/618/193 204/821/195
f 211/619/197 188/618/193 228/623/198
f 125/822/142 150/823/236 144/824/150
f 144/825/150 152/780/155 143/826/152
f 164/494/154 159/710/225 145/492/129
f 150/777/236 152/780/155 144/825/150
f 152/495/155 164/494/154 156/493/153
f 186/827/239 164/828/154 152/829/155
f 190/830/227 216/831/218 200/832/226
f 209/797/241 164/833/154 186/781/239
f 216/834/218 190/830/227 164/835/154
f 198/779/238 209/797/241 186/781/239
f 164/836/154 209/837/241 216/838/218
f 216/838/218 209/837/241 236/839/228
f 207/840/242 243/841/247 221/842/244
f 215/791/243 228/790/198 222/843/199
f 222/844/199 243/845/247 215/791/243
f 207/793/242 215/791/243 243/845/247
f 234/639/201 238/635/177 235/637/175
f 236/846/228 244/748/232 219/702/222
f 222/847/199 234/848/201 243/841/247
f 239/849/234 243/841/247 234/848/201
f 243/841/247 239/849/234 236/850/228
f 239/849/234 244/851/232 236/850/228
f 234/639/201 235/637/175 239/771/234
f 239/771/234 249/773/179 244/852/232
f 70/853/23 23/854/9 19/855/2
f 135/190/75 105/856/73 77/857/64
f 135/190/75 77/857/64 126/858/61
f 98/288/106 73/292/35 80/289/105
f 74/351/121 66/859/97 56/352/96
f 46/860/131 58/405/136 63/407/138
f 55/861/53 48/862/52 59/863/54
f 55/861/53 59/863/54 64/864/67
f 110/865/146 114/866/144 92/867/141
f 235/868/175 248/869/168 249/870/179
f 116/556/60 173/871/183 169/559/182
f 187/527/166 217/541/173 173/872/183
f 178/873/212 226/874/210 195/875/209
f 181/775/235 150/876/236 125/805/142
f 236/850/228 221/842/244 243/841/247
l 67 68
