# Blender 5.1.2
# www.blender.org
o tripo_node_59e4cdf0-6b07-4ca2-9126-597883b5e883
v -0.176230 -0.004134 -0.356624
v -0.152108 0.173119 -0.279387
v -0.133736 0.146382 -0.352697
v -0.151781 0.063193 -0.374727
v -0.111969 0.072263 -0.228785
v -0.105605 0.000434 -0.230082
v -0.108929 0.058204 -0.403011
v -0.126468 -0.246251 -0.356432
v -0.087933 -0.024956 -0.263701
v -0.113078 -0.278859 -0.268543
v -0.066977 0.078791 -0.239950
v -0.109004 0.351188 -0.174348
v -0.095006 0.434471 -0.147131
v -0.110058 0.398620 -0.071059
v -0.099577 0.340167 -0.194918
v -0.110091 -0.246174 -0.227106
v -0.097947 0.267174 -0.122302
v -0.069964 0.405746 0.036420
v -0.101808 -0.267870 -0.126933
v -0.086081 0.245177 -0.184835
v -0.094704 0.111855 -0.171175
v -0.048160 0.058422 -0.338019
v -0.040694 -0.245549 -0.387082
v -0.100532 -0.468657 -0.172951
v -0.052360 -0.248483 -0.143276
v -0.096476 0.167929 -0.222262
v -0.074705 0.413709 -0.017525
v -0.081280 -0.314854 -0.077267
v -0.057072 -0.439063 0.033035
v -0.082324 0.153627 -0.148212
v -0.081655 -0.187285 -0.015501
v -0.062857 -0.455266 -0.312877
v -0.056846 -0.330361 -0.212299
v -0.079322 -0.083025 -0.330673
v -0.016740 0.071916 -0.296976
v -0.059361 0.107229 -0.084787
v -0.042769 -0.157393 -0.314302
v -0.054192 0.028310 -0.129503
v -0.066583 0.476869 -0.021158
v -0.069418 0.315466 0.098410
v -0.019932 -0.028653 -0.272567
v -0.043939 0.389071 -0.089260
v -0.072496 -0.045553 -0.371328
v -0.050135 0.144344 -0.172991
v -0.041858 0.271567 -0.131894
v -0.037667 0.368084 0.105027
v 0.004547 -0.275162 -0.296010
v -0.023658 0.270640 0.159431
v -0.026922 0.435496 0.055175
v -0.017189 -0.120631 -0.347130
v -0.044083 -0.139804 -0.409150
v -0.019901 -0.198126 -0.100177
v -0.029712 -0.040304 -0.386042
v -0.049515 0.394061 0.217013
v -0.036577 0.324708 0.120048
v -0.040190 -0.167841 0.110993
v -0.014507 0.458458 -0.057570
v -0.009099 0.344782 0.246681
v -0.031111 -0.385119 0.055349
v -0.036975 0.392563 0.154691
v 0.026327 -0.361287 -0.267606
v -0.018536 0.104192 -0.138766
v 0.005720 0.386548 0.009683
v -0.003680 -0.204489 -0.341892
v 0.013919 -0.013997 -0.031015
v -0.021084 -0.139469 -0.203614
v 0.009458 -0.149359 -0.007305
v 0.032924 0.064627 -0.131907
v -0.018618 -0.058995 -0.037268
v -0.008117 -0.138926 0.124870
v -0.008654 -0.042884 0.072981
v 0.131046 -0.465409 -0.050892
v -0.009602 -0.232296 -0.293783
v 0.019346 0.191492 -0.024691
v -0.007866 -0.446857 -0.318403
v 0.015726 0.364219 0.207652
v 0.036439 -0.201246 0.216507
v 0.047260 -0.272087 0.237963
v 0.067622 -0.467204 -0.231820
v 0.013384 -0.025576 -0.229648
v 0.053735 0.273793 0.195063
v 0.040164 -0.389192 0.127665
v 0.018813 0.229101 0.233897
v 0.009940 -0.042819 -0.113177
v 0.024810 0.325035 0.285899
v 0.028826 0.247004 0.037810
v 0.065167 -0.300883 -0.285079
v 0.073942 -0.190591 -0.227326
v 0.043951 -0.147062 -0.148955
v 0.032385 0.278498 0.339974
v 0.056330 -0.245998 -0.312437
v 0.028640 -0.075038 0.087658
v 0.021870 0.304314 -0.067699
v 0.034890 0.244322 -0.024665
v 0.043202 0.113357 0.322767
v 0.066600 0.169349 -0.080772
v 0.074280 -0.008658 0.216559
v 0.082045 0.235138 -0.090662
v 0.065984 0.356840 0.226807
v 0.036922 -0.128030 0.338517
v 0.095337 -0.028157 -0.121845
v 0.092933 0.227931 0.046909
v 0.103346 -0.307964 -0.340957
v 0.069595 0.004570 0.338577
v 0.078325 0.204354 -0.008009
v 0.068451 -0.153974 0.175725
v 0.110823 0.149091 0.284842
v 0.116868 -0.000494 -0.048297
v 0.083501 -0.297457 0.203368
v 0.043389 0.072965 0.001057
v 0.067380 -0.339823 0.305477
v 0.060645 0.108127 0.117285
v 0.083372 0.198304 0.245685
v 0.122913 0.175761 0.194250
v 0.101320 -0.195910 0.371491
v 0.133951 0.122825 0.351961
v 0.121239 -0.399845 -0.124729
v 0.099845 -0.426350 0.097453
v 0.082277 -0.008834 0.007224
v 0.097858 -0.295689 -0.163187
v 0.116926 -0.284327 0.400276
v 0.123311 0.080711 -0.077512
v 0.164013 -0.074737 0.283519
v 0.131696 0.127582 0.102229
v 0.145512 -0.025375 0.229734
v 0.112312 0.112717 0.157728
v 0.102872 -0.187246 -0.035347
v 0.093750 0.061126 0.197967
v 0.118860 -0.104623 -0.119163
v 0.165179 -0.126860 0.239435
v 0.118912 -0.237076 0.084394
v 0.139964 -0.241010 0.401407
v 0.175240 -0.279462 -0.220254
v 0.170983 -0.010594 0.313258
v 0.139588 0.043451 0.136873
v 0.176151 -0.333659 -0.129861
v 0.179119 -0.208691 0.364394
v 0.134553 -0.314539 -0.039222
v 0.163467 -0.182494 0.294666
v 0.172334 -0.191024 -0.037738
v 0.182434 -0.298717 -0.057473
vn 0.2382 -0.2578 -0.9364
vn 0.1394 0.0439 -0.9893
vn 0.6247 -0.6485 -0.4350
vn 0.9273 -0.3214 -0.1919
vn 0.8104 0.5099 -0.2885
vn -0.5443 -0.3558 -0.7597
vn -0.7897 -0.6100 -0.0649
vn 0.7733 -0.6229 0.1187
vn -0.8426 -0.2606 -0.4714
vn -0.6778 -0.5537 0.4838
vn -0.9833 -0.0895 0.1585
vn -0.3091 -0.6368 0.7064
vn -0.9060 -0.2712 0.3249
vn -0.8400 -0.0225 0.5421
vn 0.5638 -0.6737 0.4778
vn -0.8757 0.4432 -0.1914
vn -0.5064 0.8453 -0.1703
vn -0.9840 0.1767 -0.0244
vn -0.6562 0.3355 -0.6759
vn -0.9642 -0.2484 0.0925
vn -0.1029 0.4359 -0.8941
vn 0.0263 -0.5874 -0.8089
vn -0.7512 -0.6424 -0.1518
vn -0.7270 0.6787 0.1040
vn 0.1749 0.1150 -0.9779
vn -0.6572 -0.6758 -0.3338
vn 0.6713 -0.1648 -0.7226
vn 0.7370 0.2068 -0.6434
vn -0.7714 -0.5643 -0.2941
vn -0.7129 0.1539 -0.6842
vn 0.2643 0.4653 -0.8448
vn 0.2886 0.0690 -0.9549
vn -0.7490 0.3599 -0.5562
vn -0.9570 -0.1560 -0.2447
vn -0.9285 -0.3651 -0.0683
vn -0.8733 -0.3249 0.3630
vn -0.5197 -0.7163 -0.4656
vn -0.3709 0.2522 -0.8938
vn 0.5999 -0.1478 -0.7863
vn 0.9439 0.3060 -0.1240
vn -0.8776 0.1651 -0.4500
vn -0.8558 0.2497 0.4531
vn -0.4637 0.8240 0.3256
vn -0.8519 0.5237 0.0045
vn -0.9423 0.3346 -0.0014
vn -0.9037 0.1748 0.3909
vn -0.9092 -0.0839 0.4077
vn -0.9598 0.1131 0.2571
vn 0.8467 -0.4348 -0.3067
vn -0.1602 0.7806 -0.6042
vn 0.2288 -0.1117 -0.9670
vn 0.8836 0.4431 -0.1516
vn -0.4322 0.7478 0.5040
vn -0.6726 0.4447 0.5914
vn 0.7277 0.1768 -0.6627
vn -0.8459 0.3954 0.3580
vn -0.9300 0.1646 0.3288
vn -0.6626 0.4960 0.5612
vn -0.5542 0.4884 0.6740
vn -0.8584 -0.3424 0.3820
vn 0.5507 0.8347 0.0026
vn -0.8072 0.2523 0.5336
vn -0.3954 0.7984 -0.4541
vn 0.3574 0.8861 0.2949
vn 0.6937 0.1477 -0.7049
vn 0.0869 0.9407 -0.3280
vn -0.7643 -0.4412 -0.4702
vn -0.9792 -0.1140 -0.1680
vn -0.3109 0.3157 -0.8965
vn -0.0493 0.3363 -0.9404
vn 0.7356 0.1931 -0.6493
vn -0.5169 0.3459 -0.7830
vn -0.9484 -0.3069 0.0794
vn -0.7461 0.5510 0.3738
vn -0.8089 0.5486 0.2116
vn -0.8897 -0.0477 0.4541
vn -0.9316 -0.1837 0.3136
vn 0.6515 0.5162 -0.5559
vn 0.2605 0.7151 -0.6487
vn 0.4225 0.7521 -0.5057
vn 0.9093 0.3788 0.1721
vn 0.8514 0.5070 -0.1345
vn 0.6060 0.3380 -0.7200
vn 0.9255 -0.3778 -0.0277
vn 0.9566 0.2148 -0.1969
vn 0.9912 0.1303 -0.0219
vn 0.9808 0.1937 0.0215
vn -0.3168 0.9319 -0.1767
vn 0.6908 0.7081 0.1459
vn 0.9031 0.4290 0.0174
vn -0.0894 0.8563 -0.5087
vn -0.7575 0.6345 -0.1540
vn -0.4186 0.9072 -0.0419
vn 0.2036 0.9629 0.1771
vn -0.0670 0.7517 0.6561
vn -0.6201 0.2936 0.7275
vn -0.6142 0.6122 0.4980
vn 0.1168 0.4691 0.8754
vn 0.9379 0.3322 -0.1000
vn 0.5399 0.8290 -0.1459
vn -0.1941 0.7730 -0.6040
vn 0.8026 0.5962 -0.0193
vn -0.0004 0.5371 0.8435
vn 0.2572 0.0584 -0.9646
vn 0.9964 -0.0754 -0.0379
vn 0.7125 -0.4361 0.5497
vn 0.9319 -0.2495 0.2633
vn 0.6685 0.7237 -0.1715
vn 0.7988 0.3184 -0.5103
vn 0.9899 -0.1379 -0.0335
vn 0.8400 0.3267 0.4332
vn 0.8704 0.2441 -0.4276
vn 0.7578 0.3609 0.5436
vn 0.5253 0.6211 -0.5817
vn 0.9856 0.1586 -0.0580
vn 0.5807 -0.7726 0.2567
vn 0.8586 -0.0562 0.5096
vn 0.8829 0.2494 0.3978
vn -0.4923 0.7793 0.3878
vn 0.3239 0.0552 0.9445
vn -0.0222 -0.6199 0.7844
vn -0.3136 -0.9278 0.2023
vn -0.4223 0.6078 0.6725
vn -0.4376 0.6586 0.6121
vn 0.4621 0.0379 0.8860
vn 0.9070 0.2797 0.3147
vn 0.7970 -0.5212 0.3053
vn 0.9655 0.2300 0.1217
vn -0.5103 -0.5777 0.6370
vn 0.6398 0.3250 -0.6964
vn -0.1197 0.5495 0.8269
vn 0.8786 0.4761 0.0368
vn -0.7245 0.2003 0.6596
vn 0.4908 0.6619 0.5666
vn -0.4330 0.1066 0.8951
vn 0.7429 0.5723 0.3472
vn 0.0937 -0.0847 0.9920
vn 0.9259 0.3068 -0.2202
vn 0.5695 0.8156 0.1024
vn 0.5306 0.5324 0.6596
vn 0.9299 0.3672 0.0212
vt 0.691525 0.406759
vt 0.750077 0.430927
vt 0.685707 0.468983
vt 0.735552 0.516087
vt 0.789767 0.507716
vt 0.665158 0.398757
vt 0.611934 0.465524
vt 0.615149 0.522175
vt 0.358796 0.746468
vt 0.360492 0.713124
vt 0.407527 0.773635
vt 0.460165 0.751931
vt 0.427955 0.663916
vt 0.481521 0.660295
vt 0.494691 0.715825
vt 0.679303 0.291290
vt 0.648466 0.295537
vt 0.662669 0.240668
vt 0.699030 0.201365
vt 0.806014 0.271215
vt 0.714448 0.300906
vt 0.278085 0.465747
vt 0.237201 0.465541
vt 0.235596 0.430518
vt 0.233355 0.520702
vt 0.253678 0.520120
vt 0.889571 0.295699
vt 0.875076 0.294624
vt 0.875682 0.246169
vt 0.916075 0.295308
vt 0.931553 0.226766
vt 0.862247 0.185055
vt 0.910997 0.192799
vt 0.847699 0.205175
vt 0.759227 0.152906
vt 0.613245 0.197295
vt 0.960788 0.271679
vt 0.697313 0.538021
vt 0.403481 0.216886
vt 0.460230 0.243327
vt 0.397242 0.273673
vt 0.438630 0.151449
vt 0.968421 0.240212
vt 0.550066 0.228043
vt 0.591346 0.283708
vt 0.536657 0.262752
vt 0.556077 0.303732
vt 0.597945 0.308045
vt 0.534117 0.335009
vt 0.638245 0.347239
vt 0.588809 0.397252
vt 0.538644 0.404799
vt 0.194906 0.881162
vt 0.204571 0.854348
vt 0.225740 0.899506
vt 0.233489 0.872413
vt 0.174128 0.821904
vt 0.147486 0.866541
vt 0.134806 0.818820
vt 0.279120 0.337120
vt 0.323086 0.314765
vt 0.308278 0.334545
vt 0.323990 0.028246
vt 0.303419 0.036074
vt 0.310835 0.006007
vt 0.242219 0.240800
vt 0.326787 0.289981
vt 0.275611 0.211333
vt 0.304615 0.245844
vt 0.189085 0.027437
vt 0.156677 0.043404
vt 0.180438 0.005542
vt 0.289689 0.016029
vt 0.874480 0.428798
vt 0.864597 0.530634
vt 0.831708 0.428345
vt 0.887799 0.552782
vt 0.896677 0.469816
vt 0.901829 0.537854
vt 0.963212 0.216535
vt 0.892935 0.149580
vt 0.978045 0.165382
vt 0.966095 0.145876
vt 0.302034 0.419066
vt 0.268701 0.394899
vt 0.296056 0.414479
vt 0.792017 0.425570
vt 0.786732 0.427970
vt 0.510167 0.901990
vt 0.571972 0.891163
vt 0.546790 0.916707
vt 0.329919 0.879057
vt 0.371852 0.854363
vt 0.317293 0.897395
vt 0.373698 0.933991
vt 0.430137 0.925629
vt 0.403599 0.847899
vt 0.434739 0.322228
vt 0.481029 0.159874
vt 0.519907 0.161666
vt 0.517335 0.202101
vt 0.490870 0.188908
vt 0.469424 0.283067
vt 0.822539 0.878133
vt 0.859601 0.860966
vt 0.834108 0.886371
vt 0.633229 0.377555
vt 0.656173 0.372016
vt 0.323583 0.936432
vt 0.564933 0.865093
vt 0.588981 0.880531
vt 0.410081 0.589566
vt 0.398363 0.539122
vt 0.440932 0.585832
vt 0.591221 0.247957
vt 0.515516 0.864312
vt 0.475703 0.907372
vt 0.692450 0.739457
vt 0.715409 0.729845
vt 0.715811 0.762312
vt 0.633035 0.728066
vt 0.658898 0.685881
vt 0.609378 0.689619
vt 0.707454 0.688471
vt 0.743023 0.717601
vt 0.738632 0.732499
vt 0.566264 0.041638
vt 0.566358 0.025845
vt 0.581006 0.022543
vt 0.680898 0.674432
vt 0.525064 0.604398
vt 0.571890 0.570144
vt 0.613650 0.628480
vt 0.498808 0.608559
vt 0.525454 0.641747
vt 0.659438 0.777310
vt 0.742132 0.800385
vt 0.726004 0.836695
vt 0.642608 0.814842
vt 0.743035 0.959969
vt 0.735179 0.972777
vt 0.697573 0.946409
vt 0.415549 0.056556
vt 0.409660 0.017152
vt 0.445959 0.021489
vt 0.347285 0.033684
vt 0.394694 0.066633
vt 0.367369 0.057015
vt 0.860598 0.945103
vt 0.913059 0.937959
vt 0.883651 0.970690
vt 0.899976 0.973372
vt 0.892834 0.968626
vt 0.864780 0.975042
vt 0.922061 0.901500
vt 0.295146 0.129303
vt 0.365130 0.114127
vt 0.339503 0.138762
vt 0.398530 0.125946
vt 0.369634 0.155460
vt 0.363199 0.111108
vt 0.399935 0.109218
vt 0.326459 0.054475
vt 0.993805 0.979255
vt 0.975731 0.943344
vt 0.995989 0.948178
vt 0.914335 0.456460
vt 0.923282 0.420294
vt 0.970354 0.446961
vt 0.918308 0.489195
vt 0.942164 0.509688
vt 0.940284 0.971498
vt 0.940700 0.932639
vt 0.946859 0.948435
vt 0.973264 0.514087
vt 0.150048 0.963410
vt 0.141815 0.952251
vt 0.175904 0.944197
vt 0.172508 0.968933
vt 0.177037 0.962929
vt 0.216493 0.041414
vt 0.223947 0.031092
vt 0.233851 0.041479
vt 0.929714 0.868535
vt 0.925898 0.828945
vt 0.284973 0.184000
vt 0.378375 0.195284
vt 0.359111 0.211330
vt 0.365730 0.630983
vt 0.315782 0.625276
vt 0.290478 0.564891
vt 0.360806 0.567636
vt 0.307446 0.513148
vt 0.463777 0.323777
vt 0.848115 0.778052
vt 0.186526 0.901405
vt 0.212487 0.929995
vt 0.489189 0.458214
vt 0.526385 0.442556
vt 0.476103 0.480095
vt 0.540622 0.456173
vt 0.532127 0.510152
vt 0.160380 0.679588
vt 0.173289 0.735437
vt 0.115670 0.702615
vt 0.181832 0.679419
vt 0.782833 0.918705
vt 0.796899 0.850692
vt 0.808129 0.889354
vt 0.776343 0.867430
vt 0.963885 0.385817
vt 0.936673 0.365696
vt 0.511990 0.079220
vt 0.580556 0.116506
vt 0.537351 0.113705
vt 0.567431 0.056014
vt 0.608902 0.082501
vt 0.429099 0.127311
vt 0.431076 0.114220
vt 0.481287 0.113541
vt 0.498293 0.133677
vt 0.456424 0.072390
vt 0.540783 0.141048
vt 0.359757 0.665526
vt 0.307282 0.657890
vt 0.297642 0.655637
vt 0.460505 0.830872
vt 0.441171 0.823964
vt 0.492114 0.807838
vt 0.130183 0.265303
vt 0.114292 0.302055
vt 0.079283 0.301435
vt 0.075717 0.257140
vt 0.064443 0.428627
vt 0.055217 0.397645
vt 0.083214 0.391889
vt 0.012791 0.375822
vt 0.041339 0.369765
vt 0.034768 0.431061
vt 0.144282 0.228328
vt 0.116449 0.206699
vt 0.090341 0.245875
vt 0.001918 0.402252
vt 0.605623 0.142425
vt 0.614306 0.118795
vt 0.527298 0.049316
vt 0.505656 0.022364
vt 0.539890 0.033914
vt 0.488402 0.033397
vt 0.922848 0.573132
vt 0.933473 0.545956
vt 0.952694 0.588366
vt 0.969178 0.550598
vt 0.950345 0.527711
vt 0.959194 0.527789
vt 0.153337 0.288081
vt 0.198825 0.303655
vt 0.147032 0.323139
vt 0.199214 0.232830
vt 0.094182 0.600514
vt 0.058019 0.621371
vt 0.047820 0.591937
vt 0.811850 0.068700
vt 0.810134 0.101084
vt 0.791164 0.067530
vt 0.745717 0.095216
vt 0.756715 0.533822
vt 0.850510 0.343869
vt 0.800632 0.361644
vt 0.838702 0.305097
vt 0.822712 0.372235
vt 0.694712 0.574443
vt 0.740319 0.571849
vt 0.750458 0.582420
vt 0.808201 0.544554
vt 0.816153 0.619648
vt 0.731212 0.370703
vt 0.771046 0.382006
vt 0.727789 0.631475
vt 0.699866 0.619082
vt 0.822585 0.658086
vt 0.783706 0.663081
vt 0.442325 0.519426
vt 0.395086 0.494277
vt 0.494453 0.554619
vt 0.430885 0.474536
vt 0.364429 0.480914
vt 0.361086 0.458403
vt 0.379974 0.579076
vt 0.377785 0.509862
vt 0.463068 0.404986
vt 0.501729 0.383017
vt 0.160637 0.587681
vt 0.159569 0.608399
vt 0.136322 0.622715
vt 0.111542 0.565186
vt 0.779977 0.988586
vt 0.783193 0.965888
vt 0.807499 0.975721
vt 0.909351 0.769488
vt 0.875600 0.748618
vt 0.916629 0.718269
vt 0.417465 0.445305
vt 0.971512 0.798455
vt 0.981424 0.829901
vt 0.968818 0.836189
vt 0.802083 0.382212
vt 0.386768 0.818023
vt 0.341694 0.785326
vt 0.357220 0.774288
vt 0.239095 0.803279
vt 0.242028 0.716735
vt 0.307951 0.822738
vt 0.239815 0.765879
vt 0.255157 0.699082
vt 0.291652 0.706633
vt 0.682859 0.322050
vt 0.695586 0.345960
vt 0.322641 0.725464
vt 0.409251 0.394060
vt 0.340495 0.399855
vt 0.365826 0.321569
vt 0.251381 0.085865
vt 0.262310 0.134203
vt 0.192322 0.157254
vt 0.221972 0.185640
vt 0.192991 0.190340
vt 0.209903 0.063803
vt 0.185582 0.119209
vt 0.994010 0.326139
vt 0.976856 0.338204
vt 0.949651 0.311353
vt 0.271740 0.090854
vt 0.608459 0.586992
vt 0.635462 0.603930
vt 0.910735 0.327940
vt 0.873409 0.332897
vt 0.926515 0.313511
vt 0.088438 0.710909
vt 0.098062 0.754763
vt 0.064668 0.756409
vt 0.084420 0.069251
vt 0.122916 0.054416
vt 0.103291 0.110003
vt 0.080661 0.025048
vt 0.117252 0.024644
vt 0.068970 0.036289
vt 0.036447 0.342275
vt 0.055129 0.300049
vt 0.109755 0.334126
vt 0.034967 0.287088
vt 0.953759 0.091789
vt 0.904432 0.082190
vt 0.958767 0.032830
vt 0.975420 0.047808
vt 0.909285 0.024563
vt 0.084576 0.776969
vt 0.051869 0.707302
vt 0.254928 0.895519
vt 0.267851 0.944141
vt 0.243214 0.942313
vt 0.879472 0.058654
vt 0.212089 0.749904
vt 0.215919 0.700740
vt 0.820831 0.908886
vt 0.820334 0.924976
vt 0.817835 0.940672
vt 0.297517 0.952627
vt 0.323075 0.966396
vt 0.302781 0.983444
vt 0.653584 0.948865
vt 0.674732 0.969213
vt 0.651000 0.950619
vt 0.189413 0.787959
vt 0.145612 0.791608
vt 0.683094 0.906597
vt 0.628500 0.886740
vt 0.655409 0.854836
vt 0.121537 0.757640
vt 0.841045 0.917061
vt 0.853177 0.926495
vt 0.605538 0.777484
vt 0.579078 0.819114
vt 0.557647 0.777266
vt 0.585254 0.721735
vt 0.543417 0.705176
vt 0.535464 0.691315
vt 0.147517 0.412270
vt 0.161959 0.453271
vt 0.106658 0.394469
vt 0.114047 0.482179
vt 0.099610 0.449497
vt 0.206422 0.470496
vt 0.193779 0.434180
vt 0.154054 0.379972
vt 0.050662 0.254463
vt 0.011919 0.266116
vt 0.034752 0.211768
vt 0.144464 0.094832
vt 0.172654 0.172463
vt 0.143562 0.181554
vt 0.471231 0.950479
vt 0.498625 0.948504
vt 0.467192 0.958999
vt 0.509612 0.970501
vt 0.474150 0.968691
vt 0.521247 0.936271
vt 0.518778 0.949871
vt 0.614673 0.944267
vt 0.568466 0.961791
vt 0.576099 0.926227
vt 0.606415 0.984869
vt 0.671143 0.934160
vt 0.627366 0.918653
vt 0.966625 0.644193
vt 0.936127 0.688202
vt 0.903624 0.679983
vt 0.925732 0.633338
vt 0.205146 0.593819
vt 0.225061 0.551894
vt 0.241707 0.594383
vt 0.231305 0.623945
vt 0.198082 0.618299
vt 0.261934 0.617766
vt 0.237580 0.668616
vt 0.705546 0.869442
vt 0.183919 0.386075
vt 0.624261 0.031149
vt 0.658227 0.100629
vt 0.642445 0.113726
vt 0.670770 0.058590
vt 0.646184 0.011150
vt 0.685812 0.016590
vt 0.014497 0.835832
vt 0.001395 0.824749
vt 0.008035 0.805636
s 1
f 75/1/1 61/2/2 79/3/3
f 117/4/4 61/2/2 133/5/5
f 117/4/4 79/3/3 61/2/2
f 32/6/6 75/1/1 79/3/3
f 32/6/6 79/3/3 24/7/7
f 79/3/3 72/8/8 24/7/7
f 75/9/1 32/10/6 61/11/2
f 33/12/9 61/11/2 32/10/6
f 24/13/7 29/14/10 28/15/11
f 24/13/7 28/15/11 32/10/6
f 33/12/9 32/10/6 28/15/11
f 82/16/12 78/17/13 59/18/14
f 29/19/10 72/20/8 118/21/15
f 118/21/15 82/16/12 29/19/10
f 52/22/16 25/23/17 19/24/18
f 73/25/19 52/22/16 66/26/20
f 25/23/17 52/22/16 73/25/19
f 87/27/21 61/28/2 33/29/9
f 87/27/21 33/29/9 47/30/22
f 10/31/23 47/30/22 33/29/9
f 10/31/23 33/29/9 19/32/18
f 16/33/24 10/31/23 19/32/18
f 28/34/11 19/32/18 33/29/9
f 24/35/7 72/20/8 29/19/10
f 29/19/10 82/16/12 59/18/14
f 28/36/11 29/19/10 59/18/14
f 47/30/22 10/31/23 23/37/25
f 79/3/3 117/4/4 72/38/8
f 9/39/26 22/40/27 41/41/28
f 22/40/27 9/39/26 1/42/29
f 8/43/30 23/37/25 10/31/23
f 53/44/31 50/45/32 43/46/33
f 43/46/33 50/45/32 34/47/34
f 34/47/34 50/45/32 37/48/35
f 9/49/26 34/47/34 37/50/35
f 9/49/26 66/51/20 6/52/36
f 66/51/20 9/49/26 37/50/35
f 64/53/37 51/54/38 91/55/39
f 51/54/38 50/56/32 91/55/39
f 51/57/38 64/53/37 37/58/35
f 37/58/35 50/59/32 51/57/38
f 41/60/28 43/61/33 34/62/34
f 37/63/35 64/64/37 73/65/19
f 88/66/40 53/67/31 41/60/28
f 91/68/39 50/69/32 88/66/40
f 50/69/32 53/67/31 88/66/40
f 47/70/22 23/71/25 73/72/19
f 64/64/37 91/73/39 73/65/19
f 6/74/36 1/75/29 9/76/26
f 6/74/36 4/77/41 1/75/29
f 6/74/36 5/78/42 4/77/41
f 5/78/42 2/79/43 4/77/41
f 10/31/23 16/33/24 8/80/30
f 16/33/24 19/32/18 25/81/17
f 16/33/24 23/82/25 8/80/30
f 23/82/25 16/33/24 73/83/19
f 52/22/16 19/24/18 31/84/44
f 19/24/18 28/85/11 31/86/44
f 34/87/34 9/76/26 41/88/28
f 31/89/44 67/90/45 52/91/16
f 65/92/46 38/93/47 69/94/48
f 38/93/47 52/95/16 69/94/48
f 38/93/47 66/96/20 52/95/16
f 38/93/47 6/97/36 66/96/20
f 73/83/19 16/33/24 25/81/17
f 80/98/49 41/41/28 22/40/27
f 4/99/41 2/100/43 3/101/50
f 7/102/51 4/99/41 3/101/50
f 35/103/52 7/102/51 3/101/50
f 71/104/53 65/105/46 69/106/48
f 66/107/20 37/50/35 73/108/19
f 41/60/28 53/67/31 43/61/33
f 52/95/16 67/109/45 69/94/48
f 67/90/45 70/110/54 69/111/48
f 80/112/49 84/113/55 41/114/28
f 59/18/14 56/115/56 28/36/11
f 56/116/56 31/89/44 28/117/11
f 56/118/56 70/119/54 67/120/45
f 31/89/44 56/116/56 67/90/45
f 56/118/56 59/121/14 77/122/57
f 59/121/14 78/123/13 77/122/57
f 106/124/58 92/125/59 70/119/54
f 70/119/54 92/125/59 71/126/53
f 70/127/54 71/128/53 69/129/48
f 106/124/58 70/119/54 56/118/56
f 106/124/58 56/118/56 77/130/57
f 92/131/59 106/132/58 97/133/60
f 71/134/53 92/131/59 65/135/46
f 4/99/41 7/102/51 1/42/29
f 2/136/43 11/137/61 35/138/52
f 3/139/50 2/136/43 35/138/52
f 1/42/29 7/102/51 22/40/27
f 7/102/51 35/103/52 22/40/27
f 5/140/42 11/141/61 2/142/43
f 11/143/61 21/144/62 26/145/63
f 38/146/47 5/147/42 6/148/36
f 11/143/61 5/147/42 21/144/62
f 11/149/61 44/150/64 68/151/65
f 62/152/66 68/153/65 44/150/64
f 11/149/61 68/151/65 80/154/49
f 11/149/61 26/155/63 44/150/64
f 30/156/67 17/157/68 20/158/69
f 15/159/70 45/160/71 17/161/68
f 15/159/70 17/157/68 12/162/72
f 17/157/68 30/156/67 36/163/73
f 45/164/71 15/165/70 12/166/72
f 18/167/74 14/168/75 17/169/68
f 40/170/76 17/169/68 48/171/77
f 38/172/47 21/173/62 5/174/42
f 21/173/62 38/172/47 44/150/64
f 21/173/62 44/150/64 26/155/63
f 17/161/68 45/160/71 20/158/69
f 48/171/77 17/169/68 36/175/73
f 38/176/47 36/177/73 62/178/66
f 38/179/47 62/178/66 44/180/64
f 36/181/73 30/182/67 62/183/66
f 38/184/47 65/105/46 36/185/73
f 30/156/67 20/158/69 62/186/66
f 20/158/69 45/160/71 62/186/66
f 42/187/78 74/188/79 62/186/66
f 45/160/71 42/187/78 62/186/66
f 57/189/80 63/190/81 86/191/82
f 42/192/78 86/191/82 74/193/79
f 86/191/82 42/192/78 57/189/80
f 11/194/61 80/98/49 35/103/52
f 36/185/73 65/105/46 48/195/77
f 96/196/83 68/197/65 62/178/66
f 80/98/49 22/40/27 35/103/52
f 108/198/84 122/199/85 119/200/86
f 119/200/86 122/201/85 110/202/87
f 74/203/79 96/204/83 62/205/66
f 74/203/79 93/206/88 96/204/83
f 74/207/79 102/208/89 105/209/90
f 102/208/89 74/207/79 86/210/82
f 17/169/68 14/168/75 12/211/72
f 12/211/72 14/168/75 13/212/91
f 14/213/75 18/214/74 27/215/92
f 17/216/68 40/217/76 18/214/74
f 45/218/71 12/219/72 42/220/78
f 27/215/92 57/221/80 42/220/78
f 13/222/91 14/213/75 42/220/78
f 27/215/92 42/220/78 14/213/75
f 12/219/72 13/222/91 42/220/78
f 18/214/74 39/223/93 27/215/92
f 57/221/80 27/215/92 39/223/93
f 63/190/81 39/224/93 18/225/74
f 18/225/74 49/226/94 63/190/81
f 39/224/93 63/190/81 57/189/80
f 55/227/95 40/228/76 48/229/77
f 55/230/95 48/231/77 58/232/96
f 58/232/96 54/233/97 55/230/95
f 40/234/76 46/235/98 18/236/74
f 46/235/98 63/237/81 49/238/94
f 46/235/98 55/239/95 63/237/81
f 81/240/99 55/230/95 76/241/100
f 76/241/100 55/230/95 60/242/101
f 54/233/97 60/242/101 55/230/95
f 55/239/95 86/243/82 63/237/81
f 46/235/98 40/234/76 55/239/95
f 49/244/94 18/214/74 46/245/98
f 76/246/100 54/247/97 58/248/96
f 60/249/101 54/247/97 76/246/100
f 76/250/100 58/251/96 99/252/102
f 58/251/96 85/253/103 99/252/102
f 48/254/77 85/255/103 58/251/96
f 87/256/21 103/257/104 61/258/2
f 103/257/104 87/256/21 133/259/5
f 103/260/104 133/261/5 61/262/2
f 73/263/19 91/264/39 47/265/22
f 91/264/39 87/266/21 47/265/22
f 136/267/105 117/4/4 133/5/5
f 136/268/105 138/269/106 117/270/4
f 136/268/105 141/271/107 138/269/106
f 133/272/5 87/273/21 120/274/108
f 88/275/40 89/276/109 120/274/108
f 72/20/8 117/270/4 118/21/15
f 118/21/15 117/270/4 131/277/110
f 117/270/4 138/269/106 131/277/110
f 138/269/106 127/278/111 131/277/110
f 120/274/108 141/279/107 136/280/105
f 89/276/109 141/279/107 120/274/108
f 129/281/112 140/282/113 141/279/107
f 141/279/107 89/276/109 129/281/112
f 41/114/28 84/113/55 89/283/109
f 101/284/114 89/283/109 84/113/55
f 88/285/40 41/114/28 89/283/109
f 101/284/114 129/286/112 89/283/109
f 108/287/84 119/288/86 101/284/114
f 80/112/49 68/289/65 84/113/55
f 84/113/55 108/290/84 101/284/114
f 108/198/84 84/291/55 68/292/65
f 87/293/21 91/294/39 88/295/40
f 120/296/108 87/293/21 88/295/40
f 140/297/113 129/298/112 127/299/111
f 140/300/113 127/301/111 138/302/106
f 127/303/111 129/286/112 101/284/114
f 119/288/86 127/303/111 101/284/114
f 119/304/86 110/305/87 135/306/115
f 68/292/65 122/199/85 108/198/84
f 138/269/106 141/271/107 140/307/113
f 120/274/108 136/280/105 133/272/5
f 82/308/12 109/309/116 78/310/13
f 130/311/117 137/312/118 131/313/110
f 137/312/118 130/311/117 139/314/119
f 132/315/120 121/316/121 137/312/118
f 82/16/12 118/21/15 109/317/116
f 131/277/110 109/318/116 118/21/15
f 137/312/118 109/309/116 131/313/110
f 121/316/121 111/319/122 137/312/118
f 137/312/118 111/319/122 109/309/116
f 127/320/111 130/321/117 131/322/110
f 78/323/13 111/324/122 115/325/123
f 111/324/122 121/326/121 115/325/123
f 115/325/123 121/326/121 132/327/120
f 78/323/13 115/325/123 77/328/57
f 115/325/123 100/329/124 77/328/57
f 106/330/58 77/331/57 100/332/124
f 65/135/46 92/131/59 97/133/60
f 109/333/116 111/324/122 78/323/13
f 123/334/125 125/335/126 97/133/60
f 139/336/119 106/337/58 115/338/123
f 97/133/60 106/132/58 123/334/125
f 97/339/60 125/340/126 134/341/127
f 115/342/123 106/343/58 100/344/124
f 115/342/123 137/345/118 139/346/119
f 115/342/123 132/347/120 137/345/118
f 106/348/58 130/349/117 123/350/125
f 130/349/117 106/348/58 139/351/119
f 119/352/86 135/353/115 130/354/117
f 119/352/86 130/354/117 127/355/111
f 135/353/115 125/356/126 130/354/117
f 125/340/126 128/357/128 134/341/127
f 104/358/129 97/339/60 134/341/127
f 130/359/117 125/360/126 123/361/125
f 128/362/128 125/356/126 135/353/115
f 105/363/90 96/204/83 98/364/130
f 105/365/90 94/366/131 74/207/79
f 94/366/131 93/367/88 74/207/79
f 98/368/130 96/369/83 93/370/88
f 98/371/130 93/372/88 94/373/131
f 105/363/90 110/374/87 96/204/83
f 110/374/87 122/375/85 96/204/83
f 102/376/89 124/377/132 110/378/87
f 68/379/65 96/204/83 122/375/85
f 105/380/90 98/381/130 94/366/131
f 48/382/77 65/383/46 97/384/60
f 48/382/77 97/384/60 95/385/133
f 95/385/133 97/386/60 104/387/129
f 113/388/134 83/389/135 107/390/136
f 48/391/77 95/392/133 83/389/135
f 90/393/137 83/389/135 81/394/99
f 114/395/138 81/394/99 113/388/134
f 113/388/134 81/394/99 83/389/135
f 48/396/77 83/397/135 90/398/137
f 86/399/82 81/400/99 112/401/139
f 99/402/102 85/403/103 81/404/99
f 85/403/103 90/405/137 81/406/99
f 48/407/77 90/408/137 85/403/103
f 116/409/140 95/410/133 104/411/129
f 95/410/133 116/409/140 107/412/136
f 83/389/135 95/392/133 107/390/136
f 113/388/134 107/390/136 114/395/138
f 102/376/89 86/413/82 112/414/139
f 112/414/139 124/377/132 102/376/89
f 81/415/99 86/416/82 55/417/95
f 99/252/102 81/415/99 76/418/100
f 135/419/115 110/420/87 124/421/132
f 126/422/141 135/419/115 124/421/132
f 126/422/141 128/423/128 135/419/115
f 126/422/141 112/424/139 114/425/138
f 105/426/90 102/376/89 110/378/87
f 112/427/139 81/394/99 114/395/138
f 128/428/128 116/429/140 134/430/127
f 112/424/139 126/422/141 124/421/132
f 116/429/140 128/428/128 107/431/136
f 126/432/141 114/433/138 128/428/128
f 128/428/128 114/433/138 107/431/136
f 134/434/127 116/435/140 104/436/129
