# Blender 5.1.2
# www.blender.org
o tripo_node_c2c086ba-cea6-4222-8835-6121ad54f53b
v -0.457807 0.125502 -0.115105
v -0.443118 0.072204 -0.076109
v -0.413992 0.102051 -0.036163
v -0.322077 0.041430 -0.139287
v -0.400319 -0.322726 -0.290037
v -0.383259 -0.297253 -0.120848
v -0.367244 -0.263830 -0.223403
v -0.302977 0.139836 -0.052269
v -0.354452 -0.363776 -0.135338
v -0.395015 -0.323343 0.121179
v -0.322079 -0.438656 -0.008646
v -0.303897 -0.409924 -0.236099
v -0.357761 0.039738 0.000365
v -0.344869 0.122983 -0.134045
v -0.344735 -0.372725 0.013101
v -0.232498 -0.352335 -0.304048
v -0.296545 -0.222476 -0.171199
v -0.326578 -0.272233 -0.063238
v -0.311935 -0.359440 -0.269240
v -0.352465 -0.252162 -0.081864
v -0.339697 -0.029554 0.127845
v -0.284638 -0.433487 0.052647
v -0.271355 -0.257358 0.066203
v -0.315319 -0.019693 -0.064673
v -0.296809 -0.280453 -0.272462
v -0.346727 -0.095844 0.055441
v -0.333730 -0.212193 0.014938
v -0.294164 -0.284818 0.196470
v -0.304439 -0.435842 -0.070107
v -0.323511 -0.321575 -0.095622
v -0.312564 0.164380 -0.167581
v -0.230582 0.081050 0.042907
v -0.245634 0.018006 -0.182628
v -0.321564 -0.360791 0.194473
v -0.227569 0.170559 -0.098871
v -0.277756 0.033746 0.134710
v -0.286152 -0.225633 -0.316161
v -0.295366 -0.143195 -0.114080
v -0.316666 -0.259001 0.179482
v -0.269940 -0.342711 0.167921
v -0.316892 0.016081 0.288888
v -0.305155 -0.049316 0.419907
v -0.292951 -0.282080 0.237675
v -0.304831 0.419749 -0.039552
v -0.301738 0.364179 0.037271
v -0.276291 -0.037471 0.197547
v -0.273026 -0.099379 -0.022607
v -0.308219 -0.408591 0.170062
v -0.277534 -0.386518 -0.059516
v -0.225453 0.056411 -0.099732
v -0.263128 -0.188863 0.172911
v -0.283221 0.425257 0.053493
v -0.213618 -0.171623 0.078587
v -0.302933 -0.379977 0.431725
v -0.274420 0.156117 -0.153148
v -0.270467 -0.298528 0.282880
v -0.269716 -0.279613 0.358038
v -0.249883 -0.041541 -0.206955
v -0.236233 0.297984 -0.018830
v -0.235101 0.343764 -0.138796
v -0.243233 -0.332726 0.438463
v -0.201552 -0.413595 0.436150
v -0.268222 -0.453070 0.257592
v -0.213686 0.295890 0.034979
v -0.264093 -0.211578 -0.248304
v -0.253665 -0.224241 0.353381
v -0.205025 -0.174912 -0.205140
v -0.245965 0.208113 -0.058965
v -0.260526 0.428227 -0.094466
v -0.258124 -0.125177 0.362580
v -0.275046 0.232207 -0.275083
v -0.246159 -0.147608 0.245256
v -0.240601 0.432663 -0.164357
v -0.254809 -0.185215 -0.282412
v -0.191780 0.011777 0.391041
v -0.245101 -0.443451 -0.250899
v -0.263750 0.187499 -0.210996
v -0.191574 -0.164439 -0.150796
v -0.244206 0.214249 -0.321172
v -0.217948 0.425791 0.002346
v -0.241493 -0.347861 -0.207031
v -0.219991 0.294456 -0.247715
v -0.215589 0.278795 -0.140213
v -0.260704 0.008056 -0.320550
v -0.226332 0.134771 -0.218613
v -0.241473 -0.202976 -0.336066
v -0.196444 0.271521 -0.348386
v -0.240443 0.154381 0.193089
v -0.213002 -0.430967 -0.125883
v -0.218839 0.022226 0.320412
v -0.189182 0.025820 0.205906
v -0.210305 -0.141745 -0.425507
v -0.148780 -0.445833 0.315473
v -0.151363 0.264476 -0.202444
v -0.167885 0.475477 -0.045003
v -0.184267 -0.191222 0.355794
v -0.197262 -0.299027 0.297098
v -0.190166 0.269478 -0.283645
v -0.180950 -0.144378 -0.220842
v -0.219866 0.429054 0.126008
v -0.147851 0.064100 -0.250665
v -0.207414 0.317505 0.124858
v -0.138437 0.013300 0.252244
v -0.179140 -0.205563 -0.339343
v -0.173940 0.418831 0.200067
v -0.144592 0.028196 -0.050540
v -0.191379 0.308669 0.055506
v -0.195769 0.072425 0.385714
v -0.155516 0.006081 -0.293457
v -0.098284 -0.012328 -0.376881
v -0.166843 0.449488 0.139122
v -0.127264 0.257837 -0.397894
v -0.119799 -0.235757 -0.310173
v -0.179053 -0.403778 -0.261315
v -0.170679 0.102609 0.348000
v -0.060036 0.220998 0.206062
v -0.131481 -0.267588 0.301913
v -0.094068 0.191800 -0.313070
v -0.136449 -0.110192 -0.437594
v -0.135444 -0.210677 -0.177669
v -0.151312 0.298496 -0.111791
v -0.124568 0.066581 -0.213577
v -0.116129 -0.402125 0.386568
v -0.151423 0.303024 0.134299
v -0.125281 -0.326545 -0.303565
v -0.060993 -0.375121 0.427828
v -0.116371 -0.114105 0.358419
v -0.036316 -0.328919 0.417316
v -0.051593 -0.437215 0.325622
v -0.108057 0.016395 -0.286252
v -0.100374 0.039958 0.372274
v -0.106319 0.327739 -0.366917
v -0.109587 0.240038 -0.079276
v -0.061581 0.071586 0.135215
v -0.118379 -0.357141 -0.202766
v -0.108787 0.029676 -0.091474
v -0.115227 0.064610 0.333633
v -0.117777 0.323714 -0.044752
v -0.101935 -0.418902 -0.244314
v -0.059565 0.285722 -0.298934
v -0.099612 -0.424142 0.327503
v -0.068992 -0.090518 0.090312
v -0.080594 0.265706 0.166501
v -0.087361 -0.309434 0.333176
v -0.099366 -0.177890 -0.363218
v -0.084172 -0.033614 -0.279561
v -0.033873 0.228895 -0.064043
v -0.110639 0.276250 0.030862
v -0.051243 0.318856 -0.232177
v -0.073165 -0.211080 0.320429
v -0.039660 -0.337030 -0.296056
v 0.015269 -0.369356 -0.331804
v -0.060982 -0.233848 0.272279
v -0.080400 0.161426 -0.028378
v -0.067933 -0.121998 0.123621
v -0.098592 0.098210 -0.083703
v -0.081233 -0.141456 -0.264927
v -0.052601 0.244353 -0.174274
v -0.026101 0.347035 -0.007992
v -0.033022 0.205795 -0.291836
v -0.070071 -0.068921 -0.172483
v -0.036053 0.020892 0.252753
v -0.058790 -0.450193 0.445431
v -0.031614 -0.438584 -0.235365
v -0.052548 0.098620 0.400335
v -0.015403 -0.006107 -0.297646
v -0.033967 0.298899 0.191215
v -0.027410 0.032294 -0.098516
v -0.005521 -0.182006 -0.376177
v -0.049587 0.418365 -0.078300
v -0.069181 0.324703 -0.096684
v -0.047521 -0.256992 0.331768
v -0.053926 0.029294 -0.245502
v -0.053094 0.430182 0.189480
v -0.005153 0.400989 0.061188
v -0.004887 -0.134908 -0.272956
v 0.038008 -0.121156 0.306483
v -0.009205 -0.042138 -0.172491
v 0.045060 0.156934 0.330003
v 0.070705 -0.068616 -0.175227
v 0.013953 0.114349 0.179506
v 0.034062 0.394420 -0.097444
v 0.017864 -0.245332 0.240354
v 0.112660 -0.433276 0.185697
v -0.017116 -0.206406 -0.301483
v 0.019295 -0.433651 0.405871
v 0.001825 0.170848 0.378306
v 0.005710 -0.276974 0.309939
v 0.019486 -0.297892 -0.239796
v 0.030174 -0.388673 -0.203521
v 0.037107 -0.187250 0.206351
v 0.029010 0.415678 0.171538
v 0.057580 -0.185448 -0.337383
v 0.064880 0.104285 0.212601
v 0.131412 -0.440784 0.368035
v 0.002135 0.145810 0.018083
v 0.015436 0.103750 0.110427
v 0.033031 -0.149158 -0.267381
v 0.068722 0.343038 -0.118320
v 0.076083 -0.298802 -0.342890
v 0.024750 0.182407 0.127193
v 0.135739 0.172884 0.211886
v 0.052537 -0.041210 -0.071895
v 0.032672 0.291852 0.172037
v 0.091392 -0.446527 -0.258251
v 0.090897 0.458984 0.132392
v 0.078568 0.087065 0.111987
v 0.084328 0.353764 -0.009081
v 0.069431 0.208386 -0.037995
v 0.099358 0.203893 0.300452
v 0.045227 -0.256168 0.296272
v 0.022388 -0.349009 0.270003
v 0.094026 -0.421689 0.437995
v 0.080284 -0.310387 0.324095
v 0.104450 0.456487 0.066020
v 0.071510 -0.384344 -0.293015
v 0.085678 -0.181307 0.230960
v 0.114020 0.136576 0.243620
v 0.157552 -0.055058 0.228919
v 0.108127 0.291740 0.166225
v 0.085601 0.243130 0.052692
v 0.082723 0.146267 -0.011881
v 0.120016 -0.253465 0.208303
v 0.116515 -0.398015 0.220515
v 0.135925 0.403775 0.205189
v 0.056749 -0.462126 -0.146551
v 0.121355 0.197291 0.129965
v 0.112676 -0.122299 0.281143
v 0.135426 -0.221022 0.273629
v 0.118523 -0.350515 0.385595
v 0.113954 -0.439132 -0.225390
v 0.118998 0.138616 0.329099
v 0.102641 -0.240123 -0.320468
v 0.075046 -0.340738 0.217664
v 0.154951 0.080329 -0.141225
v 0.192569 0.046460 0.284691
v 0.160381 -0.256692 0.328819
v 0.141667 -0.324740 0.115498
v 0.157888 0.105993 -0.063482
v 0.123975 -0.229533 -0.200491
v 0.126387 -0.121011 -0.267685
v 0.151158 -0.185778 0.315078
v 0.172766 -0.251968 0.310603
v 0.149467 0.149318 0.090404
v 0.144227 -0.308562 -0.290431
v 0.150370 -0.229032 0.115815
v 0.192042 -0.257586 -0.345665
v 0.161238 -0.230528 -0.284545
v 0.169628 -0.117397 -0.254729
v 0.128284 -0.152101 0.215654
v 0.258235 -0.468207 -0.211880
v 0.184156 0.040263 -0.157985
v 0.195095 -0.189864 0.166645
v 0.202368 -0.372624 0.109523
v 0.209420 0.113678 0.009160
v 0.192254 0.072185 0.251085
v 0.158421 -0.001933 -0.042695
v 0.158352 -0.094157 -0.079641
v 0.183941 0.132649 0.175319
v 0.163364 -0.092846 0.002721
v 0.200289 -0.199726 -0.143963
v 0.188110 -0.345834 -0.194436
v 0.162025 -0.216996 0.279688
v 0.234855 -0.450873 -0.232126
v 0.230604 0.031202 0.338245
v 0.165805 0.156104 -0.185904
v 0.193837 -0.356195 -0.305194
v 0.179446 -0.280492 0.036214
v 0.237796 -0.125126 -0.290452
v 0.209675 -0.217856 0.344440
v 0.264778 -0.135511 -0.189183
v 0.245636 0.141031 -0.198274
v 0.211823 -0.073685 -0.135505
v 0.200494 0.174508 -0.110816
v 0.239978 -0.133895 0.401524
v 0.250936 0.198646 -0.161946
v 0.230992 0.023392 0.140429
v 0.207878 -0.147346 -0.277813
v 0.247109 -0.251736 0.031007
v 0.263235 -0.345700 0.053365
v 0.259397 -0.196884 0.355868
v 0.270773 -0.233702 -0.183890
v 0.241968 -0.179243 -0.270323
v 0.258682 -0.258255 -0.347022
v 0.275807 -0.342288 -0.191113
v 0.263353 0.015985 -0.019223
v 0.268358 0.213706 -0.050778
v 0.266482 0.119847 0.382190
v 0.256117 0.136499 0.122158
v 0.268134 -0.282462 -0.261261
v 0.281853 -0.082276 0.151667
v 0.312934 0.144659 0.281451
v 0.281491 0.169827 -0.103540
v 0.297238 0.015745 0.350739
v 0.355832 0.164482 0.028140
v 0.353119 0.043721 0.181030
v 0.364538 -0.126692 -0.102632
v 0.331321 0.063389 0.137450
v 0.324313 -0.268595 -0.086643
v 0.339699 0.206467 0.082601
v 0.376320 -0.117187 -0.015260
v 0.298360 -0.158476 -0.046198
v 0.342507 0.117777 0.329017
v 0.310339 -0.173098 -0.118205
v 0.358538 0.098843 0.394594
v 0.369496 0.142401 -0.023829
v 0.371773 0.117521 0.088376
v 0.414340 -0.007525 -0.045672
v 0.480631 0.048941 0.087808
v 0.421843 0.056941 0.053789
v 0.430102 0.089881 0.128317
v 0.449618 0.081012 0.027814
vn -0.7575 -0.0312 -0.6521
vn -0.8298 -0.4709 0.2995
vn -0.9045 0.0707 0.4207
vn -0.2682 -0.7578 -0.5948
vn -0.6777 0.7143 -0.1747
vn -0.5916 0.7655 -0.2531
vn 0.0667 -0.7564 -0.6507
vn -0.8468 -0.2811 0.4515
vn -0.9747 0.1030 0.1983
vn -0.9327 -0.2416 0.2679
vn -0.6188 -0.7841 -0.0480
vn -0.2126 -0.4597 -0.8623
vn -0.9646 0.1141 0.2379
vn -0.9066 -0.1739 -0.3844
vn -0.5797 -0.8131 -0.0522
vn -0.8307 0.4567 0.3185
vn -0.8123 0.5191 0.2659
vn -0.9998 -0.0170 0.0064
vn -0.4133 0.0212 -0.9103
vn -0.3940 -0.7549 -0.5242
vn -0.0578 -0.9983 0.0008
vn -0.2682 -0.9588 0.0934
vn -0.3686 -0.5218 -0.7693
vn -0.9539 -0.1545 0.2574
vn -0.8861 0.0338 0.4622
vn -0.8128 0.5722 -0.1090
vn -0.9971 -0.0484 -0.0592
vn -0.5712 0.2214 -0.7904
vn -0.8726 0.1829 -0.4529
vn -0.9618 -0.1238 -0.2443
vn -0.9144 -0.3347 -0.2276
vn -0.8997 -0.2730 -0.3405
vn -0.6458 -0.3563 -0.6753
vn -0.9621 -0.2431 0.1236
vn -0.8728 -0.0133 0.4878
vn -0.9598 0.1674 0.2252
vn -0.1182 0.4175 0.9009
vn -0.7222 0.5320 0.4420
vn -0.6204 0.1512 -0.7696
vn -0.0290 0.9969 0.0737
vn -0.5766 0.8167 0.0224
vn -0.8819 -0.1714 0.4391
vn -0.5740 0.4123 0.7075
vn -0.8328 -0.5490 0.0703
vn -0.3634 0.7375 -0.5693
vn 0.2853 -0.4256 -0.8588
vn 0.0486 -0.3148 -0.9479
vn -0.3406 0.8131 -0.4721
vn -0.7051 -0.1507 -0.6929
vn 0.4616 -0.8803 0.1097
vn -0.0067 -1.0000 0.0009
vn 0.0974 -0.9069 -0.4099
vn -0.3883 0.0849 -0.9176
vn 0.2843 -0.8217 -0.4939
vn 0.1534 -0.4782 -0.8648
vn -0.2632 -0.0979 -0.9598
vn -0.0942 -0.4479 -0.8891
vn 0.0042 -0.8250 -0.5651
vn -0.0223 -0.4374 -0.8990
vn -0.1705 -0.0360 -0.9847
vn -0.1642 0.2486 -0.9546
vn 0.5929 -0.6276 -0.5046
vn -0.0818 -0.9957 0.0436
vn -0.7564 0.6329 -0.1650
vn -0.7841 -0.6172 0.0652
vn -0.7383 0.6023 -0.3035
vn -0.4387 -0.2385 -0.8664
vn -0.1921 -0.7547 -0.6273
vn 0.0481 0.0408 -0.9980
vn 0.2459 0.7684 -0.5908
vn -0.8104 -0.3418 -0.4758
vn 0.3315 -0.0087 -0.9434
vn 0.0041 0.9435 -0.3313
vn 0.0961 0.5531 0.8276
vn 0.5227 0.8192 0.2362
vn 0.4424 -0.2986 -0.8457
vn -0.5004 0.4666 -0.7293
vn 0.3237 0.0837 -0.9425
vn 0.3747 0.8718 -0.3157
vn 0.0805 0.8879 0.4529
vn 0.5142 0.8204 0.2500
vn 0.5195 0.1824 -0.8348
vn -0.3151 0.7575 -0.5718
vn 0.5088 0.2673 -0.8183
vn 0.8538 -0.1815 -0.4879
vn 0.5435 0.5673 -0.6187
vn 0.3738 0.8292 -0.4156
vn -0.5134 0.8111 -0.2803
vn -0.0543 0.6476 -0.7601
vn -0.8895 0.1824 0.4188
vn -0.7967 -0.5878 0.1403
vn -0.8547 0.3683 0.3657
vn -0.7903 -0.4903 0.3674
vn -0.5245 -0.8403 0.1369
vn -0.9568 -0.2305 0.1772
vn -0.9686 0.1333 0.2096
vn -0.5224 0.6088 0.5970
vn -0.7728 -0.2316 0.5909
vn -0.1149 0.5486 0.8282
vn -0.0470 -0.6856 0.7265
vn 0.0787 -0.9780 0.1931
vn -0.0276 -0.7683 0.6395
vn 0.7353 0.5850 0.3422
vn 0.3471 -0.3450 0.8720
vn 0.7494 -0.6393 0.1724
vn 0.9267 0.2878 0.2415
vn 0.0013 -0.8143 0.5804
vn -0.1696 -0.6247 0.7622
vn 0.0708 0.0366 0.9968
vn 0.0889 0.5853 0.8059
vn -0.0391 -0.9323 0.3595
vn 0.2576 0.4036 0.8779
vn -0.2880 0.7978 0.5297
vn -0.3857 -0.2810 0.8788
vn 0.0746 -0.0294 0.9968
vn 0.3316 -0.4087 0.8503
vn 0.1313 -0.2979 0.9455
vn -0.5389 -0.0662 0.8398
vn -0.1423 0.7302 0.6683
vn 0.2550 0.7917 0.5551
vn 0.9232 0.0781 0.3763
vn 0.0003 0.8860 -0.4636
vn -0.4823 0.8650 -0.1385
vn -0.7720 0.6159 -0.1569
vn -0.6523 -0.3746 0.6589
vn -0.5919 -0.0432 0.8048
vn -0.1880 0.1621 0.9687
vn 0.1048 0.1140 0.9879
vn 0.3156 -0.1622 0.9349
vn -0.0046 0.4502 0.8929
vn 0.0359 0.9711 -0.2359
vn -0.5236 0.7048 -0.4786
vn -0.0292 0.9896 0.1406
vn 0.0956 -0.3342 0.9376
vn 0.0997 -0.1762 0.9793
vn 0.3850 -0.3870 0.8379
vn -0.4530 0.0621 0.8893
vn -0.5610 0.7663 0.3132
vn -0.0832 0.1302 0.9880
vn 0.3901 0.3613 0.8470
vn 0.1903 0.6683 0.7192
vn -0.2167 0.7549 0.6190
vn 0.4000 -0.1245 0.9080
vn -0.2703 -0.0827 0.9592
vn 0.5039 0.2694 0.8207
vn 0.5595 -0.1889 0.8071
vn -0.0706 0.1451 0.9869
vn -0.2021 -0.0540 0.9779
vn 0.6639 0.2818 0.6927
vn -0.8153 0.4230 -0.3954
vn -0.1955 0.5904 -0.7831
vn -0.0128 0.1608 -0.9869
vn -0.5960 0.0423 -0.8019
vn -0.4610 0.4597 -0.7591
vn -0.8424 0.5353 -0.0618
vn -0.3814 0.8668 0.3213
vn -0.7926 0.5423 0.2785
vn -0.9712 0.2257 -0.0757
vn -0.9151 -0.1203 0.3849
vn -0.9369 -0.3457 0.0523
vn -0.8789 0.0743 -0.4711
vn -0.1111 0.1217 -0.9863
vn 0.4506 0.6093 -0.6525
vn -0.1332 0.9911 -0.0067
vn -0.6978 0.4662 -0.5438
vn -0.9953 -0.0002 -0.0971
vn -0.7372 -0.5723 -0.3591
vn 0.1816 -0.1426 -0.9730
vn -0.6495 -0.2876 -0.7039
vn -0.5697 0.6869 -0.4513
vn 0.2892 0.9037 -0.3156
vn 0.5615 0.6784 -0.4739
vn 0.2828 -0.3557 -0.8908
vn -0.2825 0.9554 0.0859
vn -0.0342 0.9887 -0.1458
vn 0.8557 -0.0475 -0.5152
vn 0.8338 0.3786 0.4017
vn 0.3830 0.9150 0.1270
vn -0.9679 0.1939 -0.1599
vn -0.8630 0.4584 -0.2124
vn -0.5400 -0.3043 -0.7848
vn -0.8080 -0.3567 0.4689
vn -0.3141 0.6236 0.7159
vn -0.8540 -0.3986 0.3343
vn 0.0972 -0.4318 -0.8967
vn 0.8580 -0.1087 -0.5020
vn -0.2007 0.3599 -0.9111
vn 0.3585 0.9268 0.1115
vn -0.1032 0.9611 0.2564
vn 0.1505 0.9486 0.2784
vn 0.4580 0.6516 0.6047
vn 0.4867 0.0252 -0.8732
vn 0.8767 0.4015 -0.2648
vn -0.4318 0.9003 0.0553
vn -0.5222 0.7717 -0.3629
vn -0.5596 0.6860 0.4650
vn -0.4060 0.6680 0.6237
vn 0.6751 -0.2826 -0.6815
vn 0.8247 0.4726 -0.3107
vn 0.9459 -0.2951 -0.1347
vn 0.2445 0.8206 -0.5166
vn -0.4672 0.8776 -0.1077
vn 0.4850 0.1257 -0.8654
vn -0.7360 0.6256 -0.2589
vn 0.1323 0.8058 0.5772
vn 0.4313 0.8930 0.1285
vn -0.2654 0.4537 -0.8507
vn -0.7252 0.2120 0.6551
vn -0.8772 0.0438 0.4782
vn -0.7902 0.5665 -0.2338
vn 0.1326 0.2864 0.9489
vn -0.1187 0.9926 -0.0254
vn 0.4600 0.8737 -0.1582
vn -0.2182 0.2440 0.9449
vn -0.3754 0.8348 0.4029
vn -0.3001 0.9230 -0.2409
vn -0.0635 0.0750 0.9952
vn 0.1227 0.9891 0.0810
vn 0.1361 0.9899 -0.0394
vn 0.1293 0.1402 0.9816
vn 0.8184 0.0983 0.5661
vn -0.5078 0.5139 0.6915
vn 0.6767 0.2118 0.7052
vn -0.0511 0.9982 0.0307
vn -0.1233 -0.7165 -0.6866
vn 0.3862 0.4698 -0.7938
vn 0.4533 -0.6513 -0.6085
vn 0.2242 -0.0953 -0.9699
vn 0.9413 -0.2750 -0.1959
vn 0.5129 -0.4340 -0.7407
vn 0.3264 -0.8790 -0.3476
vn 0.1533 -0.3142 -0.9369
vn 0.5731 -0.7425 -0.3467
vn 0.7769 -0.2447 0.5801
vn 0.7479 -0.1317 -0.6507
vn 0.9933 -0.0996 0.0591
vn 0.6540 -0.6481 0.3902
vn 0.5382 -0.0113 0.8428
vn 0.7377 0.3235 0.5926
vn 0.6736 -0.2650 0.6899
vn 0.6768 -0.6164 0.4025
vn 0.8247 -0.5653 0.0178
vn 0.7720 -0.6282 0.0971
vn 0.3398 0.3981 -0.8521
vn 0.6905 0.5067 -0.5162
vn -0.2959 0.9478 -0.1186
vn -0.0343 0.2100 -0.9771
vn 0.6811 0.1162 -0.7229
vn 0.1521 0.0523 -0.9870
vn -0.1932 0.1039 -0.9756
vn 0.7343 0.1947 0.6503
vn -0.9520 -0.1598 -0.2609
vn 0.3908 0.6193 -0.6810
vn 0.6544 -0.0547 -0.7541
vn -0.8428 0.3378 -0.4191
vn 0.7176 -0.0411 -0.6952
vn 0.7559 0.3743 -0.5371
vn 0.7043 0.7058 -0.0758
vn 0.7978 -0.1434 -0.5856
vn 0.5203 0.4990 -0.6930
vn 0.6141 0.6982 0.3680
vn 0.8713 -0.3407 -0.3531
vn 0.5748 -0.0147 -0.8182
vn 0.0416 -0.1438 -0.9887
vn 0.8919 0.0420 -0.4503
vn 0.5260 -0.1062 -0.8438
vn 0.9060 -0.2855 -0.3124
vn 0.7964 -0.5272 0.2963
vn 0.9477 0.1640 0.2737
vn 0.5830 0.6026 0.5450
vn 0.8540 0.2564 0.4526
vn 0.9847 0.1740 -0.0065
vn 0.7622 0.1164 0.6368
vn -0.8146 0.0750 0.5752
vn 0.8576 -0.5134 0.0328
vn -0.0262 -0.8652 0.5007
vn 0.7995 -0.5967 0.0688
vn 0.6244 -0.7678 0.1435
vn 0.6561 -0.6560 0.3731
vn -0.0140 -0.0614 0.9980
vn -0.5773 -0.6175 -0.5343
vn -0.6367 0.0370 0.7702
vn -0.4430 0.1878 0.8766
vn 0.6013 -0.2971 0.7417
vn -0.4274 0.5536 0.7148
vn 0.1395 0.9579 -0.2511
vn 0.8625 0.4920 0.1189
vn 0.3665 0.9060 0.2117
vn 0.7570 0.1132 0.6436
vn 0.7055 0.7086 -0.0110
vn 0.4420 0.7766 -0.4488
vn -0.6785 0.7236 0.1268
vn -0.7265 0.3926 -0.5641
vn 0.3175 0.8212 -0.4741
vn -0.0010 0.9857 0.1682
vn -0.2060 0.9764 0.0643
vn 0.0097 0.9660 -0.2583
vn 0.7227 0.5816 0.3734
vn 0.0844 0.7368 0.6708
vn 0.7007 0.4432 -0.5590
vn 0.5974 0.6550 0.4627
vn 0.6267 0.7750 -0.0810
vn 0.2744 0.9263 0.2583
vn 0.8010 0.1321 0.5839
vn -0.1894 0.8940 -0.4060
vn 0.6465 0.6390 -0.4167
vn 0.6077 0.2055 -0.7671
vn 0.6041 -0.3856 -0.6974
vn 0.0614 0.9739 0.2184
vn 0.2652 0.8696 0.4166
vn 0.0301 0.7921 0.6097
vn 0.3552 0.9143 0.1948
vt 0.594362 0.453638
vt 0.578018 0.393973
vt 0.611764 0.393120
vt 0.555505 0.431177
vt 0.627487 0.435840
vt 0.639624 0.418887
vt 0.557396 0.456048
vt 0.591622 0.366636
vt 0.619229 0.373762
vt 0.611135 0.351350
vt 0.546508 0.364631
vt 0.563942 0.488696
vt 0.616896 0.890577
vt 0.674168 0.876763
vt 0.671260 0.878980
vt 0.586155 0.876305
vt 0.601126 0.858683
vt 0.654125 0.856275
vt 0.560912 0.353560
vt 0.575687 0.334919
vt 0.540472 0.344473
vt 0.586663 0.338231
vt 0.598778 0.338198
vt 0.615659 0.476683
vt 0.671500 0.252564
vt 0.655394 0.297031
vt 0.645508 0.243902
vt 0.615481 0.290175
vt 0.624487 0.337389
vt 0.609090 0.313258
vt 0.538033 0.474587
vt 0.547837 0.450504
vt 0.262585 0.191289
vt 0.292738 0.173684
vt 0.279567 0.211358
vt 0.405453 0.758289
vt 0.366970 0.736724
vt 0.396836 0.738552
vt 0.344924 0.710828
vt 0.318336 0.743353
vt 0.334459 0.757820
vt 0.289347 0.736428
vt 0.947077 0.480717
vt 0.946646 0.461599
vt 0.964813 0.498212
vt 0.975596 0.460731
vt 0.285317 0.227701
vt 0.274448 0.222795
vt 0.355691 0.215823
vt 0.371256 0.161312
vt 0.418189 0.172670
vt 0.418403 0.240117
vt 0.431540 0.210879
vt 0.865537 0.694596
vt 0.839308 0.674726
vt 0.862033 0.645087
vt 0.852450 0.611615
vt 0.867516 0.603080
vt 0.878027 0.637906
vt 0.854912 0.703101
vt 0.816739 0.705011
vt 0.805191 0.689647
vt 0.080823 0.560982
vt 0.100877 0.586477
vt 0.057535 0.622781
vt 0.035002 0.528457
vt 0.036845 0.563001
vt 0.029229 0.621812
vt 0.035298 0.581981
vt 0.988773 0.480102
vt 0.092358 0.620658
vt 0.054422 0.158553
vt 0.037761 0.149952
vt 0.083204 0.122912
vt 0.032850 0.165817
vt 0.031202 0.134508
vt 0.035799 0.094854
vt 0.115000 0.145187
vt 0.111104 0.134483
vt 0.658511 0.220896
vt 0.688982 0.220608
vt 0.703069 0.253954
vt 0.717735 0.254966
vt 0.710379 0.272033
vt 0.601564 0.499921
vt 0.630491 0.487326
vt 0.699467 0.387857
vt 0.715853 0.355043
vt 0.715072 0.312846
vt 0.582364 0.926170
vt 0.602476 0.974963
vt 0.552866 0.971070
vt 0.562437 0.940840
vt 0.616923 0.843258
vt 0.581259 0.839197
vt 0.621788 0.808823
vt 0.592438 0.802705
vt 0.666128 0.832209
vt 0.655315 0.799092
vt 0.699624 0.820067
vt 0.357194 0.512424
vt 0.352414 0.495512
vt 0.394721 0.432089
vt 0.388118 0.574177
vt 0.395973 0.503829
vt 0.417974 0.553522
vt 0.439669 0.510723
vt 0.429181 0.481843
vt 0.358264 0.451341
vt 0.812573 0.292909
vt 0.768284 0.310250
vt 0.801674 0.278956
vt 0.391247 0.392792
vt 0.368685 0.430249
vt 0.355293 0.395252
vt 0.751538 0.359443
vt 0.797339 0.370360
vt 0.674065 0.371957
vt 0.511946 0.973510
vt 0.518252 0.955204
vt 0.526179 0.973662
vt 0.528961 0.945935
vt 0.020631 0.767569
vt 0.015703 0.743090
vt 0.032673 0.729186
vt 0.087882 0.740637
vt 0.057610 0.800075
vt 0.019762 0.813894
vt 0.031208 0.837005
vt 0.081184 0.829010
vt 0.156427 0.768454
vt 0.120826 0.781836
vt 0.114044 0.774686
vt 0.148805 0.786168
vt 0.129779 0.730117
vt 0.137187 0.729763
vt 0.137050 0.739028
vt 0.153642 0.723638
vt 0.169603 0.729819
vt 0.193151 0.748975
vt 0.121105 0.754930
vt 0.182922 0.782325
vt 0.822882 0.864214
vt 0.880005 0.872883
vt 0.875136 0.899197
vt 0.813476 0.913783
vt 0.895089 0.888081
vt 0.529141 0.620928
vt 0.527594 0.621411
vt 0.501990 0.636143
vt 0.482402 0.587658
vt 0.497085 0.602183
vt 0.462528 0.629718
vt 0.429120 0.599288
vt 0.449858 0.596000
vt 0.407548 0.641789
vt 0.527892 0.510333
vt 0.511682 0.526139
vt 0.456930 0.476126
vt 0.484062 0.557322
vt 0.464203 0.531633
vt 0.510326 0.567842
vt 0.815720 0.352058
vt 0.801128 0.398933
vt 0.391586 0.646741
vt 0.385498 0.642665
vt 0.396089 0.638378
vt 0.521949 0.459873
vt 0.504944 0.454677
vt 0.969712 0.624542
vt 0.905232 0.608350
vt 0.964617 0.587643
vt 0.969307 0.546898
vt 0.976059 0.560528
vt 0.896679 0.571977
vt 0.975736 0.569307
vt 0.755851 0.253086
vt 0.725163 0.227590
vt 0.721447 0.210202
vt 0.905627 0.905219
vt 0.828480 0.934485
vt 0.447621 0.425585
vt 0.482901 0.425471
vt 0.449935 0.391907
vt 0.490299 0.380198
vt 0.530296 0.401983
vt 0.532259 0.419526
vt 0.166550 0.669292
vt 0.168632 0.691351
vt 0.162084 0.689581
vt 0.521097 0.380372
vt 0.478176 0.296637
vt 0.478378 0.334981
vt 0.436806 0.337788
vt 0.507155 0.251706
vt 0.516119 0.254557
vt 0.518620 0.303021
vt 0.528057 0.752770
vt 0.520525 0.777418
vt 0.480005 0.749007
vt 0.465050 0.812721
vt 0.490447 0.811765
vt 0.939657 0.988801
vt 0.976930 0.955772
vt 0.977702 0.970698
vt 0.975323 0.996712
vt 0.495895 0.847257
vt 0.449437 0.838134
vt 0.449067 0.824144
vt 0.565417 0.779274
vt 0.556287 0.844374
vt 0.177534 0.048827
vt 0.161029 0.041526
vt 0.172755 0.021836
vt 0.174917 0.066916
vt 0.993072 0.980229
vt 0.177104 0.913284
vt 0.168252 0.865515
vt 0.186073 0.885907
vt 0.133495 0.860542
vt 0.116440 0.906308
vt 0.175661 0.844135
vt 0.095482 0.883940
vt 0.257943 0.264567
vt 0.281893 0.268545
vt 0.240036 0.324155
vt 0.291294 0.327774
vt 0.268371 0.368903
vt 0.216190 0.342987
vt 0.949518 0.661428
vt 0.945430 0.681565
vt 0.935016 0.646594
vt 0.318619 0.538625
vt 0.285561 0.545893
vt 0.303224 0.520003
vt 0.323261 0.473839
vt 0.307864 0.454301
vt 0.235759 0.515221
vt 0.264343 0.547482
vt 0.247231 0.563443
vt 0.097808 0.912048
vt 0.450202 0.665445
vt 0.440467 0.721393
vt 0.406843 0.710496
vt 0.465401 0.667407
vt 0.479525 0.687974
vt 0.460926 0.718603
vt 0.490352 0.716914
vt 0.428635 0.653699
vt 0.384785 0.684982
vt 0.796184 0.762237
vt 0.813451 0.744782
vt 0.804284 0.780601
vt 0.833329 0.753433
vt 0.841573 0.805824
vt 0.827582 0.836411
vt 0.799235 0.814894
vt 0.472588 0.727967
vt 0.468055 0.734114
vt 0.867085 0.968147
vt 0.832430 0.968996
vt 0.830794 0.953968
vt 0.872115 0.950597
vt 0.880249 0.973612
vt 0.367820 0.695157
vt 0.360396 0.691864
vt 0.283463 0.594681
vt 0.266139 0.579192
vt 0.333630 0.597669
vt 0.304392 0.610306
vt 0.348287 0.587738
vt 0.346133 0.552731
vt 0.148980 0.061271
vt 0.796781 0.643704
vt 0.797983 0.668442
vt 0.665362 0.437711
vt 0.714323 0.404654
vt 0.679581 0.459869
vt 0.667080 0.420921
vt 0.697846 0.431066
vt 0.760838 0.458302
vt 0.729462 0.457128
vt 0.769578 0.410463
vt 0.698633 0.493418
vt 0.137914 0.836434
vt 0.786805 0.414986
vt 0.792696 0.428199
vt 0.782706 0.457153
vt 0.785121 0.498510
vt 0.709699 0.527469
vt 0.764578 0.519963
vt 0.786236 0.539586
vt 0.823372 0.598341
vt 0.738452 0.400920
vt 0.810578 0.840482
vt 0.932322 0.269340
vt 0.950612 0.266864
vt 0.932802 0.329395
vt 0.963384 0.263143
vt 0.975087 0.278680
vt 0.834749 0.757785
vt 0.855725 0.777909
vt 0.964664 0.309738
vt 0.207925 0.585914
vt 0.203539 0.528097
vt 0.224714 0.567087
vt 0.822173 0.738158
vt 0.286702 0.018290
vt 0.334759 0.043588
vt 0.330516 0.059056
vt 0.127818 0.961529
vt 0.141922 0.996119
vt 0.129542 0.992006
vt 0.111179 0.951750
vt 0.110247 0.989076
vt 0.147906 0.975038
vt 0.151689 0.937931
vt 0.123807 0.937120
vt 0.266711 0.068553
vt 0.274119 0.037425
vt 0.298875 0.080320
vt 0.252032 0.058795
vt 0.251148 0.058009
vt 0.237238 0.063382
vt 0.224164 0.058194
vt 0.213427 0.037886
vt 0.264029 0.014152
vt 0.229103 0.019528
vt 0.349453 0.023422
vt 0.371901 0.014683
vt 0.373741 0.051614
vt 0.047034 0.949122
vt 0.032391 0.938208
vt 0.060139 0.908099
vt 0.037425 0.906916
vt 0.014051 0.920923
vt 0.773815 0.833367
vt 0.402898 0.668318
vt 0.400077 0.019724
vt 0.398825 0.031367
vt 0.043503 0.072406
vt 0.087809 0.081408
vt 0.114072 0.099006
vt 0.123234 0.072182
vt 0.109503 0.070794
vt 0.123746 0.042188
vt 0.078077 0.031663
vt 0.070012 0.014200
vt 0.085439 0.016636
vt 0.091198 0.051959
vt 0.177652 0.436040
vt 0.150294 0.467847
vt 0.158909 0.402592
vt 0.121075 0.431134
vt 0.107391 0.430562
vt 0.100858 0.450129
vt 0.100963 0.491845
vt 0.097835 0.475699
vt 0.055532 0.044180
vt 0.770743 0.220666
vt 0.713596 0.167906
vt 0.750312 0.156154
vt 0.729811 0.142577
vt 0.499802 0.166535
vt 0.523062 0.159790
vt 0.508832 0.191282
vt 0.528272 0.234273
vt 0.545398 0.208501
vt 0.565947 0.233279
vt 0.502525 0.224407
vt 0.924963 0.537046
vt 0.938274 0.493378
vt 0.944941 0.524781
vt 0.917915 0.554908
vt 0.889344 0.542341
vt 0.904403 0.508449
vt 0.929856 0.478958
vt 0.584784 0.177711
vt 0.593051 0.249064
vt 0.212249 0.944371
vt 0.229065 0.959174
vt 0.201380 0.944399
vt 0.198062 0.989983
vt 0.180079 0.944071
vt 0.173568 0.980299
vt 0.364475 0.323718
vt 0.365583 0.346170
vt 0.374727 0.270692
vt 0.342081 0.274409
vt 0.348526 0.250134
vt 0.333723 0.307255
vt 0.186419 0.490588
vt 0.541732 0.274544
vt 0.561112 0.178833
vt 0.593380 0.165148
vt 0.827603 0.130348
vt 0.847379 0.078784
vt 0.860557 0.108005
vt 0.813648 0.086399
vt 0.796011 0.128645
vt 0.819210 0.061044
vt 0.536788 0.160075
vt 0.865864 0.147987
vt 0.857801 0.186431
vt 0.819507 0.172825
vt 0.585251 0.273609
vt 0.567112 0.316380
vt 0.558295 0.317868
vt 0.554780 0.144935
vt 0.755111 0.076846
vt 0.753467 0.127043
vt 0.740564 0.108170
vt 0.770449 0.203534
vt 0.427125 0.362531
vt 0.985617 0.367050
vt 0.962261 0.337195
vt 0.984180 0.350941
vt 0.404810 0.377909
vt 0.357079 0.244704
vt 0.758983 0.041297
vt 0.789413 0.067066
vt 0.740916 0.038528
vt 0.725076 0.033660
vt 0.078856 0.192696
vt 0.106669 0.197303
vt 0.091135 0.208742
vt 0.074490 0.226778
vt 0.027568 0.218894
vt 0.960620 0.392379
vt 0.938519 0.379846
vt 0.958958 0.373518
vt 0.949461 0.435370
vt 0.975274 0.404156
vt 0.933468 0.425487
vt 0.445039 0.271275
vt 0.455073 0.253182
vt 0.233705 0.595122
vt 0.242028 0.603820
vt 0.223240 0.640585
vt 0.269695 0.626582
vt 0.230188 0.687201
vt 0.284675 0.695294
vt 0.315407 0.672420
vt 0.903836 0.192949
vt 0.911538 0.145417
vt 0.937128 0.210808
vt 0.940158 0.139013
vt 0.959201 0.151376
vt 0.879473 0.128063
vt 0.883245 0.120391
vt 0.791429 0.931859
vt 0.776981 0.959967
vt 0.728366 0.937232
vt 0.735668 0.964993
vt 0.750946 0.982997
vt 0.490832 0.907520
vt 0.500957 0.947235
vt 0.468522 0.940418
vt 0.445998 0.959497
vt 0.411729 0.947785
vt 0.437862 0.916697
vt 0.881724 0.224273
vt 0.875344 0.258514
vt 0.854202 0.234229
vt 0.908999 0.239998
vt 0.375869 0.925622
vt 0.365197 0.946903
vt 0.316266 0.928888
vt 0.345402 0.954230
vt 0.286349 0.951203
vt 0.822469 0.271652
vt 0.814226 0.248371
vt 0.900976 0.280549
vt 0.849033 0.302884
vt 0.869929 0.309815
vt 0.845224 0.213699
vt 0.306153 0.985531
vt 0.426862 0.969551
vt 0.192331 0.461067
vt 0.152181 0.528351
vt 0.145624 0.576945
vt 0.111304 0.560724
vt 0.769996 0.142907
vt 0.785287 0.127764
vt 0.935559 0.843341
vt 0.891072 0.842711
vt 0.892054 0.821252
vt 0.946743 0.810577
vt 0.907209 0.801095
vt 0.864063 0.826221
vt 0.867798 0.823241
vt 0.905502 0.300987
vt 0.984594 0.848003
vt 0.967419 0.860054
vt 0.965267 0.846984
vt 0.012699 0.217979
vt 0.011291 0.212648
vt 0.032668 0.287972
vt 0.015618 0.284420
vt 0.424665 0.841650
vt 0.429271 0.860609
vt 0.402582 0.861492
vt 0.381407 0.874404
vt 0.408022 0.878537
vt 0.355448 0.895818
vt 0.354431 0.870647
vt 0.344539 0.866231
vt 0.026717 0.189451
vt 0.116978 0.581987
vt 0.312826 0.691813
vt 0.335033 0.684708
vt 0.081945 0.955096
vt 0.086438 0.987687
vt 0.105421 0.937520
vt 0.081026 0.941529
vt 0.117431 0.235811
vt 0.143194 0.199604
vt 0.153293 0.243746
vt 0.218956 0.210692
vt 0.193968 0.270054
vt 0.444514 0.854072
vt 0.439384 0.877201
vt 0.435874 0.870406
vt 0.047441 0.287594
vt 0.102690 0.300329
vt 0.167993 0.315646
vt 0.645130 0.962396
vt 0.638389 0.980632
vt 0.626781 0.967776
vt 0.856234 0.054542
vt 0.855755 0.029114
vt 0.879804 0.043402
vt 0.143453 0.644290
vt 0.128341 0.684980
vt 0.104799 0.692604
vt 0.900424 0.036328
vt 0.907313 0.046437
vt 0.897442 0.090587
vt 0.913590 0.063733
vt 0.918012 0.078106
vt 0.423053 0.430771
vt 0.506554 0.018090
vt 0.541689 0.040201
vt 0.504727 0.046409
vt 0.410585 0.061421
vt 0.446713 0.016487
vt 0.454254 0.033854
vt 0.474762 0.070583
vt 0.471905 0.096570
vt 0.464487 0.132278
vt 0.522861 0.074190
vt 0.543971 0.114260
vt 0.501556 0.150644
vt 0.256703 0.093624
vt 0.273029 0.103269
vt 0.268627 0.122689
vt 0.233980 0.109600
vt 0.243176 0.085319
vt 0.195279 0.149757
vt 0.160329 0.136415
vt 0.234370 0.164271
vt 0.197884 0.639777
vt 0.174481 0.623450
vt 0.100861 0.641102
vt 0.695431 0.542033
vt 0.675633 0.588311
vt 0.677163 0.519036
vt 0.635955 0.550677
vt 0.638362 0.509016
vt 0.657885 0.604056
vt 0.577343 0.612688
vt 0.594284 0.575449
vt 0.925150 0.893277
vt 0.949998 0.924174
vt 0.936454 0.942121
vt 0.664968 0.488165
vt 0.678939 0.502138
vt 0.702496 0.103162
vt 0.673112 0.114826
vt 0.695730 0.060631
vt 0.649187 0.116610
vt 0.952836 0.889996
vt 0.930127 0.864621
vt 0.676118 0.037679
vt 0.630562 0.035614
vt 0.600296 0.017677
vt 0.592634 0.044868
vt 0.607807 0.098334
vt 0.754747 0.895882
vt 0.785105 0.887481
vt 0.787267 0.903938
vt 0.737604 0.831949
vt 0.712302 0.871375
vt 0.029770 0.047174
vt 0.004663 0.010960
vt 0.045080 0.019922
vt 0.020156 0.009409
vt 0.011832 0.053017
vt 0.563084 0.548814
vt 0.554036 0.540042
vt 0.558452 0.532238
vt 0.677951 0.146494
vt 0.638065 0.168008
vt 0.612046 0.146739
vt 0.661112 0.183940
vt 0.678169 0.193132
vt 0.220087 0.789735
vt 0.258108 0.801282
vt 0.206330 0.823055
vt 0.279773 0.855169
vt 0.278660 0.825727
vt 0.303476 0.842617
vt 0.268595 0.775286
vt 0.268000 0.765411
vt 0.525724 0.715614
vt 0.551553 0.727986
vt 0.530805 0.724934
vt 0.706053 0.125024
vt 0.203681 0.863090
vt 0.587347 0.716941
vt 0.570320 0.736526
vt 0.526586 0.690913
vt 0.573156 0.658975
vt 0.540350 0.657083
vt 0.575015 0.516573
vt 0.560191 0.087088
vt 0.545362 0.056835
vt 0.556084 0.109439
vt 0.196146 0.173048
vt 0.215771 0.186528
vt 0.164299 0.168770
vt 0.133622 0.145405
vt 0.194468 0.808288
vt 0.193581 0.793703
vt 0.185937 0.091412
vt 0.607221 0.732233
vt 0.634699 0.716581
vt 0.749762 0.602149
vt 0.751446 0.562335
vt 0.773148 0.572869
vt 0.691422 0.615579
vt 0.742979 0.632633
vt 0.703459 0.647157
vt 0.854912 0.370224
vt 0.845715 0.341774
vt 0.879727 0.348412
vt 0.832346 0.390869
vt 0.865337 0.403932
vt 0.911476 0.433761
vt 0.907099 0.429729
vt 0.909759 0.419957
vt 0.913867 0.434159
vt 0.914102 0.367869
vt 0.970740 0.722888
vt 0.940755 0.740791
vt 0.928403 0.724977
vt 0.979387 0.745358
vt 0.953365 0.764386
vt 0.984476 0.761814
vt 0.975406 0.799922
vt 0.927390 0.772561
vt 0.013295 0.888691
vt 0.897702 0.423079
vt 0.921019 0.400587
vt 0.981489 0.238856
vt 0.969889 0.243733
vt 0.950424 0.229922
vt 0.943354 0.235020
vt 0.657395 0.739886
vt 0.656918 0.719012
vt 0.669496 0.709668
vt 0.694879 0.730151
vt 0.658861 0.765149
vt 0.693159 0.694982
vt 0.907133 0.709799
vt 0.911319 0.717269
vt 0.882612 0.736829
vt 0.896855 0.764814
vt 0.873207 0.719300
vt 0.870023 0.720569
vt 0.889466 0.776867
vt 0.879600 0.768489
vt 0.050804 0.363319
vt 0.066531 0.432879
vt 0.054473 0.414840
vt 0.097033 0.365082
vt 0.097646 0.415626
vt 0.659645 0.690915
vt 0.662662 0.682455
vt 0.663532 0.771765
vt 0.849950 0.717955
vt 0.840291 0.719456
vt 0.839434 0.715029
vt 0.859409 0.734204
vt 0.020008 0.469590
vt 0.022161 0.440269
vt 0.037123 0.458490
vt 0.054522 0.494131
vt 0.666086 0.775541
vt 0.091640 0.337331
vt 0.032700 0.416033
vt 0.045457 0.433634
vt 0.042580 0.416562
vt 0.215771 0.089616
vt 0.895591 0.690655
vt 0.909159 0.672236
vt 0.905128 0.705146
vt 0.030969 0.354165
vt 0.080265 0.313644
vt 0.656085 0.655948
vt 0.514746 0.911109
vt 0.522720 0.878919
vt 0.560465 0.909233
vt 0.470890 0.861587
vt 0.504473 0.882794
vt 0.483929 0.878483
vt 0.473064 0.858928
vt 0.548780 0.870875
vt 0.716595 0.572332
vt 0.778459 0.608937
vt 0.219124 0.901870
vt 0.241680 0.888005
vt 0.241412 0.927301
vt 0.266078 0.896956
vt 0.290203 0.911538
vt 0.272707 0.929367
vt 0.214555 0.880998
vt 0.209113 0.879376
vt 0.834400 0.517542
vt 0.831771 0.545331
vt 0.812963 0.525636
vt 0.860617 0.540473
vt 0.847702 0.552287
vt 0.867505 0.538136
vt 0.880751 0.524757
vt 0.858135 0.498787
vt 0.814079 0.489277
vt 0.849069 0.459866
vt 0.865529 0.442204
vt 0.880374 0.458740
vt 0.524658 0.669628
vt 0.612752 0.672578
vt 0.632254 0.671288
vt 0.623800 0.656952
vt 0.963017 0.935781
vt 0.979772 0.926058
vt 0.969908 0.942375
vt 0.993152 0.926256
vt 0.989519 0.934230
vt 0.537723 0.632531
vt 0.553917 0.630754
vt 0.554094 0.644291
vt 0.588403 0.642843
vt 0.604776 0.642988
vt 0.891686 0.492556
vt 0.893572 0.479927
vt 0.893787 0.470133
vt 0.188082 0.665486
vt 0.187751 0.704413
vt 0.794452 0.607291
vt 0.810732 0.007996
vt 0.832808 0.021997
vt 0.803826 0.025729
vt 0.823732 0.451364
vt 0.800727 0.467561
vt 0.799406 0.457272
vt 0.847951 0.434963
vt 0.968042 0.898491
vt 0.973199 0.885039
vt 0.981243 0.893861
vt 0.064723 0.664824
vt 0.075967 0.685723
vt 0.050317 0.679746
vt 0.042914 0.706676
vt 0.036760 0.705480
vt 0.203737 0.900796
vt 0.203895 0.895563
vt 0.070254 0.478573
vt 0.072181 0.503713
vt 0.055389 0.512034
vt 0.215173 0.923800
vt 0.842525 0.434463
vt 0.052632 0.458193
vt 0.075028 0.470488
vt 0.079572 0.476743
vt 0.179743 0.349839
vt 0.142143 0.347335
vt 0.856543 0.427001
vt 0.316736 0.786654
vt 0.321420 0.774539
vt 0.326655 0.773431
vt 0.295863 0.772424
vt 0.299793 0.771826
vt 0.318377 0.818421
vt 0.347494 0.812512
vt 0.351472 0.773192
vt 0.395204 0.820283
vt 0.364928 0.834458
vt 0.758605 0.658838
vt 0.770769 0.621933
vt 0.720754 0.664761
vt 0.749197 0.695342
vt 0.777394 0.683893
vt 0.015621 0.424488
vt 0.025309 0.395327
vt 0.535945 0.859238
vt 0.119644 0.307315
vt 0.105923 0.333380
vt 0.219068 0.707471
vt 0.635395 0.642535
vt 0.631547 0.654001
vt 0.788647 0.624829
s 1
f 5/1/1 9/2/2 6/3/3
f 9/2/2 5/1/1 12/4/4
f 6/3/3 7/5/5 5/1/1
f 17/6/6 7/5/5 6/3/3
f 12/4/4 5/1/1 19/7/7
f 30/8/8 20/9/9 6/3/3
f 30/8/8 6/3/3 9/2/2
f 18/10/10 20/9/9 30/8/8
f 9/2/2 12/4/4 29/11/11
f 19/7/7 5/1/1 16/12/12
f 10/13/13 15/14/14 11/15/15
f 10/13/13 39/16/16 23/17/17
f 23/17/17 18/18/10 10/13/13
f 30/8/8 9/2/2 29/11/11
f 49/19/18 30/8/8 29/11/11
f 30/8/8 49/19/18 15/20/14
f 49/19/18 29/11/11 15/20/14
f 11/21/15 15/20/14 29/11/11
f 30/8/8 15/22/14 18/10/10
f 18/10/10 15/22/14 10/23/13
f 7/5/5 25/24/19 5/1/1
f 76/25/20 89/26/21 12/27/4
f 12/27/4 89/26/21 29/28/11
f 22/29/22 11/30/15 89/26/21
f 89/26/21 11/30/15 29/28/11
f 81/31/23 12/32/4 19/7/7
f 81/31/23 19/7/7 16/12/12
f 5/1/1 25/24/19 16/12/12
f 18/33/10 27/34/24 20/35/9
f 18/36/10 23/37/17 27/38/24
f 53/39/25 23/37/17 51/40/26
f 51/40/26 23/37/17 39/41/16
f 51/40/26 72/42/27 53/39/25
f 25/43/19 7/44/5 37/45/28
f 17/46/6 37/45/28 7/44/5
f 17/47/6 6/48/3 20/35/9
f 38/49/29 20/35/9 27/34/24
f 47/50/30 24/51/31 38/49/29
f 58/52/32 38/49/29 24/51/31
f 4/53/33 58/52/32 24/51/31
f 24/54/31 26/55/34 21/56/35
f 46/57/36 91/58/37 36/59/38
f 47/60/30 26/55/34 24/54/31
f 26/55/34 47/61/30 27/62/24
f 78/63/39 67/64/40 17/65/6
f 58/66/32 78/63/39 38/67/29
f 38/67/29 78/63/39 17/65/6
f 20/68/9 38/69/29 17/65/6
f 37/45/28 17/46/6 65/70/41
f 67/64/40 65/71/41 17/65/6
f 24/72/31 13/73/42 4/74/33
f 13/73/42 24/72/31 21/75/35
f 13/73/42 3/76/43 2/77/44
f 58/78/32 4/74/33 33/79/45
f 76/25/20 81/80/23 16/81/12
f 12/27/4 81/80/23 76/25/20
f 16/81/12 114/82/46 76/25/20
f 135/83/47 139/84/48 114/82/46
f 76/25/20 114/82/46 139/84/48
f 86/85/49 25/24/19 37/86/28
f 184/87/50 89/26/21 226/88/51
f 164/89/52 89/26/21 76/25/20
f 86/85/49 16/12/12 25/24/19
f 113/90/53 16/91/12 86/92/49
f 113/90/53 86/92/49 104/93/54
f 114/94/46 16/95/12 125/96/55
f 125/96/55 16/95/12 113/97/53
f 135/98/47 114/94/46 125/96/55
f 151/99/56 135/98/47 125/96/55
f 151/99/56 139/100/48 135/98/47
f 76/101/20 139/102/48 152/103/57
f 89/104/21 164/105/52 226/106/51
f 164/105/52 205/107/58 226/106/51
f 190/108/59 164/105/52 152/103/57
f 139/102/48 151/109/56 152/103/57
f 113/110/53 151/111/56 125/112/55
f 164/105/52 76/101/20 152/103/57
f 200/113/60 151/114/56 189/115/61
f 151/114/56 200/113/60 152/103/57
f 189/116/61 151/111/56 185/117/62
f 129/118/63 89/26/21 184/87/50
f 37/119/28 65/120/41 86/121/49
f 86/121/49 65/120/41 74/122/64
f 86/123/49 74/124/64 99/125/65
f 86/123/49 99/125/65 84/126/66
f 86/123/49 84/126/66 92/127/67
f 92/127/67 104/128/54 86/123/49
f 145/129/68 104/128/54 92/127/67
f 119/130/69 145/129/68 92/127/67
f 110/131/70 92/132/67 84/133/66
f 119/134/69 92/132/67 110/131/70
f 101/135/71 130/136/72 109/137/73
f 109/137/73 130/138/72 146/139/74
f 146/139/74 166/140/75 110/131/70
f 110/131/70 109/137/73 146/139/74
f 110/131/70 84/141/66 109/137/73
f 166/140/75 169/142/76 110/131/70
f 104/143/54 67/144/40 120/145/77
f 113/146/53 104/143/54 120/145/77
f 120/145/77 67/144/40 78/147/39
f 99/148/65 67/149/40 104/150/54
f 120/151/77 99/152/65 145/153/68
f 145/153/68 99/152/65 104/150/54
f 145/153/68 151/154/56 113/155/53
f 151/154/56 145/153/68 169/156/76
f 193/157/78 169/158/76 166/159/75
f 119/160/69 110/161/70 169/158/76
f 145/162/68 119/160/69 169/158/76
f 185/117/62 151/111/56 169/163/76
f 189/116/61 185/117/62 193/164/78
f 193/165/78 185/166/62 169/167/76
f 166/159/75 198/168/79 193/157/78
f 198/168/79 166/159/75 176/169/80
f 27/34/24 47/50/30 38/49/29
f 78/170/39 58/171/32 99/172/65
f 99/172/65 74/173/64 65/174/41
f 84/175/66 99/172/65 58/171/32
f 67/176/40 99/172/65 65/174/41
f 84/177/66 58/178/32 33/179/45
f 120/145/77 78/147/39 99/180/65
f 113/146/53 120/145/77 145/181/68
f 146/182/74 176/169/80 166/159/75
f 176/169/80 146/182/74 157/183/81
f 157/183/81 130/184/72 161/185/82
f 146/182/74 130/184/72 157/183/81
f 157/183/81 161/185/82 176/169/80
f 161/185/82 180/186/83 176/169/80
f 176/169/80 180/186/83 198/187/79
f 178/188/84 161/189/82 173/190/85
f 173/190/85 161/189/82 130/138/72
f 161/185/82 178/191/84 180/186/83
f 168/192/86 178/193/84 173/194/85
f 222/195/87 239/196/88 168/192/86
f 178/193/84 168/192/86 203/197/89
f 11/198/15 22/199/22 10/200/13
f 34/201/90 10/200/13 48/202/91
f 10/203/13 34/204/90 40/205/92
f 10/203/13 40/205/92 28/206/93
f 22/199/22 48/202/91 10/200/13
f 22/199/22 63/207/94 48/202/91
f 56/208/95 43/209/96 34/201/90
f 48/202/91 63/207/94 34/201/90
f 89/210/21 129/211/63 22/199/22
f 28/212/93 39/213/16 10/214/13
f 39/213/16 28/212/93 43/215/96
f 36/59/38 21/56/35 46/57/36
f 28/206/93 40/205/92 43/216/96
f 43/216/96 40/205/92 34/204/90
f 63/217/94 56/218/95 34/219/90
f 57/220/97 56/218/95 54/221/98
f 54/221/98 56/218/95 63/217/94
f 43/222/96 56/218/95 57/220/97
f 54/221/98 61/223/99 57/220/97
f 62/224/100 54/225/98 93/226/101
f 93/226/101 63/227/94 22/228/22
f 93/226/101 22/228/22 129/229/63
f 141/230/102 93/231/101 129/232/63
f 230/233/103 213/234/104 195/235/105
f 230/233/103 195/235/105 224/236/106
f 184/237/50 195/235/105 129/238/63
f 186/239/107 129/238/63 195/235/105
f 163/240/108 129/238/63 186/239/107
f 61/223/99 54/221/98 62/241/100
f 63/227/94 93/226/101 54/225/98
f 61/242/99 126/243/109 128/244/110
f 61/245/99 62/246/100 126/243/109
f 123/247/111 62/246/100 93/248/101
f 62/246/100 123/247/111 126/243/109
f 97/249/112 61/242/99 144/250/113
f 144/250/113 61/242/99 128/244/110
f 144/251/113 153/252/114 117/253/115
f 153/252/114 150/254/116 117/253/115
f 96/255/117 66/256/118 97/257/112
f 123/247/111 93/258/101 141/259/102
f 123/260/111 141/261/102 129/262/63
f 123/260/111 129/262/63 163/263/108
f 163/263/108 126/264/109 123/260/111
f 172/265/119 153/266/114 144/250/113
f 186/239/107 128/267/110 126/268/109
f 128/267/110 186/239/107 213/234/104
f 172/269/119 144/270/113 128/267/110
f 188/271/120 172/269/119 128/267/110
f 188/271/120 128/267/110 214/272/121
f 126/268/109 163/240/108 186/239/107
f 39/213/16 43/215/96 51/273/26
f 53/274/25 26/55/34 23/275/17
f 53/274/25 46/57/36 21/56/35
f 26/55/34 53/274/25 21/56/35
f 27/62/24 23/275/17 26/55/34
f 103/276/122 46/277/36 90/278/123
f 103/276/122 91/279/37 46/277/36
f 46/277/36 41/280/124 90/278/123
f 41/280/124 70/281/125 42/282/126
f 70/281/125 41/280/124 72/283/27
f 42/282/126 90/278/123 41/280/124
f 90/278/123 42/282/126 75/284/127
f 66/285/118 43/222/96 57/220/97
f 51/286/26 43/287/96 66/288/118
f 51/286/26 66/288/118 72/283/27
f 66/288/118 70/281/125 72/283/27
f 75/284/127 70/281/125 96/289/117
f 131/290/128 75/284/127 127/291/129
f 131/290/128 127/291/129 150/292/116
f 72/293/27 46/57/36 53/274/25
f 72/283/27 41/280/124 46/294/36
f 57/295/97 97/257/112 66/256/118
f 91/296/37 103/297/122 142/298/130
f 103/297/122 137/299/131 162/300/132
f 117/253/115 150/254/116 96/255/117
f 96/255/117 150/301/116 127/302/129
f 103/297/122 155/303/133 142/298/130
f 155/303/133 103/297/122 162/300/132
f 134/304/134 91/305/37 142/306/130
f 150/254/116 153/252/114 172/307/119
f 191/308/135 177/309/136 150/310/116
f 181/311/137 142/312/130 155/313/133
f 194/314/138 181/311/137 162/315/132
f 134/316/134 142/312/130 181/311/137
f 116/317/139 134/316/134 181/311/137
f 202/318/140 181/311/137 194/314/138
f 188/319/120 183/320/141 172/321/119
f 183/320/141 188/319/120 211/322/142
f 211/323/142 188/324/120 214/325/121
f 172/321/119 183/320/141 150/310/116
f 150/310/116 183/320/141 191/308/135
f 237/326/143 211/322/142 214/325/121
f 217/327/144 183/320/141 229/328/145
f 150/329/116 177/330/136 131/331/128
f 191/332/135 217/333/144 177/334/136
f 217/333/144 228/335/146 177/334/136
f 250/336/147 228/335/146 217/333/144
f 181/311/137 155/313/133 162/315/132
f 61/337/99 97/257/112 57/295/97
f 66/288/118 96/289/117 70/281/125
f 70/281/125 75/284/127 42/282/126
f 127/291/129 75/284/127 96/289/117
f 97/257/112 117/253/115 96/255/117
f 144/250/113 117/338/115 97/249/112
f 177/330/136 219/339/148 232/340/149
f 177/330/136 232/340/149 131/331/128
f 2/77/44 1/341/150 4/74/33
f 4/74/33 14/342/151 33/79/45
f 33/79/45 14/342/151 50/343/152
f 55/344/153 31/345/154 35/346/155
f 55/344/153 50/343/152 14/342/151
f 14/342/151 31/345/154 55/344/153
f 3/347/43 1/348/150 2/349/44
f 1/341/150 8/350/156 14/342/151
f 14/342/151 4/74/33 1/341/150
f 8/350/156 35/346/155 14/342/151
f 14/342/151 35/346/155 31/345/154
f 13/351/42 32/352/157 3/353/43
f 8/354/156 3/353/43 32/352/157
f 35/355/155 8/354/156 68/356/158
f 64/357/159 68/356/158 32/352/157
f 64/357/159 59/358/160 68/356/158
f 8/350/156 1/341/150 3/359/43
f 4/74/33 13/73/42 2/77/44
f 109/360/73 84/177/66 33/179/45
f 50/361/152 109/360/73 33/179/45
f 136/362/161 109/360/73 106/363/162
f 109/360/73 50/361/152 106/363/162
f 121/364/163 94/365/164 83/366/165
f 55/367/153 77/368/166 85/369/167
f 83/366/165 55/367/153 35/370/155
f 77/368/166 55/367/153 83/366/165
f 112/371/168 79/372/169 87/373/170
f 112/371/168 87/373/170 132/374/171
f 140/375/172 118/376/173 132/374/171
f 101/377/71 79/372/169 118/376/173
f 79/372/169 112/371/168 118/376/173
f 85/369/167 79/378/169 101/379/71
f 82/380/174 94/381/164 98/382/175
f 140/383/172 87/384/170 94/381/164
f 118/376/173 112/371/168 132/374/171
f 87/384/170 140/383/172 132/385/171
f 160/386/176 173/194/85 118/387/173
f 173/194/85 160/386/176 158/388/177
f 149/389/178 94/390/164 158/388/177
f 94/390/164 149/389/178 140/391/172
f 118/387/173 140/391/172 160/386/176
f 13/351/42 36/392/38 32/352/157
f 68/356/158 8/354/156 32/352/157
f 50/393/152 85/369/167 101/379/71
f 85/369/167 77/368/166 79/378/169
f 79/378/169 71/394/179 87/395/170
f 94/365/164 77/368/166 83/366/165
f 59/396/160 44/397/180 60/398/181
f 45/399/182 59/396/160 64/400/159
f 59/396/160 45/399/182 44/397/180
f 44/397/180 45/399/182 52/401/183
f 71/394/179 77/368/166 82/402/174
f 77/368/166 94/365/164 82/402/174
f 83/403/165 35/404/155 68/405/158
f 83/403/165 68/405/158 59/396/160
f 59/396/160 60/398/181 83/403/165
f 77/368/166 71/394/179 79/378/169
f 50/393/152 55/367/153 85/369/167
f 122/406/184 50/393/152 101/379/71
f 50/393/152 122/406/184 136/407/161
f 50/393/152 136/407/161 106/408/162
f 98/409/175 71/394/179 82/402/174
f 87/395/170 71/394/179 98/409/175
f 98/382/175 94/381/164 87/384/170
f 121/410/163 83/411/165 60/412/181
f 136/362/161 101/413/71 109/360/73
f 130/414/72 118/387/173 173/194/85
f 101/415/71 136/416/161 122/417/184
f 101/418/71 118/387/173 130/414/72
f 121/419/163 158/388/177 94/390/164
f 147/420/185 133/421/186 121/410/163
f 171/422/187 147/420/185 121/410/163
f 138/423/188 171/422/187 121/410/163
f 148/424/189 138/425/188 107/426/190
f 107/427/190 124/428/191 148/424/189
f 133/429/186 158/430/177 121/431/163
f 154/432/192 133/429/186 147/433/185
f 156/434/193 133/429/186 154/432/192
f 156/435/193 168/192/86 173/194/85
f 154/436/192 168/192/86 156/435/193
f 158/388/177 156/435/193 173/194/85
f 133/429/186 156/434/193 158/430/177
f 171/437/187 138/438/188 159/439/194
f 138/438/188 148/440/189 159/439/194
f 175/441/195 159/439/194 148/440/189
f 174/442/196 175/441/195 143/443/197
f 148/440/189 143/443/197 175/441/195
f 160/386/176 149/389/178 158/388/177
f 149/389/178 160/386/176 140/391/172
f 147/444/185 209/445/198 154/446/192
f 154/446/192 222/447/87 168/448/86
f 222/447/87 154/446/192 209/445/198
f 209/445/198 208/449/199 221/450/200
f 147/451/185 171/452/187 182/453/201
f 171/452/187 170/454/202 182/453/201
f 159/455/194 170/454/202 171/452/187
f 209/456/198 147/457/185 199/458/203
f 199/458/203 147/457/185 182/459/201
f 159/460/194 208/461/199 182/459/201
f 208/461/199 209/456/198 199/458/203
f 69/462/204 80/463/205 95/464/206
f 69/462/204 44/465/180 80/463/205
f 44/466/180 69/467/204 60/468/181
f 60/468/181 69/467/204 73/469/207
f 60/468/181 73/469/207 121/470/163
f 95/464/206 138/471/188 121/472/163
f 80/463/205 52/473/183 107/474/190
f 52/473/183 64/475/159 107/474/190
f 80/463/205 107/474/190 95/464/206
f 95/464/206 73/476/207 69/462/204
f 95/477/206 121/470/163 73/469/207
f 95/464/206 107/474/190 138/471/188
f 170/478/202 159/460/194 182/459/201
f 21/479/35 36/392/38 13/351/42
f 64/357/159 32/352/157 88/480/208
f 88/480/208 91/305/37 116/481/139
f 88/480/208 116/481/139 124/482/191
f 32/352/157 36/392/38 88/480/208
f 88/480/208 36/392/38 91/305/37
f 134/304/134 116/481/139 91/305/37
f 102/483/209 107/484/190 64/400/159
f 100/485/210 107/486/190 102/487/209
f 102/487/209 105/488/211 100/485/210
f 105/488/211 102/487/209 124/489/191
f 64/490/159 88/491/208 102/487/209
f 45/492/182 64/475/159 52/473/183
f 103/493/122 90/494/123 115/495/212
f 102/496/209 88/497/208 124/428/191
f 107/427/190 111/498/213 124/428/191
f 105/499/211 124/428/191 111/498/213
f 103/500/122 115/501/212 137/502/131
f 165/503/214 137/502/131 131/504/128
f 232/505/149 187/506/215 165/503/214
f 187/506/215 232/505/149 179/507/216
f 148/424/189 124/428/191 143/508/197
f 124/482/191 116/481/139 143/509/197
f 165/503/214 131/504/128 232/505/149
f 143/443/197 167/510/217 174/442/196
f 143/443/197 116/511/139 167/510/217
f 194/314/138 162/315/132 179/512/216
f 137/513/131 179/512/216 162/315/132
f 194/314/138 179/512/216 218/514/218
f 218/514/218 179/512/216 210/515/219
f 116/317/139 181/311/137 202/318/140
f 167/516/217 116/517/139 204/518/220
f 204/518/220 116/517/139 202/519/140
f 204/518/220 202/519/140 220/520/221
f 90/521/123 75/522/127 108/523/222
f 137/502/131 115/501/212 131/504/128
f 131/504/128 108/523/222 75/522/127
f 115/501/212 108/523/222 131/504/128
f 90/521/123 108/523/222 115/501/212
f 179/507/216 165/503/214 187/506/215
f 137/502/131 165/503/214 179/507/216
f 80/463/205 44/465/180 52/473/183
f 107/427/190 100/524/210 111/498/213
f 105/499/211 111/498/213 100/524/210
f 167/516/217 204/518/220 174/525/196
f 174/525/196 204/518/220 220/520/221
f 174/525/196 220/520/221 225/526/223
f 174/527/196 192/528/224 175/529/195
f 205/530/58 190/531/59 216/532/225
f 193/533/78 233/534/226 200/535/60
f 152/536/57 200/537/60 216/532/225
f 200/537/60 267/538/227 216/532/225
f 267/538/227 205/530/58 216/532/225
f 200/539/60 245/540/228 267/538/227
f 164/105/52 190/108/59 205/107/58
f 190/108/59 152/103/57 216/541/225
f 267/542/227 290/543/229 262/544/230
f 226/545/51 205/546/58 231/547/231
f 264/548/232 251/549/233 226/545/51
f 264/548/232 226/545/51 231/547/231
f 262/544/230 231/547/231 267/542/227
f 267/542/227 231/547/231 205/546/58
f 226/545/51 251/549/233 254/550/234
f 264/548/232 285/551/235 251/549/233
f 285/551/235 262/544/230 290/543/229
f 264/548/232 231/547/231 262/544/230
f 299/552/236 254/550/234 251/549/233
f 254/550/234 299/552/236 280/553/237
f 264/548/232 262/544/230 285/551/235
f 251/549/233 285/551/235 299/552/236
f 268/554/238 238/555/239 280/556/237
f 268/554/238 279/557/240 246/558/241
f 302/559/242 301/560/243 279/557/240
f 279/557/240 299/561/236 302/559/242
f 280/556/237 299/561/236 279/557/240
f 241/562/244 193/533/78 198/563/79
f 193/533/78 200/535/60 189/564/61
f 193/565/78 241/566/244 233/567/226
f 240/568/245 233/567/226 241/566/244
f 233/567/226 240/568/245 248/569/246
f 249/570/247 271/571/248 241/566/244
f 241/566/244 271/571/248 261/572/249
f 247/573/250 245/574/228 200/575/60
f 247/576/250 233/567/226 248/569/246
f 200/577/60 233/567/226 247/576/250
f 283/578/251 278/579/252 248/580/246
f 269/581/253 248/580/246 278/579/252
f 245/574/228 247/573/250 267/582/227
f 267/582/227 247/573/250 284/583/254
f 247/584/250 248/580/246 269/581/253
f 247/584/250 269/581/253 284/585/254
f 267/586/227 284/585/254 290/587/229
f 269/581/253 283/588/251 284/585/254
f 180/589/83 178/590/84 203/591/89
f 198/592/79 180/589/83 241/593/244
f 239/196/88 203/197/89 168/192/86
f 180/594/83 235/595/255 241/596/244
f 235/595/255 252/597/256 241/596/244
f 203/598/89 235/595/255 180/594/83
f 248/569/246 240/568/245 282/599/257
f 290/600/229 283/601/251 282/599/257
f 282/599/257 240/568/245 261/572/249
f 271/571/248 282/599/257 261/572/249
f 269/581/253 249/602/247 273/603/258
f 273/603/258 271/604/248 269/581/253
f 278/579/252 249/602/247 269/581/253
f 273/605/258 249/602/247 241/606/244
f 261/572/249 240/568/245 241/566/244
f 271/607/248 273/608/258 297/609/259
f 260/610/260 297/609/259 273/608/258
f 273/608/258 258/611/261 260/610/260
f 260/610/260 258/611/261 257/612/262
f 252/613/256 273/608/258 241/614/244
f 273/615/258 257/616/262 258/617/261
f 249/602/247 278/579/252 271/618/248
f 271/618/248 278/579/252 283/578/251
f 260/610/260 308/619/263 297/609/259
f 286/620/264 260/621/260 257/616/262
f 273/615/258 252/622/256 257/616/262
f 252/622/256 293/623/265 257/616/262
f 272/624/266 293/623/265 252/622/256
f 248/569/246 282/599/257 283/625/251
f 284/585/254 283/588/251 290/587/229
f 271/604/248 283/588/251 269/581/253
f 282/626/257 285/551/235 290/627/229
f 285/551/235 282/626/257 299/628/236
f 304/629/267 299/561/236 282/630/257
f 297/631/259 308/632/263 301/560/243
f 304/633/267 282/634/257 271/607/248
f 297/609/259 304/633/267 271/607/248
f 304/629/267 297/631/259 302/559/242
f 302/559/242 297/631/259 301/560/243
f 299/561/236 304/629/267 302/559/242
f 301/560/243 291/635/268 279/557/240
f 260/636/260 286/620/264 308/637/263
f 309/638/269 301/639/243 308/640/263
f 291/641/268 311/642/270 296/643/271
f 186/239/107 195/235/105 213/234/104
f 224/236/106 195/235/105 184/237/50
f 212/644/272 224/645/106 234/646/273
f 230/647/103 212/644/272 214/648/121
f 242/649/274 237/650/143 243/651/275
f 242/649/274 243/651/275 270/652/276
f 212/644/272 234/646/273 223/653/277
f 212/644/272 223/653/277 214/648/121
f 212/644/272 230/647/103 224/645/106
f 234/654/273 238/655/239 246/656/241
f 224/657/106 238/655/239 234/654/273
f 224/657/106 254/658/234 238/655/239
f 254/658/234 184/659/50 226/660/51
f 184/659/50 254/658/234 224/657/106
f 238/655/239 254/658/234 280/661/237
f 280/556/237 279/557/240 268/554/238
f 214/272/121 128/267/110 230/233/103
f 128/267/110 213/234/104 230/233/103
f 219/662/148 228/335/146 250/336/147
f 228/335/146 219/662/148 177/334/136
f 211/322/142 229/328/145 183/320/141
f 229/328/145 211/322/142 237/326/143
f 217/327/144 191/308/135 183/320/141
f 243/651/275 237/663/143 214/648/121
f 223/653/277 243/651/275 214/648/121
f 243/651/275 223/653/277 229/664/145
f 229/665/145 242/666/274 217/667/144
f 242/666/274 250/668/147 217/667/144
f 223/669/277 234/670/273 246/671/241
f 223/669/277 246/671/241 253/672/278
f 223/669/277 253/672/278 229/673/145
f 253/672/278 246/671/241 279/674/240
f 281/675/279 275/676/280 270/677/276
f 275/676/280 242/678/274 270/677/276
f 253/679/278 281/675/279 270/677/276
f 253/679/278 270/677/276 263/680/281
f 263/681/281 237/682/143 242/678/274
f 275/683/280 250/684/147 242/685/274
f 275/683/280 265/686/282 250/684/147
f 219/687/148 250/684/147 265/686/282
f 238/688/239 268/689/238 246/671/241
f 253/672/278 242/690/274 229/673/145
f 263/691/281 229/692/145 237/693/143
f 263/691/281 243/694/275 229/692/145
f 219/695/148 265/696/282 236/697/283
f 219/695/148 236/697/283 232/698/149
f 263/699/281 242/690/274 253/672/278
f 263/691/281 270/677/276 243/694/275
f 265/686/282 275/683/280 294/700/284
f 236/697/283 288/701/285 292/702/286
f 303/703/287 292/702/286 288/701/285
f 279/557/240 291/635/268 253/704/278
f 253/705/278 291/706/268 281/707/279
f 281/708/279 291/709/268 294/700/284
f 294/700/284 275/683/280 281/708/279
f 291/641/268 296/643/271 294/710/284
f 296/711/271 303/712/287 294/713/284
f 256/714/288 292/715/286 296/716/271
f 256/714/288 236/717/283 292/715/286
f 305/718/289 294/713/284 303/712/287
f 291/641/268 301/719/243 309/638/269
f 311/642/270 291/641/268 309/638/269
f 309/638/269 308/640/263 312/720/290
f 221/721/200 208/722/199 220/723/221
f 208/724/199 215/725/291 225/726/223
f 209/727/198 221/721/200 222/728/87
f 208/461/199 199/458/203 182/459/201
f 239/729/88 235/730/255 203/731/89
f 235/730/255 239/729/88 274/732/292
f 235/730/255 274/732/292 266/733/293
f 276/734/294 274/732/292 287/735/295
f 255/736/296 239/729/88 222/737/87
f 287/735/295 274/732/292 239/729/88
f 239/729/88 255/736/296 287/735/295
f 244/738/297 255/736/296 222/737/87
f 244/738/297 259/739/298 289/740/299
f 289/740/299 255/736/296 244/738/297
f 225/726/223 220/723/221 208/724/199
f 272/624/266 252/622/256 266/741/293
f 286/620/264 257/616/262 306/742/300
f 257/616/262 293/623/265 306/742/300
f 307/743/301 306/742/300 295/744/302
f 235/745/255 266/746/293 252/747/256
f 276/748/294 272/749/266 266/746/293
f 266/750/293 274/751/292 276/752/294
f 276/752/294 293/623/265 272/624/266
f 293/623/265 287/753/295 306/742/300
f 293/623/265 276/752/294 287/753/295
f 306/742/300 287/753/295 295/744/302
f 287/753/295 255/754/296 295/744/302
f 295/755/302 255/736/296 300/756/303
f 255/736/296 289/740/299 300/757/303
f 286/620/264 306/742/300 308/637/263
f 159/439/194 175/441/195 208/758/199
f 215/759/291 208/758/199 175/441/195
f 308/640/263 306/760/300 312/720/290
f 222/761/87 221/762/200 196/763/304
f 207/764/305 196/765/304 197/766/306
f 222/737/87 207/764/305 244/738/297
f 244/738/297 227/767/307 259/739/298
f 207/768/305 197/769/306 201/770/308
f 197/771/306 196/772/304 201/773/308
f 221/774/200 227/775/307 201/773/308
f 201/776/308 196/777/304 221/721/200
f 207/764/305 222/737/87 196/765/304
f 202/318/140 194/314/138 218/514/218
f 218/778/218 210/779/219 232/698/149
f 232/698/149 210/779/219 179/780/216
f 220/723/221 227/781/307 221/721/200
f 201/782/308 227/767/307 207/764/305
f 207/764/305 227/767/307 244/738/297
f 232/698/149 256/783/288 218/778/218
f 218/778/218 259/784/298 202/785/140
f 225/526/223 215/786/291 206/787/309
f 227/767/307 220/788/221 259/739/298
f 256/783/288 232/698/149 236/697/283
f 259/789/298 218/790/218 256/791/288
f 220/792/221 202/793/140 259/789/298
f 289/794/299 259/789/298 277/795/310
f 277/795/310 259/789/298 256/796/288
f 256/796/288 296/797/271 298/798/311
f 256/796/288 298/798/311 277/795/310
f 289/794/299 277/795/310 298/798/311
f 265/696/282 288/701/285 236/697/283
f 307/799/301 311/642/270 310/800/312
f 296/643/271 311/642/270 298/801/311
f 298/801/311 307/799/301 289/802/299
f 307/799/301 300/803/303 289/802/299
f 288/701/285 265/696/282 294/804/284
f 294/804/284 305/805/289 288/701/285
f 303/712/287 288/806/285 305/718/289
f 225/526/223 192/807/224 174/525/196
f 206/787/309 192/807/224 225/526/223
f 192/807/224 206/787/309 175/808/195
f 206/809/309 215/759/291 175/441/195
f 298/801/311 311/642/270 307/799/301
f 292/715/286 303/712/287 296/711/271
f 295/744/302 300/810/303 307/811/301
f 310/800/312 306/812/300 307/799/301
f 312/720/290 306/812/300 310/800/312
f 312/720/290 310/800/312 309/638/269
f 311/642/270 309/638/269 310/800/312
