# Blender 5.1.2
# www.blender.org
o tripo_node_ed0e3b23-1b81-4a40-9563-84dfcf4a60be
v -0.321174 -0.146493 0.061761
v -0.275806 -0.124062 -0.004426
v -0.297267 -0.325510 0.017425
v -0.294662 0.013461 0.176635
v -0.280446 -0.048080 0.184199
v -0.292878 -0.271377 -0.034627
v -0.267279 0.061929 -0.017949
v -0.284554 0.096709 0.198333
v -0.222091 0.075960 0.148468
v -0.270775 -0.179260 -0.038755
v -0.228145 -0.082018 0.022996
v -0.273598 0.115972 0.061818
v -0.274240 -0.047977 0.097650
v -0.279951 -0.276026 -0.087265
v -0.262675 -0.405555 0.060975
v -0.252616 0.064360 -0.060773
v -0.253721 0.126180 -0.021020
v -0.247295 0.022452 0.238727
v -0.253686 -0.092481 0.250881
v -0.254293 -0.197828 0.280486
v -0.245618 -0.344312 -0.151238
v -0.240576 -0.331518 0.094879
v -0.234257 0.048825 0.048760
v -0.250202 -0.310005 0.211171
v -0.257853 0.135586 0.164982
v -0.257588 -0.359458 0.142507
v -0.231239 0.118978 -0.095908
v -0.261195 -0.009768 -0.009831
v -0.212279 -0.160625 0.254515
v -0.221449 -0.207395 0.407461
v -0.190657 0.126644 0.093256
v -0.230001 -0.269958 0.352996
v -0.164594 -0.070751 -0.049571
v -0.211737 -0.195327 0.175852
v -0.153927 0.033364 0.291619
v -0.182418 -0.377137 0.029776
v -0.230318 -0.298051 -0.208856
v -0.209438 0.214520 0.019301
v -0.196844 0.165422 0.245639
v -0.218040 0.163386 -0.043008
v -0.211600 0.094313 0.252830
v -0.176403 -0.339976 0.273443
v -0.216106 -0.240436 -0.183141
v -0.195355 -0.424046 -0.183124
v -0.176065 -0.338570 0.200633
v -0.109944 -0.212241 -0.082590
v -0.190602 0.132463 0.175735
v -0.177304 -0.126927 -0.038758
v -0.205912 -0.026270 0.280465
v -0.205374 -0.160590 0.374347
v -0.209902 0.029839 -0.045576
v -0.162601 -0.146654 0.179919
v -0.166412 -0.038085 0.360682
v -0.172311 -0.170901 0.048998
v -0.193002 -0.090254 0.343826
v -0.215033 0.249473 -0.075174
v -0.188582 0.275257 -0.140976
v -0.192795 0.226732 0.270620
v -0.194868 0.218031 -0.135862
v -0.193046 -0.329096 -0.267337
v -0.156617 -0.286172 0.344062
v -0.189002 0.136805 -0.085407
v -0.093030 0.143207 0.073115
v -0.136668 -0.259935 0.099285
v -0.186884 -0.481234 -0.142661
v -0.134220 -0.290945 -0.325079
v -0.147364 0.239880 0.229005
v -0.178416 -0.176293 -0.215672
v -0.125429 0.149544 0.212873
v -0.175670 -0.453905 0.033331
v -0.173056 0.341623 -0.079389
v -0.156942 -0.227724 -0.325178
v -0.184507 -0.209711 -0.281208
v -0.165112 0.415611 -0.072566
v -0.146521 -0.365391 0.224477
v -0.110792 0.195408 -0.144085
v -0.128745 0.237750 0.009363
v -0.159437 0.314994 -0.003635
v -0.090898 -0.130205 0.337570
v -0.150702 0.423590 0.004515
v -0.157509 -0.108309 -0.303251
v -0.071589 -0.048689 -0.058394
v -0.094960 -0.473173 -0.119139
v -0.149404 0.241463 -0.305183
v -0.070107 -0.437205 0.029544
v -0.114502 -0.219854 0.363390
v -0.160462 0.348353 0.086283
v -0.124121 0.275580 -0.333618
v -0.139215 0.258304 0.326060
v -0.093593 -0.386986 -0.337513
v -0.066040 -0.372110 -0.216573
v -0.144768 -0.441694 0.161977
v -0.102807 0.415728 0.084604
v -0.064360 0.184134 0.185214
v -0.054934 0.284580 -0.102170
v -0.126350 0.169739 0.322726
v -0.086606 -0.087315 -0.268730
v -0.108599 -0.031786 -0.405296
v -0.113248 -0.122916 -0.405894
v -0.095507 0.180098 -0.321274
v -0.103307 0.274037 0.125950
v -0.097117 -0.329316 0.372010
v -0.054183 -0.329616 0.239742
v -0.111197 -0.055110 -0.326318
v -0.108452 0.204393 -0.301489
v -0.098925 -0.222981 0.456825
v -0.099063 0.168681 -0.290174
v -0.005595 -0.002434 0.271118
v -0.091447 -0.402202 0.235615
v -0.025827 0.229707 0.292599
v -0.091177 0.407158 0.143141
v -0.034778 -0.127014 -0.091233
v -0.086292 0.211525 -0.213657
v -0.102944 0.133470 -0.272131
v -0.112787 0.249127 -0.309688
v -0.070959 0.315419 0.014596
v -0.046905 0.279212 -0.251344
v -0.056941 -0.090477 -0.408521
v -0.002809 -0.302861 -0.303034
v -0.064308 0.120274 0.383236
v -0.054739 0.333234 -0.052048
v -0.037194 0.192778 0.355616
v -0.001209 0.060170 -0.065408
v 0.002727 -0.033145 0.354790
v -0.005495 -0.469508 0.128811
v -0.048033 0.155925 0.292563
v -0.080340 0.284213 0.194452
v -0.049512 -0.471094 -0.270274
v -0.023755 -0.119609 -0.135080
v -0.033758 -0.343771 -0.360913
v -0.039852 0.393022 0.100517
v -0.039107 -0.042351 -0.345762
v -0.001879 0.289256 0.106274
v -0.043324 -0.196055 0.432402
v -0.045752 0.352145 -0.193525
v -0.008989 -0.237983 0.358563
v -0.051706 0.248698 -0.348564
v 0.006338 0.044039 -0.292124
v -0.016266 0.124912 -0.274063
v -0.002416 0.243828 0.218510
v 0.009624 -0.339272 0.365422
v -0.004845 -0.104242 0.300780
v -0.041450 -0.036727 -0.186045
v 0.023427 -0.097642 -0.159337
v -0.035382 0.453688 -0.101916
v -0.000777 0.325525 0.225880
v 0.013020 -0.178038 -0.323340
v -0.001988 -0.043287 -0.461269
v 0.035216 0.268034 -0.326557
v 0.023861 0.303311 -0.227861
v 0.020304 -0.115039 -0.447719
v 0.002272 0.339641 -0.117889
v -0.002938 -0.376336 -0.305811
v -0.011556 0.363122 0.190869
v 0.017954 -0.003417 -0.172373
v 0.015482 0.127650 0.380533
v -0.002626 0.290905 -0.390725
v 0.004745 0.343684 -0.295608
v 0.001502 0.300489 0.297799
v 0.003027 -0.007761 -0.396719
v 0.004869 0.342084 0.009816
v 0.004850 -0.157030 0.480059
v 0.005106 0.438946 0.143098
v 0.004099 0.196972 -0.328404
v 0.016580 0.151864 -0.317988
v 0.003365 -0.407902 0.214756
v 0.000994 0.390150 -0.227145
v 0.019224 0.334871 0.110558
v 0.013882 0.148900 0.304374
v 0.041758 -0.040367 -0.300161
v 0.030936 -0.339447 0.240588
v -0.000268 0.271180 0.376123
v 0.038630 0.227972 0.313765
v 0.064468 -0.457900 -0.312649
v 0.078378 -0.432016 0.037075
v 0.050830 0.448729 -0.068148
v 0.067394 0.293158 0.189183
v 0.054694 -0.230640 0.341309
v 0.168797 -0.457478 0.011492
v 0.043512 -0.191345 0.429668
v 0.058432 0.410853 0.093848
v 0.077884 -0.397588 -0.345960
v 0.058987 0.337639 -0.042717
v 0.058651 0.182879 0.199490
v 0.076739 -0.058036 -0.059416
v 0.047548 -0.318820 -0.368139
v 0.083603 0.287987 -0.101479
v 0.104152 -0.272058 -0.318266
v 0.070858 -0.364561 0.340174
v 0.058383 0.343773 -0.193535
v 0.054704 -0.153038 -0.096763
v 0.099606 0.153638 0.351108
v 0.081258 0.136679 -0.246249
v 0.089982 0.172905 -0.333645
v 0.107229 -0.021243 -0.393042
v 0.119110 -0.119042 -0.409366
v 0.076963 0.242974 -0.364324
v 0.091856 -0.235713 0.449384
v 0.082288 -0.105148 0.313100
v 0.062612 -0.372322 -0.217245
v 0.098516 0.002968 0.289554
v 0.112676 -0.308728 0.387827
v 0.146381 -0.443218 0.157334
v 0.075898 0.194368 -0.191361
v 0.096309 -0.398277 0.234683
v 0.096825 0.408134 0.137807
v 0.106815 0.277114 0.124407
v 0.146732 0.278649 0.301170
v 0.114872 -0.068863 -0.331470
v 0.118383 0.299618 0.020328
v 0.096540 -0.155842 -0.031649
v 0.153548 0.413463 0.008959
v 0.116853 0.302289 -0.289745
v 0.149137 -0.282047 0.351345
v 0.254212 -0.013462 -0.018436
v 0.087987 0.154002 0.089236
v 0.130909 -0.161500 -0.345797
v 0.108303 0.163446 -0.300089
v 0.117984 -0.106282 -0.275199
v 0.167865 -0.038227 0.360714
v 0.117714 0.248698 -0.314578
v 0.190992 -0.331086 -0.279032
v 0.129803 -0.182974 0.376653
v 0.151020 -0.061215 -0.051351
v 0.243003 -0.257112 -0.150076
v 0.091538 -0.467217 -0.115939
v 0.186970 -0.003290 0.291418
v 0.137538 0.226480 0.003162
v 0.154602 0.349287 0.085419
v 0.263081 0.091751 -0.021311
v 0.175734 0.330101 -0.074975
v 0.255728 -0.317577 -0.131628
v 0.167749 0.248847 -0.159528
v 0.166211 -0.366832 0.205867
v 0.144632 0.240966 0.226128
v 0.190588 -0.412850 -0.197008
v 0.185289 -0.174746 -0.218044
v 0.173488 -0.105433 -0.298526
v 0.173019 -0.195892 -0.295069
v 0.174495 -0.123319 -0.047596
v 0.186622 -0.295056 -0.268373
v 0.169289 0.411532 -0.064431
v 0.195957 -0.389436 0.040002
v 0.198135 0.232016 0.022481
v 0.188615 -0.086187 0.339362
v 0.145514 -0.267585 0.105356
v 0.158339 -0.359708 0.295969
v 0.164144 -0.173188 0.215092
v 0.183051 0.154759 0.280904
v 0.204984 0.269721 -0.135447
v 0.168758 -0.304545 0.214136
v 0.198945 0.234434 0.277101
v 0.187845 -0.474488 -0.140136
v 0.241944 -0.262416 0.354259
v 0.293018 -0.293860 -0.022309
v 0.199003 0.292360 -0.018402
v 0.200412 -0.207521 0.184828
v 0.191614 -0.217048 -0.213201
v 0.177925 -0.252631 -0.324193
v 0.218965 -0.299164 0.279787
v 0.213678 0.255638 -0.042512
v 0.160965 -0.151122 0.074455
v 0.235680 -0.246702 0.144086
v 0.195487 0.138973 0.109008
v 0.258343 -0.191131 -0.052844
v 0.248713 -0.348482 -0.173903
v 0.199448 -0.153597 0.361723
v 0.244843 -0.365617 0.154371
v 0.241474 0.141792 0.229774
v 0.225042 0.197102 -0.049363
v 0.249281 -0.337508 0.088589
v 0.194891 0.094226 0.177821
v 0.259825 -0.044999 0.227183
v 0.250666 -0.315335 0.213945
v 0.254311 -0.187132 0.267160
v 0.236811 -0.089039 0.010250
v 0.234842 -0.276925 -0.207412
v 0.277741 -0.064171 0.071806
v 0.238142 0.184136 0.022820
v 0.244781 -0.205712 0.406329
v 0.262191 -0.104969 0.254248
v 0.238290 0.059690 0.132140
v 0.261345 0.141249 0.168019
v 0.283828 0.099392 0.200448
v 0.276943 0.118084 0.065238
v 0.268708 -0.402867 0.050105
v 0.293378 -0.252002 -0.059856
v 0.255799 0.020437 0.050410
v 0.240991 0.034015 0.243243
v 0.325615 -0.153378 0.039035
v 0.303486 -0.315539 0.038705
v 0.308781 0.045992 -0.009924
v 0.301874 -0.007860 0.171639
vn -0.3139 -0.0131 -0.9494
vn -0.4775 -0.5862 -0.6545
vn -0.7198 -0.3801 -0.5809
vn -0.6511 -0.6726 -0.3517
vn -0.9138 0.2376 -0.3294
vn -0.5756 -0.1456 -0.8046
vn -0.8421 0.5335 -0.0784
vn -0.4751 -0.7858 -0.3959
vn -0.2665 -0.9626 -0.0481
vn -0.4869 -0.5610 -0.6695
vn 0.1193 -0.2686 -0.9558
vn 0.3444 0.0731 -0.9360
vn 0.0117 0.1269 -0.9918
vn -0.2221 -0.0789 -0.9718
vn 0.2014 -0.4713 -0.8587
vn -0.5394 -0.8285 0.1509
vn -0.9833 -0.1687 0.0689
vn -0.9102 0.0340 -0.4128
vn -0.9257 -0.3505 -0.1422
vn -0.9701 0.1890 0.1526
vn -0.8674 0.2354 -0.4384
vn -0.8906 0.1709 -0.4214
vn -0.4431 -0.8794 0.1740
vn -0.1027 -0.9684 0.2274
vn -0.6515 -0.5805 0.4884
vn 0.2749 -0.9576 -0.0864
vn 0.4692 -0.6539 -0.5935
vn -0.8742 0.4386 0.2082
vn -0.4128 -0.2828 -0.8658
vn -0.5741 0.7869 0.2260
vn -0.5502 0.7324 0.4010
vn 0.4438 0.8948 0.0479
vn -0.2143 0.9751 0.0580
vn -0.4113 0.7231 -0.5550
vn 0.0275 -0.3917 -0.9197
vn 0.0721 0.4835 -0.8724
vn 0.1417 0.9577 -0.2503
vn -0.3481 0.2839 -0.8935
vn -0.5910 0.5917 -0.5483
vn -0.7697 0.2458 -0.5892
vn -0.5870 0.7266 -0.3570
vn -0.2492 0.1023 -0.9630
vn -0.3228 -0.1435 -0.9355
vn -0.2775 -0.3184 -0.9064
vn -0.9320 -0.2656 -0.2465
vn -0.9968 -0.0640 -0.0488
vn -0.3745 0.1483 -0.9153
vn -0.6956 -0.3978 -0.5982
vn -0.9051 0.3939 -0.1600
vn -0.9736 0.0438 0.2238
vn -0.8848 0.4551 0.0995
vn -0.7193 -0.3947 0.5717
vn -0.7563 0.6435 0.1183
vn -0.2530 0.7710 -0.5844
vn 0.0487 -0.3700 -0.9278
vn -0.6173 -0.1956 -0.7620
vn -0.9797 0.0271 0.1985
vn 0.4035 0.6602 0.6335
vn 0.4354 0.6168 0.6558
vn 0.0098 0.8989 0.4381
vn 0.0679 0.9020 -0.4264
vn -0.3679 -0.9080 0.2002
vn -0.9205 -0.1046 0.3765
vn -0.6384 -0.7516 -0.1663
vn -0.6527 -0.0522 0.7559
vn -0.1870 0.9620 0.1989
vn -0.7121 -0.6331 0.3035
vn -0.5126 -0.8132 0.2755
vn -0.6913 -0.7218 0.0331
vn -0.4562 -0.6563 0.6010
vn -0.8615 -0.4656 -0.2025
vn -0.0221 -0.8143 0.5800
vn -0.1875 -0.6062 0.7729
vn -0.1064 -0.9943 -0.0013
vn 0.0269 -0.4828 0.8753
vn -0.3284 -0.6674 0.6684
vn 0.1775 -0.9175 0.3559
vn -0.1429 -0.6499 0.7465
vn -0.0159 -0.7912 0.6114
vn -0.2947 -0.6199 0.7272
vn 0.7981 -0.1998 0.5684
vn 0.6090 -0.6581 0.4428
vn -0.1698 -0.2063 0.9636
vn 0.1239 -0.4467 0.8861
vn -0.8913 -0.2491 0.3790
vn -0.9403 -0.2990 0.1624
vn -0.5716 0.4065 0.7127
vn -0.9918 0.1270 -0.0149
vn -0.9787 -0.0964 -0.1813
vn -0.9147 -0.1381 -0.3798
vn -0.9056 -0.3180 0.2805
vn -0.9132 0.4033 -0.0583
vn -0.4716 0.8596 0.1967
vn -0.5742 0.3697 0.7305
vn -0.5596 0.7717 0.3024
vn -0.9305 0.1468 -0.3357
vn -0.5428 0.5213 0.6585
vn -0.5407 0.0007 0.8412
vn -0.6724 -0.5284 0.5183
vn -0.6198 0.1258 0.7746
vn -0.3339 0.4765 0.8133
vn 0.0278 0.2858 0.9579
vn -0.0797 0.4778 0.8749
vn -0.2375 0.0384 0.9706
vn 0.0316 0.3434 0.9387
vn 0.1331 0.1105 0.9849
vn -0.2338 -0.2462 0.9406
vn 0.0571 0.2833 0.9573
vn -0.3112 -0.4151 0.8549
vn -0.4135 -0.4534 -0.7896
vn -0.8464 -0.3729 -0.3802
vn -0.0514 0.5115 -0.8577
vn 0.6045 0.5156 0.6072
vn 0.5417 -0.2428 -0.8048
vn -0.9970 -0.0669 0.0396
vn -0.3676 0.3484 -0.8623
vn -0.6691 -0.7380 0.0875
vn -0.1045 -0.9482 -0.3000
vn -0.3167 0.8981 -0.3052
vn 0.0613 -0.3921 -0.9179
vn -0.1764 -0.6067 -0.7751
vn 0.0399 0.6473 -0.7612
vn -0.0312 0.9190 -0.3931
vn 0.0871 0.6286 -0.7728
vn -0.9328 0.3074 -0.1883
vn -0.5469 0.7030 0.4546
vn -0.8877 0.3297 -0.3214
vn -0.9286 0.3684 -0.0449
vn -0.6676 0.0582 0.7422
vn -0.7678 0.2063 -0.6065
vn -0.4560 -0.7148 -0.5302
vn -0.7158 0.6545 -0.2435
vn -0.4055 0.8300 -0.3829
vn -0.7105 0.2916 0.6405
vn -0.4178 0.7646 -0.4907
vn -0.5698 -0.8184 -0.0743
vn -0.2238 0.8022 0.5536
vn -0.2006 0.9787 -0.0443
vn 0.2504 0.8541 -0.4559
vn -0.7851 0.5930 -0.1787
vn -0.1951 0.8905 -0.4110
vn -0.0617 0.8238 -0.5636
vn -0.1657 0.9657 -0.1999
vn 0.6830 -0.7255 -0.0848
vn 0.4633 -0.8293 0.3125
vn -0.5054 0.7786 -0.3719
vn 0.5577 0.8294 0.0323
vn 0.4368 0.7764 -0.4544
vn 0.3380 -0.5104 -0.7907
vn -0.0544 0.9983 -0.0210
vn 0.4070 0.8215 0.3994
vn -0.7810 0.6025 0.1644
vn -0.8659 0.3883 0.3153
vn -0.8892 0.0140 0.4573
vn -0.6484 0.6548 0.3882
vn -0.8814 -0.1112 0.4590
vn -0.9374 0.3412 -0.0697
vn -0.9123 0.3977 0.0977
vn -0.1958 0.8571 -0.4765
vn -0.8943 0.4473 0.0135
vn -0.5712 -0.4975 0.6529
vn -0.6272 0.7787 -0.0174
vn 0.0153 -0.6797 0.7333
vn -0.3310 0.7884 0.5186
vn -0.4248 0.9024 0.0716
vn -0.2609 0.0727 0.9626
vn -0.2100 -0.7347 0.6451
vn 0.1204 -0.7398 0.6620
vn -0.0189 0.5845 0.8111
vn -0.8026 0.0009 0.5965
vn -0.9800 0.1991 0.0003
vn -0.0854 0.6181 0.7815
vn -0.0614 0.9967 -0.0537
vn -0.2449 0.9033 -0.3524
vn -0.7194 0.4729 0.5087
vn -0.0303 0.9582 0.2845
vn 0.0200 0.7663 0.6422
vn 0.0143 0.7010 0.7130
vn -0.1243 -0.1534 0.9803
vn 0.0071 0.8340 0.5517
vn -0.0834 -0.7363 0.6715
vn 0.3843 0.8479 0.3651
vn -0.1120 -0.3290 0.9377
vn 0.0882 0.9057 0.4145
vn 0.1527 0.9799 -0.1287
vn 0.8057 0.4406 0.3959
vn 0.9672 0.2442 -0.0696
vn 0.2830 -0.5438 -0.7900
vn -0.2842 0.1788 -0.9420
vn 0.1403 0.0052 -0.9901
vn 0.6897 -0.6321 -0.3532
vn 0.6464 -0.2745 -0.7119
vn 0.4257 -0.6604 -0.6186
vn 0.7547 0.1277 -0.6435
vn 0.6539 -0.7251 0.2161
vn 0.4400 -0.8828 0.1645
vn 0.9042 -0.4208 -0.0730
vn 0.8628 0.2612 -0.4328
vn 0.8191 0.5163 -0.2502
vn 0.9369 -0.3145 -0.1526
vn 0.4219 -0.8647 0.2725
vn 0.9947 -0.0562 0.0858
vn 0.3945 -0.9129 0.1046
vn 0.9263 0.2573 0.2751
vn 0.7002 -0.3061 -0.6450
vn 0.5574 -0.1473 -0.8171
vn 0.3954 0.8475 -0.3541
vn 0.9251 0.2584 -0.2784
vn 0.6439 -0.2643 -0.7180
vn 0.8352 0.4858 0.2578
vn 0.6402 0.7188 0.2711
vn 0.6735 0.7388 0.0234
vn 0.8814 0.1927 -0.4314
vn 0.5501 0.8118 -0.1957
vn 0.2505 0.0604 -0.9662
vn 0.7321 0.1008 -0.6736
vn 0.8419 0.0570 -0.5366
vn 0.2061 0.0856 -0.9748
vn 0.1485 0.0962 -0.9842
vn 0.4241 0.3653 -0.8287
vn 0.6933 0.1670 -0.7010
vn 0.9192 0.3667 -0.1437
vn 0.6711 0.6630 0.3316
vn 0.7008 -0.3099 -0.6425
vn 0.6868 0.2070 -0.6967
vn 0.9437 -0.2826 0.1721
vn 0.8556 0.5149 -0.0539
vn 0.9879 0.0417 0.1492
vn 0.9926 -0.1090 -0.0538
vn 0.2536 -0.9613 0.1081
vn 0.7407 -0.6717 0.0156
vn 0.2006 -0.3954 0.8963
vn 0.2085 -0.5580 0.8033
vn 0.4085 -0.1658 0.8976
vn 0.0554 -0.4352 0.8986
vn 0.0952 0.1927 0.9766
vn -0.3096 -0.8525 0.4211
vn 0.8541 -0.5076 -0.1138
vn 0.9727 0.0431 0.2279
vn 0.9469 -0.0790 -0.3116
vn 0.7610 -0.5047 0.4075
vn 0.5787 -0.8146 0.0389
vn 0.7116 0.6031 -0.3604
vn 0.6677 -0.2031 0.7162
vn -0.0262 0.9483 0.3162
vn -0.0931 0.1390 0.9859
vn 0.3562 0.2725 0.8938
vn 0.5001 0.1856 0.8458
vn -0.0160 0.4981 0.8670
vn 0.5262 0.3828 0.7593
vn 0.2625 -0.1007 0.9597
vn 0.2665 -0.5228 0.8097
vn 0.7038 0.1446 0.6955
vn 0.5258 0.4817 0.7010
vn 0.4418 0.3837 0.8109
vn 0.8997 -0.2163 0.3791
vn 0.8191 -0.4336 0.3757
vn 0.8601 -0.2557 -0.4413
vn 0.9957 -0.0526 -0.0764
vn 0.9974 -0.0488 0.0532
vn 0.8854 0.4002 -0.2363
vn 0.0044 0.2208 -0.9753
vn 0.8434 0.1237 -0.5228
vn 0.4832 0.7663 -0.4234
vn 0.8042 -0.5697 -0.1693
vn 0.8776 0.4181 -0.2345
vn 0.6854 0.4950 -0.5340
vn 0.9545 0.2517 -0.1600
vn 0.2420 0.7193 0.6512
vn 0.4465 0.7789 -0.4403
vn 0.7944 0.1645 -0.5847
vn 0.9049 0.3941 0.1609
vn 0.7370 0.3748 0.5625
vn 0.5364 0.3599 0.7634
vn 0.2017 0.5343 0.8209
vn 0.7240 0.6350 0.2694
vn 0.8062 -0.2989 0.5106
vn 0.6005 0.7695 0.2174
vn 0.6844 0.6894 0.2372
vn 0.9773 0.1105 -0.1807
vn 0.6405 0.6070 0.4705
vn 0.3742 0.9235 0.0843
vn 0.2515 0.8163 -0.5201
vn 0.1860 0.9201 0.3448
vn 0.9608 0.2768 0.0188
vn 0.8232 0.0318 0.5668
vn 0.2262 0.7210 0.6550
vn 0.8092 0.0905 0.5805
vn 0.2925 -0.4921 0.8199
vn 0.6989 0.6496 0.2993
vn 0.6056 0.7651 0.2189
vn 0.7985 0.5729 -0.1851
vn 0.7175 0.5839 0.3798
vt 0.603312 0.589201
vt 0.631650 0.608286
vt 0.574454 0.615545
vt 0.632494 0.650930
vt 0.549066 0.582832
vt 0.565165 0.579416
vt 0.534456 0.598563
vt 0.669150 0.658845
vt 0.630122 0.693689
vt 0.577529 0.676827
vt 0.233992 0.245526
vt 0.203153 0.247004
vt 0.228021 0.225907
vt 0.175483 0.253542
vt 0.163683 0.220601
vt 0.178932 0.301762
vt 0.216949 0.291591
vt 0.299674 0.668181
vt 0.310901 0.723723
vt 0.299208 0.702715
vt 0.341728 0.671495
vt 0.312810 0.650865
vt 0.809366 0.585016
vt 0.846657 0.551876
vt 0.881331 0.581802
vt 0.882988 0.612616
vt 0.877352 0.554590
vt 0.906740 0.541274
vt 0.544639 0.624989
vt 0.542952 0.661453
vt 0.586693 0.704453
vt 0.670457 0.557595
vt 0.681062 0.543668
vt 0.653604 0.587016
vt 0.706692 0.555679
vt 0.771776 0.546402
vt 0.777168 0.564647
vt 0.748897 0.590187
vt 0.705554 0.608271
vt 0.973365 0.110357
vt 0.934602 0.092354
vt 0.964703 0.063946
vt 0.248207 0.281691
vt 0.198222 0.675036
vt 0.164662 0.654219
vt 0.190200 0.655028
vt 0.357745 0.697991
vt 0.337172 0.720733
vt 0.266468 0.367489
vt 0.276725 0.373187
vt 0.278243 0.394499
vt 0.264887 0.387129
vt 0.247887 0.316889
vt 0.268293 0.322341
vt 0.224831 0.318374
vt 0.249467 0.351745
vt 0.274502 0.331293
vt 0.619951 0.022349
vt 0.622023 0.048813
vt 0.607200 0.038545
vt 0.261208 0.950641
vt 0.279420 0.963913
vt 0.258769 0.971071
vt 0.269779 0.996104
vt 0.366340 0.030792
vt 0.416035 0.031491
vt 0.401809 0.055530
vt 0.441815 0.019795
vt 0.432122 0.053073
vt 0.450888 0.035884
vt 0.425421 0.023148
vt 0.207095 0.984030
vt 0.229906 0.985036
vt 0.215697 0.995599
vt 0.663604 0.299841
vt 0.663708 0.342167
vt 0.645291 0.331646
vt 0.690646 0.335501
vt 0.745598 0.314994
vt 0.698885 0.261991
vt 0.760744 0.285988
vt 0.653603 0.256402
vt 0.648698 0.295174
vt 0.645567 0.325869
vt 0.742762 0.850758
vt 0.710665 0.850446
vt 0.712314 0.833215
vt 0.764287 0.816443
vt 0.738820 0.828147
vt 0.773450 0.839589
vt 0.121158 0.959249
vt 0.098886 0.950217
vt 0.115383 0.945039
vt 0.773343 0.299775
vt 0.765066 0.309675
vt 0.087283 0.023327
vt 0.073540 0.018150
vt 0.096601 0.009442
vt 0.898757 0.516812
vt 0.905793 0.519174
vt 0.187122 0.696930
vt 0.203504 0.691670
vt 0.155342 0.723436
vt 0.161043 0.728471
vt 0.150393 0.681470
vt 0.750005 0.256397
vt 0.684714 0.235762
vt 0.273186 0.180430
vt 0.233319 0.200673
vt 0.283766 0.141384
vt 0.211811 0.159968
vt 0.215129 0.139891
vt 0.576404 0.581888
vt 0.079409 0.362865
vt 0.097661 0.383688
vt 0.077864 0.401548
vt 0.244707 0.200428
vt 0.768739 0.778007
vt 0.790012 0.791674
vt 0.758379 0.797359
vt 0.807251 0.789715
vt 0.768723 0.758204
vt 0.772816 0.741975
vt 0.829243 0.781965
vt 0.071091 0.285169
vt 0.061819 0.265605
vt 0.077780 0.278415
vt 0.579792 0.419497
vt 0.581876 0.445875
vt 0.563251 0.399770
vt 0.596609 0.413008
vt 0.546159 0.830173
vt 0.522862 0.843347
vt 0.544689 0.817423
vt 0.493973 0.828053
vt 0.528704 0.860959
vt 0.501656 0.864524
vt 0.554678 0.335094
vt 0.539137 0.372099
vt 0.610693 0.372973
vt 0.609070 0.343782
vt 0.143666 0.322988
vt 0.113132 0.327821
vt 0.139287 0.309663
vt 0.102974 0.276375
vt 0.110279 0.276930
vt 0.300866 0.389258
vt 0.339935 0.388891
vt 0.312888 0.414425
vt 0.332963 0.329555
vt 0.317294 0.372950
vt 0.164153 0.318623
vt 0.822183 0.389852
vt 0.833161 0.358493
vt 0.853040 0.416268
vt 0.291844 0.352617
vt 0.318630 0.305298
vt 0.304875 0.317312
vt 0.295356 0.413006
vt 0.304463 0.417296
vt 0.796570 0.428370
vt 0.835351 0.447602
vt 0.346730 0.358204
vt 0.625621 0.168626
vt 0.628952 0.154021
vt 0.698108 0.167298
vt 0.354650 0.382079
vt 0.782344 0.350551
vt 0.758475 0.392422
vt 0.769200 0.007728
vt 0.772195 0.035119
vt 0.754418 0.021814
vt 0.778751 0.011737
vt 0.921534 0.737955
vt 0.940703 0.747905
vt 0.911135 0.752020
vt 0.211838 0.707426
vt 0.229351 0.694359
vt 0.225652 0.754166
vt 0.240591 0.729945
vt 0.206179 0.780477
vt 0.194300 0.752495
vt 0.024526 0.174587
vt 0.022713 0.138638
vt 0.044840 0.169068
vt 0.760795 0.967170
vt 0.773397 0.980566
vt 0.746662 0.981203
vt 0.737454 0.983389
vt 0.733018 0.997318
vt 0.589072 0.144336
vt 0.596179 0.166516
vt 0.566638 0.177526
vt 0.524018 0.160384
vt 0.512258 0.128116
vt 0.009586 0.917850
vt 0.002724 0.891302
vt 0.027283 0.904886
vt 0.028060 0.922595
vt 0.497125 0.145341
vt 0.644807 0.116557
vt 0.657840 0.124877
vt 0.653836 0.138014
vt 0.653047 0.087396
vt 0.618319 0.095684
vt 0.625428 0.067229
vt 0.967485 0.733151
vt 0.950033 0.722013
vt 0.980060 0.715312
vt 0.487112 0.236244
vt 0.451457 0.209157
vt 0.475051 0.193877
vt 0.445684 0.233251
vt 0.817892 0.161740
vt 0.838108 0.178544
vt 0.790348 0.196937
vt 0.805605 0.222102
vt 0.836599 0.229043
vt 0.347068 0.421892
vt 0.364852 0.407103
vt 0.379690 0.444241
vt 0.358427 0.471739
vt 0.342249 0.484438
vt 0.346168 0.469779
vt 0.481226 0.150467
vt 0.467396 0.159762
vt 0.480095 0.148642
vt 0.395436 0.189075
vt 0.425726 0.203098
vt 0.405881 0.222497
vt 0.794466 0.157843
vt 0.758824 0.171946
vt 0.737777 0.216384
vt 0.780042 0.248108
vt 0.423256 0.150915
vt 0.257133 0.766899
vt 0.571118 0.112205
vt 0.796229 0.353228
vt 0.825054 0.347140
vt 0.193717 0.029053
vt 0.173903 0.059187
vt 0.170270 0.014694
vt 0.492007 0.861921
vt 0.165731 0.049448
vt 0.572613 0.777643
vt 0.579142 0.736997
vt 0.624392 0.752613
vt 0.607113 0.725098
vt 0.545018 0.765953
vt 0.636929 0.777449
vt 0.936638 0.810638
vt 0.973182 0.825821
vt 0.918242 0.844073
vt 0.981922 0.851849
vt 0.978673 0.810507
vt 0.967218 0.793717
vt 0.766518 0.352882
vt 0.744116 0.351403
vt 0.710827 0.352455
vt 0.976257 0.028420
vt 0.952950 0.009898
vt 0.979867 0.004191
vt 0.951073 0.015977
vt 0.944486 0.010814
vt 0.051491 0.719780
vt 0.038342 0.729099
vt 0.038132 0.708526
vt 0.023010 0.712773
vt 0.920582 0.986398
vt 0.899240 0.973027
vt 0.907896 0.974361
vt 0.900125 0.981583
vt 0.893918 0.899542
vt 0.873623 0.877505
vt 0.897988 0.886734
vt 0.055149 0.791279
vt 0.035818 0.786590
vt 0.056165 0.773744
vt 0.053355 0.760501
vt 0.958548 0.958155
vt 0.932915 0.952204
vt 0.952590 0.930957
vt 0.923848 0.912967
vt 0.916054 0.888243
vt 0.963415 0.902704
vt 0.931586 0.873781
vt 0.957270 0.873016
vt 0.030104 0.522992
vt 0.053327 0.535261
vt 0.034680 0.559007
vt 0.881836 0.802628
vt 0.882701 0.766226
vt 0.919352 0.778561
vt 0.901126 0.804466
vt 0.931638 0.792566
vt 0.942020 0.769912
vt 0.034677 0.596061
vt 0.031443 0.616065
vt 0.015074 0.588205
vt 0.102096 0.043688
vt 0.114282 0.022660
vt 0.138402 0.042010
vt 0.150423 0.055723
vt 0.129423 0.062262
vt 0.135469 0.007613
vt 0.097558 0.065147
vt 0.250832 0.439325
vt 0.250036 0.465550
vt 0.227380 0.469782
vt 0.236734 0.401395
vt 0.261317 0.406995
vt 0.215399 0.423696
vt 0.834709 0.860129
vt 0.832525 0.834452
vt 0.858254 0.836266
vt 0.849945 0.813675
vt 0.878879 0.838493
vt 0.796228 0.820644
vt 0.805206 0.817222
vt 0.215415 0.404645
vt 0.066667 0.679628
vt 0.055806 0.666387
vt 0.071647 0.645956
vt 0.094459 0.652848
vt 0.221245 0.116517
vt 0.248194 0.111894
vt 0.597878 0.805996
vt 0.641315 0.803989
vt 0.644464 0.821743
vt 0.611432 0.828677
vt 0.473219 0.992674
vt 0.492426 0.971673
vt 0.507504 0.998159
vt 0.496031 0.964235
vt 0.761826 0.886154
vt 0.795309 0.868031
vt 0.785699 0.906344
vt 0.756142 0.863670
vt 0.842094 0.901056
vt 0.849529 0.881650
vt 0.007370 0.231002
vt 0.028834 0.231187
vt 0.035919 0.263150
vt 0.215217 0.845729
vt 0.187104 0.846413
vt 0.215814 0.806934
vt 0.238406 0.850564
vt 0.245224 0.852975
vt 0.446134 0.834354
vt 0.458643 0.838879
vt 0.449653 0.868319
vt 0.426921 0.895671
vt 0.452263 0.902583
vt 0.183687 0.807111
vt 0.425372 0.625836
vt 0.393378 0.657080
vt 0.404313 0.593597
vt 0.418074 0.683441
vt 0.434062 0.605396
vt 0.855909 0.773144
vt 0.179034 0.473511
vt 0.224764 0.502360
vt 0.202303 0.521206
vt 0.442813 0.531183
vt 0.407720 0.558682
vt 0.398613 0.524549
vt 0.410337 0.478791
vt 0.377827 0.487529
vt 0.446580 0.649014
vt 0.131785 0.420110
vt 0.162805 0.454875
vt 0.107995 0.467885
vt 0.160881 0.426801
vt 0.102128 0.424598
vt 0.112028 0.415037
vt 0.164710 0.603028
vt 0.168554 0.582158
vt 0.186916 0.624322
vt 0.193904 0.608291
vt 0.194712 0.578482
vt 0.808435 0.892946
vt 0.165768 0.498204
vt 0.184014 0.550829
vt 0.491321 0.594918
vt 0.458322 0.566090
vt 0.484466 0.565403
vt 0.139658 0.488337
vt 0.174502 0.760413
vt 0.150977 0.793297
vt 0.122173 0.778778
vt 0.478487 0.660296
vt 0.502596 0.640126
vt 0.514580 0.677389
vt 0.657651 0.105313
vt 0.469920 0.269134
vt 0.458166 0.251327
vt 0.587741 0.068146
vt 0.582688 0.087399
vt 0.417317 0.082661
vt 0.418233 0.114022
vt 0.414740 0.099425
vt 0.369307 0.078748
vt 0.342262 0.095280
vt 0.352676 0.128382
vt 0.394062 0.120382
vt 0.034025 0.578067
vt 0.514295 0.285509
vt 0.489196 0.305502
vt 0.478863 0.339655
vt 0.452815 0.328576
vt 0.462700 0.303151
vt 0.538657 0.278440
vt 0.500958 0.323596
vt 0.367901 0.556841
vt 0.362037 0.591442
vt 0.347375 0.549101
vt 0.346762 0.154893
vt 0.389036 0.137667
vt 0.385866 0.145199
vt 0.363756 0.169037
vt 0.677360 0.839044
vt 0.685472 0.852023
vt 0.643345 0.847649
vt 0.347395 0.587347
vt 0.875649 0.150308
vt 0.829024 0.127019
vt 0.839723 0.095488
vt 0.818743 0.106833
vt 0.697070 0.741340
vt 0.668956 0.737671
vt 0.705646 0.707697
vt 0.679289 0.886003
vt 0.624010 0.894160
vt 0.618580 0.862047
vt 0.683714 0.680828
vt 0.690313 0.699584
vt 0.915920 0.117402
vt 0.883741 0.101033
vt 0.314926 0.506956
vt 0.276338 0.478299
vt 0.312603 0.453608
vt 0.290611 0.448067
vt 0.228744 0.375006
vt 0.227088 0.383656
vt 0.270161 0.525788
vt 0.299678 0.514012
vt 0.329162 0.486330
vt 0.141518 0.835498
vt 0.162337 0.860983
vt 0.114876 0.857486
vt 0.119822 0.885067
vt 0.096598 0.883234
vt 0.366896 0.615817
vt 0.354115 0.634906
vt 0.359904 0.600899
vt 0.735709 0.892916
vt 0.717485 0.923696
vt 0.718151 0.884963
vt 0.747659 0.927699
vt 0.907951 0.087596
vt 0.699197 0.889544
vt 0.698883 0.872528
vt 0.865244 0.727427
vt 0.829909 0.752768
vt 0.827843 0.718479
vt 0.853437 0.709062
vt 0.837903 0.709636
vt 0.802026 0.742129
vt 0.002383 0.940623
vt 0.012227 0.935997
vt 0.012869 0.956829
vt 0.003842 0.954887
vt 0.791923 0.713020
vt 0.555736 0.888065
vt 0.561883 0.872478
vt 0.591366 0.896206
vt 0.591454 0.859433
vt 0.067268 0.511532
vt 0.089219 0.523045
vt 0.067082 0.521920
vt 0.125831 0.515752
vt 0.121073 0.536547
vt 0.096127 0.526401
vt 0.740723 0.722920
vt 0.745522 0.738523
vt 0.722554 0.731969
vt 0.343641 0.604989
vt 0.086234 0.484604
vt 0.312416 0.440396
vt 0.150166 0.883021
vt 0.116599 0.121667
vt 0.122791 0.088126
vt 0.149522 0.099939
vt 0.140165 0.134016
vt 0.111240 0.835368
vt 0.502801 0.044415
vt 0.497238 0.013438
vt 0.532998 0.013732
vt 0.554607 0.061973
vt 0.530997 0.060298
vt 0.574136 0.031693
vt 0.524727 0.563477
vt 0.487759 0.548809
vt 0.504760 0.524388
vt 0.480556 0.526765
vt 0.335446 0.799395
vt 0.286289 0.783582
vt 0.312248 0.756811
vt 0.293308 0.746868
vt 0.532094 0.543026
vt 0.556884 0.502001
vt 0.521341 0.460700
vt 0.549089 0.461944
vt 0.273947 0.774094
vt 0.487556 0.471745
vt 0.506661 0.448416
vt 0.604603 0.504732
vt 0.574041 0.560460
vt 0.317662 0.281695
vt 0.275026 0.279216
vt 0.303882 0.222936
vt 0.317321 0.257202
vt 0.258595 0.238265
vt 0.601485 0.476161
vt 0.906520 0.484809
vt 0.872205 0.467362
vt 0.897328 0.447975
vt 0.869917 0.451833
vt 0.878114 0.428264
vt 0.916081 0.424743
vt 0.943944 0.489442
vt 0.967148 0.380145
vt 0.972780 0.485423
vt 0.916250 0.375232
vt 0.303682 0.186816
vt 0.941910 0.362500
vt 0.930874 0.362888
vt 0.920609 0.360613
vt 0.164585 0.973304
vt 0.178710 0.962779
vt 0.177680 0.990253
vt 0.151697 0.987507
vt 0.855371 0.995702
vt 0.839877 0.988100
vt 0.866661 0.984361
vt 0.841902 0.977871
vt 0.686467 0.962862
vt 0.674925 0.987138
vt 0.669788 0.968747
vt 0.802890 0.924351
vt 0.811544 0.959434
vt 0.789533 0.950523
vt 0.773466 0.938492
vt 0.774509 0.921971
vt 0.590539 0.949946
vt 0.578456 0.932802
vt 0.600501 0.927738
vt 0.569274 0.951418
vt 0.617853 0.950289
vt 0.714509 0.773159
vt 0.680765 0.773874
vt 0.698261 0.762936
vt 0.732749 0.777567
vt 0.718040 0.808354
vt 0.728589 0.804590
vt 0.737790 0.804572
vt 0.681865 0.798449
vt 0.666375 0.791353
vt 0.667013 0.806062
vt 0.098549 0.817556
vt 0.082219 0.825364
vt 0.083089 0.792357
vt 0.072397 0.774904
vt 0.084768 0.762688
vt 0.096277 0.771948
vt 0.066494 0.820571
vt 0.258893 0.807569
vt 0.268951 0.794294
vt 0.218002 0.668168
vt 0.243879 0.657393
vt 0.240451 0.681481
vt 0.275222 0.665109
vt 0.255620 0.697870
vt 0.272021 0.644856
vt 0.814934 0.067219
vt 0.801436 0.050932
vt 0.825082 0.044305
vt 0.809707 0.022590
vt 0.261774 0.727547
vt 0.272970 0.709875
vt 0.355671 0.820651
vt 0.373742 0.797160
vt 0.392079 0.860874
vt 0.409561 0.800575
vt 0.853613 0.051274
vt 0.860015 0.075439
vt 0.827767 0.076770
vt 0.533066 0.201095
vt 0.583410 0.205342
vt 0.605711 0.249036
vt 0.516891 0.221415
vt 0.546352 0.249597
vt 0.600923 0.294002
vt 0.442162 0.928902
vt 0.422169 0.925221
vt 0.437371 0.918580
vt 0.438780 0.960650
vt 0.408237 0.945641
vt 0.391522 0.936211
vt 0.422222 0.820332
vt 0.428261 0.834764
vt 0.398755 0.961132
vt 0.623305 0.204699
vt 0.635102 0.233352
vt 0.885908 0.060741
vt 0.326860 0.076188
vt 0.317056 0.083343
vt 0.295364 0.078788
vt 0.314124 0.112196
vt 0.297527 0.110045
vt 0.286465 0.050878
vt 0.323931 0.051807
vt 0.328783 0.164475
vt 0.333606 0.216104
vt 0.329102 0.181371
vt 0.891062 0.038130
vt 0.616802 0.307141
vt 0.631313 0.290299
vt 0.894823 0.408059
vt 0.593852 0.297739
vt 0.460163 0.749773
vt 0.477238 0.750202
vt 0.460258 0.777196
vt 0.489037 0.797582
vt 0.487977 0.756955
vt 0.104068 0.916286
vt 0.080467 0.929500
vt 0.078994 0.898594
vt 0.271855 0.847864
vt 0.312406 0.826967
vt 0.317682 0.858302
vt 0.298430 0.873713
vt 0.334478 0.873152
vt 0.071624 0.188462
vt 0.104869 0.202820
vt 0.087420 0.213220
vt 0.103248 0.172591
vt 0.055090 0.172291
vt 0.081597 0.143344
vt 0.464985 0.413799
vt 0.494455 0.393064
vt 0.511500 0.411981
vt 0.471669 0.389511
vt 0.443043 0.364385
vt 0.472041 0.355420
vt 0.424520 0.392266
vt 0.679421 0.370631
vt 0.696279 0.378275
vt 0.670093 0.385911
vt 0.647814 0.354089
vt 0.644558 0.362540
vt 0.634256 0.373609
vt 0.640558 0.399706
vt 0.483207 0.437561
vt 0.466482 0.461170
vt 0.448921 0.485867
vt 0.437857 0.455720
vt 0.250117 0.014482
vt 0.261223 0.014170
vt 0.248340 0.038376
vt 0.217609 0.056739
vt 0.211802 0.036135
vt 0.243148 0.075291
vt 0.229055 0.088450
vt 0.691939 0.459298
vt 0.684741 0.429981
vt 0.643231 0.460135
vt 0.653346 0.429928
vt 0.631102 0.426389
vt 0.149281 0.546111
vt 0.159016 0.562365
vt 0.123597 0.594633
vt 0.125057 0.559886
vt 0.648250 0.497204
vt 0.065094 0.926144
vt 0.048084 0.915461
vt 0.819186 0.538014
vt 0.787882 0.515511
vt 0.833116 0.521005
vt 0.796519 0.461081
vt 0.761505 0.462836
vt 0.840930 0.474577
vt 0.861619 0.504391
vt 0.767610 0.451823
vt 0.733223 0.545912
vt 0.734978 0.519415
vt 0.726383 0.541964
vt 0.694398 0.525131
vt 0.694966 0.494652
vt 0.727019 0.475536
vt 0.152987 0.635924
vt 0.140378 0.648054
vt 0.152611 0.630321
vt 0.805072 0.990833
vt 0.796562 0.975564
vt 0.818492 0.981988
vt 0.795614 0.992577
vt 0.094115 0.103491
vt 0.058840 0.103493
vt 0.068517 0.069959
vt 0.623345 0.476866
vt 0.113150 0.730094
vt 0.078737 0.694000
vt 0.108108 0.700089
vt 0.074426 0.727828
vt 0.124181 0.712106
vt 0.134052 0.719399
vt 0.289684 0.583376
vt 0.308249 0.545030
vt 0.334164 0.590970
vt 0.312092 0.624997
vt 0.327316 0.601145
vt 0.852302 0.294357
vt 0.868461 0.258838
vt 0.885935 0.304050
vt 0.923755 0.305473
vt 0.874297 0.327841
vt 0.083849 0.118358
vt 0.079818 0.120457
vt 0.361131 0.886443
vt 0.404034 0.903141
vt 0.388085 0.912835
vt 0.905106 0.343394
vt 0.128377 0.686889
vt 0.109674 0.642704
vt 0.458215 0.939679
vt 0.476811 0.952661
vt 0.461878 0.966955
vt 0.945564 0.308917
vt 0.963262 0.280453
vt 0.955280 0.260871
vt 0.509078 0.771223
vt 0.047385 0.372789
vt 0.032366 0.395748
vt 0.028952 0.378773
vt 0.499368 0.100760
vt 0.450823 0.091272
vt 0.469391 0.071924
vt 0.513875 0.074144
vt 0.545897 0.084796
vt 0.481988 0.056472
vt 0.465073 0.121799
vt 0.168860 0.134513
vt 0.189500 0.151725
vt 0.167517 0.200345
vt 0.191681 0.202051
vt 0.022496 0.095945
vt 0.018242 0.116892
vt 0.007973 0.108983
vt 0.002774 0.074031
vt 0.351640 0.916054
vt 0.275151 0.928573
vt 0.322577 0.927532
vt 0.297546 0.938274
vt 0.285088 0.948220
vt 0.653751 0.022947
vt 0.673068 0.056917
vt 0.650427 0.049367
vt 0.712236 0.036928
vt 0.723596 0.053044
vt 0.314687 0.954584
vt 0.957578 0.525180
vt 0.952672 0.551778
vt 0.937874 0.533399
vt 0.969015 0.536895
vt 0.056048 0.573620
vt 0.077018 0.614193
vt 0.059022 0.614290
vt 0.097748 0.579574
vt 0.097583 0.612451
vt 0.929231 0.554824
vt 0.924315 0.552517
vt 0.423306 0.363000
vt 0.402304 0.338362
vt 0.420603 0.326966
vt 0.423497 0.274586
vt 0.419536 0.265619
vt 0.426293 0.260347
vt 0.358397 0.301640
vt 0.369032 0.353908
vt 0.468253 0.647117
vt 0.737477 0.653944
vt 0.755465 0.629493
vt 0.783447 0.652587
vt 0.821630 0.640104
vt 0.788905 0.618900
vt 0.806636 0.663966
vt 0.822386 0.692554
vt 0.692090 0.080228
vt 0.757277 0.073537
vt 0.730381 0.129992
vt 0.772809 0.138458
vt 0.777424 0.082489
vt 0.175989 0.406828
vt 0.176369 0.335413
vt 0.197953 0.357616
vt 0.378895 0.772519
vt 0.354389 0.782184
vt 0.367997 0.757957
vt 0.425931 0.775015
vt 0.408886 0.771570
vt 0.433411 0.772430
vt 0.388946 0.719855
vt 0.405469 0.737767
vt 0.397036 0.785121
vt 0.837921 0.688820
vt 0.592224 0.986916
vt 0.610050 0.978293
vt 0.618812 0.993592
vt 0.019989 0.833573
vt 0.030939 0.837037
vt 0.018388 0.840671
vt 0.254150 0.542442
vt 0.256697 0.588658
vt 0.237299 0.557893
vt 0.214090 0.572373
vt 0.226425 0.622702
vt 0.210303 0.606932
vt 0.269796 0.603415
vt 0.257949 0.619140
vt 0.354837 0.246308
vt 0.359456 0.262035
vt 0.271750 0.572892
vt 0.369676 0.224336
vt 0.695659 0.131992
vt 0.216473 0.958587
vt 0.211357 0.928472
vt 0.240702 0.951869
vt 0.890275 0.158730
vt 0.905178 0.162419
vt 0.882632 0.183674
vt 0.900096 0.231260
vt 0.933939 0.224043
vt 0.934914 0.241677
vt 0.924240 0.706823
vt 0.894792 0.687204
vt 0.927957 0.680921
vt 0.959846 0.688066
vt 0.950707 0.644599
vt 0.940454 0.176144
vt 0.925408 0.164890
vt 0.983654 0.661732
vt 0.978334 0.687174
vt 0.983354 0.674798
vt 0.977659 0.642534
vt 0.982484 0.635683
vt 0.973207 0.601418
vt 0.525129 0.883223
vt 0.534220 0.900828
vt 0.488619 0.908249
vt 0.515366 0.951253
vt 0.550651 0.926348
vt 0.408748 0.981708
vt 0.417344 0.975366
vt 0.424096 0.975784
vt 0.949469 0.579208
vt 0.893872 0.656601
vt 0.907747 0.621564
vt 0.663868 0.912865
vt 0.672334 0.939613
vt 0.641010 0.921129
vt 0.649965 0.959702
vt 0.973204 0.364338
vt 0.960863 0.338538
vt 0.978239 0.365936
vt 0.972606 0.574484
vt 0.025163 0.333150
vt 0.046224 0.299491
vt 0.060583 0.338352
vt 0.069325 0.303715
vt 0.988475 0.323484
vt 0.994410 0.352026
vt 0.071236 0.430687
vt 0.067371 0.464284
vt 0.033965 0.463333
vt 0.046648 0.479981
vt 0.035031 0.436398
vt 0.037842 0.423127
vt 0.028520 0.474140
vt 0.254349 0.896740
vt 0.230700 0.908042
vt 0.227881 0.879205
vt 0.010488 0.869107
vt 0.042050 0.870919
vt 0.026311 0.874568
vt 0.244346 0.865172
vt 0.968264 0.772623
vt 0.970298 0.756215
vt 0.990001 0.759264
vt 0.717486 0.987850
vt 0.704612 0.991739
vt 0.717052 0.974925
vt 0.454264 0.718336
vt 0.454887 0.703656
vt 0.488088 0.705883
vt 0.474989 0.693076
vt 0.509292 0.738313
vt 0.528017 0.710997
vt 0.479581 0.731746
vt 0.537805 0.743705
vt 0.983091 0.165044
vt 0.981109 0.199695
vt 0.036922 0.953786
vt 0.057398 0.947354
vt 0.072099 0.968148
vt 0.051679 0.980450
vt 0.570939 0.004510
s 1
f 66/1/1 90/2/2 60/3/3
f 91/4/4 60/3/3 90/2/2
f 73/5/5 72/6/6 60/3/3
f 43/7/7 73/5/5 60/3/3
f 91/4/4 128/8/8 83/9/9
f 60/3/3 91/4/4 44/10/10
f 153/11/11 130/12/12 119/13/13
f 130/12/12 90/14/2 66/15/1
f 91/16/4 90/14/2 128/17/8
f 119/18/13 118/19/14 147/20/15
f 66/21/1 119/18/13 130/22/12
f 128/17/8 90/14/2 130/12/12
f 36/23/16 3/24/17 14/25/18
f 36/23/16 14/25/18 21/26/19
f 3/24/17 6/27/20 14/25/18
f 14/25/18 6/27/20 10/28/21
f 37/29/22 43/7/7 60/3/3
f 21/30/19 37/29/22 60/3/3
f 44/10/10 21/30/19 60/3/3
f 91/4/4 83/9/9 65/31/23
f 44/10/10 91/4/4 65/31/23
f 44/32/10 65/33/23 21/34/19
f 21/34/19 65/33/23 83/35/9
f 83/36/9 85/37/24 70/38/25
f 21/34/19 83/35/9 36/39/16
f 83/35/9 70/38/25 36/39/16
f 128/40/8 226/41/26 83/42/9
f 128/17/8 130/12/12 153/11/11
f 174/43/27 128/17/8 153/11/11
f 73/44/5 81/45/28 72/46/6
f 118/19/14 72/47/6 99/48/29
f 104/49/30 97/50/31 170/51/32
f 170/51/32 132/52/33 104/49/30
f 72/53/6 81/54/28 99/55/29
f 104/56/30 99/55/29 81/54/28
f 81/54/28 97/57/31 104/56/30
f 99/58/29 98/59/34 118/60/14
f 99/61/29 104/62/30 98/63/34
f 72/47/6 118/19/14 119/18/13
f 72/47/6 119/18/13 66/21/1
f 132/64/33 98/63/34 104/62/30
f 147/65/15 118/66/14 151/67/35
f 118/66/14 132/68/33 148/69/36
f 160/70/37 148/69/36 132/68/33
f 118/66/14 98/71/34 132/68/33
f 151/67/35 118/66/14 148/69/36
f 170/72/32 160/73/37 132/74/33
f 48/75/38 2/76/39 11/77/40
f 10/78/21 48/75/38 14/79/18
f 48/75/38 46/80/41 14/79/18
f 14/79/18 46/80/41 43/81/7
f 82/82/42 48/75/38 33/83/43
f 46/80/41 48/75/38 82/82/42
f 48/75/38 11/84/40 33/83/43
f 10/78/21 2/76/39 48/75/38
f 51/85/44 28/86/45 7/87/46
f 27/88/47 51/85/44 16/89/48
f 27/88/47 62/90/49 51/85/44
f 7/87/46 16/89/48 51/85/44
f 23/91/50 28/92/45 11/93/40
f 43/81/7 37/94/22 21/95/19
f 43/81/7 21/95/19 14/79/18
f 51/96/44 33/97/43 28/98/45
f 6/27/20 64/99/51 10/28/21
f 10/28/21 64/99/51 54/100/52
f 68/101/53 73/44/5 43/102/7
f 112/103/54 68/101/53 46/104/41
f 68/101/53 112/103/54 97/105/31
f 43/81/7 46/80/41 68/106/53
f 82/82/42 112/107/54 46/80/41
f 82/108/42 51/109/44 123/110/55
f 62/111/49 59/112/56 51/109/44
f 66/1/1 60/3/3 72/113/6
f 81/45/28 73/44/5 97/105/31
f 73/44/5 68/101/53 97/105/31
f 112/114/54 82/115/42 123/116/55
f 33/117/43 51/109/44 82/108/42
f 143/118/57 144/119/58 155/120/59
f 129/121/60 138/122/61 97/123/31
f 138/122/61 129/121/60 143/118/57
f 97/123/31 112/124/54 129/121/60
f 144/119/58 143/118/57 129/121/60
f 123/110/55 51/109/44 59/112/56
f 170/125/32 97/126/31 138/127/61
f 15/128/62 3/129/17 36/130/16
f 22/131/63 3/129/17 15/128/62
f 15/128/62 36/130/16 22/131/63
f 26/132/64 24/133/65 22/134/63
f 22/134/63 24/133/65 34/135/66
f 26/132/64 22/134/63 45/136/67
f 42/137/68 34/135/66 45/136/67
f 34/135/66 24/133/65 45/136/67
f 26/132/64 45/136/67 24/133/65
f 85/138/24 36/130/16 70/139/25
f 45/140/67 22/131/63 36/130/16
f 45/140/67 36/130/16 85/138/24
f 92/141/69 45/140/67 85/138/24
f 75/142/70 42/143/68 45/144/67
f 42/143/68 52/145/71 64/146/51
f 75/147/70 103/148/72 61/149/73
f 125/150/74 103/148/72 109/151/75
f 75/147/70 109/151/75 103/148/72
f 75/142/70 45/144/67 92/152/69
f 102/153/76 61/154/73 103/155/72
f 109/151/75 75/147/70 92/156/69
f 125/150/74 109/151/75 92/156/69
f 175/157/77 92/156/69 85/158/24
f 125/150/74 92/156/69 175/157/77
f 42/159/68 75/147/70 61/160/73
f 141/161/78 102/153/76 103/155/72
f 141/161/78 103/155/72 171/162/79
f 166/163/80 103/148/72 125/150/74
f 271/164/81 234/165/82 175/166/77
f 103/148/72 166/163/80 171/167/79
f 86/168/83 61/154/73 102/153/76
f 86/168/83 102/153/76 136/169/84
f 141/161/78 136/169/84 102/153/76
f 10/170/21 1/171/85 2/172/39
f 54/173/52 1/171/85 10/170/21
f 5/174/86 18/175/87 4/176/88
f 6/177/20 3/178/17 64/179/51
f 3/178/17 22/180/63 64/179/51
f 64/179/51 52/181/71 54/182/52
f 1/183/85 54/184/52 13/185/89
f 2/186/39 1/187/85 11/188/40
f 33/189/43 11/188/40 28/190/45
f 52/191/71 29/192/90 19/193/91
f 5/194/86 13/195/89 19/193/91
f 19/193/91 13/195/89 52/191/71
f 11/196/40 1/197/85 13/198/89
f 11/196/40 13/198/89 23/199/50
f 5/194/86 4/200/88 13/195/89
f 4/201/88 9/202/92 13/203/89
f 8/204/93 4/201/88 18/205/87
f 9/206/92 8/204/93 18/205/87
f 18/207/87 19/208/91 49/209/94
f 18/207/87 5/174/86 19/208/91
f 9/210/92 23/211/50 13/212/89
f 9/210/92 31/213/95 23/211/50
f 29/214/90 20/215/96 50/216/97
f 30/217/98 50/216/97 32/218/99
f 20/219/96 29/220/90 42/221/68
f 42/222/68 61/223/73 32/224/99
f 42/225/68 29/226/90 52/227/71
f 49/228/94 55/229/100 53/230/101
f 19/231/91 29/214/90 55/232/100
f 79/233/102 55/232/100 50/216/97
f 79/233/102 50/216/97 30/217/98
f 86/234/83 79/233/102 30/217/98
f 55/229/100 49/228/94 19/235/91
f 32/224/99 20/219/96 42/222/68
f 64/179/51 22/180/63 34/236/66
f 55/232/100 29/214/90 50/216/97
f 52/191/71 13/195/89 54/237/52
f 86/238/83 32/239/99 61/154/73
f 53/240/101 108/241/103 49/242/94
f 64/243/51 34/135/66 42/137/68
f 108/241/103 35/244/104 49/242/94
f 53/245/101 79/246/102 124/247/105
f 142/248/106 124/247/105 79/246/102
f 79/246/102 53/245/101 55/249/100
f 108/250/103 53/245/101 124/247/105
f 79/251/102 134/252/107 142/253/106
f 162/254/108 142/253/106 134/252/107
f 20/215/96 32/218/99 50/216/97
f 30/217/98 32/218/99 86/234/83
f 106/255/109 79/251/102 86/256/83
f 79/251/102 106/255/109 134/252/107
f 106/257/109 86/168/83 134/258/107
f 134/258/107 86/168/83 136/169/84
f 162/259/108 134/258/107 136/169/84
f 100/260/110 84/261/111 88/262/112
f 84/261/111 105/263/113 115/264/114
f 105/265/113 84/266/111 107/267/115
f 107/267/115 84/266/111 100/268/110
f 88/269/112 105/270/113 100/271/110
f 115/272/114 105/270/113 88/269/112
f 100/273/110 115/274/114 137/275/116
f 107/276/115 100/277/110 114/278/117
f 139/279/118 114/278/117 100/277/110
f 117/280/119 137/281/116 115/282/114
f 100/283/110 137/284/116 139/285/118
f 139/285/118 137/284/116 164/286/120
f 164/286/120 165/287/121 139/285/118
f 164/288/120 137/289/116 157/290/122
f 117/291/119 158/292/123 149/293/124
f 117/291/119 149/293/124 137/294/116
f 157/295/122 137/294/116 149/293/124
f 149/293/124 164/296/120 157/295/122
f 7/297/46 28/298/45 23/299/50
f 27/300/47 16/301/48 17/302/125
f 38/303/126 40/304/127 17/302/125
f 17/302/125 16/301/48 7/305/46
f 17/302/125 40/304/127 27/300/47
f 40/304/127 62/306/49 27/300/47
f 56/307/128 59/308/56 40/309/127
f 78/310/129 71/311/130 56/307/128
f 40/309/127 38/312/126 56/307/128
f 76/313/131 59/314/56 57/315/132
f 56/316/128 95/317/133 57/315/132
f 59/314/56 62/318/49 40/319/127
f 59/314/56 56/316/128 57/315/132
f 78/310/129 56/307/128 77/320/134
f 77/320/134 56/307/128 38/312/126
f 95/321/133 56/322/128 71/323/130
f 74/324/135 95/321/133 71/323/130
f 59/112/56 76/325/131 123/110/55
f 123/110/55 76/325/131 113/326/136
f 76/327/131 57/328/132 84/329/111
f 113/330/136 76/327/131 84/329/111
f 57/331/132 95/332/133 88/333/112
f 95/332/133 117/334/119 88/333/112
f 78/335/129 80/336/137 71/337/130
f 116/338/138 80/336/137 78/335/129
f 113/339/136 84/340/111 115/274/114
f 115/274/114 100/273/110 113/339/136
f 88/341/112 84/342/111 57/343/132
f 107/344/115 114/345/117 113/346/136
f 107/344/115 113/346/136 105/347/113
f 113/346/136 100/348/110 105/347/113
f 115/349/114 88/350/112 117/351/119
f 150/352/139 117/351/119 135/353/140
f 139/354/118 113/346/136 114/345/117
f 135/355/140 152/356/141 167/357/142
f 95/358/133 152/356/141 135/355/140
f 167/357/142 150/359/139 135/355/140
f 117/291/119 150/360/139 158/292/123
f 80/361/137 116/362/138 121/363/143
f 123/364/55 113/365/136 139/366/118
f 204/367/144 123/364/55 139/366/118
f 193/368/145 204/367/144 139/366/118
f 117/369/119 95/358/133 135/355/140
f 152/370/141 121/371/143 145/372/146
f 121/371/143 152/370/141 95/373/133
f 152/370/141 145/372/146 176/374/147
f 176/374/147 187/375/148 152/370/141
f 164/376/120 149/377/124 165/378/121
f 165/379/121 149/377/124 194/380/149
f 71/337/130 80/336/137 74/381/135
f 74/382/135 121/363/143 95/383/133
f 80/361/137 121/363/143 74/382/135
f 161/384/150 121/385/143 116/386/138
f 145/372/146 121/371/143 161/387/150
f 161/388/150 176/389/147 145/390/146
f 176/391/147 183/392/151 187/393/148
f 9/394/92 4/201/88 8/204/93
f 47/395/152 25/396/153 9/210/92
f 18/205/87 35/397/104 9/206/92
f 49/398/94 35/397/104 18/205/87
f 17/399/125 23/400/50 12/401/154
f 38/402/126 17/399/125 12/401/154
f 77/403/134 38/402/126 63/404/155
f 23/400/50 31/405/95 12/401/154
f 17/406/125 7/297/46 23/299/50
f 31/213/95 25/396/153 47/395/152
f 47/395/152 9/210/92 41/407/156
f 47/395/152 41/407/156 39/408/157
f 39/408/157 58/409/158 67/410/159
f 67/410/159 69/411/160 39/408/157
f 47/395/152 69/411/160 67/410/159
f 9/210/92 25/396/153 31/213/95
f 41/407/156 9/210/92 35/412/104
f 39/408/157 41/407/156 96/413/161
f 12/401/154 31/405/95 38/402/126
f 63/404/155 38/402/126 31/405/95
f 47/395/152 39/408/157 69/411/160
f 39/414/157 96/415/161 58/416/158
f 94/417/162 63/404/155 31/405/95
f 31/405/95 47/418/152 67/419/159
f 31/405/95 67/420/159 94/417/162
f 96/421/161 41/422/156 126/423/163
f 89/424/164 58/416/158 96/415/161
f 94/425/162 67/426/159 89/427/164
f 58/428/158 89/427/164 67/426/159
f 110/429/165 89/430/164 122/431/166
f 126/423/163 35/432/104 108/433/103
f 126/423/163 108/433/103 169/434/167
f 126/423/163 41/422/156 35/432/104
f 120/435/168 122/436/166 89/430/164
f 140/437/169 94/425/162 110/438/165
f 94/425/162 89/427/164 110/438/165
f 77/439/134 101/440/170 87/441/171
f 87/441/171 101/440/170 111/442/172
f 116/443/138 78/310/129 77/444/134
f 63/445/155 101/440/170 77/446/134
f 116/447/138 77/439/134 87/441/171
f 161/448/150 116/449/138 131/450/173
f 131/450/173 116/449/138 93/451/174
f 93/451/174 111/452/172 131/450/173
f 126/453/163 120/454/168 96/455/161
f 101/456/170 94/457/162 127/458/175
f 94/457/162 101/456/170 63/459/155
f 159/460/176 140/437/169 110/438/165
f 127/458/175 94/457/162 140/461/169
f 146/462/177 127/458/175 140/461/169
f 111/463/172 101/464/170 133/465/178
f 133/465/178 131/466/173 111/463/172
f 168/467/179 131/466/173 133/465/178
f 127/468/175 133/465/178 101/464/170
f 122/469/166 120/470/168 126/471/163
f 169/472/167 122/469/166 126/471/163
f 146/473/177 133/465/178 127/468/175
f 172/474/180 122/475/166 156/476/181
f 156/476/181 122/475/166 169/477/167
f 110/478/165 172/479/180 173/480/182
f 156/481/181 173/482/182 172/483/180
f 173/484/182 159/485/176 110/486/165
f 89/487/164 96/455/161 120/454/168
f 172/479/180 110/478/165 122/488/166
f 111/442/172 93/489/174 87/441/171
f 93/451/174 116/449/138 87/490/171
f 154/491/183 163/492/184 131/493/173
f 154/491/183 131/493/173 168/494/179
f 131/450/173 163/495/184 161/448/150
f 161/496/150 163/497/184 181/498/185
f 210/499/186 183/500/151 161/496/150
f 229/501/187 210/499/186 161/496/150
f 153/502/11 119/503/13 182/504/188
f 119/503/13 186/505/189 182/504/188
f 147/506/15 188/507/190 119/508/13
f 188/507/190 186/509/189 119/508/13
f 174/510/27 153/502/11 182/504/188
f 200/511/191 174/510/27 182/504/188
f 200/511/191 222/512/192 236/513/193
f 186/509/189 188/507/190 222/514/192
f 186/505/189 222/512/192 182/504/188
f 222/512/192 188/515/190 241/516/194
f 174/510/27 226/517/26 128/518/8
f 85/519/24 83/520/9 179/521/195
f 85/519/24 179/521/195 175/522/77
f 226/523/26 179/521/195 83/520/9
f 174/510/27 200/511/191 226/517/26
f 200/511/191 182/504/188 222/512/192
f 200/511/191 236/513/193 253/524/196
f 200/511/191 253/524/196 226/517/26
f 236/525/193 222/526/192 266/527/197
f 266/527/197 222/526/192 277/528/198
f 277/528/198 225/529/199 266/527/197
f 266/527/197 225/529/199 232/530/200
f 266/527/197 232/530/200 236/525/193
f 236/525/193 232/530/200 253/531/196
f 243/532/201 226/533/26 255/534/202
f 255/534/202 226/533/26 232/530/200
f 243/535/201 179/521/195 226/523/26
f 232/530/200 226/533/26 253/531/196
f 243/532/201 255/534/202 286/536/203
f 286/537/203 255/534/202 291/538/204
f 196/539/205 217/540/206 147/541/15
f 151/542/35 196/539/205 147/541/15
f 148/543/36 160/544/37 151/545/35
f 160/544/37 170/546/32 151/545/35
f 151/547/35 170/548/32 195/549/207
f 188/550/190 147/551/15 217/552/206
f 217/552/206 239/553/208 259/554/209
f 188/550/190 217/552/206 259/554/209
f 196/555/205 195/556/207 209/557/210
f 151/558/35 195/556/207 196/555/205
f 217/559/206 196/555/205 209/557/210
f 170/560/32 209/561/210 195/562/207
f 170/560/32 138/563/61 144/564/58
f 155/565/59 138/563/61 143/566/57
f 209/561/210 219/567/211 217/568/206
f 217/568/206 219/567/211 238/569/212
f 217/570/206 238/571/212 239/572/208
f 258/573/213 241/574/194 259/575/209
f 259/575/209 239/572/208 258/573/213
f 239/572/208 238/571/212 219/576/211
f 259/577/209 241/578/194 188/507/190
f 112/579/54 191/580/214 129/581/60
f 219/582/211 144/583/58 225/584/199
f 191/580/214 225/584/199 144/583/58
f 129/581/60 191/580/214 144/583/58
f 191/585/214 112/586/54 185/587/215
f 112/586/54 123/588/55 185/587/215
f 155/589/59 144/583/58 138/590/61
f 204/591/144 233/592/216 123/593/55
f 230/594/217 123/593/55 233/592/216
f 224/595/218 240/596/219 211/597/220
f 191/585/214 185/587/215 211/597/220
f 211/598/220 240/599/219 265/600/221
f 191/601/214 211/598/220 225/602/199
f 211/598/220 265/600/221 287/603/222
f 225/602/199 211/598/220 287/603/222
f 144/604/58 219/605/211 170/606/32
f 219/567/211 209/561/210 170/560/32
f 185/587/215 224/595/218 211/597/220
f 219/605/211 225/607/199 237/608/223
f 219/605/211 237/608/223 239/609/208
f 215/610/224 185/611/215 123/593/55
f 123/593/55 230/594/217 215/610/224
f 239/609/208 237/608/223 258/612/213
f 276/613/225 265/600/221 240/599/219
f 290/614/226 265/600/221 276/613/225
f 276/615/225 240/596/219 224/595/218
f 225/616/199 277/617/198 258/618/213
f 222/619/192 241/620/194 277/617/198
f 237/621/223 225/622/199 258/618/213
f 185/623/215 215/624/224 224/625/218
f 277/617/198 241/620/194 258/618/213
f 276/615/225 224/595/218 215/626/224
f 287/603/222 265/600/221 255/627/202
f 265/600/221 246/628/227 255/627/202
f 287/629/222 232/530/200 225/529/199
f 287/603/222 255/627/202 232/630/200
f 215/631/224 288/632/228 276/633/225
f 278/634/229 276/633/225 288/635/228
f 171/636/79 189/637/230 141/638/78
f 125/639/74 175/640/77 203/641/231
f 125/639/74 203/641/231 205/642/232
f 203/641/231 175/640/77 234/643/82
f 205/644/232 166/645/80 125/646/74
f 205/644/232 171/647/79 166/645/80
f 171/647/79 205/644/232 234/648/82
f 214/649/233 171/647/79 234/648/82
f 214/650/233 189/651/230 171/652/79
f 189/651/230 214/650/233 202/653/234
f 178/654/235 141/655/78 202/653/234
f 214/650/233 223/656/236 178/654/235
f 202/653/234 214/650/233 178/654/235
f 205/657/232 203/658/231 234/659/82
f 214/660/233 234/659/82 247/661/237
f 260/662/238 234/659/82 251/663/239
f 234/659/82 260/662/238 247/661/237
f 247/664/237 260/665/238 214/650/233
f 260/665/238 275/666/240 254/667/241
f 175/668/77 179/669/195 243/670/201
f 271/671/81 175/672/77 243/670/201
f 286/673/203 291/674/204 271/671/81
f 286/673/203 271/671/81 243/670/201
f 271/675/81 268/676/242 234/659/82
f 268/676/242 251/663/239 234/659/82
f 268/676/242 263/677/243 274/678/244
f 257/679/245 251/663/239 274/678/244
f 274/678/244 251/663/239 268/676/242
f 271/675/81 263/677/243 268/676/242
f 257/679/245 274/678/244 263/677/243
f 291/680/204 255/681/202 246/682/227
f 271/683/81 291/680/204 246/682/227
f 263/677/243 271/675/81 246/684/227
f 141/638/78 189/685/230 202/686/234
f 142/687/106 199/688/246 124/689/105
f 124/689/105 199/688/246 220/690/247
f 220/690/247 199/688/246 245/691/248
f 124/689/105 220/690/247 201/692/249
f 124/689/105 201/692/249 108/693/103
f 245/691/248 227/694/250 220/690/247
f 180/695/251 223/696/236 199/688/246
f 223/696/236 245/691/248 199/688/246
f 223/696/236 180/695/251 198/697/252
f 214/698/233 280/699/253 223/696/236
f 223/696/236 280/699/253 267/700/254
f 289/701/255 227/702/250 273/703/256
f 260/665/238 254/667/241 214/650/233
f 223/696/236 267/700/254 245/691/248
f 246/704/227 251/705/239 257/706/245
f 251/705/239 246/704/227 262/707/257
f 265/708/221 262/709/257 246/710/227
f 246/684/227 257/711/245 263/677/243
f 248/712/258 260/713/238 251/714/239
f 275/715/240 260/713/238 248/712/258
f 248/712/258 251/716/239 262/717/257
f 262/718/257 278/719/229 273/720/256
f 248/721/258 262/718/257 273/722/256
f 275/723/240 248/724/258 281/725/259
f 273/726/256 281/725/259 248/724/258
f 275/723/240 281/725/259 245/727/248
f 262/709/257 265/728/221 290/729/226
f 275/730/240 245/731/248 267/732/254
f 245/727/248 281/725/259 227/733/250
f 281/725/259 273/726/256 227/733/250
f 227/702/250 201/734/249 220/735/247
f 276/736/225 278/737/229 290/738/226
f 289/739/255 273/726/256 293/740/260
f 273/726/256 278/741/229 293/740/260
f 282/742/261 278/634/229 288/635/228
f 262/743/257 290/744/226 278/745/229
f 178/746/235 198/747/252 180/748/251
f 178/746/235 136/749/84 141/750/78
f 162/751/108 136/749/84 180/748/251
f 136/749/84 178/746/235 180/748/251
f 178/746/235 223/752/236 198/747/252
f 162/753/108 180/754/251 142/755/106
f 180/754/251 199/756/246 142/755/106
f 280/757/253 214/758/233 254/759/241
f 254/759/241 267/760/254 280/757/253
f 267/732/254 254/761/241 275/730/240
f 194/762/149 149/763/124 197/764/262
f 194/762/149 197/764/262 221/765/263
f 150/766/139 149/767/124 158/768/123
f 150/766/139 213/769/264 149/767/124
f 213/769/264 221/770/263 149/767/124
f 221/771/263 197/764/262 149/763/124
f 194/772/149 193/773/145 165/774/121
f 194/772/149 218/775/265 193/773/145
f 221/776/263 218/777/265 194/778/149
f 218/777/265 204/779/144 193/780/145
f 218/777/265 221/776/263 204/779/144
f 193/781/145 139/782/118 165/774/121
f 167/783/142 190/784/266 150/785/139
f 213/786/264 233/787/216 221/788/263
f 187/789/148 213/786/264 150/785/139
f 150/785/139 190/784/266 187/789/148
f 152/790/141 187/789/148 190/784/266
f 167/783/142 152/790/141 190/784/266
f 183/392/151 176/791/147 161/384/150
f 204/792/144 221/793/263 233/794/216
f 187/795/148 233/794/216 213/796/264
f 250/797/267 270/798/268 233/794/216
f 212/799/269 242/800/270 183/801/151
f 187/802/148 242/800/270 231/803/271
f 230/804/217 233/805/216 270/806/268
f 261/807/272 187/808/148 231/809/271
f 261/810/272 256/811/273 228/812/274
f 212/813/269 210/814/186 231/809/271
f 256/811/273 231/809/271 210/814/186
f 256/811/273 261/815/272 231/809/271
f 250/797/267 187/795/148 261/816/272
f 233/794/216 187/795/148 250/797/267
f 270/817/268 261/818/272 244/819/275
f 250/797/267 261/816/272 270/798/268
f 228/820/274 244/821/275 261/822/272
f 230/823/217 279/824/276 285/825/277
f 285/825/277 264/826/278 230/823/217
f 285/825/277 279/824/276 264/826/278
f 279/824/276 228/827/274 264/826/278
f 264/826/278 228/827/274 216/828/279
f 270/829/268 244/830/275 279/824/276
f 228/827/274 279/824/276 244/830/275
f 215/624/224 292/831/280 288/832/228
f 230/823/217 270/833/268 279/824/276
f 215/624/224 230/834/217 292/831/280
f 230/834/217 288/832/228 292/831/280
f 183/801/151 242/800/270 187/802/148
f 210/835/186 212/799/269 183/801/151
f 242/836/270 212/837/269 231/838/271
f 177/839/281 140/840/169 184/841/282
f 235/842/283 184/841/282 208/843/284
f 252/844/285 235/842/283 208/843/284
f 146/845/177 140/846/169 177/847/281
f 133/848/178 177/847/281 207/849/286
f 146/845/177 177/847/281 133/848/178
f 173/850/182 140/840/169 159/851/176
f 140/840/169 173/850/182 184/841/282
f 206/852/287 168/853/179 207/849/286
f 206/852/287 181/854/185 168/853/179
f 207/849/286 168/853/179 133/848/178
f 206/855/287 207/849/286 229/856/187
f 229/856/187 207/849/286 210/857/186
f 108/858/103 201/859/249 169/860/167
f 249/861/288 201/859/249 227/862/250
f 201/859/249 249/861/288 169/860/167
f 169/863/167 192/864/289 156/865/181
f 228/866/274 210/857/186 207/849/286
f 207/849/286 184/867/282 216/868/279
f 177/847/281 184/867/282 207/849/286
f 207/849/286 216/868/279 228/866/274
f 173/850/182 208/843/284 184/841/282
f 184/869/282 235/870/283 216/871/279
f 216/871/279 235/870/283 264/872/278
f 169/873/167 249/874/288 192/875/289
f 228/866/274 256/876/273 210/857/186
f 249/877/288 272/878/290 235/879/283
f 272/878/290 264/880/278 235/879/283
f 249/874/288 252/881/285 192/875/289
f 252/881/285 208/882/284 192/875/289
f 227/883/250 289/884/255 272/885/290
f 289/884/255 284/886/291 272/885/290
f 227/883/250 272/885/290 269/887/292
f 227/883/250 269/887/292 249/888/288
f 284/886/291 282/889/261 272/885/290
f 272/890/290 282/891/261 283/892/293
f 272/893/290 249/894/288 269/895/292
f 272/890/290 283/892/293 264/896/278
f 264/897/278 283/898/293 282/899/261
f 235/900/283 252/901/285 249/902/288
f 288/903/228 230/904/217 282/905/261
f 230/904/217 264/906/278 282/905/261
f 293/907/260 282/905/261 284/908/291
f 282/905/261 293/907/260 278/909/229
f 289/910/255 293/907/260 284/908/291
f 156/911/181 192/912/289 173/850/182
f 208/843/284 173/850/182 192/912/289
f 229/501/187 161/496/150 181/498/185
f 168/913/179 181/914/185 163/915/184
f 168/913/179 163/915/184 154/916/183
f 229/501/187 181/498/185 206/917/287
