# Blender 5.1.2
# www.blender.org
o tripo_node_f9086368-90c4-47a4-a9a4-cf25bd328db8
v -0.396258 -0.166452 -0.010012
v -0.383085 -0.134481 0.077977
v -0.376541 -0.115209 -0.137910
v -0.362000 -0.197664 0.107876
v -0.362155 -0.119046 0.158340
v -0.331131 -0.094364 -0.104858
v -0.350847 -0.168922 0.185954
v -0.331791 -0.060982 0.099319
v -0.358884 -0.089873 -0.012951
v -0.334820 -0.243712 0.146474
v -0.336009 -0.142232 -0.244237
v -0.368710 -0.338880 0.039887
v -0.333810 -0.252000 0.086635
v -0.353796 -0.114281 -0.353156
v -0.353883 -0.206784 -0.337680
v -0.287597 -0.380129 0.125067
v -0.291653 -0.260826 -0.116499
v -0.281455 -0.197116 0.236726
v -0.322649 -0.005680 0.111596
v -0.331224 0.060861 0.191648
v -0.276058 0.019438 0.037279
v -0.291687 -0.164260 0.139930
v -0.271206 -0.042581 0.203225
v -0.309700 0.098909 0.110008
v -0.284310 0.101194 0.225896
v -0.280911 -0.159411 -0.335081
v -0.285046 -0.375067 -0.059206
v -0.294519 -0.187043 -0.270069
v -0.270713 0.062376 0.257469
v -0.282558 -0.049613 -0.098652
v -0.229560 -0.088845 -0.187971
v -0.257285 -0.314176 -0.217823
v -0.301536 -0.269286 0.272123
v -0.307112 0.090583 -0.088485
v -0.297776 0.085730 -0.057743
v -0.272799 -0.115485 0.273473
v -0.297012 0.060619 0.004794
v -0.237294 -0.126145 -0.299783
v -0.260149 0.102988 0.154269
v -0.266533 0.047519 0.189980
v -0.277151 -0.330295 0.171405
v -0.281098 0.132749 -0.042364
v -0.256063 0.129214 -0.003013
v -0.274224 0.091229 -0.136418
v -0.274931 -0.209260 0.002259
v -0.294184 0.115873 0.161660
v -0.287574 -0.377099 -0.182770
v -0.275700 0.139969 0.214729
v -0.262233 0.137944 0.116660
v -0.273126 0.101234 -0.049325
v -0.262869 -0.399774 0.229430
v -0.264120 -0.009751 -0.153294
v -0.241786 -0.232595 0.313460
v -0.237998 0.065846 -0.070553
v -0.273095 0.016267 -0.106330
v -0.274705 -0.430612 -0.143647
v -0.218086 -0.418887 -0.003795
v -0.254561 0.185875 -0.098567
v -0.237631 -0.092568 0.333298
v -0.201302 0.130352 0.074821
v -0.242949 0.129293 -0.077574
v -0.228359 -0.410207 -0.253901
v -0.181463 -0.467953 -0.235117
v -0.224947 -0.120982 0.351328
v -0.216035 0.088123 0.247728
v -0.236940 -0.041396 -0.141595
v -0.193704 -0.408970 0.081800
v -0.176330 -0.305882 0.306423
v -0.203310 -0.128282 0.288763
v -0.169729 -0.005021 0.294250
v -0.235300 -0.255663 -0.297110
v -0.128256 0.114084 -0.065502
v -0.181672 -0.076119 0.377619
v -0.159483 -0.392019 -0.069154
v -0.150792 0.072121 -0.142695
v -0.225960 0.321952 0.242919
v -0.208509 0.136926 0.202456
v -0.172613 -0.161496 0.400450
v -0.164108 -0.213354 -0.317983
v -0.197145 0.210152 0.286212
v -0.180451 -0.079919 -0.249161
v -0.167297 -0.266646 -0.335778
v -0.170401 0.172804 0.173183
v -0.169220 0.159075 0.293163
v -0.076409 -0.392323 -0.317272
v -0.128927 -0.064312 -0.298004
v -0.161926 0.421407 0.228651
v -0.153312 0.308852 0.310993
v -0.183792 0.213659 -0.299916
v -0.171432 -0.035092 -0.159459
v -0.180240 0.306946 0.154059
v -0.163036 -0.392135 0.240070
v -0.131912 -0.115058 0.395616
v -0.158280 0.128233 0.324692
v -0.145426 0.428727 0.175994
v -0.141543 0.067806 -0.283010
v -0.202913 0.164419 -0.358385
v -0.125398 -0.249486 0.395684
v -0.130100 0.190799 -0.399726
v -0.168046 0.112801 0.029793
v -0.117598 0.171874 -0.317464
v -0.110890 -0.020641 0.307376
v -0.057277 0.063397 -0.319246
v -0.087316 -0.441601 0.017452
v -0.162893 -0.238665 -0.434756
v -0.151635 0.265207 0.122146
v -0.126488 -0.295948 -0.317325
v -0.099179 0.312330 0.151746
v -0.105978 0.138851 -0.192269
v -0.138217 0.381659 0.207249
v -0.076772 -0.221048 -0.430780
v -0.102704 0.162635 0.150313
v -0.122813 0.263466 -0.320591
v -0.075285 -0.365088 0.096071
v -0.047045 -0.412181 0.294796
v -0.105441 0.238748 0.260422
v -0.059357 -0.027299 0.424406
v -0.104403 0.423862 0.197114
v -0.092242 0.004127 -0.314497
v -0.113425 -0.305491 -0.388920
v -0.095920 0.240911 -0.385784
v -0.087807 0.262024 -0.205210
v -0.120195 0.364406 0.071788
v -0.099988 0.120507 0.105630
v -0.047963 0.332814 0.092263
v -0.026507 -0.007126 0.301483
v -0.056638 -0.281685 0.343895
v -0.070308 0.128603 -0.037834
v -0.069244 0.271356 0.058590
v -0.039512 -0.097231 -0.363879
v -0.044369 -0.396608 0.297672
v -0.071416 -0.404582 -0.460845
v -0.069464 -0.425676 -0.052955
v -0.027370 0.345994 0.043632
v -0.072824 0.340005 0.237843
v -0.044970 -0.108494 0.477431
v -0.047342 0.089048 0.251269
v -0.057185 0.412140 0.062815
v -0.074489 -0.351159 -0.460322
v 0.020013 -0.125388 -0.442065
v 0.027024 0.064628 -0.146000
v -0.016767 -0.419819 -0.299443
v -0.049814 0.151430 -0.012324
v 0.005840 0.138052 -0.104286
v 0.028943 -0.293404 -0.468113
v -0.026927 0.153336 -0.200755
v -0.005728 -0.087052 0.405230
v -0.031957 -0.372431 0.345956
v -0.005429 -0.076791 -0.309639
v -0.049764 0.101171 0.132635
v 0.043256 -0.229077 0.356620
v -0.045952 0.403929 -0.152029
v -0.007044 0.100051 0.061325
v -0.021981 0.096758 0.255189
v 0.052667 -0.015881 0.425510
v -0.028429 0.433511 -0.094131
v -0.005255 0.348232 -0.091066
v 0.024036 -0.162923 0.444499
v -0.014243 0.125753 0.199444
v -0.002174 -0.359066 -0.382365
v 0.043266 -0.409981 0.098270
v 0.064377 -0.319619 0.372259
v 0.005918 0.132595 0.011852
v 0.035045 -0.115072 0.473791
v 0.016342 0.157484 0.299405
v 0.059102 -0.407058 0.305318
v 0.004003 0.099297 0.394512
v 0.051703 -0.248582 -0.424992
v 0.003435 0.383628 -0.212694
v 0.010707 -0.005517 0.363789
v -0.004700 -0.171235 -0.129567
v 0.051972 -0.382994 0.250235
v -0.003086 0.346937 0.054376
v -0.003976 -0.268071 -0.057595
v 0.011862 0.032194 0.388193
v 0.066180 -0.372781 -0.479002
v 0.029905 0.381767 0.083473
v 0.024582 0.227951 0.104382
v 0.029714 0.163102 -0.084441
v 0.064493 0.429692 -0.202059
v 0.005116 0.276129 0.171706
v 0.031456 0.348490 -0.131047
v 0.035364 -0.067133 -0.377002
v 0.070028 0.464672 -0.094923
v 0.065491 0.236412 -0.039112
v 0.037507 0.145028 0.360832
v 0.050543 -0.034667 -0.227365
v 0.061905 -0.120553 -0.214076
v 0.066040 0.103535 -0.120283
v 0.091427 0.277779 0.147987
v 0.067472 0.005846 -0.179752
v 0.063786 0.077742 0.392786
v 0.115923 -0.031454 -0.356680
v 0.113077 -0.357365 -0.415425
v 0.066739 0.275117 0.213013
v 0.101000 0.026388 -0.105543
v 0.068245 0.393603 -0.081220
v 0.079637 -0.024217 -0.174452
v 0.072748 -0.060657 -0.352761
v 0.077023 0.190491 0.207524
v 0.140830 -0.373251 -0.280603
v 0.061576 0.074320 0.319176
v 0.133981 0.098102 0.236952
v 0.160065 -0.336759 -0.161313
v 0.083126 0.251413 0.107073
v 0.069018 -0.025146 -0.123768
v 0.229322 -0.466385 -0.213268
v 0.101476 0.118511 0.041149
v 0.108250 0.147254 0.367004
v 0.127405 -0.404163 -0.392932
v 0.107323 -0.073135 0.454773
v 0.132418 0.159521 -0.152822
v 0.152528 0.249688 -0.149796
v 0.080904 -0.147139 0.370967
v 0.094401 0.428986 -0.143857
v 0.113016 -0.374931 0.347499
v 0.111238 0.086117 -0.334320
v 0.160417 0.241183 -0.064707
v 0.097293 -0.065248 -0.043584
v 0.161969 0.015260 0.317849
v 0.186389 -0.453468 0.048837
v 0.139371 -0.144273 -0.029406
v 0.153838 0.128709 0.167637
v 0.149330 -0.063391 0.421405
v 0.200519 -0.119282 0.383278
v 0.169949 -0.099057 -0.012982
v 0.176546 0.121029 0.021657
v 0.242058 -0.242225 -0.364592
v 0.172504 -0.036754 -0.069070
v 0.136991 -0.163776 -0.069816
v 0.170667 -0.373711 0.246567
v 0.148436 -0.005937 -0.286881
v 0.169743 -0.008443 0.393958
v 0.163143 0.057352 0.290098
v 0.203035 -0.102752 -0.051862
v 0.175879 -0.243685 0.324552
v 0.209532 0.114938 -0.303961
v 0.200179 -0.032380 -0.241626
v 0.223337 0.079304 -0.117614
v 0.184071 0.239529 -0.166762
v 0.171351 -0.212453 -0.087212
v 0.223486 -0.241318 -0.261094
v 0.203440 -0.046243 0.411227
v 0.186010 0.231188 -0.029515
v 0.255809 0.092230 0.065550
v 0.250147 0.250299 0.235601
v 0.194600 0.058804 0.293559
v 0.231860 0.159769 -0.126664
v 0.251505 0.071101 -0.320698
v 0.263077 -0.346183 -0.379053
v 0.244060 0.182492 -0.038605
v 0.212392 -0.184636 0.008400
v 0.274536 -0.431618 -0.070965
v 0.259464 -0.391378 -0.430488
v 0.212539 -0.084434 0.338789
v 0.240595 0.156536 0.256334
v 0.267789 0.280663 0.167156
v 0.205663 -0.374963 0.065122
v 0.244524 -0.159531 0.037403
v 0.267377 -0.020431 0.356163
v 0.253055 -0.302598 -0.357505
v 0.227821 -0.307502 0.049248
v 0.243070 -0.138533 0.329681
v 0.240379 -0.403959 0.241042
v 0.267196 -0.039202 -0.201171
v 0.295975 0.057669 0.031772
v 0.284249 -0.058429 0.240440
v 0.268942 -0.115862 0.053171
v 0.291491 -0.246535 0.034641
v 0.282453 -0.254167 0.280729
v 0.293115 0.123494 0.216298
v 0.297699 0.212038 0.136376
v 0.315838 -0.432184 0.061174
v 0.317929 -0.098192 0.301659
v 0.391515 -0.302676 0.093825
v 0.346896 -0.388857 0.245621
v 0.304682 -0.106311 -0.181907
v 0.294751 0.139848 -0.155230
v 0.305241 -0.085835 -0.323745
v 0.277603 -0.193687 -0.331632
v 0.313132 0.220612 0.276419
v 0.358503 0.254934 -0.095213
v 0.282113 0.209595 0.199903
v 0.276823 -0.130894 -0.174787
v 0.285907 -0.317073 -0.287592
v 0.360786 0.157160 0.101055
v 0.320487 -0.385807 -0.151079
v 0.307188 -0.070726 0.282093
v 0.325386 -0.150021 0.259782
v 0.294624 -0.184801 -0.183544
v 0.337551 -0.198174 -0.387184
v 0.295436 0.244798 -0.099402
v 0.306870 0.265338 -0.182427
v 0.361077 0.113344 -0.129606
v 0.357822 -0.285883 -0.213711
v 0.292555 -0.212185 -0.171198
v 0.350973 -0.360819 -0.019578
v 0.352655 -0.218625 0.062265
v 0.293779 -0.062699 0.115421
v 0.357958 0.058171 0.130958
v 0.334209 -0.252769 -0.151412
v 0.333244 -0.415651 0.097733
v 0.334143 -0.110038 -0.320234
v 0.314385 -0.255424 -0.228410
v 0.321748 -0.267115 0.148795
v 0.335842 0.193721 0.154870
v 0.302009 -0.183306 0.177270
v 0.353461 -0.300123 -0.051586
v 0.365183 0.145464 0.183538
v 0.339791 0.270893 0.192681
v 0.351241 -0.173725 0.114933
v 0.364189 -0.144798 0.180951
v 0.385983 0.158755 -0.057913
v 0.361587 -0.214927 0.163474
v 0.336670 -0.133089 -0.239817
v 0.394037 -0.329395 0.193812
v 0.362162 -0.177332 0.240612
v 0.378894 -0.100112 -0.274790
v 0.390809 -0.166516 -0.264302
v 0.398924 -0.236504 0.052578
v 0.381202 -0.068545 -0.223187
vn -0.8765 -0.4186 -0.2378
vn -0.8189 -0.5710 -0.0581
vn -0.9729 -0.1475 -0.1783
vn -0.9671 -0.2428 0.0756
vn -0.8793 -0.2762 -0.3880
vn -0.9292 -0.1458 -0.3396
vn -0.9768 -0.1649 -0.1368
vn -0.2764 -0.9518 -0.1331
vn -0.0999 -0.9936 -0.0528
vn -0.0893 -0.9819 0.1670
vn -0.3086 -0.4053 -0.8605
vn -0.7284 0.0019 -0.6852
vn -0.0630 0.0247 -0.9977
vn -0.5996 0.2021 -0.7744
vn -0.8515 -0.5032 -0.1475
vn -0.8839 -0.4364 -0.1682
vn -0.9308 0.3141 -0.1870
vn -0.9671 -0.1819 0.1781
vn -0.8064 0.5895 -0.0478
vn -0.4289 0.8613 -0.2723
vn -0.9490 0.1531 0.2757
vn -0.4937 0.7685 -0.4070
vn -0.7554 0.2887 -0.5883
vn -0.6021 0.5166 -0.6088
vn -0.7882 0.0722 -0.6112
vn -0.9386 0.3307 -0.0984
vn -0.9470 0.0189 0.3208
vn -0.4644 0.3063 -0.8310
vn 0.0915 0.6969 -0.7113
vn -0.4934 -0.7151 -0.4952
vn -0.2523 -0.4305 -0.8666
vn -0.8164 -0.4509 -0.3608
vn -0.4970 -0.6309 -0.5958
vn -0.4883 0.0702 -0.8698
vn -0.0983 -0.9843 -0.1463
vn 0.1433 0.1544 -0.9776
vn -0.3628 0.3679 -0.8562
vn -0.6187 0.1514 -0.7709
vn 0.2787 -0.2213 -0.9345
vn 0.0522 -0.8490 -0.5259
vn 0.7751 0.3935 -0.4943
vn 0.0447 0.2158 -0.9754
vn -0.6165 -0.7763 0.1317
vn -0.6186 -0.4212 -0.6633
vn -0.1187 -0.9631 -0.2415
vn -0.7360 -0.2734 -0.6193
vn 0.0116 -0.9916 0.1289
vn -0.1720 -0.9804 -0.0965
vn -0.0602 -0.9561 0.2868
vn -0.0668 -0.9220 0.3813
vn -0.1800 -0.9659 0.1862
vn -0.0491 -0.7503 0.6592
vn 0.0197 -0.9836 0.1790
vn 0.3590 -0.9191 -0.1626
vn 0.3649 0.7607 -0.5369
vn 0.2143 0.4324 -0.8758
vn -0.4322 0.7014 -0.5668
vn -0.0241 0.8475 -0.5303
vn -0.4437 0.2420 -0.8629
vn -0.2582 -0.0121 -0.9660
vn -0.1346 0.3670 -0.9204
vn -0.4575 0.3595 -0.8133
vn -0.5626 0.4422 -0.6986
vn -0.5166 0.1585 -0.8414
vn -0.3904 0.8654 -0.3140
vn -0.9103 0.2873 -0.2981
vn -0.8263 0.5560 0.0904
vn -0.9812 0.1829 -0.0610
vn -0.6688 0.6613 -0.3397
vn -0.6131 0.5427 -0.5741
vn -0.9266 0.3737 0.0419
vn -0.9360 -0.1614 -0.3127
vn 0.4592 -0.0739 -0.8852
vn 0.6643 0.4290 -0.6121
vn 0.7951 0.4523 -0.4040
vn -0.2060 0.9785 0.0092
vn 0.3131 0.6513 -0.6912
vn -0.8139 0.5810 0.0074
vn 0.5520 -0.5565 -0.6210
vn 0.4405 0.1395 -0.8868
vn 0.1153 -0.7600 -0.6396
vn 0.2720 0.4090 -0.8710
vn -0.1720 0.8762 -0.4502
vn -0.4732 0.6442 -0.6009
vn 0.6001 -0.4886 -0.6334
vn 0.9626 -0.0344 -0.2689
vn 0.2843 0.9555 -0.0790
vn 0.4062 0.8504 0.3344
vn 0.7395 0.4603 -0.4911
vn -0.7071 -0.6905 0.1524
vn -0.8870 -0.4079 0.2163
vn -0.9473 -0.2705 0.1718
vn -0.8095 -0.0900 0.5801
vn -0.9972 0.0739 -0.0141
vn -0.9525 0.0120 0.3044
vn -0.9100 0.0523 0.4114
vn -0.9958 0.0280 -0.0873
vn -0.8710 0.4797 0.1060
vn -0.7695 0.1828 0.6119
vn -0.8304 0.0629 0.5536
vn -0.7960 0.1972 0.5723
vn -0.5276 -0.7516 0.3960
vn -0.3095 -0.5309 0.7889
vn -0.6489 -0.1868 0.7376
vn -0.1996 -0.5485 0.8120
vn -0.1058 -0.3031 0.9471
vn 0.3604 -0.6547 0.6645
vn 0.1793 -0.9832 0.0354
vn 0.1968 -0.8214 0.5353
vn 0.2618 -0.9593 0.1057
vn -0.4548 -0.4946 0.7406
vn 0.0720 -0.1341 0.9884
vn 0.1208 -0.2232 0.9673
vn -0.8940 0.1265 0.4299
vn -0.7686 0.3292 0.5485
vn -0.7945 0.0747 0.6027
vn -0.8837 0.3041 0.3559
vn -0.7871 0.5312 -0.3134
vn -0.4070 0.8512 -0.3313
vn -0.1972 0.9245 -0.3261
vn -0.8916 0.3006 0.3386
vn -0.5322 0.8464 -0.0175
vn -0.2510 -0.0712 0.9654
vn -0.4969 0.1398 0.8565
vn -0.4452 0.7839 0.4329
vn -0.4903 0.3885 0.7802
vn -0.1150 0.6974 0.7074
vn -0.3611 0.5183 0.7752
vn -0.1981 0.6982 0.6879
vn -0.3132 -0.1065 0.9437
vn -0.2963 -0.0293 0.9546
vn 0.0894 -0.2981 0.9504
vn -0.2178 0.1549 0.9636
vn -0.4809 0.2604 0.8372
vn 0.2632 0.6012 0.7545
vn -0.4243 0.6949 0.5806
vn 0.4318 0.0271 0.9016
vn 0.1498 -0.7463 0.6486
vn -0.2273 0.0078 0.9738
vn 0.0180 0.4754 0.8796
vn -0.3552 0.7210 0.5950
vn 0.0969 0.8460 0.5243
vn 0.3305 0.3801 0.8639
vn 0.3999 0.0533 0.9150
vn 0.5372 -0.3222 0.7795
vn 0.5052 0.0700 0.8602
vn 0.0929 -0.0177 0.9955
vn -0.8657 0.1093 -0.4884
vn -0.3427 0.0968 -0.9344
vn -0.6367 0.6153 -0.4647
vn -0.8767 0.4028 -0.2628
vn -0.4524 0.7510 0.4810
vn -0.8803 0.4578 0.1246
vn -0.7646 -0.1952 -0.6142
vn -0.2186 0.9635 -0.1547
vn -0.1706 0.9845 0.0408
vn -0.1138 0.9810 -0.1572
vn 0.3235 0.9096 -0.2606
vn -0.5158 0.8339 0.1962
vn -0.1702 0.8869 -0.4294
vn 0.5832 0.5384 -0.6083
vn -0.0634 0.9971 0.0417
vn 0.8816 0.0989 -0.4614
vn -0.9332 0.2897 -0.2126
vn -0.0889 -0.0066 -0.9960
vn -0.3066 0.3776 0.8737
vn -0.7876 -0.1208 0.6042
vn -0.4799 0.0341 -0.8766
vn -0.9108 0.3639 -0.1952
vn 0.2635 0.3219 0.9094
vn -0.5556 0.7689 0.3165
vn 0.1475 0.8938 0.4236
vn 0.1528 0.7182 -0.6789
vn -0.1991 0.9710 -0.1327
vn 0.8582 0.5079 -0.0741
vn -0.8705 -0.2168 0.4419
vn -0.9948 -0.0868 0.0532
vn -0.6839 0.7114 0.1615
vn -0.4741 0.5215 -0.7094
vn -0.5656 -0.0545 0.8229
vn 0.4321 0.8120 0.3924
vn 0.5252 0.3936 -0.7545
vn -0.6432 0.1799 0.7443
vn -0.9563 0.2486 0.1541
vn -0.2486 0.9102 0.3313
vn -0.1371 0.9000 -0.4137
vn -0.5420 0.0507 -0.8388
vn 0.0298 0.1779 0.9836
vn 0.5580 0.0769 -0.8263
vn 0.9032 0.2778 0.3273
vn 0.5037 0.8630 -0.0387
vn 0.0047 0.9940 -0.1089
vn -0.6375 0.7680 -0.0608
vn 0.6302 0.0767 0.7726
vn 0.1436 0.9869 -0.0742
vn 0.7811 0.0260 -0.6238
vn -0.2376 0.9704 0.0443
vn -0.6622 0.1150 -0.7404
vn -0.5665 0.6811 0.4638
vn 0.3081 0.3444 0.8868
vn -0.7520 0.4052 0.5199
vn -0.5132 0.7736 0.3717
vn -0.3895 0.8969 -0.2096
vn -0.5735 0.2820 0.7691
vn -0.4348 -0.3724 0.8199
vn 0.3349 0.1187 0.9347
vn -0.0811 0.7460 0.6610
vn 0.0344 0.8918 0.4512
vn -0.5483 0.3281 -0.7692
vn 0.1201 0.9800 -0.1584
vn 0.7495 0.2080 -0.6285
vn 0.6933 0.4695 -0.5468
vn 0.5392 -0.2143 -0.8144
vn 0.0990 0.9900 -0.1009
vn -0.5585 0.1669 -0.8125
vn -0.2178 -0.2326 -0.9479
vn -0.5389 0.4480 -0.7134
vn 0.4547 0.7257 -0.5163
vn 0.8709 -0.3888 -0.3007
vn 0.4240 0.2622 -0.8669
vn 0.9917 0.1284 -0.0089
vn 0.9999 0.0123 -0.0055
vn 0.9110 0.3702 0.1817
vn 0.7871 0.6168 -0.0083
vn 0.9140 0.1442 -0.3792
vn 0.8219 -0.5564 -0.1220
vn 0.5794 -0.8147 -0.0243
vn 0.8289 -0.5038 0.2430
vn 0.8684 -0.4920 -0.0615
vn 0.9690 0.1721 -0.1772
vn 0.5207 0.6904 -0.5022
vn 0.7753 0.6069 -0.1751
vn -0.3259 -0.7849 -0.5269
vn 0.4025 0.0137 -0.9153
vn -0.0743 0.9214 -0.3814
vn -0.3794 0.8368 -0.3948
vn 0.4547 0.1178 -0.8828
vn 0.2825 -0.4218 -0.8615
vn -0.0858 0.5961 -0.7983
vn -0.4492 -0.5267 -0.7217
vn 0.9721 0.1944 -0.1311
vn 0.4231 -0.2668 -0.8659
vn 0.7343 -0.0855 -0.6735
vn 0.2930 0.6807 0.6715
vn 0.3170 -0.3333 -0.8879
vn 0.5583 0.8208 -0.1212
vn 0.6695 0.6320 0.3904
vn 0.3109 -0.5732 -0.7582
vn -0.1346 0.7222 -0.6784
vn 0.5588 0.0306 -0.8287
vn 0.6134 0.6202 -0.4890
vn 0.0445 -0.4008 -0.9151
vn 0.6222 0.7804 -0.0624
vn 0.6524 0.1449 0.7439
vn 0.7402 0.5942 0.3147
vn 0.6932 -0.3553 -0.6272
vn 0.9053 -0.4248 -0.0023
vn -0.1352 -0.1759 -0.9751
vn 0.1864 0.1203 -0.9751
vn 0.7031 0.1838 -0.6870
vn 0.5074 -0.0463 -0.8604
vn 0.9288 0.1442 0.3414
vn 0.9290 0.3082 0.2047
vn 0.9510 0.2651 -0.1589
vn 0.6908 -0.7205 0.0602
vn 0.8820 -0.4202 -0.2132
vn 0.3729 -0.3035 0.8768
vn -0.1820 -0.8258 0.5338
vn 0.5554 -0.7259 -0.4056
vn 0.5077 -0.5734 0.6430
vn 0.5747 -0.1779 0.7988
vn 0.5560 -0.4177 0.7186
vn 0.4023 -0.5567 0.7268
vn 0.8565 0.2780 0.4349
vn 0.7501 -0.2295 0.6202
vn 0.2182 0.3237 0.9207
vn 0.4424 0.5588 0.7015
vn 0.8533 0.5060 0.1259
vn 0.7176 0.4774 0.5070
vn -0.2976 0.7659 0.5699
vn 0.8927 0.3926 -0.2213
vn 0.8480 0.0319 0.5291
vn 0.9756 0.0852 -0.2025
vn 0.9984 -0.0163 -0.0534
vn 0.9548 0.2773 -0.1075
vn 0.6748 -0.1849 0.7145
vn 0.9175 -0.3814 0.1130
vn 0.9474 0.0634 0.3136
vn 0.7726 -0.2398 0.5879
vn 0.6838 0.0095 0.7297
vn 0.9880 -0.0213 0.1530
vn 0.9961 0.0623 -0.0618
vn 0.2469 0.8511 0.4632
vn 0.2684 0.9418 0.2026
vn 0.2118 0.6854 0.6967
vn 0.0291 0.8734 0.4862
vn 0.4563 0.7600 0.4629
vn -0.0037 -0.2568 -0.9665
vn 0.5165 0.4741 -0.7131
vn 0.1873 0.2908 -0.9383
vn 0.3353 0.5646 -0.7542
vn 0.6206 0.7572 0.2035
vn -0.5632 0.8038 0.1914
vn -0.1771 0.6380 -0.7494
vn 0.0865 0.9875 -0.1317
vn 0.2000 0.5379 0.8189
vn 0.8911 0.4266 0.1550
vn 0.3761 0.6862 0.6226
vn 0.0850 0.6226 0.7779
vn 0.4499 0.6650 0.5961
vn -0.1659 0.8614 0.4801
vn -0.1443 0.9562 -0.2545
vn 0.0655 0.8394 -0.5396
vn 0.1010 0.5796 -0.8086
vn 0.3452 -0.0196 0.9383
vn 0.4918 0.3298 0.8059
vn 0.1591 0.8956 0.4154
vn 0.7087 0.4138 -0.5714
vn 0.8494 0.5274 -0.0208
vn 0.7821 0.1686 0.5999
vn 0.6328 0.7662 0.1117
vt 0.854898 0.810779
vt 0.816313 0.786697
vt 0.872684 0.789880
vt 0.827514 0.827205
vt 0.796827 0.847617
vt 0.786089 0.825573
vt 0.856914 0.765753
vt 0.806138 0.755661
vt 0.773392 0.766994
vt 0.816700 0.728979
vt 0.904775 0.648254
vt 0.924401 0.606045
vt 0.931301 0.621168
vt 0.050896 0.182639
vt 0.038204 0.193694
vt 0.036314 0.170451
vt 0.385875 0.986930
vt 0.374395 0.974873
vt 0.385985 0.952065
vt 0.412238 0.937504
vt 0.423484 0.960370
vt 0.523950 0.129404
vt 0.493378 0.157025
vt 0.489561 0.118194
vt 0.502966 0.097606
vt 0.555285 0.090033
vt 0.798883 0.959682
vt 0.818252 0.922265
vt 0.810314 0.968918
vt 0.837190 0.958849
vt 0.837770 0.920682
vt 0.857563 0.930449
vt 0.761522 0.911867
vt 0.786372 0.966575
vt 0.789363 0.970696
vt 0.757175 0.957560
vt 0.760181 0.946259
vt 0.495455 0.176654
vt 0.529278 0.184185
vt 0.575264 0.174250
vt 0.563062 0.199130
vt 0.930388 0.590965
vt 0.928351 0.659733
vt 0.076726 0.192317
vt 0.068429 0.191013
vt 0.077680 0.191774
vt 0.344893 0.036917
vt 0.330802 0.023360
vt 0.347891 0.025181
vt 0.868243 0.708632
vt 0.894725 0.694323
vt 0.906874 0.713073
vt 0.901968 0.746131
vt 0.917645 0.736299
vt 0.705865 0.311219
vt 0.676867 0.268802
vt 0.701346 0.268692
vt 0.588444 0.251565
vt 0.616317 0.264626
vt 0.603643 0.300284
vt 0.630694 0.288743
vt 0.633682 0.313340
vt 0.708494 0.324023
vt 0.685669 0.342443
vt 0.659015 0.326256
vt 0.565137 0.262732
vt 0.577953 0.217923
vt 0.604439 0.236126
vt 0.712743 0.358961
vt 0.775816 0.805979
vt 0.761622 0.829995
vt 0.751438 0.819419
vt 0.840123 0.662651
vt 0.907667 0.678533
vt 0.923492 0.695521
vt 0.717125 0.204599
vt 0.698683 0.217858
vt 0.873921 0.637112
vt 0.847727 0.648686
vt 0.901595 0.505420
vt 0.937366 0.483250
vt 0.944970 0.514388
vt 0.917517 0.543452
vt 0.891250 0.530145
vt 0.656144 0.217490
vt 0.900833 0.470312
vt 0.920270 0.449402
vt 0.359985 0.551514
vt 0.331107 0.558886
vt 0.339270 0.522352
vt 0.380796 0.537123
vt 0.301732 0.560202
vt 0.307441 0.475956
vt 0.222980 0.544075
vt 0.247417 0.562541
vt 0.222350 0.495420
vt 0.024326 0.184814
vt 0.030338 0.162293
vt 0.329499 0.031350
vt 0.621966 0.349521
vt 0.638814 0.390318
vt 0.625002 0.382647
vt 0.635242 0.330017
vt 0.539250 0.343395
vt 0.551378 0.311324
vt 0.564185 0.346750
vt 0.549698 0.364807
vt 0.598020 0.366346
vt 0.922438 0.673324
vt 0.310610 0.799936
vt 0.319770 0.758425
vt 0.338993 0.785136
vt 0.777059 0.877127
vt 0.088577 0.910963
vt 0.074373 0.914004
vt 0.073232 0.900286
vt 0.070237 0.928792
vt 0.114239 0.948874
vt 0.121375 0.921950
vt 0.151630 0.940986
vt 0.156719 0.919807
vt 0.161784 0.938598
vt 0.166043 0.908122
vt 0.131316 0.910255
vt 0.102806 0.907832
vt 0.980404 0.944175
vt 0.962449 0.964051
vt 0.961181 0.937226
vt 0.940570 0.914042
vt 0.952944 0.913963
vt 0.946931 0.924674
vt 0.945302 0.908272
vt 0.308631 0.731035
vt 0.309814 0.743950
vt 0.310641 0.732586
vt 0.784542 0.085581
vt 0.786354 0.059687
vt 0.794347 0.076504
vt 0.764379 0.097051
vt 0.730865 0.094604
vt 0.740555 0.065142
vt 0.783577 0.053609
vt 0.350835 0.777463
vt 0.352960 0.804724
vt 0.327826 0.861166
vt 0.363749 0.848217
vt 0.416152 0.833275
vt 0.412128 0.817717
vt 0.408376 0.848809
vt 0.393268 0.846253
vt 0.419407 0.891627
vt 0.428011 0.856427
vt 0.473538 0.809234
vt 0.514127 0.854710
vt 0.512167 0.872672
vt 0.504148 0.815769
vt 0.508029 0.838615
vt 0.524215 0.874860
vt 0.526202 0.853533
vt 0.871423 0.082071
vt 0.868823 0.059005
vt 0.901066 0.065489
vt 0.907372 0.037044
vt 0.924056 0.051914
vt 0.925720 0.033618
vt 0.922790 0.027083
vt 0.911486 0.019547
vt 0.853584 0.044224
vt 0.307684 0.852158
vt 0.309482 0.834806
vt 0.124985 0.420345
vt 0.118692 0.410473
vt 0.120461 0.387901
vt 0.156359 0.418850
vt 0.140834 0.393881
vt 0.176736 0.385657
vt 0.846781 0.730566
vt 0.419487 0.986166
vt 0.444977 0.973472
vt 0.454076 0.983405
vt 0.436203 0.938998
vt 0.455634 0.962467
vt 0.599260 0.148074
vt 0.582770 0.122035
vt 0.626555 0.112467
vt 0.586742 0.082311
vt 0.467625 0.945623
vt 0.627889 0.080679
vt 0.138993 0.364577
vt 0.180809 0.409989
vt 0.147327 0.303622
vt 0.142060 0.328352
vt 0.114501 0.311758
vt 0.119513 0.347094
vt 0.180024 0.339531
vt 0.193971 0.367053
vt 0.194355 0.382928
vt 0.839764 0.707805
vt 0.164494 0.307494
vt 0.186112 0.309275
vt 0.449439 0.405124
vt 0.422258 0.425029
vt 0.422240 0.380714
vt 0.435136 0.427803
vt 0.446193 0.463500
vt 0.412215 0.462870
vt 0.469597 0.453373
vt 0.501207 0.447194
vt 0.374165 0.515885
vt 0.379781 0.527778
vt 0.474403 0.412756
vt 0.502355 0.404571
vt 0.044587 0.523938
vt 0.022392 0.546303
vt 0.019989 0.516796
vt 0.015261 0.556224
vt 0.024276 0.570053
vt 0.039935 0.556228
vt 0.065815 0.542956
vt 0.640468 0.158026
vt 0.621472 0.189711
vt 0.618140 0.211358
vt 0.603397 0.210808
vt 0.984783 0.767406
vt 0.970950 0.792167
vt 0.970868 0.750203
vt 0.941614 0.750064
vt 0.960342 0.729871
vt 0.936205 0.776772
vt 0.913970 0.775191
vt 0.929557 0.757643
vt 0.674481 0.447595
vt 0.702413 0.431218
vt 0.724353 0.450019
vt 0.677669 0.396635
vt 0.664584 0.426846
vt 0.715273 0.526421
vt 0.682775 0.483079
vt 0.754740 0.508700
vt 0.033427 0.019951
vt 0.070086 0.005155
vt 0.057171 0.045750
vt 0.021635 0.004115
vt 0.022151 0.021213
vt 0.486766 0.919492
vt 0.489758 0.930469
vt 0.487246 0.939011
vt 0.095496 0.021207
vt 0.089219 0.046907
vt 0.766734 0.463899
vt 0.246731 0.210486
vt 0.208202 0.187873
vt 0.221251 0.171212
vt 0.190404 0.246864
vt 0.201883 0.248441
vt 0.151148 0.206370
vt 0.154803 0.248693
vt 0.188067 0.150353
vt 0.048473 0.064054
vt 0.027905 0.048264
vt 0.082183 0.062422
vt 0.703533 0.410161
vt 0.194643 0.324061
vt 0.404614 0.166644
vt 0.360806 0.193281
vt 0.384207 0.136300
vt 0.865400 0.476360
vt 0.865426 0.436497
vt 0.881099 0.473510
vt 0.334454 0.160383
vt 0.401299 0.201144
vt 0.832945 0.459386
vt 0.843554 0.488470
vt 0.833179 0.388371
vt 0.864241 0.378651
vt 0.811880 0.423078
vt 0.757607 0.423907
vt 0.775523 0.442400
vt 0.464087 0.130768
vt 0.453099 0.098390
vt 0.473755 0.114245
vt 0.801868 0.480096
vt 0.431970 0.168393
vt 0.960022 0.174950
vt 0.939799 0.169888
vt 0.937374 0.152063
vt 0.953314 0.185297
vt 0.958549 0.147755
vt 0.702774 0.077483
vt 0.707281 0.060591
vt 0.933508 0.122654
vt 0.945795 0.130526
vt 0.955750 0.113858
vt 0.964599 0.117570
vt 0.407007 0.807670
vt 0.553855 0.047500
vt 0.561041 0.056667
vt 0.535430 0.062272
vt 0.534037 0.035079
vt 0.552864 0.030110
vt 0.088350 0.219322
vt 0.070538 0.246548
vt 0.055069 0.229671
vt 0.100291 0.251295
vt 0.035539 0.340121
vt 0.024485 0.345954
vt 0.019984 0.315507
vt 0.044227 0.341863
vt 0.039415 0.320122
vt 0.048420 0.338427
vt 0.057245 0.347155
vt 0.089395 0.438237
vt 0.093964 0.448581
vt 0.072512 0.465481
vt 0.049285 0.478848
vt 0.067114 0.489054
vt 0.104743 0.426900
vt 0.150342 0.826742
vt 0.129833 0.829557
vt 0.149291 0.822152
vt 0.136427 0.898641
vt 0.116909 0.889277
vt 0.141389 0.887392
vt 0.104791 0.860732
vt 0.089010 0.879452
vt 0.152168 0.858258
vt 0.092477 0.801352
vt 0.079721 0.277622
vt 0.064876 0.296863
vt 0.483652 0.077203
vt 0.456554 0.074000
vt 0.496149 0.049936
vt 0.063595 0.820071
vt 0.471124 0.055931
vt 0.497912 0.036569
vt 0.448954 0.030489
vt 0.470330 0.031777
vt 0.062706 0.836792
vt 0.395342 0.035814
vt 0.394956 0.026390
vt 0.408226 0.041006
vt 0.255011 0.035233
vt 0.266886 0.044798
vt 0.256611 0.061952
vt 0.674871 0.112267
vt 0.663566 0.122648
vt 0.661795 0.051876
vt 0.643085 0.102566
vt 0.344020 0.856135
vt 0.346269 0.744184
vt 0.329261 0.724548
vt 0.360485 0.735640
vt 0.357782 0.756406
vt 0.370835 0.705237
vt 0.428441 0.689297
vt 0.469127 0.730770
vt 0.463364 0.698881
vt 0.418255 0.654943
vt 0.460374 0.672828
vt 0.440863 0.643747
vt 0.487784 0.743389
vt 0.495648 0.686455
vt 0.477147 0.663837
vt 0.426154 0.643769
vt 0.984154 0.720948
vt 0.986500 0.724695
vt 0.984825 0.865725
vt 0.969075 0.882101
vt 0.965823 0.845635
vt 0.134299 0.048835
vt 0.131847 0.034665
vt 0.155813 0.037388
vt 0.182312 0.086069
vt 0.144722 0.066925
vt 0.184024 0.046215
vt 0.209094 0.058371
vt 0.228363 0.029698
vt 0.236778 0.052486
vt 0.223720 0.028115
vt 0.956313 0.872871
vt 0.260898 0.303551
vt 0.217596 0.301232
vt 0.232047 0.266066
vt 0.199935 0.276722
vt 0.199260 0.279550
vt 0.233240 0.154016
vt 0.277014 0.188729
vt 0.220646 0.345470
vt 0.258722 0.339151
vt 0.278010 0.319664
vt 0.246144 0.359330
vt 0.235551 0.410645
vt 0.213122 0.675827
vt 0.157340 0.673897
vt 0.149960 0.650595
vt 0.244672 0.706981
vt 0.256812 0.753783
vt 0.189971 0.725949
vt 0.149570 0.713101
vt 0.171619 0.094678
vt 0.231225 0.624922
vt 0.284913 0.578794
vt 0.312697 0.622818
vt 0.350197 0.595454
vt 0.356775 0.662880
vt 0.182721 0.769277
vt 0.758610 0.124375
vt 0.741958 0.171729
vt 0.715991 0.132781
vt 0.298627 0.680098
vt 0.251558 0.673204
vt 0.709224 0.181585
vt 0.286363 0.773247
vt 0.255021 0.787170
vt 0.273769 0.759819
vt 0.214047 0.436854
vt 0.206727 0.443113
vt 0.203570 0.411300
vt 0.376519 0.636059
vt 0.325792 0.884384
vt 0.389073 0.881761
vt 0.346048 0.931210
vt 0.426281 0.075886
vt 0.422084 0.040123
vt 0.676423 0.180340
vt 0.676190 0.147276
vt 0.034662 0.722038
vt 0.060323 0.692360
vt 0.110448 0.709121
vt 0.042591 0.746414
vt 0.109528 0.750750
vt 0.188794 0.803627
vt 0.295772 0.922760
vt 0.689272 0.121028
vt 0.708167 0.109486
vt 0.880935 0.932118
vt 0.918599 0.898928
vt 0.935591 0.942127
vt 0.912907 0.963704
vt 0.951297 0.837923
vt 0.934122 0.841829
vt 0.951374 0.829456
vt 0.123913 0.727464
vt 0.862555 0.860418
vt 0.913877 0.819130
vt 0.933612 0.879024
vt 0.911044 0.888485
vt 0.870765 0.896638
vt 0.949152 0.677137
vt 0.951265 0.646120
vt 0.968336 0.649671
vt 0.355094 0.955598
vt 0.322609 0.956260
vt 0.545874 0.931641
vt 0.573782 0.914220
vt 0.583131 0.926810
vt 0.564954 0.913478
vt 0.549576 0.964675
vt 0.600296 0.966526
vt 0.617227 0.967113
vt 0.608354 0.983067
vt 0.602723 0.984262
vt 0.584951 0.980010
vt 0.526397 0.921321
vt 0.541950 0.923110
vt 0.508162 0.961536
vt 0.833450 0.369380
vt 0.837732 0.352825
vt 0.847599 0.352570
vt 0.224392 0.918777
vt 0.266548 0.952966
vt 0.196360 0.920110
vt 0.195908 0.963392
vt 0.205711 0.635665
vt 0.225859 0.651105
vt 0.965971 0.228152
vt 0.980363 0.213087
vt 0.991628 0.251416
vt 0.539210 0.243186
vt 0.560557 0.223430
vt 0.330800 0.426992
vt 0.287453 0.417170
vt 0.348918 0.374640
vt 0.261230 0.411666
vt 0.278797 0.357745
vt 0.657076 0.338026
vt 0.691282 0.734835
vt 0.649630 0.718843
vt 0.713074 0.706422
vt 0.786903 0.644638
vt 0.776448 0.673149
vt 0.701044 0.670672
vt 0.783724 0.692502
vt 0.762827 0.746881
vt 0.297491 0.326943
vt 0.335019 0.301133
vt 0.294884 0.306788
vt 0.279937 0.242683
vt 0.356405 0.261967
vt 0.327115 0.215516
vt 0.375486 0.236687
vt 0.394602 0.251203
vt 0.373026 0.275509
vt 0.386982 0.304535
vt 0.792532 0.713964
vt 0.278037 0.277851
vt 0.263261 0.470787
vt 0.951365 0.268190
vt 0.921255 0.238685
vt 0.944365 0.238497
vt 0.934579 0.277719
vt 0.362864 0.475094
vt 0.558794 0.562281
vt 0.540703 0.573516
vt 0.550133 0.562620
vt 0.533359 0.565839
vt 0.484412 0.577105
vt 0.502946 0.568985
vt 0.532341 0.596501
vt 0.501149 0.605114
vt 0.492133 0.602293
vt 0.497170 0.607382
vt 0.444918 0.569980
vt 0.460073 0.541769
vt 0.214032 0.467282
vt 0.513368 0.905691
vt 0.524691 0.884848
vt 0.697694 0.614277
vt 0.731578 0.582310
vt 0.916897 0.114151
vt 0.913790 0.148547
vt 0.894211 0.090681
vt 0.629546 0.575480
vt 0.589194 0.654525
vt 0.567478 0.611108
vt 0.536778 0.639998
vt 0.538501 0.628746
vt 0.520310 0.670617
vt 0.480755 0.646368
vt 0.481349 0.631634
vt 0.512715 0.629650
vt 0.526362 0.681894
vt 0.915613 0.208765
vt 0.838902 0.171926
vt 0.886772 0.145795
vt 0.458929 0.891423
vt 0.302060 0.848248
vt 0.610970 0.036062
vt 0.614353 0.035768
vt 0.590108 0.045117
vt 0.593845 0.059107
vt 0.612857 0.069653
vt 0.614272 0.056818
vt 0.608764 0.069962
vt 0.690021 0.652508
vt 0.657857 0.623265
vt 0.843190 0.221915
vt 0.794760 0.224361
vt 0.810358 0.213201
vt 0.833746 0.275475
vt 0.723111 0.253810
vt 0.860443 0.231304
vt 0.854305 0.243272
vt 0.854006 0.255885
vt 0.768633 0.301066
vt 0.939296 0.382602
vt 0.968375 0.389081
vt 0.940730 0.418853
vt 0.955679 0.419366
vt 0.975164 0.061945
vt 0.957519 0.073196
vt 0.943819 0.063742
vt 0.396899 0.611610
vt 0.386732 0.598666
vt 0.406355 0.576566
vt 0.439305 0.544141
vt 0.960405 0.356977
vt 0.895079 0.400812
vt 0.634667 0.653105
vt 0.418417 0.594036
vt 0.416483 0.613530
vt 0.439490 0.609070
vt 0.833597 0.083307
vt 0.804902 0.086330
vt 0.620830 0.699361
vt 0.564032 0.693845
vt 0.831109 0.334406
vt 0.802716 0.321537
vt 0.855259 0.334807
vt 0.786817 0.362626
vt 0.770917 0.342735
vt 0.904294 0.259248
vt 0.915612 0.332193
vt 0.892737 0.349282
vt 0.883834 0.343903
vt 0.870603 0.296036
vt 0.882116 0.252327
vt 0.734886 0.329606
vt 0.719294 0.281711
vt 0.737237 0.343034
vt 0.758788 0.359311
vt 0.360417 0.224206
vt 0.859678 0.328203
vt 0.307747 0.221869
vt 0.314612 0.196021
vt 0.040584 0.236397
vt 0.032541 0.276514
vt 0.032331 0.242201
vt 0.008471 0.877919
vt 0.010329 0.851708
vt 0.026735 0.859851
vt 0.013959 0.847031
vt 0.762144 0.376954
vt 0.753768 0.376826
vt 0.741217 0.354392
vt 0.190270 0.106649
vt 0.231134 0.117450
vt 0.195240 0.127245
vt 0.600299 0.835403
vt 0.636412 0.825330
vt 0.605423 0.861698
vt 0.629661 0.860103
vt 0.683450 0.835780
vt 0.680478 0.802129
vt 0.044436 0.885882
vt 0.471633 0.361782
vt 0.321326 0.097422
vt 0.312589 0.075636
vt 0.370897 0.091387
vt 0.345775 0.055849
vt 0.338099 0.123463
vt 0.443781 0.325552
vt 0.487254 0.317282
vt 0.401875 0.348044
vt 0.507485 0.336691
vt 0.510033 0.376088
vt 0.384885 0.078130
vt 0.968051 0.570140
vt 0.984689 0.570812
vt 0.977288 0.616311
vt 0.406245 0.354987
vt 0.968350 0.609752
vt 0.952492 0.594174
vt 0.423248 0.294628
vt 0.468323 0.292096
vt 0.614830 0.800289
vt 0.566063 0.791013
vt 0.629450 0.754966
vt 0.582213 0.746510
vt 0.541875 0.775697
vt 0.535397 0.746078
vt 0.608665 0.727755
vt 0.491566 0.289647
vt 0.510979 0.294738
vt 0.502532 0.278501
vt 0.480119 0.225647
vt 0.433591 0.237011
vt 0.440615 0.214252
vt 0.458690 0.255916
vt 0.433283 0.249291
vt 0.499680 0.250517
vt 0.499001 0.230662
vt 0.636896 0.796393
vt 0.448899 0.205458
vt 0.096632 0.475949
vt 0.126598 0.481558
vt 0.121913 0.499736
vt 0.410910 0.313334
vt 0.453807 0.281158
vt 0.554635 0.716643
vt 0.577132 0.710670
vt 0.521517 0.717732
vt 0.545949 0.703883
vt 0.077967 0.514289
vt 0.123309 0.537507
vt 0.423678 0.273315
vt 0.430721 0.274045
vt 0.426073 0.260689
vt 0.443526 0.262209
vt 0.453000 0.143092
vt 0.415458 0.120419
vt 0.794445 0.468683
vt 0.148284 0.095258
vt 0.162606 0.122833
vt 0.139008 0.170313
vt 0.514167 0.766126
vt 0.522739 0.809114
vt 0.720037 0.866266
vt 0.721705 0.844076
vt 0.701924 0.783511
vt 0.738433 0.866534
vt 0.723374 0.812320
vt 0.970547 0.320395
vt 0.966954 0.304659
vt 0.976445 0.314641
vt 0.200550 0.542978
vt 0.221562 0.581723
vt 0.218986 0.588029
vt 0.157100 0.564429
vt 0.200977 0.586333
vt 0.171071 0.589487
vt 0.148539 0.585469
vt 0.161218 0.547024
vt 0.076257 0.617699
vt 0.053444 0.652739
vt 0.046130 0.602700
vt 0.073220 0.592201
vt 0.046214 0.579129
vt 0.134022 0.599078
vt 0.120081 0.622716
vt 0.094126 0.595790
vt 0.081985 0.592161
vt 0.102421 0.654911
vt 0.164758 0.466983
vt 0.179585 0.487521
vt 0.065631 0.671260
vt 0.156698 0.459058
vt 0.172954 0.461599
vt 0.140356 0.527004
vt 0.144579 0.481850
vt 0.138808 0.628371
vt 0.112000 0.574718
vt 0.126556 0.577218
vt 0.065613 0.967432
vt 0.075668 0.988120
vt 0.018296 0.962399
vt 0.052195 0.989354
vt 0.023737 0.982963
vt 0.057776 0.949053
vt 0.035995 0.935990
vt 0.017309 0.923708
vt 0.027733 0.908964
vt 0.136414 0.615476
vt 0.050808 0.918286
vt 0.960643 0.454700
vt 0.991786 0.468748
vt 0.953015 0.474879
vt 0.970043 0.505065
vt 0.452397 0.759748
vt 0.026258 0.435504
vt 0.054046 0.398798
vt 0.049514 0.428507
vt 0.019325 0.404342
vt 0.033780 0.384589
vt 0.028504 0.469102
vt 0.666177 0.515691
vt 0.620434 0.550866
vt 0.626449 0.504569
vt 0.580254 0.541329
vt 0.649008 0.432915
vt 0.630863 0.447181
vt 0.249541 0.963493
vt 0.483289 0.496429
vt 0.533463 0.441332
vt 0.512676 0.516247
vt 0.559213 0.454212
vt 0.662961 0.535031
vt 0.593622 0.437852
vt 0.621988 0.410652
vt 0.745837 0.963193
vt 0.736111 0.965244
vt 0.741026 0.953978
vt 0.077999 0.089664
vt 0.121573 0.084674
vt 0.093722 0.115186
vt 0.055065 0.112563
vt 0.128223 0.101013
vt 0.106529 0.169563
vt 0.116816 0.190650
vt 0.577810 0.377568
vt 0.998977 0.563525
vt 0.998977 0.565706
vt 0.998000 0.565464
vt 0.078274 0.172498
vt 0.288231 0.880792
vt 0.177698 0.868821
vt 0.279683 0.843968
vt 0.176921 0.827374
vt 0.257316 0.898592
vt 0.274715 0.900079
vt 0.287016 0.098122
vt 0.305177 0.125213
vt 0.259012 0.129927
vt 0.279333 0.157279
vt 0.310546 0.142216
vt 0.232819 0.895552
vt 0.829537 0.586565
vt 0.842846 0.577948
vt 0.838457 0.609756
vt 0.827279 0.540388
vt 0.857657 0.528150
vt 0.820290 0.513432
vt 0.182491 0.897049
vt 0.701219 0.903595
vt 0.696241 0.879271
vt 0.731628 0.909210
vt 0.670899 0.916796
vt 0.696597 0.936687
vt 0.672315 0.948604
vt 0.640989 0.874790
vt 0.728119 0.933311
vt 0.626357 0.891014
vt 0.720377 0.961396
vt 0.688304 0.965545
vt 0.853185 0.627841
vt 0.836796 0.625350
vt 0.862622 0.609221
vt 0.635247 0.946024
vt 0.134604 0.086454
s 1
f 45/1/1 27/2/2 13/3/3
f 17/4/4 27/2/2 45/1/1
f 17/4/4 32/5/5 47/6/6
f 12/7/7 27/2/2 57/8/8
f 27/2/2 12/7/7 13/3/3
f 57/8/8 27/2/2 74/9/9
f 12/7/7 57/8/8 67/10/10
f 71/11/11 15/12/12 26/13/13
f 14/14/14 26/15/13 11/16/15
f 1/17/16 3/18/17 45/19/1
f 45/19/1 13/20/3 4/21/18
f 9/22/19 6/23/20 3/24/17
f 1/25/16 2/26/21 3/24/17
f 2/26/21 9/22/19 3/24/17
f 11/27/15 3/28/17 14/29/14
f 31/30/22 3/28/17 6/31/20
f 6/31/20 30/32/23 31/30/22
f 11/27/15 17/33/4 3/28/17
f 17/33/4 11/27/15 15/34/12
f 28/35/24 15/34/12 11/27/15
f 15/34/12 71/36/11 32/37/5
f 15/34/12 32/37/5 17/33/4
f 30/38/23 6/23/20 9/22/19
f 30/38/23 9/22/19 55/39/25
f 55/39/25 21/40/26 37/41/27
f 21/40/26 55/39/25 9/22/19
f 2/26/21 21/40/26 9/22/19
f 15/12/12 28/42/24 26/13/13
f 71/11/11 26/13/13 79/43/28
f 31/44/22 14/45/14 3/46/17
f 38/47/29 14/48/14 31/49/22
f 85/50/30 107/51/31 120/52/32
f 132/53/33 120/52/32 139/54/34
f 120/52/32 132/53/33 85/50/30
f 132/55/33 142/56/35 85/57/30
f 145/58/36 139/59/34 111/60/37
f 120/61/32 105/62/38 111/60/37
f 120/61/32 111/60/37 139/59/34
f 139/63/34 176/64/39 132/55/33
f 210/65/40 142/56/35 132/55/33
f 132/55/33 176/64/39 210/65/40
f 145/58/36 168/66/41 176/67/39
f 176/67/39 160/68/42 145/58/36
f 160/68/42 139/59/34 145/58/36
f 160/69/42 176/64/39 139/63/34
f 47/6/6 56/70/43 27/2/2
f 47/6/6 27/2/2 17/4/4
f 56/70/43 62/71/44 63/72/45
f 62/71/44 56/70/43 47/6/6
f 74/9/9 27/2/2 56/70/43
f 85/50/30 62/73/44 82/74/46
f 71/11/11 82/74/46 62/73/44
f 82/74/46 107/51/31 85/50/30
f 120/52/32 82/74/46 105/75/38
f 62/76/44 85/57/30 63/77/45
f 32/78/5 62/73/44 47/79/6
f 74/9/9 56/70/43 63/72/45
f 104/80/47 67/81/10 57/82/8
f 104/80/47 57/82/8 74/83/9
f 133/84/48 104/80/47 74/83/9
f 85/57/30 142/56/35 63/77/45
f 142/56/35 74/85/9 63/77/45
f 114/86/49 92/87/50 67/81/10
f 114/88/49 104/89/47 161/90/51
f 114/88/49 161/90/51 115/91/52
f 104/89/47 133/92/48 161/90/51
f 221/93/53 161/90/51 133/92/48
f 142/94/35 133/92/48 74/95/9
f 207/96/54 133/92/48 142/94/35
f 11/16/15 26/97/13 28/98/24
f 26/99/13 14/48/14 38/47/29
f 79/100/28 26/101/13 38/102/29
f 105/62/38 82/103/46 79/100/28
f 111/60/37 105/62/38 79/100/28
f 183/104/55 140/105/56 130/106/57
f 183/104/55 130/106/57 149/107/58
f 149/107/58 130/106/57 86/108/59
f 79/109/28 82/74/46 71/11/11
f 120/52/32 107/51/31 82/74/46
f 149/110/58 86/111/59 119/112/60
f 111/60/37 168/66/41 145/58/36
f 79/100/28 86/108/59 130/106/57
f 111/60/37 79/100/28 140/105/56
f 79/100/28 130/106/57 140/105/56
f 111/60/37 140/105/56 168/66/41
f 17/33/4 45/113/1 3/28/17
f 55/114/25 52/115/61 30/116/23
f 66/117/62 52/115/61 55/114/25
f 75/118/63 66/117/62 55/114/25
f 44/119/64 75/118/63 55/114/25
f 75/118/63 44/119/64 58/120/65
f 44/119/64 61/121/66 58/122/65
f 61/121/66 44/119/64 42/123/67
f 34/124/68 42/123/67 44/119/64
f 55/114/25 34/125/68 44/119/64
f 81/126/69 38/127/29 31/128/22
f 30/129/23 66/130/62 31/131/22
f 66/130/62 30/129/23 52/132/61
f 62/73/44 32/78/5 71/11/11
f 66/130/62 81/126/69 31/128/22
f 38/133/29 86/111/59 79/134/28
f 38/133/29 81/135/69 86/111/59
f 90/136/70 81/137/69 66/138/62
f 75/139/63 109/140/71 90/136/70
f 81/137/69 90/136/70 109/140/71
f 96/141/72 86/142/59 81/137/69
f 109/140/71 96/141/72 81/137/69
f 119/112/60 86/111/59 96/143/72
f 119/112/60 103/144/73 149/110/58
f 149/110/58 103/144/73 141/145/74
f 146/146/75 141/145/74 113/147/76
f 121/148/77 113/147/76 141/145/74
f 89/149/78 109/150/71 113/147/76
f 171/151/79 174/152/80 168/153/41
f 168/153/41 183/154/55 171/151/79
f 183/154/55 199/155/81 171/151/79
f 140/156/56 183/157/55 168/153/41
f 183/154/55 193/158/82 199/155/81
f 193/158/82 183/154/55 149/159/58
f 149/160/58 187/161/83 193/162/82
f 193/162/82 217/163/84 232/164/85
f 232/164/85 217/163/84 249/165/86
f 249/166/86 217/163/84 237/167/87
f 237/167/87 217/163/84 198/168/88
f 198/168/88 217/163/84 187/161/83
f 141/145/74 191/169/89 187/170/83
f 149/110/58 141/145/74 187/170/83
f 13/171/3 12/172/7 16/173/90
f 10/174/91 13/171/3 41/175/92
f 10/174/91 41/175/92 33/176/93
f 13/171/3 16/173/90 41/175/92
f 12/7/7 67/10/10 16/177/90
f 1/17/16 4/21/18 2/178/21
f 4/21/18 22/179/94 2/178/21
f 22/179/94 5/180/95 2/178/21
f 10/181/91 4/21/18 13/20/3
f 22/179/94 4/21/18 7/182/96
f 4/21/18 10/181/91 7/182/96
f 1/17/16 45/19/1 4/21/18
f 19/183/97 8/184/98 23/185/99
f 2/26/21 5/186/95 8/184/98
f 5/180/95 22/179/94 7/182/96
f 7/182/96 10/181/91 18/187/100
f 7/182/96 18/187/100 5/180/95
f 8/184/98 5/186/95 23/185/99
f 36/188/101 23/185/99 5/186/95
f 2/26/21 8/184/98 21/40/26
f 8/184/98 19/183/97 21/40/26
f 41/175/92 16/173/90 51/189/102
f 41/175/92 51/189/102 33/176/93
f 33/176/93 18/190/100 10/174/91
f 115/191/52 92/192/50 114/193/49
f 51/189/102 67/194/10 92/192/50
f 68/195/103 51/189/102 92/192/50
f 68/195/103 33/176/93 51/189/102
f 33/176/93 68/195/103 53/196/104
f 18/197/100 33/176/93 53/196/104
f 51/198/102 16/177/90 67/10/10
f 131/199/105 127/200/106 68/195/103
f 131/199/105 92/192/50 115/191/52
f 68/195/103 92/192/50 131/199/105
f 104/80/47 114/86/49 67/81/10
f 216/201/107 172/202/108 231/203/109
f 172/202/108 216/201/107 166/204/110
f 172/202/108 166/204/110 131/205/105
f 131/205/105 115/206/52 172/202/108
f 148/207/111 127/208/106 131/205/105
f 221/93/53 172/209/108 161/90/51
f 161/90/51 172/209/108 115/210/52
f 148/207/111 166/204/110 162/211/112
f 162/211/112 151/212/113 127/208/106
f 166/204/110 148/207/111 131/205/105
f 166/204/110 216/201/107 162/211/112
f 148/207/111 162/211/112 127/208/106
f 18/213/100 36/214/101 5/215/95
f 59/216/114 36/214/101 69/217/115
f 64/218/116 36/214/101 18/213/100
f 53/219/104 64/218/116 18/213/100
f 20/220/117 24/221/118 19/183/97
f 24/221/118 21/40/26 19/183/97
f 49/222/119 60/223/120 24/221/118
f 21/40/26 24/221/118 60/223/120
f 19/224/97 23/225/99 20/226/117
f 20/226/117 25/227/121 40/228/122
f 29/229/123 65/230/124 48/231/125
f 65/230/124 29/229/123 23/225/99
f 20/226/117 23/225/99 29/229/123
f 73/232/126 102/233/127 70/234/128
f 102/233/127 73/232/126 117/235/129
f 93/236/130 117/235/129 73/232/126
f 70/234/128 36/237/101 59/238/114
f 23/239/99 36/237/101 70/234/128
f 64/240/116 53/241/104 78/242/131
f 69/243/115 64/240/116 59/244/114
f 36/245/101 64/246/116 69/247/115
f 59/238/114 73/232/126 70/234/128
f 68/248/103 78/242/131 53/241/104
f 78/242/131 68/248/103 98/249/132
f 70/234/128 65/250/124 23/239/99
f 65/251/124 94/252/133 84/253/134
f 94/252/133 65/251/124 102/254/127
f 102/254/127 65/251/124 70/255/128
f 137/256/135 102/254/127 126/257/136
f 137/256/135 94/252/133 102/254/127
f 137/256/135 116/258/137 94/252/133
f 94/252/133 116/258/137 84/253/134
f 93/259/130 73/260/126 64/240/116
f 59/244/114 64/240/116 73/260/126
f 64/240/116 78/242/131 93/259/130
f 93/259/130 78/242/131 127/261/106
f 78/242/131 98/249/132 127/261/106
f 117/235/129 126/262/136 102/233/127
f 68/195/103 127/200/106 98/263/132
f 158/264/138 93/265/130 151/266/113
f 136/267/139 117/268/129 93/269/130
f 93/265/130 127/270/106 151/266/113
f 93/265/130 158/264/138 136/271/139
f 147/272/140 117/268/129 136/273/139
f 170/274/141 126/275/136 117/268/129
f 170/274/141 117/268/129 155/276/142
f 224/277/143 155/276/142 211/278/144
f 224/279/143 225/280/145 243/281/146
f 136/273/139 164/282/147 147/272/140
f 147/272/140 164/282/147 155/276/142
f 147/272/140 155/276/142 117/268/129
f 164/283/147 136/271/139 158/264/138
f 155/276/142 224/277/143 170/274/141
f 103/284/73 96/285/72 97/286/148
f 119/287/60 96/285/72 103/284/73
f 99/288/149 103/284/73 97/286/148
f 89/289/78 97/290/148 96/141/72
f 97/286/148 89/291/78 101/292/150
f 113/293/76 101/292/150 89/291/78
f 121/294/77 99/288/149 113/293/76
f 99/288/149 97/286/148 101/292/150
f 113/293/76 99/288/149 101/292/150
f 103/144/73 99/295/149 121/148/77
f 121/148/77 141/145/74 103/144/73
f 35/296/151 34/297/68 55/298/25
f 55/298/25 37/299/27 35/296/151
f 35/296/151 37/299/27 42/300/67
f 37/301/27 43/302/152 42/303/67
f 43/302/152 37/301/27 60/304/120
f 34/305/68 35/306/151 54/307/153
f 34/308/68 54/307/153 50/309/154
f 50/310/154 42/311/67 34/308/68
f 50/312/154 35/313/151 42/314/67
f 58/315/65 42/314/67 43/316/152
f 50/312/154 54/317/153 35/313/151
f 42/123/67 58/122/65 61/121/66
f 66/318/62 75/319/63 90/320/70
f 43/321/152 100/322/155 58/323/65
f 100/322/155 72/324/156 58/323/65
f 100/322/155 128/325/157 72/324/156
f 75/319/63 58/326/65 72/324/156
f 109/327/71 75/319/63 72/324/156
f 89/289/78 96/141/72 109/140/71
f 43/302/152 60/328/120 100/329/155
f 144/330/158 128/331/157 163/332/159
f 122/333/160 109/327/71 72/324/156
f 128/331/157 143/334/161 163/332/159
f 163/332/159 143/334/161 153/335/162
f 128/331/157 129/336/163 143/334/161
f 153/335/162 143/334/161 129/337/163
f 122/338/160 72/324/156 128/325/157
f 109/339/71 146/340/75 113/341/76
f 109/342/71 122/343/160 146/344/75
f 128/345/157 144/346/158 122/347/160
f 146/348/75 122/347/160 144/346/158
f 144/349/158 141/145/74 146/146/75
f 144/350/158 163/351/159 179/352/164
f 144/350/158 179/352/164 189/353/165
f 179/352/164 163/351/159 185/354/166
f 179/352/164 157/355/167 169/356/168
f 179/352/164 169/356/168 189/353/165
f 157/355/167 152/357/169 169/356/168
f 157/355/167 179/352/164 185/354/166
f 197/358/170 157/355/167 185/354/166
f 156/359/171 152/357/169 157/355/167
f 197/358/170 184/360/172 157/355/167
f 184/360/172 156/359/171 157/355/167
f 152/357/169 180/361/173 169/356/168
f 156/359/171 182/362/174 152/357/169
f 182/362/174 156/359/171 184/363/172
f 184/360/172 197/358/170 215/364/175
f 39/365/176 20/226/117 40/228/122
f 20/226/117 39/365/176 24/366/118
f 25/227/121 20/226/117 29/229/123
f 48/231/125 25/227/121 29/229/123
f 40/367/122 25/368/121 39/369/176
f 24/370/118 39/371/176 46/372/177
f 77/373/178 49/374/119 48/375/125
f 49/374/119 24/370/118 46/372/177
f 49/374/119 46/372/177 48/375/125
f 77/373/178 48/375/125 65/376/124
f 48/377/125 46/378/177 25/379/121
f 25/368/121 46/380/177 39/369/176
f 83/381/179 60/382/120 49/383/119
f 21/384/26 60/382/120 37/385/27
f 84/253/134 80/386/180 65/251/124
f 77/387/178 65/251/124 80/386/180
f 100/388/155 60/382/120 83/381/179
f 100/388/155 83/381/179 124/389/181
f 83/381/179 112/390/182 124/389/181
f 100/388/155 124/391/181 106/392/183
f 76/393/184 77/394/178 80/395/180
f 87/396/185 95/397/186 76/393/184
f 91/398/187 76/393/184 95/397/186
f 76/393/184 83/399/179 77/394/178
f 76/393/184 91/398/187 83/399/179
f 49/374/119 77/373/178 83/400/179
f 87/401/185 76/402/184 88/403/188
f 88/403/188 76/402/184 80/404/180
f 88/403/188 80/404/180 116/405/137
f 91/398/187 95/397/186 108/406/189
f 83/407/179 108/408/189 112/409/182
f 88/403/188 116/405/137 135/410/190
f 118/411/191 87/401/185 135/410/190
f 88/403/188 135/410/190 87/401/185
f 112/409/182 108/408/189 135/412/190
f 83/399/179 91/398/187 108/406/189
f 110/413/192 118/414/191 95/397/186
f 87/415/185 110/413/192 95/397/186
f 123/416/193 129/417/163 128/418/157
f 100/388/155 106/392/183 123/416/193
f 80/404/180 84/419/134 116/405/137
f 123/420/193 106/421/183 125/422/194
f 100/423/155 123/424/193 128/331/157
f 116/425/137 137/426/135 135/412/190
f 125/427/194 106/428/183 124/429/181
f 125/427/194 124/429/181 129/430/163
f 129/430/163 124/429/181 153/431/162
f 118/414/191 135/432/190 108/406/189
f 125/422/194 138/433/195 123/420/193
f 112/409/182 135/412/190 137/434/135
f 124/435/181 112/409/182 137/434/135
f 123/436/193 138/437/195 134/438/196
f 129/439/163 123/436/193 134/438/196
f 137/440/135 150/441/197 124/442/181
f 150/443/197 153/431/162 124/429/181
f 118/414/191 108/406/189 95/397/186
f 150/441/197 178/444/198 153/445/162
f 159/446/199 200/447/200 181/448/201
f 137/449/135 159/450/199 150/451/197
f 129/452/163 134/453/196 125/422/194
f 154/454/202 126/455/136 170/456/141
f 126/455/136 154/454/202 137/457/135
f 165/458/203 154/454/202 167/459/204
f 175/460/205 192/461/206 167/459/204
f 167/459/204 192/462/206 186/463/207
f 186/463/207 165/458/203 167/459/204
f 159/464/199 137/465/135 154/454/202
f 165/458/203 203/466/208 154/454/202
f 150/441/197 159/446/199 178/444/198
f 178/444/198 159/446/199 181/448/201
f 170/274/141 175/467/205 167/468/204
f 167/468/204 154/469/202 170/274/141
f 178/470/198 181/471/201 173/472/209
f 181/471/201 177/473/210 173/472/209
f 110/474/192 87/401/185 118/475/191
f 138/433/195 125/422/194 134/453/196
f 173/476/209 177/477/210 205/478/211
f 174/479/80 194/480/212 168/66/41
f 142/481/35 210/482/40 207/483/54
f 194/484/212 254/485/213 210/482/40
f 207/483/54 210/482/40 254/485/213
f 168/66/41 194/480/212 176/67/39
f 176/64/39 194/486/212 210/65/40
f 194/487/212 174/488/80 201/489/214
f 228/490/215 261/491/216 204/492/217
f 201/489/214 204/492/217 250/493/218
f 250/493/218 194/494/212 201/489/214
f 250/495/218 285/496/219 254/485/213
f 250/495/218 261/497/216 285/496/219
f 285/496/219 261/497/216 291/498/220
f 304/499/221 285/496/219 319/500/222
f 304/499/221 296/501/223 301/502/224
f 304/499/221 295/503/225 285/496/219
f 304/499/221 301/502/224 295/503/225
f 295/503/225 287/504/226 285/496/219
f 285/496/219 287/504/226 207/483/54
f 254/505/213 194/494/212 250/493/218
f 250/493/218 204/492/217 261/491/216
f 228/506/215 291/498/220 261/497/216
f 285/496/219 207/483/54 254/485/213
f 207/96/54 221/93/53 133/92/48
f 221/93/53 207/96/54 253/507/227
f 204/508/217 174/509/80 171/510/79
f 204/508/217 201/511/214 174/509/80
f 221/93/53 231/512/109 172/209/108
f 221/513/53 253/514/227 273/515/228
f 253/514/227 297/516/229 273/515/228
f 308/517/230 297/518/229 253/514/227
f 287/519/226 308/517/230 253/514/227
f 295/520/225 308/517/230 287/519/226
f 301/521/224 308/517/230 295/522/225
f 308/517/230 301/521/224 269/523/231
f 320/524/232 297/518/229 308/517/230
f 207/96/54 287/525/226 253/507/227
f 228/526/215 199/155/81 193/527/82
f 193/162/82 187/161/83 217/163/84
f 228/490/215 188/528/233 199/529/81
f 188/528/233 228/490/215 204/492/217
f 193/530/82 232/531/85 230/532/234
f 193/533/82 242/534/235 228/535/215
f 228/535/215 242/534/235 280/536/236
f 228/535/215 280/536/236 291/537/220
f 279/538/237 284/539/238 280/536/236
f 280/536/236 284/539/238 290/540/239
f 280/536/236 290/540/239 291/541/220
f 280/536/236 242/534/235 279/538/237
f 279/538/237 242/534/235 249/542/86
f 249/543/86 242/544/235 238/545/240
f 188/546/233 171/151/79 199/155/81
f 198/547/88 187/170/83 191/169/89
f 198/548/88 191/549/89 206/550/241
f 206/550/241 191/549/89 196/551/242
f 141/552/74 196/551/242 191/553/89
f 196/551/242 141/552/74 189/554/165
f 204/555/217 171/556/79 188/528/233
f 219/557/243 198/558/88 206/559/241
f 235/560/244 237/561/87 198/558/88
f 219/557/243 226/562/245 222/563/246
f 219/557/243 222/564/246 198/558/88
f 198/558/88 222/564/246 235/560/244
f 235/560/244 265/565/247 237/561/87
f 229/566/248 219/567/243 196/568/242
f 219/567/243 206/569/241 196/568/242
f 230/570/234 241/571/249 242/572/235
f 222/573/246 226/574/245 259/575/250
f 269/523/231 259/575/250 298/576/251
f 226/577/245 229/566/248 239/578/252
f 239/578/252 229/566/248 196/568/242
f 230/579/234 242/534/235 193/533/82
f 252/580/253 235/581/244 222/573/246
f 235/582/244 252/580/253 269/523/231
f 219/567/243 229/566/248 226/577/245
f 232/531/85 238/545/240 230/583/234
f 238/545/240 241/584/249 230/583/234
f 241/585/249 238/586/240 242/534/235
f 222/573/246 259/575/250 252/580/253
f 259/575/250 269/523/231 252/580/253
f 296/587/223 277/588/254 235/560/244
f 235/560/244 301/589/224 296/587/223
f 277/588/254 319/590/222 321/591/255
f 277/588/254 265/565/247 235/560/244
f 294/592/256 268/593/257 259/594/250
f 226/595/245 239/596/252 259/594/250
f 259/594/250 278/597/258 294/592/256
f 237/561/87 279/598/237 249/599/86
f 237/561/87 265/565/247 279/598/237
f 303/600/259 265/565/247 321/591/255
f 303/600/259 321/591/255 318/601/260
f 321/591/255 319/590/222 318/601/260
f 296/501/223 304/499/221 277/602/254
f 304/499/221 319/500/222 277/602/254
f 235/560/244 269/603/231 301/589/224
f 265/565/247 277/588/254 321/591/255
f 303/600/259 279/598/237 265/565/247
f 319/500/222 291/604/220 315/605/261
f 303/606/259 284/607/238 279/608/237
f 291/609/220 290/610/239 303/611/259
f 303/611/259 290/610/239 284/612/238
f 318/601/260 319/613/222 315/614/261
f 315/614/261 303/615/259 318/601/260
f 313/616/262 266/617/263 268/618/257
f 273/619/228 297/620/229 258/621/264
f 262/622/265 258/621/264 297/620/229
f 297/620/229 275/623/266 262/622/265
f 320/624/232 275/623/266 297/620/229
f 320/524/232 308/517/230 269/523/231
f 298/576/251 320/524/232 269/523/231
f 303/611/259 315/625/261 291/609/220
f 291/498/220 319/500/222 285/496/219
f 216/201/107 236/626/267 162/211/112
f 264/627/268 231/628/109 302/629/269
f 302/629/269 231/628/109 221/630/53
f 276/631/270 264/627/268 302/629/269
f 216/201/107 231/203/109 236/626/267
f 236/626/267 270/632/271 263/633/272
f 231/203/109 270/632/271 236/626/267
f 231/203/109 276/634/270 270/632/271
f 225/635/145 236/626/267 263/633/272
f 151/212/113 236/626/267 214/636/273
f 236/626/267 151/212/113 162/211/112
f 221/630/53 273/637/228 302/629/269
f 258/638/264 262/639/265 275/640/266
f 264/641/268 276/634/270 231/203/109
f 302/642/269 273/643/228 258/638/264
f 258/638/264 275/640/266 302/642/269
f 305/644/274 289/645/275 270/632/271
f 247/646/276 220/647/277 267/648/278
f 260/649/279 233/650/280 243/651/146
f 267/648/278 220/647/277 260/649/279
f 267/648/278 260/649/279 288/652/281
f 220/647/277 233/650/280 260/649/279
f 289/645/275 263/633/272 270/632/271
f 263/633/272 274/653/282 225/635/145
f 263/633/272 289/645/275 274/653/282
f 260/654/279 274/653/282 288/655/281
f 299/656/283 298/657/251 259/658/250
f 312/659/284 311/660/285 299/656/283
f 311/660/285 298/657/251 299/656/283
f 267/661/278 274/653/282 299/656/283
f 271/662/286 267/661/278 299/656/283
f 247/646/276 267/648/278 271/663/286
f 299/656/283 259/658/250 268/664/257
f 300/665/287 271/666/286 299/667/283
f 270/632/271 316/668/288 305/644/274
f 289/645/275 305/644/274 317/669/289
f 267/661/278 288/655/281 274/653/282
f 289/645/275 317/669/289 312/659/284
f 312/659/284 274/653/282 289/645/275
f 255/670/290 274/671/282 260/649/279
f 255/670/290 260/649/279 243/651/146
f 243/651/146 225/672/145 255/670/290
f 255/670/290 225/672/145 274/673/282
f 266/674/263 300/665/287 299/667/283
f 299/667/283 268/675/257 266/674/263
f 305/644/274 298/676/251 314/677/291
f 311/660/285 314/677/291 298/678/251
f 307/679/292 311/660/285 312/659/284
f 314/677/291 317/669/289 305/644/274
f 317/669/289 307/679/292 312/659/284
f 211/680/144 158/264/138 214/681/273
f 211/680/144 164/283/147 158/264/138
f 211/278/144 155/276/142 164/682/147
f 151/266/113 214/681/273 158/264/138
f 211/680/144 214/681/273 225/280/145
f 224/279/143 211/680/144 225/280/145
f 175/683/205 170/684/141 220/685/277
f 220/647/277 224/686/143 233/650/280
f 220/647/277 170/687/141 224/686/143
f 225/635/145 214/636/273 236/626/267
f 233/650/280 224/686/143 243/651/146
f 316/668/288 270/632/271 276/634/270
f 302/688/269 275/623/266 316/689/288
f 320/624/232 298/690/251 316/689/288
f 316/689/288 276/691/270 302/688/269
f 320/624/232 316/689/288 275/623/266
f 305/692/274 316/689/288 298/690/251
f 307/679/292 317/669/289 314/677/291
f 314/677/291 311/660/285 307/679/292
f 312/659/284 299/656/283 274/653/282
f 141/693/74 144/694/158 189/695/165
f 185/696/166 163/697/159 153/698/162
f 244/699/293 208/700/294 227/701/295
f 244/699/293 227/701/295 251/702/296
f 185/696/166 208/700/294 218/703/297
f 208/700/294 185/696/166 153/698/162
f 212/704/298 189/705/165 169/706/168
f 213/707/299 212/704/298 169/708/168
f 251/709/296 248/710/300 240/711/301
f 213/712/299 240/711/301 212/704/298
f 212/704/298 240/711/301 239/713/252
f 240/711/301 248/710/300 239/713/252
f 215/714/175 197/715/170 218/703/297
f 197/715/170 185/696/166 218/703/297
f 239/713/252 196/716/242 212/704/298
f 180/717/173 184/718/172 215/714/175
f 213/719/299 180/720/173 215/714/175
f 215/714/175 218/703/297 213/719/299
f 196/716/242 189/705/165 212/704/298
f 208/700/294 244/699/293 218/703/297
f 238/545/240 232/531/85 249/543/86
f 239/713/252 248/710/300 278/721/258
f 240/711/301 213/712/299 218/722/297
f 218/722/297 244/723/293 251/709/296
f 240/711/301 218/722/297 251/709/296
f 251/724/296 227/725/295 282/726/302
f 266/727/263 313/728/262 282/726/302
f 266/727/263 282/726/302 227/725/295
f 248/729/300 251/724/296 292/730/303
f 282/731/302 293/732/304 292/730/303
f 239/596/252 278/597/258 259/594/250
f 278/721/258 248/710/300 292/733/303
f 292/730/303 251/724/296 282/726/302
f 292/730/303 293/732/304 278/734/258
f 152/735/169 182/736/174 180/737/173
f 184/738/172 180/737/173 182/736/174
f 213/739/299 169/356/168 180/361/173
f 294/740/256 282/741/302 313/742/262
f 294/740/256 278/743/258 293/744/304
f 294/740/256 293/744/304 282/741/302
f 268/745/257 294/740/256 313/742/262
f 159/746/199 203/747/208 200/748/200
f 203/747/208 223/749/305 200/748/200
f 181/750/201 200/748/200 195/751/306
f 190/752/307 177/473/210 181/471/201
f 153/753/162 178/754/198 208/755/294
f 208/755/294 178/754/198 205/756/211
f 159/746/199 154/757/202 203/747/208
f 190/758/307 200/748/200 205/756/211
f 223/749/305 205/756/211 200/748/200
f 195/751/306 190/758/307 181/759/201
f 209/760/308 203/761/208 165/762/203
f 186/763/207 202/764/309 209/765/308
f 165/766/203 186/763/207 209/765/308
f 209/765/308 192/767/206 220/685/277
f 220/685/277 192/767/206 175/683/205
f 234/768/310 220/685/277 247/769/276
f 205/756/211 177/770/210 190/758/307
f 173/771/209 205/772/211 178/773/198
f 195/751/306 200/748/200 190/758/307
f 205/756/211 223/749/305 208/755/294
f 203/774/208 209/765/308 234/768/310
f 203/775/208 246/776/311 223/777/305
f 257/778/312 223/777/305 246/776/311
f 247/779/276 203/775/208 234/780/310
f 203/775/208 247/779/276 246/776/311
f 234/768/310 209/765/308 220/685/277
f 227/781/295 208/782/294 245/783/313
f 272/784/314 245/783/313 223/785/305
f 245/783/313 208/782/294 223/785/305
f 245/783/313 266/617/263 227/781/295
f 256/786/315 246/776/311 247/779/276
f 246/787/311 281/788/316 283/789/317
f 256/790/315 271/791/286 281/788/316
f 256/790/315 247/792/276 271/791/286
f 256/786/315 281/793/316 246/776/311
f 272/794/314 223/795/305 257/796/312
f 286/797/318 306/798/319 309/799/320
f 272/794/314 306/798/319 286/797/318
f 272/794/314 286/797/318 245/800/313
f 272/794/314 257/796/312 306/798/319
f 306/798/319 257/796/312 310/801/321
f 245/800/313 286/797/318 266/802/263
f 310/801/321 281/803/316 271/804/286
f 310/801/321 271/804/286 306/798/319
f 257/805/312 246/806/311 283/789/317
f 257/805/312 283/789/317 310/807/321
f 309/799/320 306/798/319 271/804/286
f 266/802/263 286/797/318 300/808/287
f 309/799/320 271/804/286 300/808/287
f 310/807/321 283/789/317 281/788/316
f 209/765/308 202/764/309 192/767/206
f 192/767/206 202/764/309 186/809/207
f 309/799/320 300/808/287 286/797/318
