# Blender 5.1.2
# www.blender.org
o Nurse_Shark_Quad
v -0.000680 0.810913 0.026752
v -0.006610 0.256002 -0.656162
v -0.019219 0.457488 -0.642659
v -0.013682 0.137866 -0.420498
v -0.044158 0.179773 -0.123960
v -0.767157 0.011106 0.215752
v -0.049395 0.568260 0.161423
v 0.001586 0.604882 -1.338162
v 0.013777 0.265202 1.406316
v -0.237605 0.103632 0.570171
v -0.174527 0.241127 1.267731
v -0.002888 0.578051 0.371760
v -0.122835 0.198726 -0.007438
v -0.006024 0.129181 -0.616879
v -0.008098 0.062506 -0.414379
v -0.191129 0.216608 0.438340
v -0.107226 0.103978 1.125845
v -0.287704 0.171545 0.635225
v -0.007355 0.094285 -0.213157
v -0.024876 0.433791 -0.820783
v 0.000886 0.466436 -1.195878
v -0.005798 0.550291 -0.029071
v -0.001759 0.111215 -1.281503
v 0.006210 0.592346 0.037098
v -0.164279 0.365116 -0.011949
v 0.000362 0.769281 0.202291
v -0.235369 0.145880 0.303487
v -0.719433 0.025200 0.409868
v -0.211151 0.368353 0.754090
v -0.227371 0.171551 0.296715
v -0.053613 0.182697 1.371148
v -0.031579 0.295479 -0.801019
v -0.007670 0.325692 -1.142840
v -0.008437 0.493726 -0.653083
v -0.114819 0.359883 -0.722779
v 0.036459 0.295702 -1.003807
v 0.103157 0.206738 -0.098184
v 0.140002 0.223017 1.329639
v 0.240273 0.228890 1.011845
v 0.101877 0.093297 1.082510
v 0.734440 0.020774 0.389180
v 0.437300 0.132118 0.387769
v 0.758134 0.006189 0.208837
v 0.027742 0.077814 0.378029
v 0.143447 0.412000 -0.261735
v 0.199831 0.365951 0.534534
v 0.183128 0.200310 0.362073
v 0.207942 0.385196 0.795864
v 0.379760 0.146878 0.576551
v 0.276014 0.103601 0.547388
v 0.022020 0.170845 -0.184134
v -0.019450 0.381008 1.142293
v 0.208840 0.235972 0.593728
v 0.268458 0.186311 0.695398
v 0.001266 0.172545 -1.006756
v 0.218044 0.137343 0.319232
v 0.017138 0.430638 -0.830608
v 0.096139 0.363764 -0.836637
vn -0.1540 -0.9768 0.1487
vn -0.4004 -0.8904 0.2165
vn -0.9713 0.0052 0.2378
vn -0.8565 -0.2136 0.4698
vn -0.8287 0.5466 -0.1202
vn -0.7786 -0.2123 -0.5905
vn -0.1929 0.8941 0.4041
vn 0.0077 0.4568 -0.8895
vn 0.0159 -0.1482 -0.9888
vn -0.9863 0.0226 -0.1636
vn -0.2246 -0.9688 -0.1049
vn -0.0431 -0.9695 -0.2414
vn -0.2987 -0.9348 0.1923
vn -0.6363 -0.7588 -0.1393
vn 0.0996 0.8703 0.4823
vn 0.0467 0.8023 -0.5951
vn -0.9025 0.4283 -0.0446
vn -0.0650 -0.8350 -0.5464
vn -0.3020 -0.5647 0.7680
vn -0.8596 0.1222 0.4961
vn -0.1467 -0.1184 -0.9821
vn -0.0145 -0.5454 -0.8381
vn 0.0941 0.3523 0.9312
vn 0.7588 -0.0564 0.6489
vn -0.0495 0.9438 0.3268
vn 0.7518 0.6485 0.1191
vn 0.9866 0.1503 -0.0635
vn 0.9255 0.3588 -0.1215
vn 0.8155 -0.4333 -0.3838
vn 0.0272 -0.6933 -0.7201
vn -0.5031 -0.8533 -0.1370
vn 0.0233 -0.9728 0.2303
vn 0.6729 -0.7358 -0.0759
vn 0.5236 -0.4609 -0.7165
vn 0.8608 0.4498 -0.2383
vn -0.0085 -0.6732 -0.7394
vn 0.0467 0.9050 -0.4229
vn 0.0074 0.9873 0.1586
vn 0.9937 -0.0525 -0.0993
vn 0.3976 0.9048 0.1525
vn 0.1418 -0.9733 0.1803
vn 0.3593 -0.9128 0.1944
vn 0.0097 -0.9411 -0.3381
vn -0.7909 0.6032 0.1031
vn -0.9822 0.1681 -0.0833
vn -0.2411 0.9102 -0.3367
vn -0.5988 0.6923 -0.4028
vn -0.7417 0.6620 -0.1076
vn 0.0945 -0.9352 0.3412
vn 0.9677 -0.0813 0.2387
vn 0.6447 0.2266 0.7301
vn 0.9862 0.0394 0.1606
vn 0.8572 0.5009 -0.1193
vn 0.2587 0.9503 -0.1733
vn 0.7165 -0.2205 -0.6618
vn 0.8807 -0.2131 0.4230
vn -0.3694 0.9030 -0.2194
vn 0.9672 -0.2478 -0.0558
vt 0.124311 0.659912
vt 0.333192 0.587717
vt 0.138572 0.691195
vt 0.338277 0.146855
vt 0.173381 0.241270
vt 0.355467 0.077699
vt 0.400948 0.194615
vt 0.396504 0.180468
vt 0.465726 0.102801
vt 0.212823 0.808630
vt 0.081803 0.942427
vt 0.108248 0.861908
vt 0.742351 0.092940
vt 0.794147 0.088260
vt 0.759602 0.137041
vt 0.626465 0.276968
vt 0.574141 0.291899
vt 0.989791 0.437720
vt 0.987705 0.509188
vt 0.943992 0.394730
vt 0.137815 0.380944
vt 0.051151 0.142442
vt 0.201452 0.298332
vt 0.406442 0.586583
vt 0.360826 0.625528
vt 0.162147 0.761098
vt 0.097416 0.820797
vt 0.015130 0.761830
vt 0.197545 0.268651
vt 0.983452 0.024825
vt 0.992604 0.054347
vt 0.899523 0.121336
vt 0.221220 0.934825
vt 0.303490 0.889320
vt 0.541880 0.808474
vt 0.370830 0.169184
vt 0.383220 0.094512
vt 0.405130 0.093684
vt 0.907892 0.057485
vt 0.894802 0.083648
vt 0.873766 0.102117
vt 0.346152 0.764177
vt 0.460461 0.732646
vt 0.342137 0.790322
vt 0.490651 0.056365
vt 0.459506 0.044442
vt 0.545085 0.903776
vt 0.517469 0.975165
vt 0.437571 0.916917
vt 0.732687 0.657621
vt 0.808724 0.641830
vt 0.813107 0.605966
vt 0.894850 0.595343
vt 0.297416 0.509659
vt 0.105152 0.625747
vt 0.258079 0.392170
vt 0.215271 0.773211
vt 0.727731 0.019171
vt 0.744930 0.069312
vt 0.706957 0.087678
vt 0.767878 0.509968
vt 0.587322 0.646190
vt 0.509348 0.631930
vt 0.810590 0.179820
vt 0.810084 0.195035
vt 0.737925 0.199466
vt 0.498972 0.564481
vt 0.657307 0.505014
vt 0.049378 0.601943
vt 0.570435 0.148387
vt 0.959553 0.372205
vt 0.728804 0.221745
vt 0.606593 0.449654
vt 0.597067 0.409044
vt 0.867833 0.377859
vt 0.872973 0.125893
vt 0.857381 0.085014
vt 0.942776 0.482436
vt 0.339705 0.725224
vt 0.905450 0.472581
vt 0.372242 0.219617
vt 0.379679 0.261551
vt 0.351717 0.229805
vt 0.299071 0.247506
vt 0.569108 0.517592
vt 0.038268 0.213204
vt 0.215411 0.002094
vt 0.298086 0.060790
vt 0.037381 0.069260
vt 0.169071 0.153161
vt 0.634472 0.052485
vt 0.679940 0.025898
vt 0.632452 0.057456
vt 0.831229 0.355851
vt 0.337846 0.408053
vt 0.511773 0.344820
vt 0.511013 0.349416
vt 0.887939 0.059212
vt 0.958367 0.015760
vt 0.886700 0.337406
vt 0.899345 0.345129
vt 0.828655 0.036881
vt 0.791368 0.078035
vt 0.892483 0.223323
vt 0.969490 0.132652
vt 0.962583 0.162008
vt 0.637665 0.851343
vt 0.613091 0.831265
vt 0.651900 0.816292
vt 0.716978 0.337714
vt 0.721648 0.299354
vt 0.726586 0.742624
vt 0.815377 0.731087
vt 0.848820 0.666863
vt 0.111202 0.937952
vt 0.208889 0.862852
vt 0.973580 0.794501
vt 0.992666 0.825467
vt 0.910455 0.844257
vt 0.502960 0.123248
vt 0.423004 0.190810
vt 0.356720 0.150603
vt 0.991388 0.745700
vt 0.986957 0.766262
vt 0.957467 0.721257
vt 0.899006 0.685117
vt 0.883737 0.745474
vt 0.755904 0.805012
vt 0.330438 0.538167
vt 0.463204 0.559716
vt 0.917119 0.789751
vt 0.767498 0.833583
vt 0.567327 0.976164
vt 0.990843 0.614073
vt 0.504977 0.525783
vt 0.256964 0.860651
vt 0.922687 0.685411
vt 0.012610 0.674298
vt 0.064570 0.683170
vt 0.891466 0.648093
vt 0.884124 0.681374
vt 0.007954 0.306635
vt 0.020383 0.275859
vt 0.066895 0.382786
vt 0.737347 0.840247
vt 0.822779 0.565037
vt 0.882859 0.563862
vt 0.701337 0.840609
vt 0.660166 0.887490
vt 0.671130 0.859291
vt 0.560843 0.101835
vt 0.589778 0.100441
vt 0.560658 0.134852
vt 0.558123 0.066929
vt 0.579261 0.015453
vt 0.506223 0.053236
vt 0.538376 0.015447
vt 0.756090 0.441092
vt 0.865726 0.426730
vt 0.712693 0.197103
vt 0.804970 0.016661
vt 0.779340 0.005747
vt 0.472823 0.272308
vt 0.560839 0.210723
vt 0.180731 0.814239
vt 0.718787 0.467478
vt 0.043236 0.457119
vt 0.104553 0.433044
vt 0.502892 0.086491
vt 0.017424 0.098557
vt 0.119999 0.101701
vt 0.034034 0.105732
vt 0.095078 0.086528
vt 0.881882 0.459268
vt 0.805575 0.538907
s 1
f 10/1/1 17/2/2 18/3/3
f 28/4/4 16/5/5 6/6/6
f 10/7/1 18/8/3 28/9/4
f 20/10/7 8/11/8 21/12/9
f 35/13/10 32/14/11 2/15/12
f 2/15/12 5/16/13 13/17/14
f 26/18/15 1/19/16 7/20/17
f 10/21/1 6/22/6 27/23/18
f 17/2/2 31/24/19 11/25/20
f 32/26/11 33/27/21 23/28/22
f 18/29/3 16/5/5 28/4/4
f 9/30/23 38/31/24 52/32/25
f 48/33/26 46/34/27 45/35/28
f 51/36/29 15/37/30 4/38/31
f 19/39/32 51/40/29 37/41/33
f 56/42/34 37/43/33 47/44/35
f 46/34/27 47/44/35 45/35/28
f 2/45/12 51/36/29 14/46/36
f 24/47/37 26/48/15 12/49/38
f 45/35/28 37/43/33 58/50/39
f 57/51/40 58/52/39 21/53/9
f 50/54/41 40/55/42 44/56/43
f 21/12/9 33/27/21 35/57/10
f 11/58/20 9/59/23 52/60/25
f 29/61/44 7/62/17 25/63/45
f 4/64/31 15/65/30 5/66/13
f 13/67/14 16/68/5 25/63/45
f 10/21/1 40/55/42 17/69/2
f 29/70/44 11/58/20 52/60/25
f 26/18/15 7/20/17 12/71/38
f 15/65/30 19/72/32 5/66/13
f 7/73/17 22/74/46 35/75/10
f 14/76/36 4/64/31 2/77/12
f 24/78/37 7/20/17 1/19/16
f 25/63/45 7/62/17 35/79/10
f 2/15/12 13/17/14 35/13/10
f 22/80/46 7/20/17 24/78/37
f 19/81/32 37/82/33 5/83/13
f 5/83/13 37/82/33 13/84/14
f 13/67/14 30/85/47 16/68/5
f 6/22/6 10/21/1 28/86/4
f 29/87/44 52/88/25 12/89/38
f 30/90/47 6/6/6 16/5/5
f 16/68/5 29/61/44 25/63/45
f 27/91/18 6/92/6 30/93/47
f 44/56/43 10/21/1 27/23/18
f 22/74/46 3/94/48 35/75/10
f 37/82/33 56/95/34 27/23/18
f 37/82/33 27/23/18 13/84/14
f 30/96/47 13/17/14 27/97/18
f 55/98/49 32/14/11 23/99/22
f 35/75/10 57/100/40 20/101/7
f 35/13/10 33/102/21 32/103/11
f 48/104/26 38/105/24 39/106/50
f 50/107/41 49/108/51 54/109/52
f 24/110/37 12/111/38 48/104/26
f 54/109/52 39/112/50 40/113/42
f 39/112/50 38/114/24 40/113/42
f 52/32/25 38/31/24 48/104/26
f 39/115/50 54/116/52 48/33/26
f 24/117/37 48/118/26 45/119/28
f 58/120/39 37/82/33 51/121/29
f 51/36/29 4/38/31 14/46/36
f 51/36/29 19/122/32 15/37/30
f 53/123/53 54/124/52 49/125/51
f 56/126/34 42/127/54 43/128/55
f 49/129/51 50/54/41 41/130/56
f 22/131/46 45/119/28 3/132/48
f 26/48/15 24/47/37 1/133/16
f 45/119/28 22/131/46 24/117/37
f 57/51/40 21/53/9 8/134/8
f 43/135/55 50/54/41 56/95/34
f 41/130/56 50/54/41 43/135/55
f 53/136/53 46/34/27 48/33/26
f 56/126/34 47/137/35 42/127/54
f 17/69/2 40/55/42 31/138/19
f 40/55/42 38/139/24 31/138/19
f 38/114/24 9/140/23 31/141/19
f 41/142/56 43/143/55 42/144/54
f 45/119/28 34/145/57 3/132/48
f 36/146/58 33/147/21 21/53/9
f 50/54/41 44/56/43 56/95/34
f 3/148/48 58/149/39 57/150/40
f 58/149/39 3/148/48 34/145/57
f 36/151/58 32/152/11 55/153/49
f 32/152/11 36/151/58 58/154/39
f 58/155/39 2/156/12 32/157/11
f 34/145/57 45/119/28 58/149/39
f 44/56/43 27/23/18 56/95/34
f 17/2/2 11/25/20 18/3/3
f 18/158/3 11/159/20 29/61/44
f 44/56/43 40/55/42 10/21/1
f 25/63/45 35/79/10 13/67/14
f 2/15/12 4/160/31 5/16/13
f 9/161/23 11/58/20 31/162/19
f 7/163/17 29/70/44 12/164/38
f 21/12/9 35/57/10 20/165/7
f 35/75/10 3/94/48 57/100/40
f 29/61/44 16/68/5 18/166/3
f 40/113/42 50/107/41 54/109/52
f 49/167/51 41/142/56 42/144/54
f 45/35/28 47/44/35 37/43/33
f 48/33/26 54/116/52 53/136/53
f 42/144/54 47/168/35 49/167/51
f 51/121/29 2/169/12 58/120/39
f 57/170/40 8/171/8 20/172/7
f 48/173/26 12/89/38 52/88/25
f 49/125/51 47/137/35 53/123/53
f 53/136/53 47/44/35 46/34/27
f 23/174/22 33/147/21 36/146/58
f 21/53/9 58/52/39 36/146/58
f 55/175/49 23/174/22 36/146/58
